<svg width="43" height="44" viewBox="0 0 43 44" fill="none" xmlns="http://www.w3.org/2000/svg">
<path d="M35.9603 17.6097C35.9603 18.3876 35.9004 19.1569 35.7722 19.9007C35.6953 20.3794 35.5585 20.8495 35.4046 21.3112L35.3875 21.371C34.8917 22.8328 34.0967 24.1749 33.0367 25.2948L23.6589 35.3052C22.8382 36.6302 20.9148 36.6302 20.0941 35.3052L10.7163 25.2948C9.66487 24.1749 8.8613 22.8328 8.37403 21.3796L8.34839 21.3026C8.19451 20.841 8.05774 20.3708 7.97225 19.8921C7.85257 19.1484 7.78418 18.3961 7.78418 17.6182C7.78418 14.8143 8.60485 12.1984 10.0325 10.0014C12.5286 6.11181 16.897 3.53015 21.8722 3.53015C26.8475 3.53015 31.2158 6.11181 33.712 10.0014C35.1311 12.1984 35.9517 14.8143 35.9517 17.6182L35.9603 17.6097Z" fill="#F6AC43" stroke="#A07230"/>
<path d="M22.5918 15.6092L24.4749 8.98134C24.5247 8.80703 24.2932 8.6847 24.1772 8.82405L17.4667 16.8609L21.6016 19.0453L19.7185 25.6732C19.6688 25.8475 19.9003 25.9699 20.0162 25.8305L26.7267 17.7937L22.5918 15.6092Z" fill="white"/>
</svg>
