<svg width="58" height="43" viewBox="0 0 58 43" fill="none" xmlns="http://www.w3.org/2000/svg">
<path d="M29.208 29.5576C37.0228 29.5576 44.0822 30.2943 49.1738 31.4785C51.7236 32.0714 53.7526 32.7709 55.1318 33.5292C55.8215 33.9085 56.3251 34.2903 56.6514 34.6611C56.9748 35.0286 57.1034 35.3607 57.1035 35.6611C57.1035 35.9616 56.9749 36.2944 56.6514 36.662C56.3251 37.0328 55.8214 37.4147 55.1318 37.7939C53.7527 38.5522 51.7236 39.2507 49.1738 39.8437C44.0822 41.0278 37.0228 41.7655 29.208 41.7656C21.3932 41.7656 14.3339 41.0278 9.24219 39.8437C6.69249 39.2507 4.66338 38.5522 3.28418 37.7939C2.59438 37.4146 2.09 37.0329 1.76367 36.662C1.44015 36.2944 1.31152 35.9616 1.31152 35.6611C1.3116 35.3607 1.44041 35.0285 1.76367 34.6611C2.09 34.2902 2.59438 33.9085 3.28418 33.5292C4.66338 32.7709 6.69237 32.0714 9.24219 31.4785C14.3339 30.2944 21.3933 29.5576 29.208 29.5576Z" fill="#B31712" fill-opacity="0.5" stroke="#B31712"/>
<path d="M43.9603 16.7218C43.9603 17.4997 43.9004 18.2691 43.7722 19.0128C43.6953 19.4915 43.5585 19.9617 43.4046 20.4233L43.3875 20.4832C42.8917 21.945 42.0967 23.2871 41.0367 24.407L31.6589 34.4174C30.8382 35.7424 28.9148 35.7424 28.0941 34.4174L18.7163 24.407C17.6649 23.2871 16.8613 21.945 16.374 20.4917L16.3484 20.4148C16.1945 19.9532 16.0577 19.483 15.9722 19.0043C15.8526 18.2606 15.7842 17.5083 15.7842 16.7304C15.7842 13.9264 16.6048 11.3106 18.0325 9.11358C20.5286 5.22398 24.897 2.64232 29.8722 2.64232C34.8475 2.64232 39.2158 5.22398 41.712 9.11358C43.1311 11.3106 43.9517 13.9264 43.9517 16.7304L43.9603 16.7218Z" fill="#FD303E" stroke="#B11312"/>
<path d="M30.1475 15.8458L32.0306 9.21786C32.0804 9.04356 31.8488 8.92123 31.7329 9.06058L25.0224 17.0974L29.1573 19.2818L27.2742 25.9098C27.2244 26.0841 27.456 26.2064 27.5719 26.067L34.2824 18.0302L30.1475 15.8458Z" fill="white"/>
</svg>
