<svg width="43" height="43" viewBox="0 0 43 43" fill="none" xmlns="http://www.w3.org/2000/svg">
<path d="M35.638 16.7227C35.638 17.5007 35.5782 18.27 35.4499 19.0138C35.373 19.4925 35.2362 19.9626 35.0824 20.4243L35.0652 20.4841C34.5694 21.9459 33.7744 23.288 32.7144 24.4079L23.3366 34.4183C22.516 35.7433 20.5925 35.7433 19.7719 34.4183L10.3941 24.4079C9.34261 23.288 8.53904 21.9459 8.05177 20.4927L8.02612 20.4157C7.87225 19.9541 7.73547 19.4839 7.64998 19.0052C7.5303 18.2615 7.46191 17.5092 7.46191 16.7313C7.46191 13.9274 8.28258 11.3115 9.71019 9.11451C12.2064 5.22491 16.5747 2.64325 21.55 2.64325C26.5252 2.64325 30.8936 5.22491 33.3897 9.11451C34.8088 11.3115 35.6295 13.9274 35.6295 16.7313L35.638 16.7227Z" fill="#00AF9E" stroke="#00695F"/>
<path d="M22.2696 14.7223L24.1527 8.09443C24.2024 7.92013 23.9709 7.7978 23.855 7.93715L17.1445 15.974L21.2794 18.1584L19.3963 24.7863C19.3465 24.9606 19.578 25.083 19.694 24.9436L26.4045 16.9068L22.2696 14.7223Z" fill="white"/>
</svg>
