<svg width="58" height="45" viewBox="0 0 58 45" fill="none" xmlns="http://www.w3.org/2000/svg">
<path d="M29.1875 31.8781C37.0023 31.8781 44.0616 32.6149 49.1533 33.799C51.7031 34.392 53.7321 35.0915 55.1113 35.8498C55.801 36.229 56.3046 36.6108 56.6309 36.9816C56.9543 37.3492 57.0829 37.6812 57.083 37.9816C57.083 38.2821 56.9544 38.6149 56.6309 38.9826C56.3045 39.3534 55.8009 39.7353 55.1113 40.1145C53.7322 40.8728 51.7031 41.5713 49.1533 42.1643C44.0616 43.3484 37.0023 44.0861 29.1875 44.0861C21.3727 44.0861 14.3134 43.3483 9.22168 42.1643C6.67199 41.5713 4.64287 40.8727 3.26367 40.1145C2.57387 39.7352 2.06949 39.3535 1.74316 38.9826C1.41964 38.6149 1.29102 38.2821 1.29102 37.9816C1.29109 37.6813 1.4199 37.3491 1.74316 36.9816C2.06949 36.6108 2.57387 36.2291 3.26367 35.8498C4.64288 35.0915 6.67187 34.392 9.22168 33.799C14.3134 32.615 21.3728 31.8781 29.1875 31.8781Z" fill="#5A5A5A" fill-opacity="0.5" stroke="#5A5A5A"/>
<path d="M42.6185 19.0407C42.6185 19.8186 42.5586 20.588 42.4304 21.3317C42.3535 21.8104 42.2167 22.2806 42.0628 22.7422L42.0457 22.8021C41.5499 24.2639 40.7549 25.606 39.6949 26.7259L30.3171 36.7362C29.4964 38.0613 27.573 38.0613 26.7523 36.7362L17.3746 26.7259C16.3231 25.606 15.5195 24.2639 15.0322 22.8106L15.0066 22.7337C14.8527 22.272 14.7159 21.8019 14.6305 21.3232C14.5108 20.5794 14.4424 19.8272 14.4424 19.0492C14.4424 16.2453 15.2631 13.6294 16.6907 11.4325C19.1868 7.54286 23.5552 4.9612 28.5304 4.9612C33.5057 4.9612 37.874 7.54286 40.3702 11.4325C41.7893 13.6294 42.6099 16.2453 42.6099 19.0492L42.6185 19.0407Z" fill="#A1A1A1" stroke="#5A5A5A"/>
<path d="M28.8057 18.1668L30.6888 11.5388C30.7386 11.3645 30.507 11.2422 30.3911 11.3816L23.6806 19.4184L27.8155 21.6028L25.9324 28.2307C25.8826 28.405 26.1142 28.5274 26.2301 28.388L32.9406 20.3512L28.8057 18.1668Z" fill="white"/>
<circle cx="39.0925" cy="8.92453" r="7.92453" fill="#0A0A0A"/>
<rect x="30.291" y="0.5" width="17" height="17" rx="8.5" fill="#0A0A0A" stroke="#ED454F"/>
<path d="M43.5022 6.40736L43.181 7.26674H35.5449L35.8607 6.40736H43.5022ZM40.4129 14L35.6425 9.49315L35.6298 8.86365H37.7183C38.3493 8.86365 38.8874 8.79007 39.3327 8.64343C39.7781 8.49412 40.1179 8.27283 40.3522 7.97957C40.5913 7.68684 40.7108 7.32376 40.7108 6.89084C40.7108 6.25275 40.4618 5.75162 39.9637 5.38686C39.4703 5.01893 38.7619 4.83525 37.8398 4.83525H35.545L35.8608 4.00004H37.8397C38.7297 4.00004 39.4742 4.12358 40.073 4.37118C40.6759 4.61826 41.1293 4.9604 41.4324 5.39652C41.7402 5.82943 41.8937 6.32733 41.8937 6.89074C41.8937 7.41818 41.7462 7.893 41.4511 8.31621C41.1593 8.73623 40.708 9.06978 40.097 9.31738C39.4901 9.56176 38.7156 9.68369 37.7728 9.68369H37.3355L41.8268 13.9268V13.9999L40.4129 14ZM43.5449 4L43.2291 4.85938L36.7954 4.83521L37.0865 4L43.5449 4Z" fill="white"/>
<rect x="34.2285" y="2" width="16.679" height="0.96623" transform="rotate(45 34.2285 2)" fill="#ED454F"/>
</svg>
