<svg width="43" height="44" viewBox="0 0 43 44" fill="none" xmlns="http://www.w3.org/2000/svg">
<path d="M35.8275 17.6097C35.8275 18.3876 35.7676 19.157 35.6394 19.9007C35.5625 20.3794 35.4257 20.8496 35.2718 21.3112L35.2547 21.3711C34.7589 22.8329 33.9639 24.175 32.9038 25.2949L23.5261 35.3053C22.7054 36.6303 20.782 36.6303 19.9613 35.3053L10.5835 25.2949C9.53206 24.175 8.72849 22.8329 8.24122 21.3796L8.21558 21.3027C8.0617 20.8411 7.92492 20.3709 7.83944 19.8922C7.71976 19.1485 7.65137 18.3962 7.65137 17.6183C7.65137 14.8143 8.47203 12.1985 9.89965 10.0015C12.3958 6.11187 16.7642 3.53021 21.7394 3.53021C26.7147 3.53021 31.083 6.11187 33.5792 10.0015C34.9983 12.1985 35.8189 14.8143 35.8189 17.6183L35.8275 17.6097Z" fill="#F6AC43" stroke="#A07230"/>
<path d="M19.5078 16.732L21.3909 10.1041C21.4407 9.9298 21.2092 9.80747 21.0932 9.94683L14.3828 17.9836L18.5176 20.1681L16.6345 26.796C16.5848 26.9703 16.8163 27.0926 16.9323 26.9533L23.6427 18.9165L19.5078 16.732Z" fill="white"/>
<path d="M26.1114 15.4113L27.9945 8.78334C28.0442 8.60903 27.8127 8.4867 27.6968 8.62606L20.9863 16.6629L25.1212 18.8473L23.2381 25.4752C23.1883 25.6495 23.4198 25.7719 23.5358 25.6325L30.2463 17.5957L26.1114 15.4113Z" fill="white"/>
</svg>
