<svg width="57" height="44" viewBox="0 0 57 44" fill="none" xmlns="http://www.w3.org/2000/svg">
<path d="M28.3965 31.2744C36.2113 31.2744 43.2706 32.0111 48.3623 33.1953C50.9121 33.7882 52.9411 34.4877 54.3203 35.246C55.01 35.6252 55.5136 36.0071 55.8398 36.3779C56.1633 36.7454 56.2919 37.0775 56.292 37.3779C56.292 37.6784 56.1634 38.0112 55.8398 38.3788C55.5135 38.7496 55.0099 39.1315 54.3203 39.5107C52.9411 40.269 50.9121 40.9675 48.3623 41.5605C43.2706 42.7446 36.2113 43.4823 28.3965 43.4824C20.5817 43.4824 13.5224 42.7446 8.43066 41.5605C5.88097 40.9675 3.85186 40.269 2.47266 39.5107C1.78286 39.1314 1.27847 38.7497 0.952148 38.3788C0.628627 38.0112 0.5 37.6784 0.5 37.3779C0.500074 37.0775 0.628886 36.7453 0.952148 36.3779C1.27847 36.007 1.78285 35.6253 2.47266 35.246C3.85186 34.4877 5.88085 33.7882 8.43066 33.1953C13.5224 32.0112 20.5818 31.2744 28.3965 31.2744Z" fill="#10CF6F" fill-opacity="0.5" stroke="#10CF6F"/>
<path d="M41.8275 17.1187C41.8275 17.8967 41.7676 18.666 41.6394 19.4098C41.5625 19.8885 41.4257 20.3586 41.2718 20.8203L41.2547 20.8801C40.7589 22.3419 39.9639 23.684 38.9038 24.8039L29.5261 34.8143C28.7054 36.1393 26.782 36.1393 25.9613 34.8143L16.5835 24.8039C15.5321 23.684 14.7285 22.3419 14.2412 20.8887L14.2156 20.8117C14.0617 20.3501 13.9249 19.8799 13.8394 19.4012C13.7198 18.6575 13.6514 17.9052 13.6514 17.1273C13.6514 14.3234 14.472 11.7075 15.8996 9.51051C18.3958 5.62091 22.7642 3.03925 27.7394 3.03925C32.7147 3.03925 37.083 5.62091 39.5792 9.51051C40.9983 11.7075 41.8189 14.3234 41.8189 17.1273L41.8275 17.1187Z" fill="#00AF9E" stroke="#00695F"/>
<path d="M25.5078 17.5628L27.3909 10.9349C27.4407 10.7606 27.2092 10.6383 27.0932 10.7776L20.3828 18.8144L24.5176 20.9989L22.6345 27.6268C22.5848 27.8011 22.8163 27.9234 22.9323 27.7841L29.6427 19.7473L25.5078 17.5628Z" fill="white"/>
<path d="M32.1114 16.242L33.9945 9.61412C34.0442 9.43981 33.8127 9.31748 33.6968 9.45684L26.9863 17.4936L31.1212 19.6781L29.2381 26.306C29.1883 26.4803 29.4198 26.6026 29.5358 26.4633L36.2463 18.4265L32.1114 16.242Z" fill="white"/>
</svg>
