<svg width="57" height="40" viewBox="0 0 57 40" fill="none" xmlns="http://www.w3.org/2000/svg">
<path d="M28.3945 26.5C36.2091 26.5 43.2688 27.2368 48.3604 28.4209C50.9099 29.0139 52.9383 29.7134 54.3174 30.4717C55.0072 30.851 55.5116 31.2327 55.8379 31.6035C56.1611 31.971 56.29 32.3032 56.29 32.6035C56.29 32.904 56.1614 33.2368 55.8379 33.6045C55.5116 33.9754 55.0072 34.3571 54.3174 34.7363C52.9383 35.4946 50.9097 36.1932 48.3604 36.7861C43.2688 37.9703 36.2091 38.708 28.3945 38.708C20.5801 38.708 13.5211 37.9702 8.42969 36.7861C5.88029 36.1932 3.85174 35.4946 2.47266 34.7363C1.78289 34.3571 1.27846 33.9754 0.952148 33.6045C0.628642 33.2368 0.5 32.904 0.5 32.6035C0.500074 32.3032 0.628899 31.971 0.952148 31.6035C1.27846 31.2327 1.78289 30.851 2.47266 30.4717C3.85176 29.7134 5.88012 29.0139 8.42969 28.4209C13.5211 27.2368 20.5801 26.5 28.3945 26.5Z" fill="#FD303E" fill-opacity="0.3" stroke="#63040B"/>
<path d="M42.18 15.08C42.18 15.858 42.1202 16.6274 41.9919 17.3711C41.915 17.8498 41.7782 18.32 41.6243 18.7817L41.6072 18.8415C41.1113 20.3034 40.3161 21.6455 39.256 22.7654L29.8769 32.7762C29.0561 34.1013 27.1324 34.1013 26.3117 32.7762L16.9326 22.7654C15.881 21.6455 15.0773 20.3034 14.5899 18.8501L14.5643 18.7731C14.4104 18.3115 14.2736 17.8413 14.1881 17.3626C14.0684 16.6188 14 15.8665 14 15.0886C14 12.2845 14.8208 9.66856 16.2486 7.4715C18.7451 3.58176 23.114 1 28.09 1C33.066 1 37.4349 3.58176 39.9314 7.4715C41.3507 9.66856 42.1714 12.2845 42.1714 15.0886L42.18 15.08Z" fill="#1E1E1E" stroke="#63040B"/>
<path d="M39.0003 15C39.0003 21.0751 34.0755 26 28.0003 26C21.9252 26 17.917 19.5833 17.917 15C17.917 8.92487 22.5003 4.91667 28.0003 4C34.0755 4 39.0003 8.92487 39.0003 15Z" fill="#1E1E1E"/>
<path d="M38.6866 12.2296C38.6755 12.1835 38.6616 12.1388 38.6498 12.0927C37.174 6.30176 31.4092 2.84198 25.7025 4.3553C20.3747 5.7686 16.9706 11.0194 17.6263 16.4549C17.2548 16.6557 17 17.0604 17 17.5289C17 18.1537 17.4523 18.6668 18.0316 18.7307C19.8203 24.0277 25.3302 27.0897 30.791 25.641C36.5711 24.1077 40.1059 18.1036 38.6866 12.2296ZM30.6992 24.7839C25.6864 26.1134 20.6207 23.3106 18.9017 18.4468C19.1485 18.2252 19.3056 17.8967 19.3056 17.5297C19.3056 16.8627 18.7894 16.3218 18.1528 16.3218C18.0904 16.3218 18.0294 16.3287 17.9692 16.3387C17.3502 11.2433 20.6089 6.29715 25.6886 4.95001C31.1603 3.49901 36.6725 6.77415 37.9993 12.2666C39.3261 17.759 36.0579 23.3629 30.6999 24.7847L30.6992 24.7839Z" fill="#FD303E"/>
<path d="M28.2762 14.9192C28.2762 13.1197 27.235 11.6941 25.3163 11.6941C23.3977 11.6941 22.2383 13.082 22.2383 15.2739C22.2383 17.4658 23.3801 18.7383 25.4081 18.7383C26.8693 18.7383 27.8194 18.0782 28.1667 16.8911L26.6409 16.5272C26.4493 17.0149 26.0748 17.3504 25.3898 17.3504C24.4271 17.3504 23.9741 16.6303 23.9242 15.6847H27.6557C28.0757 15.6847 28.2769 15.4739 28.2769 14.9192H28.2762ZM25.3163 13.0528C26.0631 13.0528 26.5286 13.5982 26.5727 14.5076H23.9278C24.0013 13.6144 24.5439 13.0528 25.3163 13.0528Z" fill="#FD303E"/>
<path d="M33.4007 11.8848L31.8478 16.8332L30.3315 11.8848H28.5957L30.7603 17.7903C30.9799 18.3743 31.2354 18.6228 31.756 18.6228H31.9476C32.4594 18.6228 32.7149 18.3835 32.9345 17.7996L35.1175 11.8848H33.4H33.4007Z" fill="#FD303E"/>
</svg>
