<svg width="36" height="41" viewBox="0 0 36 41" fill="none" xmlns="http://www.w3.org/2000/svg">
<g clip-path="url(#clip0_373_42)">
<path d="M18 0.5C27.7542 0.5 35.5 7.07336 35.5 15C35.5 17.2638 34.4311 19.9938 32.7559 22.8604C31.0889 25.7127 28.8594 28.6378 26.6191 31.2764C24.3806 33.9129 22.1401 36.2524 20.459 37.9336C19.6188 38.7738 18.9191 39.4495 18.4297 39.9141C18.2607 40.0745 18.1159 40.2091 18 40.3174C17.8841 40.2091 17.7393 40.0745 17.5703 39.9141C17.0809 39.4495 16.3812 38.7738 15.541 37.9336C13.8599 36.2524 11.6194 33.9129 9.38086 31.2764C7.14061 28.6378 4.91111 25.7127 3.24414 22.8604C1.56891 19.9938 0.500001 17.2638 0.5 15C0.5 7.07336 8.24579 0.5 18 0.5Z" fill="#0F0F0F" stroke="white"/>
<path d="M17.9993 24.6591C17.1811 24.6591 16.4538 24.5189 15.8175 24.2386C15.1849 23.9583 14.6849 23.5682 14.3175 23.0682C13.95 22.5682 13.755 21.9905 13.7322 21.3352H15.8686C15.8875 21.6496 15.9917 21.9242 16.1811 22.1591C16.3705 22.3902 16.6224 22.5701 16.9368 22.6989C17.2512 22.8277 17.6035 22.892 17.9936 22.892C18.4103 22.892 18.7796 22.8201 19.1016 22.6761C19.4235 22.5284 19.6754 22.3239 19.8572 22.0625C20.0391 21.8011 20.1281 21.5 20.1243 21.1591C20.1281 20.8068 20.0372 20.4962 19.8516 20.2273C19.666 19.9583 19.397 19.7481 19.0447 19.5966C18.6963 19.4451 18.2758 19.3693 17.7834 19.3693H16.755V17.7443H17.7834C18.1887 17.7443 18.5429 17.6742 18.8459 17.5341C19.1527 17.3939 19.3932 17.197 19.5675 16.9432C19.7417 16.6856 19.8269 16.3883 19.8232 16.0511C19.8269 15.7216 19.7531 15.4356 19.6016 15.1932C19.4538 14.947 19.2436 14.7557 18.9709 14.6193C18.7019 14.483 18.3857 14.4148 18.022 14.4148C17.666 14.4148 17.3364 14.4792 17.0334 14.608C16.7304 14.7367 16.486 14.9205 16.3004 15.1591C16.1148 15.3939 16.0163 15.6742 16.005 16H13.9766C13.9917 15.3485 14.1792 14.7765 14.5391 14.2841C14.9027 13.7879 15.3875 13.4015 15.9936 13.125C16.5997 12.8447 17.2796 12.7045 18.0334 12.7045C18.8099 12.7045 19.4841 12.8504 20.0561 13.142C20.6319 13.4299 21.0769 13.8182 21.3913 14.3068C21.7057 14.7955 21.8629 15.3352 21.8629 15.9261C21.8667 16.5814 21.6735 17.1307 21.2834 17.5739C20.897 18.017 20.3894 18.3068 19.7607 18.4432V18.5341C20.5788 18.6477 21.2057 18.9508 21.6413 19.4432C22.0807 19.9318 22.2985 20.5398 22.2947 21.267C22.2947 21.9186 22.1091 22.5019 21.7379 23.017C21.3705 23.5284 20.8629 23.9299 20.2152 24.2216C19.5713 24.5133 18.8326 24.6591 17.9993 24.6591Z" fill="white"/>
</g>
<defs>
<clipPath id="clip0_373_42">
<rect width="36" height="41" fill="white"/>
</clipPath>
</defs>
</svg>
