<svg width="355" height="180" viewBox="0 0 355 180" fill="none" xmlns="http://www.w3.org/2000/svg">
<path d="M177.5 179.542C275.531 179.542 355 171.475 355 161.524C355 151.573 275.531 143.506 177.5 143.506C79.4695 143.506 0 151.573 0 161.524C0 171.475 79.4695 179.542 177.5 179.542Z" fill="url(#paint0_radial_7386_37150)"/>
<path d="M185.095 172.544C252.121 172.544 306.456 168.21 306.456 162.865C306.456 157.519 252.121 153.186 185.095 153.186C118.069 153.186 63.7339 157.519 63.7339 162.865C63.7339 168.21 118.069 172.544 185.095 172.544Z" fill="url(#paint1_radial_7386_37150)"/>
<path d="M250.242 168.672C288.936 168.672 320.304 166.605 320.304 164.056C320.304 161.506 288.936 159.439 250.242 159.439C211.548 159.439 180.18 161.506 180.18 164.056C180.18 166.605 211.548 168.672 250.242 168.672Z" fill="#161924"/>
<g filter="url(#filter0_i_7386_37150)">
<path d="M214.997 6.35954L267.428 0.310547V161.791H214.997V6.35954Z" fill="#211F21"/>
</g>
<g filter="url(#filter1_i_7386_37150)">
<path d="M267.428 0L286.352 9.30701V161.635H267.428V0Z" fill="#524F52"/>
</g>
<g filter="url(#filter2_i_7386_37150)">
<path d="M220.892 43.5895L260.448 40.0215L261.844 150.777L220.892 148.141V43.5895Z" fill="#0C090C"/>
</g>
<g filter="url(#filter3_i_7386_37150)">
<path d="M241.213 104.551C248.666 104.551 254.709 98.7864 254.709 91.6758C254.709 84.5651 248.666 78.8008 241.213 78.8008C233.76 78.8008 227.718 84.5651 227.718 91.6758C227.718 98.7864 233.76 104.551 241.213 104.551Z" fill="#082B1E"/>
</g>
<g filter="url(#filter4_i_7386_37150)">
<path d="M241.213 101.759C247.295 101.759 252.226 97.0359 252.226 91.2103C252.226 85.3847 247.295 80.6621 241.213 80.6621C235.13 80.6621 230.199 85.3847 230.199 91.2103C230.199 97.0359 235.13 101.759 241.213 101.759Z" fill="#12C396"/>
</g>
<g filter="url(#filter5_i_7386_37150)">
<path d="M241.368 98.0365C244.966 98.0365 247.883 95.2586 247.883 91.8317C247.883 88.4049 244.966 85.627 241.368 85.627C237.77 85.627 234.853 88.4049 234.853 91.8317C234.853 95.2586 237.77 98.0365 241.368 98.0365Z" fill="#061303"/>
</g>
<g filter="url(#filter6_i_7386_37150)">
<path d="M52.7917 74.1112C52.0437 71.8992 53.9153 69.6852 56.221 70.0542L78.0621 73.5512C79.1091 73.7192 79.998 74.4092 80.419 75.3822L88.2977 93.5932C89.2394 95.7702 87.4897 98.1552 85.1306 97.9112L61.9385 95.5082C60.7314 95.3832 59.7081 94.5652 59.3193 93.4162L52.7917 74.1112Z" fill="#222222"/>
</g>
<g filter="url(#filter7_i_7386_37150)">
<path d="M63.427 81.7775C62.6919 79.5685 64.5604 77.3675 66.859 77.7335L73.2475 78.7525C74.3009 78.9205 75.1942 79.6175 75.6127 80.5985L77.7441 85.5945C78.6712 87.7685 76.9253 90.1395 74.5746 89.8985L67.8268 89.2085C66.6128 89.0835 65.5844 88.2595 65.199 87.1015L63.427 81.7775Z" fill="black"/>
</g>
<g filter="url(#filter8_i_7386_37150)">
<path d="M65.3123 83.3639C64.5679 81.1529 66.4387 78.9419 68.7425 79.3099L72.3527 79.8879C73.4015 80.0549 74.2916 80.7479 74.7119 81.7229L75.8005 84.2489C76.7382 86.4249 74.9895 88.8059 72.6328 88.5629L68.8471 88.1719C67.6381 88.0469 66.6133 87.2279 66.2255 86.0759L65.3123 83.3639Z" fill="black"/>
</g>
<path d="M215.152 33.0416L266.962 27.7676L286.197 34.2826" stroke="black" stroke-width="1.86144"/>
<path d="M107.966 85.4392C105.484 84.9428 106.053 86.2665 105.949 87.4557C114.171 94.9015 119.6 106.691 122.392 113.361C124.755 119.005 134.646 136.854 144.884 146.316C153.075 153.886 164.016 151.417 168.773 149.659C170.486 148.209 174.375 147.298 177.77 144.695C182.366 141.171 186.704 135.718 189.559 132.596C195.901 125.659 221.824 97.0214 223.84 95.4702C225.857 93.919 237.026 96.7112 240.128 94.8498C242.61 93.3606 241.162 90.8166 240.128 89.7308C238.06 89.5757 232.713 89.3585 227.873 89.7308C221.824 90.1962 220.117 91.5922 217.791 93.1434C215.929 94.3844 207.811 106.657 203.985 110.639C197.729 117.361 183.199 133.278 175.133 140.972C165.05 150.59 149.693 144.85 144.884 140.972C138.99 136.218 127.976 118.169 125.649 112.43C123.134 106.225 111.068 86.0596 107.966 85.4392Z" fill="#27EED7"/>
<g filter="url(#filter9_i_7386_37150)">
<path d="M104.709 80.9605C101.731 80.7124 100.055 82.822 99.5898 83.9078C101.193 83.5459 104.802 84.0319 106.415 88.8717C106.167 87.3825 108.69 86.8034 109.983 86.7C109.466 84.8902 107.687 81.2087 104.709 80.9605Z" fill="#1A1A1A"/>
</g>
<g filter="url(#filter10_i_7386_37150)">
<path d="M84.8056 71.0901C77.4839 70.3455 69.0351 74.3993 65.7258 76.5193C62.9957 83.965 68.6214 89.2391 71.7755 90.9454C73.5335 90.7386 77.0186 90.1388 76.8945 89.3942C76.7704 88.6497 77.3598 87.5328 77.6701 87.0674C81.5481 86.7055 89.6143 85.3921 90.8553 83.0343C92.0962 80.6765 94.4747 80.8109 95.5089 81.1729L99.2317 83.965C98.8595 82.6 102.8 81.0178 104.816 80.3973C98.6113 72.6413 93.9577 72.0208 84.8056 71.0901Z" fill="#585858"/>
</g>
<g filter="url(#filter11_i_7386_37150)">
<path d="M71.945 91.3331C64.6233 87.3621 64.9646 80.1645 66.0504 77.0621L68.3773 75.666C67.1364 85.7488 74.7372 90.7126 74.1167 91.0229C73.6204 91.2711 72.4621 91.3331 71.945 91.3331Z" fill="#16F6E7"/>
</g>
<rect x="240" y="53" width="2" height="2" rx="1" fill="#27EED7"/>
<rect x="245.45" y="54.8433" width="2" height="2" rx="1" transform="rotate(45 245.45 54.8433)" fill="#27EED7"/>
<rect x="248" y="60" width="2" height="2" rx="1" transform="rotate(90 248 60)" fill="#27EED7"/>
<rect x="245.907" y="65.7217" width="2" height="2" rx="1" transform="rotate(137.818 245.907 65.7217)" fill="#27EED7"/>
<rect x="239" y="66" width="2" height="2" rx="1" fill="#27EED7"/>
<rect x="235.55" y="63.3286" width="2" height="2" rx="1" transform="rotate(45 235.55 63.3286)" fill="#27EED7"/>
<rect x="235" y="59" width="2" height="2" rx="1" transform="rotate(90 235 59)" fill="#676767"/>
<rect x="237.918" y="55.417" width="2" height="2" rx="1" transform="rotate(137.818 237.918 55.417)" fill="#676767"/>
<defs>
<filter id="filter0_i_7386_37150" x="211.895" y="0.310547" width="55.5334" height="163.962" filterUnits="userSpaceOnUse" color-interpolation-filters="sRGB">
<feFlood flood-opacity="0" result="BackgroundImageFix"/>
<feBlend mode="normal" in="SourceGraphic" in2="BackgroundImageFix" result="shape"/>
<feColorMatrix in="SourceAlpha" type="matrix" values="0 0 0 0 0 0 0 0 0 0 0 0 0 0 0 0 0 0 127 0" result="hardAlpha"/>
<feOffset dx="-3.1024" dy="2.48192"/>
<feGaussianBlur stdDeviation="5.87904"/>
<feComposite in2="hardAlpha" operator="arithmetic" k2="-1" k3="1"/>
<feColorMatrix type="matrix" values="0 0 0 0 0.963851 0 0 0 0 0.963851 0 0 0 0 0.963851 0 0 0 0.25 0"/>
<feBlend mode="normal" in2="shape" result="effect1_innerShadow_7386_37150"/>
</filter>
<filter id="filter1_i_7386_37150" x="267.428" y="0" width="20.4752" height="165.978" filterUnits="userSpaceOnUse" color-interpolation-filters="sRGB">
<feFlood flood-opacity="0" result="BackgroundImageFix"/>
<feBlend mode="normal" in="SourceGraphic" in2="BackgroundImageFix" result="shape"/>
<feColorMatrix in="SourceAlpha" type="matrix" values="0 0 0 0 0 0 0 0 0 0 0 0 0 0 0 0 0 0 127 0" result="hardAlpha"/>
<feOffset dx="1.5512" dy="4.34336"/>
<feGaussianBlur stdDeviation="4.80872"/>
<feComposite in2="hardAlpha" operator="arithmetic" k2="-1" k3="1"/>
<feColorMatrix type="matrix" values="0 0 0 0 0.930387 0 0 0 0 0.930387 0 0 0 0 0.930387 0 0 0 0.25 0"/>
<feBlend mode="normal" in2="shape" result="effect1_innerShadow_7386_37150"/>
</filter>
<filter id="filter2_i_7386_37150" x="217.479" y="40.0215" width="44.3647" height="113.238" filterUnits="userSpaceOnUse" color-interpolation-filters="sRGB">
<feFlood flood-opacity="0" result="BackgroundImageFix"/>
<feBlend mode="normal" in="SourceGraphic" in2="BackgroundImageFix" result="shape"/>
<feColorMatrix in="SourceAlpha" type="matrix" values="0 0 0 0 0 0 0 0 0 0 0 0 0 0 0 0 0 0 127 0" result="hardAlpha"/>
<feOffset dx="-3.41264" dy="2.48192"/>
<feGaussianBlur stdDeviation="2.41987"/>
<feComposite in2="hardAlpha" operator="arithmetic" k2="-1" k3="1"/>
<feColorMatrix type="matrix" values="0 0 0 0 0.720117 0 0 0 0 0.720117 0 0 0 0 0.720117 0 0 0 0.25 0"/>
<feBlend mode="normal" in2="shape" result="effect1_innerShadow_7386_37150"/>
</filter>
<filter id="filter3_i_7386_37150" x="226.477" y="78.8008" width="28.2318" height="26.991" filterUnits="userSpaceOnUse" color-interpolation-filters="sRGB">
<feFlood flood-opacity="0" result="BackgroundImageFix"/>
<feBlend mode="normal" in="SourceGraphic" in2="BackgroundImageFix" result="shape"/>
<feColorMatrix in="SourceAlpha" type="matrix" values="0 0 0 0 0 0 0 0 0 0 0 0 0 0 0 0 0 0 127 0" result="hardAlpha"/>
<feOffset dx="-1.24096" dy="1.24096"/>
<feGaussianBlur stdDeviation="6.90284"/>
<feComposite in2="hardAlpha" operator="arithmetic" k2="-1" k3="1"/>
<feColorMatrix type="matrix" values="0 0 0 0 0 0 0 0 0 0 0 0 0 0 0 0 0 0 1 0"/>
<feBlend mode="normal" in2="shape" result="effect1_innerShadow_7386_37150"/>
</filter>
<filter id="filter4_i_7386_37150" x="228.338" y="80.6621" width="23.8884" height="22.9576" filterUnits="userSpaceOnUse" color-interpolation-filters="sRGB">
<feFlood flood-opacity="0" result="BackgroundImageFix"/>
<feBlend mode="normal" in="SourceGraphic" in2="BackgroundImageFix" result="shape"/>
<feColorMatrix in="SourceAlpha" type="matrix" values="0 0 0 0 0 0 0 0 0 0 0 0 0 0 0 0 0 0 127 0" result="hardAlpha"/>
<feOffset dx="-1.86144" dy="1.86144"/>
<feGaussianBlur stdDeviation="2.49743"/>
<feComposite in2="hardAlpha" operator="arithmetic" k2="-1" k3="1"/>
<feColorMatrix type="matrix" values="0 0 0 0 0 0 0 0 0 0 0 0 0 0 0 0 0 0 0.89 0"/>
<feBlend mode="normal" in2="shape" result="effect1_innerShadow_7386_37150"/>
</filter>
<filter id="filter5_i_7386_37150" x="233.922" y="85.627" width="13.9607" height="13.6506" filterUnits="userSpaceOnUse" color-interpolation-filters="sRGB">
<feFlood flood-opacity="0" result="BackgroundImageFix"/>
<feBlend mode="normal" in="SourceGraphic" in2="BackgroundImageFix" result="shape"/>
<feColorMatrix in="SourceAlpha" type="matrix" values="0 0 0 0 0 0 0 0 0 0 0 0 0 0 0 0 0 0 127 0" result="hardAlpha"/>
<feOffset dx="-0.930719" dy="1.24096"/>
<feGaussianBlur stdDeviation="1.2875"/>
<feComposite in2="hardAlpha" operator="arithmetic" k2="-1" k3="1"/>
<feColorMatrix type="matrix" values="0 0 0 0 0.68099 0 0 0 0 0.68099 0 0 0 0 0.68099 0 0 0 0.32 0"/>
<feBlend mode="normal" in2="shape" result="effect1_innerShadow_7386_37150"/>
</filter>
<filter id="filter6_i_7386_37150" x="52.6245" y="70.0137" width="35.9327" height="28.2253" filterUnits="userSpaceOnUse" color-interpolation-filters="sRGB">
<feFlood flood-opacity="0" result="BackgroundImageFix"/>
<feBlend mode="normal" in="SourceGraphic" in2="BackgroundImageFix" result="shape"/>
<feColorMatrix in="SourceAlpha" type="matrix" values="0 0 0 0 0 0 0 0 0 0 0 0 0 0 0 0 0 0 127 0" result="hardAlpha"/>
<feOffset dy="0.31024"/>
<feGaussianBlur stdDeviation="1.33403"/>
<feComposite in2="hardAlpha" operator="arithmetic" k2="-1" k3="1"/>
<feColorMatrix type="matrix" values="0 0 0 0 0.740885 0 0 0 0 0.740885 0 0 0 0 0.740885 0 0 0 0.25 0"/>
<feBlend mode="normal" in2="shape" result="effect1_innerShadow_7386_37150"/>
</filter>
<filter id="filter7_i_7386_37150" x="63.2646" y="77.6934" width="14.7327" height="12.5324" filterUnits="userSpaceOnUse" color-interpolation-filters="sRGB">
<feFlood flood-opacity="0" result="BackgroundImageFix"/>
<feBlend mode="normal" in="SourceGraphic" in2="BackgroundImageFix" result="shape"/>
<feColorMatrix in="SourceAlpha" type="matrix" values="0 0 0 0 0 0 0 0 0 0 0 0 0 0 0 0 0 0 127 0" result="hardAlpha"/>
<feOffset dy="0.31024"/>
<feGaussianBlur stdDeviation="1.33403"/>
<feComposite in2="hardAlpha" operator="arithmetic" k2="-1" k3="1"/>
<feColorMatrix type="matrix" values="0 0 0 0 0.740885 0 0 0 0 0.740885 0 0 0 0 0.740885 0 0 0 0.25 0"/>
<feBlend mode="normal" in2="shape" result="effect1_innerShadow_7386_37150"/>
</filter>
<filter id="filter8_i_7386_37150" x="65.1465" y="79.2695" width="10.9119" height="9.62079" filterUnits="userSpaceOnUse" color-interpolation-filters="sRGB">
<feFlood flood-opacity="0" result="BackgroundImageFix"/>
<feBlend mode="normal" in="SourceGraphic" in2="BackgroundImageFix" result="shape"/>
<feColorMatrix in="SourceAlpha" type="matrix" values="0 0 0 0 0 0 0 0 0 0 0 0 0 0 0 0 0 0 127 0" result="hardAlpha"/>
<feOffset dy="0.31024"/>
<feGaussianBlur stdDeviation="1.33403"/>
<feComposite in2="hardAlpha" operator="arithmetic" k2="-1" k3="1"/>
<feColorMatrix type="matrix" values="0 0 0 0 0.740885 0 0 0 0 0.740885 0 0 0 0 0.740885 0 0 0 0.25 0"/>
<feBlend mode="normal" in2="shape" result="effect1_innerShadow_7386_37150"/>
</filter>
<filter id="filter9_i_7386_37150" x="99.5898" y="80.9404" width="10.3931" height="9.17211" filterUnits="userSpaceOnUse" color-interpolation-filters="sRGB">
<feFlood flood-opacity="0" result="BackgroundImageFix"/>
<feBlend mode="normal" in="SourceGraphic" in2="BackgroundImageFix" result="shape"/>
<feColorMatrix in="SourceAlpha" type="matrix" values="0 0 0 0 0 0 0 0 0 0 0 0 0 0 0 0 0 0 127 0" result="hardAlpha"/>
<feOffset dy="1.24096"/>
<feGaussianBlur stdDeviation="0.62048"/>
<feComposite in2="hardAlpha" operator="arithmetic" k2="-1" k3="1"/>
<feColorMatrix type="matrix" values="0 0 0 0 0.59126 0 0 0 0 0.59126 0 0 0 0 0.59126 0 0 0 0.25 0"/>
<feBlend mode="normal" in2="shape" result="effect1_innerShadow_7386_37150"/>
</filter>
<filter id="filter10_i_7386_37150" x="65" y="71" width="41.3674" height="21.4965" filterUnits="userSpaceOnUse" color-interpolation-filters="sRGB">
<feFlood flood-opacity="0" result="BackgroundImageFix"/>
<feBlend mode="normal" in="SourceGraphic" in2="BackgroundImageFix" result="shape"/>
<feColorMatrix in="SourceAlpha" type="matrix" values="0 0 0 0 0 0 0 0 0 0 0 0 0 0 0 0 0 0 127 0" result="hardAlpha"/>
<feOffset dx="1.5512" dy="1.5512"/>
<feGaussianBlur stdDeviation="3.1024"/>
<feComposite in2="hardAlpha" operator="arithmetic" k2="-1" k3="1"/>
<feColorMatrix type="matrix" values="0 0 0 0 0 0 0 0 0 0 0 0 0 0 0 0 0 0 0.57 0"/>
<feBlend mode="normal" in2="shape" result="effect1_innerShadow_7386_37150"/>
</filter>
<filter id="filter11_i_7386_37150" x="65.4609" y="75.666" width="8.69189" height="16.908" filterUnits="userSpaceOnUse" color-interpolation-filters="sRGB">
<feFlood flood-opacity="0" result="BackgroundImageFix"/>
<feBlend mode="normal" in="SourceGraphic" in2="BackgroundImageFix" result="shape"/>
<feColorMatrix in="SourceAlpha" type="matrix" values="0 0 0 0 0 0 0 0 0 0 0 0 0 0 0 0 0 0 127 0" result="hardAlpha"/>
<feOffset dy="1.24096"/>
<feGaussianBlur stdDeviation="0.62048"/>
<feComposite in2="hardAlpha" operator="arithmetic" k2="-1" k3="1"/>
<feColorMatrix type="matrix" values="0 0 0 0 0 0 0 0 0 0.623893 0 0 0 0 0.582115 0 0 0 1 0"/>
<feBlend mode="normal" in2="shape" result="effect1_innerShadow_7386_37150"/>
</filter>
<radialGradient id="paint0_radial_7386_37150" cx="0" cy="0" r="1" gradientUnits="userSpaceOnUse" gradientTransform="translate(177.5 161.524) scale(177.5 18.018)">
<stop stop-color="#289A78"/>
<stop offset="1" stop-color="#41A293" stop-opacity="0.09"/>
</radialGradient>
<radialGradient id="paint1_radial_7386_37150" cx="0" cy="0" r="1" gradientUnits="userSpaceOnUse" gradientTransform="translate(185.095 162.865) scale(121.361 9.67911)">
<stop stop-color="#289A78"/>
<stop offset="1" stop-color="#41A293" stop-opacity="0.09"/>
</radialGradient>
</defs>
</svg>
