<svg width="25" height="18" viewBox="0 0 25 18" fill="none" xmlns="http://www.w3.org/2000/svg">
<path d="M3.75051 18H21.0917C22.9275 18 24.4211 16.3814 24.4211 14.392V3.60804C24.4211 1.61856 22.9275 0 21.0917 0H3.75051C1.91465 0 0.421082 1.61856 0.421082 3.60804V14.392C0.421082 16.3814 1.91465 18 3.75051 18ZM2.23713 3.60804C2.23713 2.70379 2.91608 1.96802 3.75051 1.96802H21.0917C21.9261 1.96802 22.605 2.70379 22.605 3.60804V14.392C22.605 15.2962 21.9261 16.032 21.0917 16.032H3.75051C2.91608 16.032 2.23713 15.2962 2.23713 14.392V3.60804Z" fill="white"/>
<path d="M8.82669 8.99849C8.82669 9.74995 8.5855 10.1598 8.53702 10.2344C8.34489 10.5307 8.41081 10.9399 8.68422 11.1483C8.79033 11.229 8.91152 11.2676 9.03182 11.2676C9.22247 11.2676 9.40987 11.1705 9.52781 10.9888C9.68092 10.7525 10.0374 10.0856 10.0374 8.99849C10.0374 7.91085 9.68092 7.24427 9.52751 7.0082C9.33509 6.71175 8.95793 6.64048 8.68392 6.84917C8.41051 7.05769 8.34489 7.46689 8.53732 7.76319C8.58579 7.83766 8.82669 8.24686 8.82669 8.99849Z" fill="white"/>
<path d="M14.2631 13.7807C14.3692 13.8618 14.491 13.9005 14.6113 13.9005C14.8017 13.9005 14.9888 13.8036 15.1067 13.6223C15.9506 12.3244 16.4152 10.6831 16.4152 9.00099C16.4152 7.31901 15.9506 5.67787 15.1067 4.37995C14.9143 4.08414 14.5371 4.01223 14.2631 4.22155C13.99 4.43008 13.9244 4.83944 14.1171 5.13557C14.8182 6.2144 15.2045 7.58711 15.2045 9.00099C15.2045 10.415 14.8182 11.7879 14.1171 12.8667C13.9244 13.1629 13.99 13.5722 14.2631 13.7807Z" fill="white"/>
<path d="M11.4723 12.4647C11.5784 12.5456 11.6999 12.5845 11.8205 12.5845C12.0109 12.5845 12.198 12.4878 12.3159 12.3065C12.9024 11.4048 13.2254 10.2307 13.2254 9.00032C13.2254 7.77014 12.9024 6.59587 12.3159 5.69402C12.1235 5.3982 11.7466 5.32709 11.4723 5.53578C11.1992 5.74447 11.1336 6.15383 11.3263 6.44996C11.7703 7.13255 12.0147 8.03825 12.0147 9.00032C12.0147 9.96239 11.7703 10.8681 11.3263 11.5505C11.1336 11.8466 11.1992 12.2558 11.4723 12.4647Z" fill="white"/>
</svg>
