<svg width="48" height="48" viewBox="0 0 48 48" fill="none" xmlns="http://www.w3.org/2000/svg">
<rect x="2" y="2" width="44" height="44" rx="22" fill="white"/>
<rect x="2" y="2" width="44" height="44" rx="22" stroke="white" stroke-width="4"/>
<path d="M14.9044 14.2627C13.8485 14.2627 12.7403 14.7527 11.8797 15.5167L11.7831 14.8611C11.7586 14.6961 11.6264 14.5564 11.4332 14.5564H10.5143C10.3461 14.5564 10.2091 14.6939 10.2091 14.8611C10.2091 19.0314 10.2091 23.202 10.2091 27.3722C10.2091 27.5399 10.3465 27.6769 10.5143 27.6769H11.7151C11.8828 27.6769 12.0198 27.5395 12.0198 27.3722V23.0518C12.7816 23.7311 13.7721 24.1218 14.8311 24.1218C17.3469 24.1218 18.8345 21.9437 18.8345 19.2329C18.8345 16.6995 17.862 14.2627 14.9044 14.2627ZM16.1062 22.0183C15.6381 22.4797 15.1156 22.6053 14.3288 22.6053C13.6285 22.6053 12.7074 22.24 12.0194 21.7316V16.6108C12.7359 16.0607 13.6496 15.763 14.4114 15.763C16.4003 15.763 16.9421 17.3269 16.9421 19.1178C16.9535 20.3253 16.7314 21.4019 16.1062 22.0183Z" fill="#333E47"/>
<path d="M27.6289 23.5887C27.6289 23.7564 27.4915 23.8934 27.3229 23.8934H26.4263C26.2327 23.8934 26.1005 23.7533 26.0755 23.5887L25.9855 22.9784C25.5737 23.327 25.0679 23.6335 24.5195 23.8468C23.4653 24.2565 22.2495 24.3241 21.2195 23.6914C20.4744 23.2343 20.0792 22.3404 20.0792 21.4179C20.0792 20.7045 20.2992 19.9971 20.7866 19.4839C21.4368 18.7823 22.3799 18.4376 23.518 18.4376C24.2055 18.4376 25.1895 18.5184 25.9056 18.7524V17.5243C25.9056 16.2756 25.38 15.7356 23.9939 15.7356C22.9344 15.7356 22.1239 15.8954 20.9964 16.2462C20.816 16.2524 20.7102 16.1149 20.7102 15.9472V15.2469C20.7102 15.0788 20.8537 14.9163 21.0092 14.8671C21.8144 14.5159 22.9555 14.2972 24.1682 14.2568C25.7493 14.2568 27.6285 14.6134 27.6285 17.0453V23.5887H27.6289ZM25.906 21.7955V19.9427C25.3045 19.778 24.3087 19.71 23.9237 19.71C23.3151 19.71 22.6486 19.854 22.3004 20.2285C22.0405 20.5034 21.9228 20.8977 21.9228 21.2788C21.9228 21.7718 22.0932 22.2662 22.4919 22.5108C22.9546 22.8251 23.6725 22.7869 24.3469 22.5951C24.995 22.4115 25.6039 22.0858 25.906 21.7955Z" fill="#333E47"/>
<path d="M29.3249 27.3559C29.3249 27.1284 29.3249 26.9243 29.3249 26.6969C29.3249 26.5094 29.4171 26.3798 29.6125 26.3917C29.9778 26.4435 30.4941 26.4953 30.8612 26.4198C31.3402 26.3201 31.6835 25.9807 31.8868 25.5153C32.1731 24.8603 32.3628 24.3321 32.4826 23.9856L28.8463 14.977C28.7849 14.8242 28.7669 14.5405 29.072 14.5405H30.3431C30.5855 14.5405 30.6842 14.6946 30.7387 14.8452L33.3753 22.1627L35.892 14.8452C35.9433 14.6955 36.0465 14.5405 36.2867 14.5405H37.4853C37.7887 14.5405 37.7716 14.8237 37.711 14.977L34.1037 24.2666C33.6369 25.503 33.0152 27.4727 31.6146 27.8147C30.9126 27.9982 30.0265 27.9319 29.5062 27.7142C29.375 27.6483 29.3249 27.4722 29.3249 27.3559Z" fill="#333E47"/>
<path d="M41.1551 26.9804C39.9257 26.9975 38.4742 27.2728 37.373 28.0455C37.0332 28.2813 37.0929 28.6088 37.4709 28.5654C38.7091 28.4165 41.4651 28.0824 41.9577 28.712C42.4516 29.3416 41.4115 31.9391 40.9518 33.1009C40.8096 33.4473 41.1103 33.5909 41.4278 33.3274C43.4878 31.6019 44.0231 27.9845 43.6016 27.4642C43.3904 27.2038 42.3845 26.9632 41.1551 26.9804Z" fill="#F79C34"/>
<path d="M4.50388 28.2979C4.21673 28.3374 4.09291 28.7014 4.39323 28.9898C9.55266 33.8292 16.3709 36.1988 23.9407 36.1988C29.3399 36.1988 35.6084 34.4373 39.9353 31.1175C40.6506 30.5656 40.0412 29.7384 39.3075 30.0651C34.4563 32.2055 29.1867 33.2373 24.3908 33.2373C17.2828 33.2373 10.4022 31.7533 4.83537 28.3826C4.71419 28.3088 4.59959 28.2847 4.50388 28.2979Z" fill="#F79C34"/>
</svg>
