<svg width="48" height="48" viewBox="0 0 48 48" fill="none" xmlns="http://www.w3.org/2000/svg">
<path d="M24 2C36.1503 2 46 11.8497 46 24C46 36.1503 36.1503 46 24 46C11.8497 46 2 36.1503 2 24C2 11.8497 11.8497 2 24 2Z" fill="#5F259F" stroke="#5F259F" stroke-width="4"/>
<path d="M20.8848 8.14355C22.363 7.77424 24.0803 8.10138 25.2207 9.44043L25.2227 9.43848L30.7695 15.793H32.542C34.4283 15.793 35.994 17.3588 35.9941 19.2451V20.3633C35.9941 20.9849 35.7784 21.6591 35.2549 22.1826C34.7314 22.706 34.0571 22.9219 33.4355 22.9219H32.8662V36.8994C32.8662 37.7174 32.4767 38.368 32.0703 38.7744C31.6639 39.1808 31.0133 39.5693 30.1953 39.5693H28.6309C26.5207 39.5692 24.8438 37.8924 24.8438 35.7822V34.7178C24.4728 34.7494 24.1 34.7646 23.7148 34.7646C21.4704 34.7646 19.4616 34.0132 18.0361 32.4248C16.6369 30.8656 16.0167 28.7421 16.0166 26.3965V23.0029C14.331 22.7843 13.0002 21.3198 13 19.5811V18.4639C13 17.8423 13.2158 17.1681 13.7393 16.6445C14.2628 16.121 14.9369 15.9053 15.5586 15.9053H20.7188L17.6455 12.9863L17.6279 12.9697L17.6113 12.9521C16.8798 12.2225 16.8102 11.2587 16.9961 10.5771C17.1874 9.8763 17.7218 9.15513 18.6133 8.85742L18.6289 8.85156L18.6445 8.84668L20.7676 8.17676L20.8252 8.1582L20.8848 8.14355ZM23.9277 26.3965C23.9278 26.9406 24.018 27.16 24.0508 27.2217C24.1022 27.2467 24.2555 27.3017 24.6084 27.3018C24.6868 27.3018 24.7658 27.2981 24.8438 27.2939V23.0332H23.9277V26.3965Z" fill="white" stroke="#5F259F" stroke-width="4"/>
</svg>
