<svg width="12" height="12" viewBox="0 0 12 12" fill="none" xmlns="http://www.w3.org/2000/svg">
<path d="M6.00004 1.61523C5.13295 1.61523 4.28534 1.87236 3.56438 2.35408C2.84342 2.83581 2.28151 3.52051 1.94969 4.3216C1.61787 5.12268 1.53105 6.00417 1.70021 6.8546C1.86937 7.70502 2.28691 8.48619 2.90003 9.09932C3.51316 9.71244 4.29432 10.13 5.14475 10.2991C5.99518 10.4683 6.87667 10.3815 7.67775 10.0497C8.47884 9.71784 9.16354 9.15592 9.64526 8.43497C10.127 7.71401 10.3841 6.86639 10.3841 5.99931C10.3828 4.83698 9.92049 3.72264 9.0986 2.90075C8.27671 2.07886 7.16237 1.61655 6.00004 1.61523ZM7.03642 4.76022H7.61479C7.71386 4.76022 7.80887 4.79957 7.87892 4.86962C7.94897 4.93967 7.98832 5.03468 7.98832 5.13374C7.98832 5.23281 7.94897 5.32781 7.87892 5.39786C7.80887 5.46791 7.71386 5.50727 7.61479 5.50727H7.03642C6.86641 6.25432 6.17837 6.86194 5.354 6.87282L6.96016 8.38336C6.99634 8.41688 7.02549 8.45724 7.04595 8.50211C7.0664 8.54698 7.07775 8.59546 7.07933 8.64474C7.0809 8.69403 7.07268 8.74314 7.05513 8.78922C7.03759 8.83531 7.01107 8.87745 6.97711 8.91321C6.94315 8.94896 6.90244 8.97762 6.85732 8.99753C6.8122 9.01743 6.76359 9.02818 6.71428 9.02915C6.66498 9.03012 6.61598 9.02129 6.57011 9.00318C6.52425 8.98507 6.48244 8.95803 6.4471 8.92364L4.15851 6.75799C4.1044 6.70502 4.06701 6.63734 4.05096 6.56334C4.03492 6.48934 4.04091 6.41226 4.06821 6.34163C4.09551 6.271 4.14292 6.20993 4.20457 6.16596C4.26621 6.12199 4.3394 6.09705 4.41506 6.09424H5.33068C5.74957 6.09424 6.10852 5.88079 6.25687 5.50727H4.41506C4.316 5.50727 4.22099 5.46791 4.15094 5.39786C4.08089 5.32781 4.04154 5.23281 4.04154 5.13374C4.04154 5.03468 4.08089 4.93967 4.15094 4.86962C4.22099 4.79957 4.316 4.76022 4.41506 4.76022H6.25687C6.18427 4.57307 6.0572 4.41201 5.89209 4.29785C5.72697 4.1837 5.53141 4.1217 5.33068 4.11989H4.41506C4.316 4.11989 4.22099 4.08053 4.15094 4.01048C4.08089 3.94043 4.04154 3.84542 4.04154 3.74636C4.04154 3.64729 4.08089 3.55229 4.15094 3.48224C4.22099 3.41219 4.316 3.37283 4.41506 3.37283H7.61479C7.71386 3.37283 7.80887 3.41219 7.87892 3.48224C7.94897 3.55229 7.98832 3.64729 7.98832 3.74636C7.98832 3.84542 7.94897 3.94043 7.87892 4.01048C7.80887 4.08053 7.71386 4.11989 7.61479 4.11989H6.76155C6.90515 4.30706 6.99964 4.52719 7.03642 4.76022Z" fill="white"/>
<path d="M6.00005 2.37392e-10C4.81336 -1.05536e-05 3.65332 0.351874 2.66662 1.01116C1.67992 1.67044 0.910875 2.60751 0.456741 3.70386C0.00260688 4.80022 -0.116221 6.00662 0.115284 7.17051C0.34679 8.3344 0.91823 9.4035 1.75734 10.2426C2.59646 11.0817 3.66555 11.6532 4.82944 11.8847C5.99333 12.1162 7.19973 11.9974 8.29609 11.5433C9.39245 11.0892 10.3295 10.3201 10.9888 9.33343C11.6481 8.34673 12 7.18669 12 6C11.9982 4.40926 11.3655 2.8842 10.2407 1.75937C9.11585 0.63455 7.59079 0.00182188 6.00005 2.37392e-10ZM6.00005 11.1311C4.98521 11.1311 3.99316 10.8301 3.14935 10.2663C2.30554 9.7025 1.64787 8.90112 1.25951 7.96353C0.871148 7.02594 0.769538 5.99424 0.967527 4.99889C1.16552 4.00355 1.65421 3.08927 2.37182 2.37167C3.08943 1.65408 4.00371 1.16539 4.99905 0.967408C5.9944 0.769428 7.0261 0.871049 7.96369 1.25942C8.90128 1.64779 9.70265 2.30547 10.2665 3.14928C10.8303 3.9931 11.1312 4.98516 11.1312 6C11.1296 7.36038 10.5885 8.6646 9.6266 9.62653C8.66466 10.5885 7.36044 11.1295 6.00005 11.1311Z" fill="white"/>
</svg>
