<svg width="24" height="24" viewBox="0 0 24 24" fill="none" xmlns="http://www.w3.org/2000/svg">
<path d="M21.9166 10.4526C21.9166 10.9748 21.8764 11.4914 21.7903 11.9907C21.7387 12.3121 21.6469 12.6277 21.5435 12.9376L21.5321 12.9778C21.1992 13.9592 20.6654 14.8603 19.9538 15.6121L13.6578 22.3328C13.1068 23.2224 11.8155 23.2224 11.2645 22.3328L4.96857 15.6121C4.26264 14.8603 3.72315 13.9592 3.39601 12.9836L3.37879 12.9319C3.27549 12.622 3.18366 12.3063 3.12626 11.9849C3.04591 11.4856 3 10.9806 3 10.4583C3 8.57581 3.55097 6.8196 4.50943 5.34461C6.18529 2.73325 9.11805 1 12.4583 1C15.7985 1 18.7313 2.73325 20.4072 5.34461C21.3599 6.8196 21.9108 8.57581 21.9108 10.4583L21.9166 10.4526Z" fill="#373737"/>
<path d="M12.6346 10.3541L13.9075 5.87392C13.9412 5.7561 13.7846 5.67341 13.7063 5.7676L9.17027 11.2001L11.9653 12.6767L10.6924 17.1569C10.6587 17.2748 10.8153 17.3574 10.8936 17.2632L15.4296 11.8307L12.6346 10.3541Z" fill="white"/>
</svg>
