<svg width="211" height="330" viewBox="0 0 211 330" fill="none" xmlns="http://www.w3.org/2000/svg">
<g clip-path="url(#clip0_8604_19965)">
<path d="M210.224 318.351V11.8532C210.224 5.42012 205.009 0.205078 198.576 0.205078H11.6482C5.21504 0.205078 0 5.42012 0 11.8532V318.351C0 324.784 5.21504 329.999 11.6482 329.999H198.576C205.009 329.999 210.224 324.784 210.224 318.351Z" fill="#005B4F"/>
<mask id="mask0_8604_19965" style="mask-type:luminance" maskUnits="userSpaceOnUse" x="0" y="0" width="211" height="330">
<path d="M210.225 329.999V0.205078H0.000488281V329.999H210.225Z" fill="white"/>
</mask>
<g mask="url(#mask0_8604_19965)">
<g opacity="0.16">
<path d="M120.741 466.132C121.285 466.254 121.829 466.349 122.374 466.472C190.847 481.563 259.28 437.433 275.718 367.191C291.081 301.602 255.715 236.313 195.569 214.2C195.569 209.07 192.807 204.131 187.949 201.6C181.458 198.239 173.579 200.402 169.647 206.362C104.548 197.327 41.6806 240.817 25.9502 308.038C9.2944 379.193 51.7366 449.966 120.741 466.118V466.132ZM35.3666 311.672C49.8179 249.961 107.487 209.914 167.687 217.371C168.599 221.249 171.13 224.719 174.94 226.692C181.866 230.285 190.398 227.577 193.991 220.637C194.344 219.956 194.617 219.249 194.848 218.555C251.265 239.225 284.264 301.316 269.622 363.843C253.851 431.201 188.752 473.561 124.224 458.457C59.6971 443.353 19.9084 377.628 35.353 311.672H35.3666Z" fill="#00A99D"/>
<mask id="mask1_8604_19965" style="mask-type:luminance" maskUnits="userSpaceOnUse" x="22" y="200" width="258" height="270">
<g opacity="0.16">
<path d="M120.741 466.132C121.285 466.254 121.83 466.349 122.374 466.472C190.847 481.563 259.28 437.433 275.718 367.191C291.081 301.602 255.715 236.313 195.569 214.2C195.569 209.07 192.807 204.131 187.949 201.6C181.458 198.239 173.579 200.402 169.647 206.362C104.548 197.327 41.6806 240.817 25.9502 308.038C9.29441 379.193 51.7366 449.966 120.741 466.118V466.132ZM35.3667 311.672C49.818 249.961 107.487 209.914 167.687 217.371C168.599 221.249 171.13 224.719 174.94 226.692C181.866 230.285 190.398 227.577 193.991 220.637C194.345 219.956 194.617 219.249 194.848 218.555C251.265 239.225 284.264 301.316 269.622 363.843C253.851 431.201 188.752 473.561 124.225 458.457C59.6971 443.353 19.9084 377.628 35.353 311.672H35.3667Z" fill="white"/>
</g>
</mask>
<g mask="url(#mask1_8604_19965)">
<path d="M166.072 347.683L413.899 -52.3331L162.039 -208.371L-85.7883 191.645L166.072 347.683Z" fill="#00A99D"/>
</g>
</g>
<g opacity="0.16">
<path d="M-15.9341 121.492C-15.6483 121.519 -15.3761 121.533 -15.0904 121.56C20.235 125.003 51.9544 98.6721 55.955 62.3806C59.6971 28.4841 37.9794 -2.18748 6.40969 -9.64445C6.11033 -12.2163 4.40936 -14.5432 1.81031 -15.5093C-1.64603 -16.8021 -5.48338 -15.2372 -7.08908 -12.0122C-40.3461 -12.6109 -69.3031 13.053 -73.1405 47.7933C-77.2092 84.561 -51.586 117.559 -15.9341 121.492ZM-68.1873 49.0452C-64.6629 17.1625 -38.1145 -6.46027 -7.40205 -6.35141C-6.70806 -4.45995 -5.22483 -2.86787 -3.1973 -2.10584C0.503967 -0.717864 4.62709 -2.59572 6.01507 -6.29699C6.15114 -6.66439 6.24639 -7.03179 6.31443 -7.3992C35.911 -0.432104 56.268 28.7698 52.6892 61.0743C48.8382 95.8825 18.6973 121.111 -14.6413 117.423C-47.98 113.736 -71.9566 83.1186 -68.1873 49.0452Z" fill="#00A99D"/>
<mask id="mask2_8604_19965" style="mask-type:luminance" maskUnits="userSpaceOnUse" x="-74" y="-16" width="131" height="138">
<g opacity="0.16">
<path d="M-15.9338 121.492C-15.6481 121.519 -15.3759 121.533 -15.0902 121.56C20.2352 125.003 51.9547 98.6721 55.9554 62.3806C59.6974 28.4841 37.9796 -2.18748 6.40993 -9.64445C6.11057 -12.2163 4.40961 -14.5432 1.81055 -15.5093C-1.64578 -16.8021 -5.48313 -15.2372 -7.08882 -12.0122C-40.3459 -12.6109 -69.3029 13.053 -73.1403 47.7933C-77.2089 84.561 -51.5858 117.559 -15.9338 121.492ZM-68.1871 49.0452C-64.6627 17.1625 -38.1142 -6.46027 -7.4018 -6.35141C-6.7078 -4.45995 -5.22458 -2.86787 -3.19705 -2.10584C0.504219 -0.717864 4.62734 -2.59572 6.01532 -6.29699C6.1514 -6.66439 6.24664 -7.03179 6.31467 -7.3992C35.9112 -0.432104 56.2682 28.7698 52.6894 61.0743C48.8385 95.8825 18.6976 121.111 -14.6411 117.423C-47.9798 113.736 -71.9564 83.1186 -68.1871 49.0452Z" fill="white"/>
</g>
</mask>
<g mask="url(#mask2_8604_19965)">
<path d="M-0.329163 59.2247L99.9941 -156.805L-36.0238 -219.971L-136.347 -3.94154L-0.329163 59.2247Z" fill="#00A99D"/>
</g>
</g>
</g>
<path d="M189.105 318.691C187.608 317.18 190.888 314.636 191.813 313.248C197.311 305.07 196.984 295.272 191.541 287.189C190.588 285.774 187.867 284.019 188.996 282.29C190.656 279.759 194.712 286.182 195.419 287.393C200.155 295.599 200.127 305.491 195.283 313.642C194.48 315.003 190.997 320.596 189.105 318.691Z" fill="#00A99D"/>
<path d="M183.662 313.259C182.478 311.436 183.921 311.082 184.737 309.912C189.228 303.598 189.187 297.515 184.873 291.133C184.125 290.017 182.478 289.378 183.553 287.731C185.254 285.132 188.86 291.337 189.486 292.643C191.895 297.719 191.84 303.666 189.296 308.687C188.574 310.116 185.553 315.15 183.662 313.259Z" fill="#00A99D"/>
<path d="M178.219 307.815C177.049 306.087 179.09 305.026 179.743 303.556C180.696 301.447 180.682 299.379 179.743 297.27C179.09 295.8 177.035 294.738 178.219 293.01C179.648 292.126 180.247 292.697 181.186 293.786C183.649 296.644 184.206 300.508 182.955 304.032C182.437 305.489 180.097 309.652 178.219 307.788V307.815Z" fill="#00A99D"/>
<path d="M164.095 14.7926C164.176 14.8878 164.163 15.2552 164.163 15.4049L164.122 19.5416C164.203 19.5416 164.285 19.5416 164.38 19.5416C164.476 19.5416 164.544 19.5416 164.639 19.5416L164.598 15.4049C164.598 15.2416 164.598 14.8878 164.666 14.7926C164.734 14.7109 164.829 14.6701 164.979 14.6701C166.462 14.6973 168.068 14.9967 169.007 15.228C168.884 14.9967 168.735 14.7789 168.544 14.5748C168.109 14.1122 167.51 13.7176 166.789 13.459C166.068 13.1869 165.238 13.0508 164.394 13.0508C163.55 13.0508 162.72 13.1869 161.999 13.459C161.278 13.7312 160.665 14.1122 160.244 14.5748C160.053 14.7789 159.903 14.9967 159.781 15.228C160.72 14.9967 162.326 14.6973 163.809 14.6701C163.958 14.6701 164.054 14.7109 164.122 14.7926H164.095Z" fill="white"/>
<path d="M165.278 16.1234C165.278 16.1234 165.278 16.1914 165.292 16.2459C165.551 17.8107 165.877 19.1579 165.945 19.3892C167.864 18.9538 169.252 17.7291 169.252 16.3003C169.252 16.1234 169.225 15.9465 169.184 15.7696C167.81 15.4566 166.898 15.4022 166 15.3478C165.21 15.3069 165.197 15.5791 165.278 16.1234Z" fill="white"/>
<path d="M161.972 19.1443C162.23 19.2395 162.502 19.3212 162.788 19.3892C162.843 19.1715 163.183 17.7971 163.441 16.205C163.441 16.1778 163.441 16.1506 163.455 16.1234C163.537 15.5791 163.523 15.3069 162.734 15.3478C161.836 15.4022 160.91 15.4566 159.536 15.7696C159.495 15.9465 159.468 16.1234 159.468 16.3003C159.468 16.9126 159.713 17.5114 160.189 18.0285C160.625 18.4911 161.223 18.8857 161.945 19.1443H161.972Z" fill="white"/>
<path d="M176.6 13.0371H170.422V14.9558H172.246V19.5551H174.831V14.9558H176.6V13.0371Z" fill="white"/>
<path d="M178.396 13.0371L175.96 19.5551H178.437L179.743 15.677L181.063 19.5551H183.567L181.077 13.0371H178.396Z" fill="white"/>
<path d="M189.16 13.0371H182.982V14.9558H184.805V19.5551H187.391V14.9558H189.16V13.0371Z" fill="white"/>
<path d="M190.956 13.0371L188.52 19.5551H190.997L192.303 15.677L193.623 19.5551H196.127L193.637 13.0371H190.956Z" fill="white"/>
<path fill-rule="evenodd" clip-rule="evenodd" d="M63.1804 161.753V157.398H49.1509V161.753H53.2604V172.149H59.0572V161.753H63.1667H63.1804ZM70.4332 163.44L67.5348 172.149H61.7379L67.3035 157.398H73.5902L79.1557 172.149H73.3588L70.4604 163.44H70.4332ZM91.7019 161.753V157.398H77.6725V161.753H81.782V172.149H87.5788V161.753H91.6883H91.7019ZM98.9548 163.44L96.0563 172.149H90.2595L95.825 157.398H102.112L107.677 172.149H101.881L98.982 163.44H98.9548Z" fill="white"/>
<path d="M160.42 159.564C160.393 159.469 160.366 159.387 160.339 159.292C157.25 147.725 145.193 140.813 133.246 143.847C122.101 146.664 114.971 157.155 116.345 168.014C115.57 168.409 115.039 169.225 115.039 170.164C115.039 171.416 115.991 172.437 117.203 172.559C120.945 183.132 132.47 189.256 143.901 186.357C155.998 183.296 163.387 171.307 160.42 159.578V159.564ZM143.71 184.629C133.219 187.283 122.618 181.69 119.026 171.974C119.543 171.525 119.87 170.872 119.87 170.137C119.87 168.803 118.795 167.728 117.461 167.728C117.325 167.728 117.203 167.728 117.08 167.756C115.787 157.577 122.605 147.698 133.232 145.017C144.676 142.119 156.216 148.664 158.992 159.632C161.767 170.6 154.936 181.799 143.724 184.629H143.71Z" fill="white"/>
<path d="M138.635 164.938C138.635 161.346 136.457 158.502 132.443 158.502C128.429 158.502 126.007 161.278 126.007 165.646C126.007 170.014 128.402 172.559 132.634 172.559C135.695 172.559 137.682 171.239 138.403 168.871L135.205 168.15C134.811 169.129 134.022 169.796 132.593 169.796C130.579 169.796 129.626 168.354 129.531 166.476H137.342C138.226 166.476 138.648 166.054 138.648 164.952L138.635 164.938ZM132.443 161.21C134.008 161.21 134.974 162.298 135.069 164.122H129.531C129.681 162.339 130.824 161.21 132.429 161.21H132.443Z" fill="white"/>
<path d="M149.358 158.867L146.105 168.746L142.935 158.867H139.302L143.833 170.665C144.295 171.835 144.826 172.325 145.915 172.325H146.309C147.384 172.325 147.915 171.849 148.378 170.679L152.95 158.867H149.358Z" fill="white"/>
<path d="M139.984 296.273L142.991 290H149.101L143.903 297.158H152.109L138.487 313.664L143.672 301.839H113.422" stroke="#00A99D" stroke-width="0.5" stroke-miterlimit="10"/>
<path d="M17.1267 297.875V296.364H26.1323V297.875H22.5017V308H20.7517V297.875H17.1267ZM27.7304 308H25.8667L30.0542 296.364H32.0826L36.2701 308H34.4065L31.1167 298.477H31.0258L27.7304 308ZM28.0429 303.443H34.0883V304.92H28.0429V303.443ZM36.0017 297.875V296.364H45.0073V297.875H41.3767V308H39.6267V297.875H36.0017ZM46.6054 308H44.7417L48.9292 296.364H50.9576L55.1451 308H53.2815L49.9917 298.477H49.9008L46.6054 308ZM46.9179 303.443H52.9633V304.92H46.9179V303.443ZM56.6664 308V306.727L60.6039 302.648C61.0244 302.205 61.371 301.816 61.6437 301.483C61.9202 301.146 62.1267 300.826 62.263 300.523C62.3994 300.22 62.4676 299.898 62.4676 299.557C62.4676 299.17 62.3767 298.837 62.1948 298.557C62.013 298.273 61.7649 298.055 61.4505 297.903C61.1361 297.748 60.782 297.67 60.388 297.67C59.9714 297.67 59.6077 297.756 59.2971 297.926C58.9865 298.097 58.7479 298.337 58.5812 298.648C58.4145 298.958 58.3312 299.322 58.3312 299.739H56.6551C56.6551 299.03 56.818 298.411 57.1437 297.881C57.4695 297.35 57.9164 296.939 58.4846 296.648C59.0528 296.352 59.6986 296.205 60.4221 296.205C61.1532 296.205 61.7971 296.35 62.3539 296.642C62.9145 296.93 63.352 297.324 63.6664 297.824C63.9808 298.32 64.138 298.881 64.138 299.506C64.138 299.938 64.0566 300.36 63.8937 300.773C63.7346 301.186 63.4562 301.646 63.0585 302.153C62.6608 302.657 62.1077 303.269 61.3994 303.989L59.0869 306.409V306.494H64.3255V308H56.6664ZM70.3198 308.159C69.6077 308.159 68.9676 308.023 68.3994 307.75C67.835 307.473 67.3842 307.095 67.0471 306.614C66.71 306.133 66.5301 305.583 66.5073 304.966H68.2119C68.2536 305.466 68.4751 305.877 68.8767 306.199C69.2782 306.521 69.7592 306.682 70.3198 306.682C70.7668 306.682 71.1626 306.58 71.5073 306.375C71.8558 306.167 72.1286 305.881 72.3255 305.517C72.5263 305.153 72.6267 304.739 72.6267 304.273C72.6267 303.799 72.5244 303.377 72.3198 303.006C72.1153 302.634 71.8331 302.343 71.4733 302.131C71.1172 301.919 70.7081 301.811 70.246 301.807C69.8937 301.807 69.5395 301.867 69.1835 301.989C68.8274 302.11 68.5395 302.269 68.3198 302.466L66.7119 302.227L67.3653 296.364H73.763V297.869H68.8255L68.4562 301.125H68.5244C68.7517 300.905 69.0528 300.722 69.4278 300.574C69.8066 300.426 70.2119 300.352 70.6437 300.352C71.352 300.352 71.9827 300.521 72.5358 300.858C73.0926 301.195 73.5301 301.655 73.8483 302.239C74.1702 302.818 74.3293 303.485 74.3255 304.239C74.3293 304.992 74.1589 305.665 73.8142 306.256C73.4733 306.847 72.9998 307.312 72.3937 307.653C71.7914 307.991 71.1001 308.159 70.3198 308.159ZM81.0826 296.364H82.8326V304.614C82.8326 305.36 82.6849 305.998 82.3894 306.528C82.0978 307.059 81.6868 307.464 81.1565 307.744C80.6262 308.021 80.005 308.159 79.2929 308.159C78.6376 308.159 78.0485 308.04 77.5258 307.801C77.0069 307.562 76.5959 307.216 76.2929 306.761C75.9936 306.303 75.844 305.746 75.844 305.091H77.5883C77.5883 305.413 77.6622 305.691 77.8099 305.926C77.9614 306.161 78.1679 306.345 78.4292 306.477C78.6944 306.606 78.9974 306.67 79.3383 306.67C79.7095 306.67 80.0239 306.593 80.2815 306.438C80.5429 306.278 80.7417 306.045 80.8781 305.739C81.0144 305.432 81.0826 305.057 81.0826 304.614V296.364ZM85.388 308V296.364H87.1437V301.92H87.2858L92.1664 296.364H94.3767L89.6835 301.602L94.3937 308H92.2801L88.5187 302.801L87.1437 304.381V308H85.388ZM97.7687 296.364V308H96.013V296.364H97.7687ZM100.166 308V306.727L104.104 302.648C104.524 302.205 104.871 301.816 105.144 301.483C105.42 301.146 105.627 300.826 105.763 300.523C105.899 300.22 105.968 299.898 105.968 299.557C105.968 299.17 105.877 298.837 105.695 298.557C105.513 298.273 105.265 298.055 104.951 297.903C104.636 297.748 104.282 297.67 103.888 297.67C103.471 297.67 103.108 297.756 102.797 297.926C102.487 298.097 102.248 298.337 102.081 298.648C101.915 298.958 101.831 299.322 101.831 299.739H100.155C100.155 299.03 100.318 298.411 100.644 297.881C100.969 297.35 101.416 296.939 101.985 296.648C102.553 296.352 103.199 296.205 103.922 296.205C104.653 296.205 105.297 296.35 105.854 296.642C106.415 296.93 106.852 297.324 107.166 297.824C107.481 298.32 107.638 298.881 107.638 299.506C107.638 299.938 107.557 300.36 107.394 300.773C107.235 301.186 106.956 301.646 106.558 302.153C106.161 302.657 105.608 303.269 104.899 303.989L102.587 306.409V306.494H107.826V308H100.166Z" fill="white"/>
</g>
<defs>
<clipPath id="clip0_8604_19965">
<rect width="211" height="330" fill="white"/>
</clipPath>
</defs>
</svg>
