<svg width="184" height="289" viewBox="0 0 184 289" fill="none" xmlns="http://www.w3.org/2000/svg">
<path d="M184 278.799L184 10.3787C184 4.74488 179.435 0.177734 173.805 0.177734L10.1951 0.177734C4.56454 0.177734 6.10352e-05 4.74488 6.10352e-05 10.3787L6.10352e-05 278.799C6.10352e-05 284.433 4.56454 289 10.1951 289H173.805C179.435 289 184 284.433 184 278.799Z" fill="#005B4F"/>
<mask id="mask0_8307_9504" style="mask-type:luminance" maskUnits="userSpaceOnUse" x="0" y="0" width="185" height="289">
<path d="M184.001 289L184.001 0.177734L0.00152588 0.177734L0.00152588 289H184.001Z" fill="white"/>
</mask>
<g mask="url(#mask0_8307_9504)">
<g opacity="0.16">
<path d="M105.68 408.217C106.156 408.324 106.632 408.408 107.109 408.515C167.041 421.731 226.937 383.084 241.324 321.568C254.771 264.128 223.816 206.95 171.173 187.584C171.173 183.092 168.756 178.766 164.504 176.549C158.823 173.606 151.927 175.5 148.485 180.72C91.5064 172.807 36.4816 210.894 22.7135 269.764C8.1355 332.079 45.2832 394.059 105.68 408.205V408.217ZM30.9553 272.946C43.6039 218.902 94.079 183.831 146.769 190.361C147.567 193.757 149.783 196.796 153.118 198.524C159.18 201.67 166.647 199.299 169.792 193.221C170.101 192.625 170.34 192.006 170.542 191.398C219.922 209.5 248.804 263.877 235.988 318.636C222.184 377.626 165.206 414.724 108.729 401.496C52.2506 388.268 17.4254 330.708 30.9434 272.946H30.9553Z" fill="#00A99D"/>
<mask id="mask1_8307_9504" style="mask-type:luminance" maskUnits="userSpaceOnUse" x="19" y="175" width="226" height="237">
<path d="M105.68 408.217C106.156 408.324 106.632 408.408 107.109 408.515C167.041 421.731 226.937 383.084 241.324 321.568C254.771 264.128 223.816 206.95 171.173 187.584C171.173 183.092 168.756 178.766 164.504 176.549C158.823 173.606 151.927 175.5 148.485 180.72C91.5064 172.807 36.4816 210.894 22.7135 269.764C8.1355 332.079 45.2832 394.059 105.68 408.205V408.217ZM30.9553 272.946C43.6039 218.902 94.079 183.831 146.769 190.361C147.567 193.757 149.783 196.796 153.118 198.524C159.18 201.67 166.647 199.299 169.792 193.221C170.101 192.625 170.34 192.006 170.542 191.398C219.922 209.5 248.804 263.877 235.988 318.636C222.184 377.626 165.206 414.724 108.729 401.496C52.2506 388.268 17.4254 330.708 30.9434 272.946H30.9553Z" fill="white"/>
</mask>
<g mask="url(#mask1_8307_9504)">
<path d="M145.356 304.484L362.269 -45.8359L141.827 -182.488L-75.0849 167.832L145.356 304.484Z" fill="#00A99D"/>
</g>
</g>
<g opacity="0.16">
<path d="M-13.9458 106.394C-13.6957 106.418 -13.4575 106.43 -13.2073 106.453C17.7114 109.468 45.4739 86.4089 48.9755 54.6261C52.2508 24.9407 33.2422 -1.92035 5.61068 -8.4509C5.34866 -10.7032 3.85989 -12.7411 1.58505 -13.5872C-1.44012 -14.7193 -4.79879 -13.3488 -6.20418 -10.5245C-35.3126 -11.0488 -60.6573 11.4267 -64.016 41.851C-67.5771 74.0509 -45.1503 102.95 -13.9458 106.394ZM-59.6807 42.9474C-56.596 15.0257 -33.3593 -5.66231 -6.47811 -5.56698C-5.87069 -3.9105 -4.57249 -2.51621 -2.79788 -1.84886C0.441673 -0.633318 4.05045 -2.27787 5.26529 -5.51932C5.38438 -5.84108 5.46775 -6.16283 5.5273 -6.4846C31.4318 -0.38306 49.2494 25.1909 46.1171 53.4821C42.7465 83.9659 16.3655 106.06 -12.8143 102.831C-41.9941 99.6011 -62.9798 72.7877 -59.6807 42.9474Z" fill="#00A99D"/>
<mask id="mask2_8307_9504" style="mask-type:luminance" maskUnits="userSpaceOnUse" x="-65" y="-14" width="115" height="121">
<path d="M-13.9458 106.394C-13.6957 106.418 -13.4575 106.43 -13.2073 106.453C17.7114 109.468 45.4739 86.4089 48.9755 54.6261C52.2508 24.9407 33.2422 -1.92035 5.61068 -8.4509C5.34866 -10.7032 3.85989 -12.7411 1.58505 -13.5872C-1.44012 -14.7193 -4.79879 -13.3488 -6.20418 -10.5245C-35.3126 -11.0488 -60.6573 11.4267 -64.016 41.851C-67.5771 74.0509 -45.1503 102.95 -13.9458 106.394ZM-59.6807 42.9474C-56.596 15.0257 -33.3593 -5.66231 -6.47811 -5.56698C-5.87069 -3.9105 -4.57249 -2.51621 -2.79788 -1.84886C0.441673 -0.633318 4.05045 -2.27787 5.26529 -5.51932C5.38438 -5.84108 5.46775 -6.16283 5.5273 -6.4846C31.4318 -0.38306 49.2494 25.1909 46.1171 53.4821C42.7465 83.9659 16.3655 106.06 -12.8143 102.831C-41.9941 99.6011 -62.9798 72.7877 -59.6807 42.9474Z" fill="white"/>
</mask>
<g mask="url(#mask2_8307_9504)">
<path d="M-0.287202 51.8606L87.5212 -137.33L-31.5292 -192.649L-119.338 -3.4582L-0.287202 51.8606Z" fill="#00A99D"/>
</g>
</g>
</g>
<path d="M165.516 279.098C164.205 277.775 167.076 275.547 167.886 274.331C172.697 267.169 172.411 258.589 167.647 251.51C166.814 250.27 164.432 248.733 165.42 247.22C166.873 245.003 170.422 250.628 171.042 251.689C175.187 258.875 175.163 267.538 170.923 274.677C170.22 275.868 167.171 280.766 165.516 279.098Z" fill="#00A99D"/>
<path d="M160.752 274.343C159.715 272.746 160.978 272.437 161.692 271.412C165.623 265.882 165.587 260.555 161.812 254.966C161.156 253.989 159.715 253.429 160.656 251.987C162.145 249.711 165.301 255.145 165.849 256.289C167.957 260.734 167.91 265.942 165.682 270.339C165.051 271.59 162.407 276 160.752 274.343Z" fill="#00A99D"/>
<path d="M155.987 269.576C154.963 268.063 156.749 267.133 157.321 265.846C158.155 263.999 158.143 262.188 157.321 260.341C156.749 259.054 154.951 258.124 155.987 256.611C157.238 255.836 157.762 256.337 158.584 257.29C160.739 259.793 161.228 263.177 160.132 266.264C159.679 267.539 157.631 271.185 155.987 269.553V269.576Z" fill="#00A99D"/>
<path d="M143.624 12.9531C143.696 13.0365 143.684 13.3583 143.684 13.4894L143.648 17.1122C143.719 17.1122 143.791 17.1122 143.874 17.1122C143.958 17.1122 144.017 17.1122 144.101 17.1122L144.065 13.4894C144.065 13.3464 144.065 13.0365 144.124 12.9531C144.184 12.8816 144.267 12.8459 144.398 12.8459C145.697 12.8697 147.102 13.1319 147.924 13.3345C147.817 13.1319 147.686 12.9412 147.519 12.7624C147.138 12.3573 146.614 12.0117 145.982 11.7852C145.351 11.5469 144.625 11.4277 143.886 11.4277C143.148 11.4277 142.421 11.5469 141.79 11.7852C141.159 12.0236 140.623 12.3573 140.254 12.7624C140.087 12.9412 139.956 13.1319 139.849 13.3345C140.67 13.1319 142.076 12.8697 143.374 12.8459C143.505 12.8459 143.588 12.8816 143.648 12.9531H143.624Z" fill="white"/>
<path d="M144.66 14.1222C144.66 14.1222 144.66 14.1818 144.672 14.2295C144.898 15.6 145.184 16.7797 145.244 16.9823C146.923 16.601 148.138 15.5284 148.138 14.2772C148.138 14.1222 148.114 13.9673 148.078 13.8124C146.875 13.5383 146.077 13.4906 145.291 13.443C144.601 13.4072 144.589 13.6455 144.66 14.1222Z" fill="white"/>
<path d="M141.766 16.7678C141.992 16.8512 142.231 16.9227 142.481 16.9823C142.528 16.7917 142.826 15.588 143.052 14.1937C143.052 14.1699 143.052 14.1461 143.064 14.1222C143.136 13.6455 143.124 13.4072 142.433 13.443C141.647 13.4906 140.837 13.5383 139.634 13.8124C139.599 13.9673 139.575 14.1222 139.575 14.2772C139.575 14.8134 139.789 15.3378 140.206 15.7906C140.587 16.1958 141.111 16.5414 141.742 16.7678H141.766Z" fill="white"/>
<path d="M154.569 11.416H149.162V13.0963H150.758V17.1243H153.021V13.0963H154.569V11.416Z" fill="white"/>
<path d="M156.142 11.416L154.01 17.1243H156.178L157.321 13.7279L158.477 17.1243H160.668L158.488 11.416H156.142Z" fill="white"/>
<path d="M165.562 11.416H160.155V13.0963H161.751V17.1243H164.014V13.0963H165.562V11.416Z" fill="white"/>
<path d="M167.135 11.416L165.003 17.1243H167.171L168.314 13.7279L169.469 17.1243H171.661L169.481 11.416H167.135Z" fill="white"/>
<path fill-rule="evenodd" clip-rule="evenodd" d="M55.2984 141.657V137.844H43.019V141.657H46.6159V150.762H51.6896V141.657H55.2865H55.2984ZM61.6465 143.135L59.1096 150.762H54.0359L58.9072 137.844H64.4096L69.2809 150.762H64.2072L61.6703 143.135H61.6465ZM80.262 141.657V137.844H67.9827V141.657H71.5795V150.762H76.6533V141.657H80.2501H80.262ZM86.6101 143.135L84.0733 150.762H78.9996L83.8708 137.844H89.3733L94.2445 150.762H89.1708L86.634 143.135H86.6101Z" fill="white"/>
<path d="M140.408 139.739C140.384 139.656 140.361 139.584 140.337 139.501C137.633 129.372 127.081 123.318 116.624 125.975C106.869 128.442 100.628 137.63 101.831 147.14C101.152 147.485 100.688 148.2 100.688 149.023C100.688 150.119 101.522 151.013 102.582 151.12C105.857 160.38 115.945 165.742 125.949 163.204C136.537 160.523 143.005 150.024 140.408 139.751V139.739ZM125.783 161.691C116.6 164.014 107.322 159.117 104.178 150.608C104.63 150.215 104.916 149.642 104.916 148.999C104.916 147.831 103.975 146.89 102.808 146.89C102.689 146.89 102.582 146.89 102.475 146.913C101.343 138 107.31 129.348 116.612 127C126.628 124.462 136.728 130.194 139.158 139.799C141.587 149.404 135.609 159.212 125.795 161.691H125.783Z" fill="white"/>
<path d="M121.34 144.445C121.34 141.299 119.435 138.809 115.921 138.809C112.408 138.809 110.288 141.24 110.288 145.065C110.288 148.89 112.384 151.119 116.088 151.119C118.768 151.119 120.506 149.963 121.138 147.889L118.339 147.258C117.993 148.116 117.303 148.7 116.052 148.7C114.289 148.7 113.456 147.437 113.372 145.792H120.209C120.983 145.792 121.352 145.423 121.352 144.457L121.34 144.445ZM115.921 141.18C117.291 141.18 118.136 142.133 118.22 143.73H113.372C113.503 142.169 114.504 141.18 115.909 141.18H115.921Z" fill="white"/>
<path d="M130.725 139.133L127.879 147.785L125.104 139.133H121.924L125.89 149.465C126.295 150.49 126.759 150.919 127.712 150.919H128.058C128.998 150.919 129.463 150.502 129.868 149.477L133.87 139.133H130.725Z" fill="white"/>
</svg>
