<svg width="25" height="24" viewBox="0 0 25 24" fill="none" xmlns="http://www.w3.org/2000/svg">
<path d="M3.68262 3.6123H21.0244C22.8324 3.61248 24.3035 5.08362 24.3037 6.8916V16.8428C24.3037 18.6509 22.8325 20.1219 21.0244 20.1221H3.68262C1.87453 20.1219 0.40332 18.6509 0.40332 16.8428V6.8916C0.403496 5.08362 1.87463 3.61248 3.68262 3.6123ZM3.68262 5.32812C2.82083 5.3283 2.11932 6.02982 2.11914 6.8916V16.8428C2.11914 17.7047 2.82073 18.4061 3.68262 18.4062H21.0244C21.8863 18.4061 22.5879 17.7047 22.5879 16.8428V6.8916C22.5877 6.02982 21.8862 5.3283 21.0244 5.32812H3.68262Z" fill="#00AF9E" stroke="#1E1E1E" stroke-width="0.1"/>
<mask id="path-2-inside-1_7361_20878" fill="white">
<path d="M8.75912 11.8672C8.75912 12.5607 8.51793 12.9388 8.46946 13.0077C8.27733 13.2811 8.34324 13.6587 8.61665 13.851C8.72277 13.9255 8.84396 13.9611 8.96426 13.9611C9.15491 13.9611 9.34231 13.8716 9.46024 13.7038C9.61335 13.4858 9.96982 12.8704 9.96982 11.8672C9.96982 10.8636 9.61335 10.2485 9.45995 10.0306C9.26752 9.75706 8.89036 9.6913 8.61636 9.88387C8.34295 10.0763 8.27733 10.4539 8.46975 10.7273C8.51823 10.796 8.75912 11.1736 8.75912 11.8672Z"/>
</mask>
<path d="M8.75912 11.8672C8.75912 12.5607 8.51793 12.9388 8.46946 13.0077C8.27733 13.2811 8.34324 13.6587 8.61665 13.851C8.72277 13.9255 8.84396 13.9611 8.96426 13.9611C9.15491 13.9611 9.34231 13.8716 9.46024 13.7038C9.61335 13.4858 9.96982 12.8704 9.96982 11.8672C9.96982 10.8636 9.61335 10.2485 9.45995 10.0306C9.26752 9.75706 8.89036 9.6913 8.61636 9.88387C8.34295 10.0763 8.27733 10.4539 8.46975 10.7273C8.51823 10.796 8.75912 11.1736 8.75912 11.8672Z" fill="#00AF9E"/>
<path d="M8.46946 13.0077L7.32461 12.2019L7.32399 12.2028L8.46946 13.0077ZM8.61665 13.851L7.81132 14.9962L7.81231 14.9969L8.61665 13.851ZM9.46024 13.7038L10.6055 14.509L10.6059 14.5085L9.46024 13.7038ZM9.45995 10.0306L8.31486 10.8361L8.31529 10.8367L9.45995 10.0306ZM8.61636 9.88387L7.81136 8.73846L7.81061 8.73898L8.61636 9.88387ZM8.46975 10.7273L7.32486 11.5331L7.32572 11.5343L8.46975 10.7273ZM8.75912 11.8672H7.35912C7.35912 12.2169 7.24198 12.3193 7.32461 12.2019L8.46946 13.0077L9.6143 13.8135C9.79388 13.5584 10.1591 12.9044 10.1591 11.8672H8.75912ZM8.46946 13.0077L7.32399 12.2028C6.68722 13.109 6.90589 14.3595 7.81132 14.9962L8.61665 13.851L9.42199 12.7058C9.78059 12.958 9.86743 13.4533 9.61492 13.8126L8.46946 13.0077ZM8.61665 13.851L7.81231 14.9969C8.16142 15.2419 8.56524 15.3611 8.96426 15.3611V13.9611V12.5611C9.12267 12.5611 9.28412 12.6091 9.421 12.7051L8.61665 13.851ZM8.96426 13.9611V15.3611C9.59095 15.3611 10.2142 15.0655 10.6055 14.509L9.46024 13.7038L8.31498 12.8986C8.47038 12.6776 8.71886 12.5611 8.96426 12.5611V13.9611ZM9.46024 13.7038L10.6059 14.5085C10.885 14.1111 11.3698 13.2203 11.3698 11.8672H9.96982H8.56982C8.56982 12.5206 8.3417 12.8606 8.3146 12.8991L9.46024 13.7038ZM9.96982 11.8672H11.3698C11.3698 10.5139 10.8852 9.62295 10.6046 9.22455L9.45995 10.0306L8.31529 10.8367C8.34155 10.874 8.56982 11.2132 8.56982 11.8672H9.96982ZM9.45995 10.0306L10.605 9.22516C9.96755 8.31888 8.71728 8.10177 7.81136 8.73846L8.61636 9.88387L9.42136 11.0293C9.06344 11.2808 8.5675 11.1953 8.31486 10.8361L9.45995 10.0306ZM8.61636 9.88387L7.81061 8.73898C6.90479 9.37649 6.68751 10.6275 7.32486 11.5331L8.46975 10.7273L9.61464 9.92156C9.86714 10.2803 9.78111 10.7761 9.42211 11.0288L8.61636 9.88387ZM8.46975 10.7273L7.32572 11.5343C7.24188 11.4154 7.35912 11.5168 7.35912 11.8672H8.75912H10.1591C10.1591 10.8305 9.79458 10.1767 9.61378 9.92034L8.46975 10.7273Z" fill="#00AF9E" mask="url(#path-2-inside-1_7361_20878)"/>
<mask id="path-4-inside-2_7361_20878" fill="white">
<path d="M14.1956 16.2775C14.3017 16.3522 14.4235 16.388 14.5438 16.388C14.7342 16.388 14.9213 16.2986 15.0392 16.1313C15.8831 14.9336 16.3477 13.419 16.3477 11.8668C16.3477 10.3147 15.8831 8.80029 15.0392 7.60259C14.8468 7.32962 14.4696 7.26326 14.1956 7.45643C13.9225 7.64885 13.8569 8.0266 14.0496 8.29987C14.7507 9.29538 15.137 10.5621 15.137 11.8668C15.137 13.1716 14.7507 14.4385 14.0496 15.434C13.8569 15.7073 13.9225 16.085 14.1956 16.2775Z"/>
</mask>
<path d="M14.1956 16.2775C14.3017 16.3522 14.4235 16.388 14.5438 16.388C14.7342 16.388 14.9213 16.2986 15.0392 16.1313C15.8831 14.9336 16.3477 13.419 16.3477 11.8668C16.3477 10.3147 15.8831 8.80029 15.0392 7.60259C14.8468 7.32962 14.4696 7.26326 14.1956 7.45643C13.9225 7.64885 13.8569 8.0266 14.0496 8.29987C14.7507 9.29538 15.137 10.5621 15.137 11.8668C15.137 13.1716 14.7507 14.4385 14.0496 15.434C13.8569 15.7073 13.9225 16.085 14.1956 16.2775Z" fill="#00AF9E"/>
<path d="M14.1956 16.2775L15.0021 15.1331L15.0019 15.133L14.1956 16.2775ZM15.0392 16.1313L16.1834 16.9379L16.1836 16.9377L15.0392 16.1313ZM15.0392 7.60259L16.1836 6.79622L16.1835 6.79597L15.0392 7.60259ZM14.1956 7.45643L15.0019 8.6009L15.0023 8.60068L14.1956 7.45643ZM14.0496 8.29987L15.1942 7.49374L15.1937 7.493L14.0496 8.29987ZM14.0496 15.434L15.1937 16.2409L15.1942 16.2401L14.0496 15.434ZM14.1956 16.2775L13.3891 17.4218C13.7394 17.6687 14.1449 17.788 14.5438 17.788V16.388V14.988C14.7021 14.988 14.864 15.0358 15.0021 15.1331L14.1956 16.2775ZM14.5438 16.388V17.788C15.1702 17.788 15.7924 17.4927 16.1834 16.9379L15.0392 16.1313L13.8949 15.3246C14.0501 15.1045 14.2981 14.988 14.5438 14.988V16.388ZM15.0392 16.1313L16.1836 16.9377C17.204 15.4895 17.7477 13.6895 17.7477 11.8668H16.3477H14.9477C14.9477 13.1486 14.5621 14.3777 13.8947 15.3249L15.0392 16.1313ZM16.3477 11.8668H17.7477C17.7477 10.0442 17.204 8.24439 16.1836 6.79622L15.0392 7.60259L13.8947 8.40896C14.5621 9.35618 14.9477 10.5852 14.9477 11.8668H16.3477ZM15.0392 7.60259L16.1835 6.79597C15.5471 5.89319 14.2971 5.67198 13.3889 6.31218L14.1956 7.45643L15.0023 8.60068C14.6421 8.85455 14.1465 8.76606 13.8949 8.40922L15.0392 7.60259ZM14.1956 7.45643L13.3893 6.31195C12.4843 6.94954 12.2667 8.20096 12.9055 9.10674L14.0496 8.29987L15.1937 7.493C15.447 7.85225 15.3607 8.34816 15.0019 8.6009L14.1956 7.45643ZM14.0496 8.29987L12.905 9.106C13.4279 9.84848 13.737 10.8291 13.737 11.8668H15.137H16.537C16.537 10.2951 16.0735 8.74229 15.1942 7.49374L14.0496 8.29987ZM15.137 11.8668H13.737C13.737 12.9047 13.4278 13.8854 12.905 14.6279L14.0496 15.434L15.1942 16.2401C16.0736 14.9915 16.537 13.4386 16.537 11.8668H15.137ZM14.0496 15.434L12.9055 14.6271C12.2667 15.5329 12.4843 16.7843 13.3893 17.4219L14.1956 16.2775L15.0019 15.133C15.3607 15.3857 15.447 15.8816 15.1937 16.2409L14.0496 15.434Z" fill="#00AF9E" mask="url(#path-4-inside-2_7361_20878)"/>
<mask id="path-6-inside-3_7361_20878" fill="white">
<path d="M11.4058 15.0649C11.5119 15.1396 11.6334 15.1755 11.754 15.1755C11.9444 15.1755 12.1315 15.0862 12.2494 14.9189C12.8358 14.0868 13.1589 13.0034 13.1589 11.8681C13.1589 10.7329 12.8358 9.64929 12.2494 8.81708C12.057 8.54411 11.6801 8.47849 11.4058 8.67106C11.1327 8.86363 11.0671 9.24139 11.2598 9.51465C11.7038 10.1445 11.9482 10.9803 11.9482 11.8681C11.9482 12.7558 11.7038 13.5916 11.2598 14.2213C11.0671 14.4946 11.1327 14.8722 11.4058 15.0649Z"/>
</mask>
<path d="M11.4058 15.0649C11.5119 15.1396 11.6334 15.1755 11.754 15.1755C11.9444 15.1755 12.1315 15.0862 12.2494 14.9189C12.8358 14.0868 13.1589 13.0034 13.1589 11.8681C13.1589 10.7329 12.8358 9.64929 12.2494 8.81708C12.057 8.54411 11.6801 8.47849 11.4058 8.67106C11.1327 8.86363 11.0671 9.24139 11.2598 9.51465C11.7038 10.1445 11.9482 10.9803 11.9482 11.8681C11.9482 12.7558 11.7038 13.5916 11.2598 14.2213C11.0671 14.4946 11.1327 14.8722 11.4058 15.0649Z" fill="#00AF9E"/>
<path d="M11.4058 15.0649L10.5986 16.2088L10.6004 16.21L11.4058 15.0649ZM12.2494 14.9189L13.3937 15.7255L13.3937 15.7254L12.2494 14.9189ZM12.2494 8.81708L13.3938 8.01065L13.3937 8.01045L12.2494 8.81708ZM11.4058 8.67106L10.6014 7.52524L10.5991 7.52688L11.4058 8.67106ZM11.2598 9.51465L12.4041 8.7081L12.4039 8.70778L11.2598 9.51465ZM11.2598 14.2213L12.4039 15.0282L12.404 15.028L11.2598 14.2213ZM11.4058 15.0649L10.6004 16.21C10.949 16.4553 11.3534 16.5755 11.754 16.5755V15.1755V13.7755C11.9134 13.7755 12.0748 13.8239 12.2112 13.9198L11.4058 15.0649ZM11.754 15.1755V16.5755C12.3797 16.5755 13.0022 16.2809 13.3937 15.7255L12.2494 14.9189L11.1051 14.1123C11.2607 13.8915 11.509 13.7755 11.754 13.7755V15.1755ZM12.2494 14.9189L13.3937 15.7254C14.1654 14.6305 14.5589 13.2575 14.5589 11.8681H13.1589H11.7589C11.7589 12.7493 11.5062 13.5432 11.1051 14.1124L12.2494 14.9189ZM13.1589 11.8681H14.5589C14.5589 10.4788 14.1654 9.10567 13.3938 8.01065L12.2494 8.81708L11.105 9.62351C11.5062 10.1929 11.7589 10.987 11.7589 11.8681H13.1589ZM12.2494 8.81708L13.3937 8.01045C12.7554 7.10501 11.5063 6.88997 10.6014 7.52524L11.4058 8.67106L12.2102 9.81688C11.8539 10.067 11.3586 9.98321 11.1051 9.62371L12.2494 8.81708ZM11.4058 8.67106L10.5991 7.52688C9.69477 8.16448 9.47676 9.41555 10.1157 10.3215L11.2598 9.51465L12.4039 8.70778C12.6574 9.06722 12.5706 9.56278 12.2126 9.81525L11.4058 8.67106ZM11.2598 9.51465L10.1155 10.3212C10.3687 10.6804 10.5482 11.2236 10.5482 11.8681H11.9482H13.3482C13.3482 10.7369 13.0388 9.60863 12.4041 8.7081L11.2598 9.51465ZM11.9482 11.8681H10.5482C10.5482 12.5125 10.3687 13.0557 10.1156 13.4147L11.2598 14.2213L12.404 15.028C13.0389 14.1275 13.3482 12.9992 13.3482 11.8681H11.9482ZM11.2598 14.2213L10.1157 13.4145C9.47657 14.3207 9.69511 15.5713 10.5986 16.2088L11.4058 15.0649L12.213 13.921C12.5703 14.1732 12.6576 14.6685 12.4039 15.0282L11.2598 14.2213Z" fill="#00AF9E" mask="url(#path-6-inside-3_7361_20878)"/>
</svg>
