<svg width="33" height="32" viewBox="0 0 33 32" fill="none" xmlns="http://www.w3.org/2000/svg">
<path d="M8.61241 17.8759C6.81488 17.8759 5.35315 16.4142 5.35315 14.6167C5.35315 12.8192 6.81488 11.3574 8.61241 11.3574C10.4099 11.3574 11.8717 12.8192 11.8717 14.6167C11.8717 16.4142 10.4099 17.8759 8.61241 17.8759ZM8.61241 11.95C7.14278 11.95 5.94574 13.1471 5.94574 14.6167C5.94574 16.0863 7.14278 17.2833 8.61241 17.2833C10.082 17.2833 11.2791 16.0863 11.2791 14.6167C11.2791 13.1471 10.082 11.95 8.61241 11.95Z" fill="#CCCCCC"/>
<path d="M12.7921 10.6463C11.6465 10.6463 10.7141 9.71394 10.7141 8.56826C10.7141 7.42258 11.6465 6.49023 12.7921 6.49023C13.9378 6.49023 14.8702 7.42258 14.8702 8.56826C14.8702 9.71394 13.9378 10.6463 12.7921 10.6463ZM12.7921 7.28233C12.083 7.28233 11.5042 7.85912 11.5042 8.57023C11.5042 9.28135 12.081 9.85814 12.7921 9.85814C13.5032 9.85814 14.08 9.28135 14.08 8.57023C14.08 7.85912 13.5032 7.28233 12.7921 7.28233Z" fill="#CCCCCC"/>
<path d="M16.3161 17.8759C14.5186 17.8759 13.0568 16.4142 13.0568 14.6167C13.0568 12.8192 14.5186 11.3574 16.3161 11.3574C18.1136 11.3574 19.5753 12.8192 19.5753 14.6167C19.5753 16.4142 18.1136 17.8759 16.3161 17.8759ZM16.3161 11.95C14.8465 11.95 13.6494 13.1471 13.6494 14.6167C13.6494 16.0863 14.8465 17.2833 16.3161 17.2833C17.7857 17.2833 18.9827 16.0863 18.9827 14.6167C18.9827 13.1471 17.7857 11.95 16.3161 11.95Z" fill="#CCCCCC"/>
<path d="M24.2173 17.8759C22.4198 17.8759 20.9581 16.4142 20.9581 14.6167C20.9581 12.8192 22.4198 11.3574 24.2173 11.3574C26.0149 11.3574 27.4766 12.8192 27.4766 14.6167C27.4766 16.4142 26.0149 17.8759 24.2173 17.8759ZM24.2173 11.95C22.7477 11.95 21.5507 13.1471 21.5507 14.6167C21.5507 16.0863 22.7477 17.2833 24.2173 17.2833C25.687 17.2833 26.884 16.0863 26.884 14.6167C26.884 13.1471 25.687 11.95 24.2173 11.95Z" fill="#CCCCCC"/>
<path d="M12.7605 24.5918C10.963 24.5918 9.50128 23.13 9.50128 21.3325C9.50128 19.535 10.963 18.0732 12.7605 18.0732C14.5581 18.0732 16.0198 19.535 16.0198 21.3325C16.0198 23.13 14.5581 24.5918 12.7605 24.5918ZM12.7605 18.6658C11.2909 18.6658 10.0939 19.8629 10.0939 21.3325C10.0939 22.8021 11.2909 23.9992 12.7605 23.9992C14.2302 23.9992 15.4272 22.8021 15.4272 21.3325C15.4272 19.8629 14.2302 18.6658 12.7605 18.6658Z" fill="#CCCCCC"/>
<path d="M20.4643 24.5918C18.6667 24.5918 17.205 23.13 17.205 21.3325C17.205 19.535 18.6667 18.0732 20.4643 18.0732C22.2618 18.0732 23.7235 19.535 23.7235 21.3325C23.7235 23.13 22.2618 24.5918 20.4643 24.5918ZM20.4643 18.6658C18.9946 18.6658 17.7976 19.8629 17.7976 21.3325C17.7976 22.8021 18.9946 23.9992 20.4643 23.9992C21.9339 23.9992 23.1309 22.8021 23.1309 21.3325C23.1309 19.8629 21.9339 18.6658 20.4643 18.6658Z" fill="#CCCCCC"/>
<path d="M20.1008 10.6697C18.9551 10.6697 18.0228 9.73738 18.0228 8.5917C18.0228 7.44602 18.9551 6.51367 20.1008 6.51367C21.2465 6.51367 22.1788 7.44602 22.1788 8.5917C22.1788 9.73738 21.2465 10.6697 20.1008 10.6697ZM20.1008 7.30577C19.3917 7.30577 18.8129 7.88256 18.8129 8.59367C18.8129 9.30478 19.3897 9.88157 20.1008 9.88157C20.8119 9.88157 21.3887 9.30478 21.3887 8.59367C21.3887 7.88256 20.8119 7.30577 20.1008 7.30577Z" fill="#CCCCCC"/>
<path d="M26.5124 5.62952C26.1588 5.21076 25.7795 4.81372 25.3785 4.44434H7.2531C6.85211 4.81372 6.47285 5.21076 6.11927 5.62952C4.16372 7.95051 2.98248 10.949 2.98248 14.2221C2.98248 21.5861 8.95187 27.5554 16.3158 27.5554C23.6798 27.5554 29.6491 21.5861 29.6491 14.2221C29.6491 10.949 28.4679 7.95051 26.5124 5.62952ZM16.3158 26.3703C9.61754 26.3703 4.16767 20.9204 4.16767 14.2221C4.16767 10.87 5.53261 7.83001 7.73508 5.62952H24.8966C27.099 7.83001 28.464 10.87 28.464 14.2221C28.464 20.9204 23.0141 26.3703 16.3158 26.3703Z" fill="#CCCCCC"/>
</svg>
