<svg width="29" height="24" viewBox="0 0 29 24" fill="none" xmlns="http://www.w3.org/2000/svg">
<path d="M26.4549 10.4526C26.4549 10.9748 26.4078 11.4914 26.307 11.9907C26.2465 12.3121 26.139 12.6277 26.018 12.9376L26.0046 12.9778C25.6147 13.9592 24.9897 14.8603 24.1563 15.6121L16.7834 22.3328C16.1382 23.2224 14.626 23.2224 13.9808 22.3328L6.60785 15.6121C5.78117 14.8603 5.1494 13.9592 4.7663 12.9836L4.74614 12.9319C4.62516 12.622 4.51762 12.3063 4.45041 11.9849C4.35632 11.4856 4.30255 10.9806 4.30255 10.4583C4.30255 8.57581 4.94777 6.8196 6.07017 5.34461C8.03269 2.73325 11.4671 1 15.3787 1C19.2903 1 22.7247 2.73325 24.6873 5.34461C25.8029 6.8196 26.4481 8.57581 26.4481 10.4583L26.4549 10.4526Z" fill="#646464"/>
</svg>
