<svg width="32" height="32" viewBox="0 0 32 32" fill="none" xmlns="http://www.w3.org/2000/svg">
<path d="M27.5089 12.7616H24.1783L21.4019 9.43646C20.4812 8.33421 19.1285 7.70227 17.6912 7.70227H4.49056C4.45565 7.70177 4.42074 7.69958 4.38583 7.69958C4.36783 7.69958 4.35038 7.70065 4.33292 7.70227H2.68182C2.30546 7.70227 2 8.00709 2 8.38265C2 8.75827 2.30546 9.06308 2.68182 9.06308H4.49056C5.72548 9.10171 6.79131 9.82071 7.32369 10.8565H2.69491C2.31855 10.8565 2.01309 11.1613 2.01309 11.5369C2.01309 11.9125 2.31855 12.2173 2.69491 12.2173H7.68256C7.68425 12.2625 7.68587 12.3076 7.68587 12.3534C7.68587 14.1692 6.20548 15.6465 4.38583 15.6465C3.94019 15.6465 3.50764 15.5593 3.10128 15.3879C2.75437 15.2415 2.35455 15.4036 2.20782 15.7493C2.06109 16.0955 2.22364 16.4945 2.57001 16.6409C2.57709 16.6436 2.58419 16.6463 2.59127 16.649L10.2795 23.8345C10.4109 23.9575 10.5784 24.0184 10.7453 24.0184C10.9275 24.0184 11.1091 23.946 11.2433 23.8028C11.5008 23.5285 11.4866 23.098 11.2117 22.8411L4.93348 16.9735C7.24788 16.7018 9.0495 14.7341 9.0495 12.3528C9.0495 12.3071 9.04731 12.262 9.04625 12.2168H16.2544C16.8578 12.2168 17.4376 12.4715 17.8444 12.9156L18.9926 14.1681C19.1274 14.3151 19.3112 14.3891 19.4961 14.3891C19.6603 14.3891 19.8256 14.3303 19.9559 14.2106C20.2336 13.9569 20.2532 13.5263 19.999 13.2493L18.8508 11.9968C18.1859 11.2713 17.2396 10.8555 16.2544 10.8555H8.80025C8.56731 10.1729 8.18056 9.56109 7.68038 9.06196H17.6906C18.7226 9.06196 19.693 9.5154 20.3536 10.3068L23.3345 13.8769C23.4643 14.032 23.6558 14.1218 23.8581 14.1218H27.5084C28.1307 14.1218 28.6364 14.627 28.6364 15.2475V18.9748C28.6364 19.4201 28.2731 19.7826 27.8269 19.7826H20.3345C20.2341 17.4846 18.3299 15.6459 16.003 15.6459C13.6761 15.6459 11.6666 17.5869 11.6666 19.9731C11.6666 22.3593 13.6117 24.3003 16.003 24.3003C17.9879 24.3003 19.6641 22.9625 20.1769 21.1434H27.8269C29.0253 21.1434 30 20.1707 30 18.9748V15.2475C30 13.8763 28.8824 12.7611 27.5084 12.7611L27.5089 12.7616ZM16.0041 22.9401C14.365 22.9401 13.0314 21.6093 13.0314 19.9736C13.0314 18.338 14.365 17.0072 16.0041 17.0072C17.6432 17.0072 18.9768 18.338 18.9768 19.9736C18.9768 21.6093 17.6432 22.9401 16.0041 22.9401Z" fill="white"/>
</svg>
