<svg width="24" height="24" viewBox="0 0 24 24" fill="none" xmlns="http://www.w3.org/2000/svg">
<path d="M23.6581 8.97778C23.646 8.92742 23.6308 8.87874 23.618 8.82838C22.008 2.51101 15.7192 -1.26329 9.49366 0.387598C3.68148 1.92938 -0.0320408 7.65757 0.683268 13.5872C0.277953 13.8062 0 14.2477 0 14.7588C0 15.4403 0.493426 16.0002 1.12543 16.0698C3.07671 21.8484 9.08754 25.1888 15.0447 23.6084C21.3503 21.9356 25.2064 15.3858 23.6581 8.97778ZM14.9446 22.6734C9.47604 24.1237 3.94982 21.0661 2.07464 15.7601C2.34378 15.5184 2.51519 15.16 2.51519 14.7597C2.51519 14.032 1.95208 13.442 1.2576 13.442C1.18951 13.442 1.12303 13.4495 1.05734 13.4605C0.382084 7.9018 3.937 2.50598 9.47844 1.03637C15.4476 -0.546537 21.4609 3.02634 22.9083 9.01807C24.3557 15.0098 20.7904 21.1232 14.9454 22.6742L14.9446 22.6734Z" fill="white"/>
<path d="M12.3011 11.912C12.3011 9.94885 11.1653 8.39364 9.07222 8.39364C6.97916 8.39364 5.71436 9.90772 5.71436 12.2989C5.71436 14.69 6.95994 16.0782 9.17235 16.0782C10.7664 16.0782 11.8029 15.3581 12.1818 14.0631L10.5173 13.6661C10.3082 14.1982 9.89967 14.5641 9.15232 14.5641C8.10219 14.5641 7.60796 13.7786 7.55349 12.7471H11.6243C12.0824 12.7471 12.3019 12.5171 12.3019 11.912H12.3011ZM9.07222 9.87583C9.88686 9.87583 10.3947 10.4709 10.4428 11.4629H7.5575C7.6376 10.4885 8.22955 9.87583 9.07222 9.87583Z" fill="white"/>
<path d="M17.8915 8.60178L16.1974 14.0001L14.5433 8.60178H12.6497L15.0111 15.0442C15.2506 15.6812 15.5293 15.9523 16.0972 15.9523H16.3063C16.8646 15.9523 17.1434 15.6913 17.3829 15.0543L19.7643 8.60178H17.8907H17.8915Z" fill="white"/>
</svg>
