<svg width="40" height="40" viewBox="0 0 40 40" fill="none" xmlns="http://www.w3.org/2000/svg">
<rect x="4" y="4" width="32" height="32" rx="16" fill="#002B26"/>
<path d="M19.9728 11.6426H19.9113C18.1576 11.6426 16.7424 12.1635 15.7106 13.1943C14.6788 14.2252 14.2007 15.522 13.9427 16.6947C14.0576 16.7511 14.1847 16.7822 14.3143 16.7856C14.5959 16.7856 14.8965 16.6171 15.1521 16.0851C15.8384 14.6552 17.3767 12.5847 19.9397 12.5847C22.5027 12.5847 24.0457 14.6552 24.732 16.0828C24.9852 16.6149 25.2882 16.7833 25.5674 16.7833C25.6982 16.7806 25.8264 16.7486 25.9413 16.6902C25.6834 15.5198 25.1769 14.1875 24.1735 13.1921C23.1701 12.1968 21.7264 11.6426 19.9728 11.6426Z" fill="white"/>
<path d="M27.9411 19.0556C28.0168 17.4041 27.9103 10 19.9396 10C11.969 10 11.8672 17.4241 11.943 19.0623C12.0365 19.0526 12.1305 19.0475 12.2246 19.0468H13.2517C13.2765 19.0045 13.3042 18.9638 13.3345 18.9248C13.3487 17.2246 13.8339 11.3101 19.9112 11.3101H19.9728C25.8892 11.3101 26.5093 16.9364 26.5471 18.7918C26.6226 18.8692 26.6877 18.9548 26.7412 19.0468H27.7683C27.8275 19.0468 27.8843 19.0512 27.9411 19.0556Z" fill="white"/>
<path d="M13.1168 19.3789H12.2246C11.6339 19.3807 11.0681 19.6017 10.6511 19.9935C10.2341 20.3854 10 20.9161 10 21.4694V22.7396C10 23.2928 10.2341 23.8236 10.6511 24.2154C11.0681 24.6072 11.6339 24.8283 12.2246 24.83H13.1168C13.0889 24.7196 13.0754 24.6065 13.0766 24.4931V19.7159C13.0754 19.6024 13.0889 19.4893 13.1168 19.3789Z" fill="white"/>
<path d="M26.3034 25.6285C25.8798 27.5238 23.9936 28.3263 23.0162 28.6211C23.0474 28.7213 23.0633 28.825 23.0636 28.9293C23.0636 28.9293 23.0636 28.9426 23.0636 28.9492C24.164 28.6167 26.5211 27.6191 26.7294 25.1807C26.6227 25.3564 26.4776 25.509 26.3034 25.6285Z" fill="white"/>
<path d="M13.4268 24.4936C13.4197 24.6385 13.4441 24.7832 13.4985 24.9189C13.5528 25.0547 13.6359 25.1788 13.7429 25.2836C13.8498 25.3885 13.9784 25.4719 14.1207 25.5289C14.263 25.5859 14.4162 25.6153 14.571 25.6153C14.7258 25.6153 14.879 25.5859 15.0214 25.5289C15.1637 25.4719 15.2922 25.3885 15.3992 25.2836C15.5061 25.1788 15.5893 25.0547 15.6436 24.9189C15.6979 24.7832 15.7223 24.6385 15.7153 24.4936V19.7164C15.7223 19.5716 15.6979 19.4269 15.6436 19.2911C15.5893 19.1553 15.5061 19.0313 15.3992 18.9264C15.2922 18.8216 15.1637 18.7381 15.0214 18.6811C14.879 18.6241 14.7258 18.5947 14.571 18.5947C14.4162 18.5947 14.263 18.6241 14.1207 18.6811C13.9784 18.7381 13.8498 18.8216 13.7429 18.9264C13.6359 19.0313 13.5528 19.1553 13.4985 19.2911C13.4441 19.4269 13.4197 19.5716 13.4268 19.7164V24.4936Z" fill="white"/>
<path d="M27.7683 19.3789H26.8761C26.9064 19.489 26.9223 19.6022 26.9234 19.7159V24.4931C26.9223 24.6068 26.9064 24.7199 26.8761 24.83H27.7683C28.3602 24.83 28.9278 24.6098 29.3463 24.2177C29.7649 23.8257 30 23.294 30 22.7396V21.4694C30 20.9149 29.7649 20.3832 29.3463 19.9912C28.9278 19.5991 28.3602 19.3789 27.7683 19.3789Z" fill="white"/>
<path d="M25.423 18.6455C25.1192 18.6455 24.8279 18.7585 24.6131 18.9598C24.3983 19.161 24.2776 19.4339 24.2776 19.7184V24.4934C24.2776 24.778 24.3983 25.0509 24.6131 25.2521C24.8279 25.4533 25.1192 25.5664 25.423 25.5664C25.7268 25.5664 26.0181 25.4533 26.233 25.2521C26.4478 25.0509 26.5684 24.778 26.5684 24.4934V19.7162C26.5678 19.432 26.4469 19.1597 26.2321 18.959C26.0174 18.7582 25.7264 18.6455 25.423 18.6455Z" fill="white"/>
<path d="M21.0851 30.0004C21.9817 30.0004 22.7086 29.52 22.7086 28.9274C22.7086 28.3349 21.9817 27.8545 21.0851 27.8545C20.1885 27.8545 19.4616 28.3349 19.4616 28.9274C19.4616 29.52 20.1885 30.0004 21.0851 30.0004Z" fill="white"/>
<path d="M40 20C40 8.9543 31.0457 0 20 0C8.9543 0 0 8.9543 0 20C0 31.0457 8.9543 40 20 40C31.0457 40 40 31.0457 40 20Z" fill="#002B26"/>
<path d="M14.7504 16.2507C14.7504 14.8581 15.303 13.5225 16.2875 12.5381C17.2727 11.5536 18.6075 11.0003 20.0001 11.0003C21.3926 11.0003 22.7282 11.5536 23.7126 12.5381C24.6971 13.5225 25.2504 14.8581 25.2504 16.2507C25.2504 16.4492 25.3289 16.6403 25.4697 16.781C25.6104 16.921 25.8015 17.0003 26.0001 17.0003C26.1993 17.0003 26.3897 16.921 26.5304 16.781C26.6712 16.6403 26.7504 16.4492 26.7504 16.2507C26.7497 15.0996 26.4556 13.967 25.8949 12.9618C25.3334 11.9566 24.5252 11.1114 23.5452 10.507C22.566 9.90252 21.4482 9.55837 20.2978 9.50755C19.1482 9.45674 18.0037 9.70104 16.9749 10.2166C15.946 10.7329 15.066 11.5033 14.4186 12.4551C13.7712 13.407 13.3778 14.5084 13.2764 15.6551C13.1749 16.8018 13.3682 17.9558 13.8378 19.0062C14.3082 20.0573 15.0393 20.9707 15.9615 21.6596C16.7527 22.2499 17.663 22.6603 18.6297 22.861C18.7645 23.1618 18.9941 23.4107 19.2838 23.5684C19.5734 23.7255 19.9067 23.7833 20.2326 23.7321C20.5586 23.681 20.8586 23.5233 21.086 23.2847C21.3134 23.0462 21.4556 22.7388 21.4912 22.4114C21.5267 22.0833 21.4527 21.7529 21.2815 21.4714C21.1104 21.1892 20.8512 20.9721 20.5438 20.8521C20.2364 20.7329 19.8986 20.7173 19.5815 20.8099C19.2652 20.9018 18.9875 21.0951 18.7919 21.361C17.6408 21.0884 16.6156 20.4358 15.8823 19.5084C15.149 18.581 14.7497 17.4329 14.7504 16.2507ZM15.5 16.2507C15.5 15.4225 15.7289 14.6107 16.1608 13.9047C16.5926 13.1981 17.2112 12.6247 17.9482 12.247C18.6845 11.8699 19.5112 11.7025 20.3371 11.7647C21.1623 11.8262 21.9549 12.1151 22.6267 12.5981C23.2993 13.0818 23.8252 13.741 24.1467 14.504C24.4682 15.2662 24.5734 16.1033 24.4497 16.9218C24.3267 17.7403 23.9801 18.5092 23.4482 19.1433C22.9164 19.7781 22.2193 20.2529 21.4349 20.5173C21.0312 20.1833 20.5238 20.0003 20.0001 20.0003C19.4549 20.0003 18.9556 20.1944 18.5652 20.5173C17.6719 20.2166 16.8956 19.6433 16.3452 18.8773C15.7956 18.1121 15.5 17.1929 15.5 16.2507ZM20.0001 13.2507C19.2045 13.2507 18.4415 13.5662 17.8786 14.1292C17.3163 14.6914 17.0001 15.4551 17.0001 16.2507C17.0001 17.0462 17.3163 17.8092 17.8786 18.3714C18.4415 18.9344 19.2045 19.2507 20.0001 19.2507C20.7956 19.2507 21.5586 18.9344 22.1215 18.3714C22.6838 17.8092 23 17.0462 23 16.2507C23 15.4551 22.6838 14.6914 22.1215 14.1292C21.5586 13.5662 20.7956 13.2507 20.0001 13.2507ZM13.6253 21.5003H14.6445C15.2475 22.1166 15.9519 22.624 16.7275 23.0003H13.6253C13.3267 23.0003 13.0408 23.1188 12.8297 23.3299C12.6186 23.541 12.5001 23.827 12.5001 24.1255V24.5003C12.5001 25.6055 13.2052 26.7121 14.5697 27.5796C15.9245 28.4425 17.8423 29.0003 19.9993 29.0003C22.1578 29.0003 24.0756 28.4425 25.4312 27.5796C26.7956 26.7129 27.5001 25.6047 27.5001 24.5003V24.1255C27.5001 23.827 27.3815 23.541 27.1704 23.3299C26.9593 23.1188 26.6734 23.0003 26.3749 23.0003H22.1223C22.2941 22.5151 22.2941 21.9855 22.1223 21.5003H26.3749C27.0712 21.5003 27.7393 21.7773 28.2312 22.2692C28.7238 22.7618 29.0001 23.4292 29.0001 24.1255V24.5003C29.0001 26.2951 27.8578 27.8129 26.2364 28.8455C24.606 29.8833 22.3986 30.5003 20.0001 30.5003C17.6015 30.5003 15.3949 29.8833 13.7638 28.8455C12.1423 27.8129 11.0001 26.2951 11.0001 24.5003V24.1255C11.0001 23.4292 11.2764 22.7618 11.7689 22.2692C12.2615 21.7773 12.929 21.5003 13.6253 21.5003Z" fill="white"/>
<rect x="4" y="4" width="32" height="32" rx="16" fill="#002B26"/>
<path d="M19.9728 11.6426H19.9113C18.1576 11.6426 16.7424 12.1635 15.7106 13.1943C14.6788 14.2252 14.2007 15.522 13.9427 16.6947C14.0576 16.7511 14.1847 16.7822 14.3143 16.7856C14.5959 16.7856 14.8965 16.6171 15.1521 16.0851C15.8384 14.6552 17.3767 12.5847 19.9397 12.5847C22.5027 12.5847 24.0457 14.6552 24.732 16.0828C24.9852 16.6149 25.2882 16.7833 25.5674 16.7833C25.6982 16.7806 25.8264 16.7486 25.9413 16.6902C25.6834 15.5198 25.1769 14.1875 24.1735 13.1921C23.1701 12.1968 21.7264 11.6426 19.9728 11.6426Z" fill="white"/>
<path d="M27.9411 19.0556C28.0168 17.4041 27.9103 10 19.9396 10C11.969 10 11.8672 17.4241 11.943 19.0623C12.0365 19.0526 12.1305 19.0475 12.2246 19.0468H13.2517C13.2765 19.0045 13.3042 18.9638 13.3345 18.9248C13.3487 17.2246 13.8339 11.3101 19.9112 11.3101H19.9728C25.8892 11.3101 26.5093 16.9364 26.5471 18.7918C26.6226 18.8692 26.6877 18.9548 26.7412 19.0468H27.7683C27.8275 19.0468 27.8843 19.0512 27.9411 19.0556Z" fill="white"/>
<path d="M13.1168 19.3789H12.2246C11.6339 19.3807 11.0681 19.6017 10.6511 19.9935C10.2341 20.3854 10 20.9161 10 21.4694V22.7396C10 23.2928 10.2341 23.8236 10.6511 24.2154C11.0681 24.6072 11.6339 24.8283 12.2246 24.83H13.1168C13.0889 24.7196 13.0754 24.6065 13.0766 24.4931V19.7159C13.0754 19.6024 13.0889 19.4893 13.1168 19.3789Z" fill="white"/>
<path d="M26.3034 25.6285C25.8798 27.5238 23.9936 28.3263 23.0162 28.6211C23.0474 28.7213 23.0633 28.825 23.0636 28.9293C23.0636 28.9293 23.0636 28.9426 23.0636 28.9492C24.164 28.6167 26.5211 27.6191 26.7294 25.1807C26.6227 25.3564 26.4776 25.509 26.3034 25.6285Z" fill="white"/>
<path d="M13.4268 24.4936C13.4197 24.6385 13.4441 24.7832 13.4985 24.9189C13.5528 25.0547 13.6359 25.1788 13.7429 25.2836C13.8498 25.3885 13.9784 25.4719 14.1207 25.5289C14.263 25.5859 14.4162 25.6153 14.571 25.6153C14.7258 25.6153 14.879 25.5859 15.0214 25.5289C15.1637 25.4719 15.2922 25.3885 15.3992 25.2836C15.5061 25.1788 15.5893 25.0547 15.6436 24.9189C15.6979 24.7832 15.7223 24.6385 15.7153 24.4936V19.7164C15.7223 19.5716 15.6979 19.4269 15.6436 19.2911C15.5893 19.1553 15.5061 19.0313 15.3992 18.9264C15.2922 18.8216 15.1637 18.7381 15.0214 18.6811C14.879 18.6241 14.7258 18.5947 14.571 18.5947C14.4162 18.5947 14.263 18.6241 14.1207 18.6811C13.9784 18.7381 13.8498 18.8216 13.7429 18.9264C13.6359 19.0313 13.5528 19.1553 13.4985 19.2911C13.4441 19.4269 13.4197 19.5716 13.4268 19.7164V24.4936Z" fill="white"/>
<path d="M27.7683 19.3789H26.8761C26.9064 19.489 26.9223 19.6022 26.9234 19.7159V24.4931C26.9223 24.6068 26.9064 24.7199 26.8761 24.83H27.7683C28.3602 24.83 28.9278 24.6098 29.3463 24.2177C29.7649 23.8257 30 23.294 30 22.7396V21.4694C30 20.9149 29.7649 20.3832 29.3463 19.9912C28.9278 19.5991 28.3602 19.3789 27.7683 19.3789Z" fill="white"/>
<path d="M25.423 18.6455C25.1192 18.6455 24.8279 18.7585 24.6131 18.9598C24.3983 19.161 24.2776 19.4339 24.2776 19.7184V24.4934C24.2776 24.778 24.3983 25.0509 24.6131 25.2521C24.8279 25.4533 25.1192 25.5664 25.423 25.5664C25.7268 25.5664 26.0181 25.4533 26.233 25.2521C26.4478 25.0509 26.5684 24.778 26.5684 24.4934V19.7162C26.5678 19.432 26.4469 19.1597 26.2321 18.959C26.0174 18.7582 25.7264 18.6455 25.423 18.6455Z" fill="white"/>
<path d="M21.0851 30.0004C21.9817 30.0004 22.7086 29.52 22.7086 28.9274C22.7086 28.3349 21.9817 27.8545 21.0851 27.8545C20.1885 27.8545 19.4616 28.3349 19.4616 28.9274C19.4616 29.52 20.1885 30.0004 21.0851 30.0004Z" fill="white"/>
<path d="M40 20C40 8.9543 31.0457 0 20 0C8.9543 0 0 8.9543 0 20C0 31.0457 8.9543 40 20 40C31.0457 40 40 31.0457 40 20Z" fill="#002B26"/>
<path d="M14.7504 16.2507C14.7504 14.8581 15.303 13.5225 16.2875 12.5381C17.2727 11.5536 18.6075 11.0003 20.0001 11.0003C21.3926 11.0003 22.7282 11.5536 23.7126 12.5381C24.6971 13.5225 25.2504 14.8581 25.2504 16.2507C25.2504 16.4492 25.3289 16.6403 25.4697 16.781C25.6104 16.921 25.8015 17.0003 26.0001 17.0003C26.1993 17.0003 26.3897 16.921 26.5304 16.781C26.6712 16.6403 26.7504 16.4492 26.7504 16.2507C26.7497 15.0996 26.4556 13.967 25.8949 12.9618C25.3334 11.9566 24.5252 11.1114 23.5452 10.507C22.566 9.90252 21.4482 9.55837 20.2978 9.50755C19.1482 9.45674 18.0037 9.70104 16.9749 10.2166C15.946 10.7329 15.066 11.5033 14.4186 12.4551C13.7712 13.407 13.3778 14.5084 13.2764 15.6551C13.1749 16.8018 13.3682 17.9558 13.8378 19.0062C14.3082 20.0573 15.0393 20.9707 15.9615 21.6596C16.7527 22.2499 17.663 22.6603 18.6297 22.861C18.7645 23.1618 18.9941 23.4107 19.2838 23.5684C19.5734 23.7255 19.9067 23.7833 20.2326 23.7321C20.5586 23.681 20.8586 23.5233 21.086 23.2847C21.3134 23.0462 21.4556 22.7388 21.4912 22.4114C21.5267 22.0833 21.4527 21.7529 21.2815 21.4714C21.1104 21.1892 20.8512 20.9721 20.5438 20.8521C20.2364 20.7329 19.8986 20.7173 19.5815 20.8099C19.2652 20.9018 18.9875 21.0951 18.7919 21.361C17.6408 21.0884 16.6156 20.4358 15.8823 19.5084C15.149 18.581 14.7497 17.4329 14.7504 16.2507ZM15.5 16.2507C15.5 15.4225 15.7289 14.6107 16.1608 13.9047C16.5926 13.1981 17.2112 12.6247 17.9482 12.247C18.6845 11.8699 19.5112 11.7025 20.3371 11.7647C21.1623 11.8262 21.9549 12.1151 22.6267 12.5981C23.2993 13.0818 23.8252 13.741 24.1467 14.504C24.4682 15.2662 24.5734 16.1033 24.4497 16.9218C24.3267 17.7403 23.9801 18.5092 23.4482 19.1433C22.9164 19.7781 22.2193 20.2529 21.4349 20.5173C21.0312 20.1833 20.5238 20.0003 20.0001 20.0003C19.4549 20.0003 18.9556 20.1944 18.5652 20.5173C17.6719 20.2166 16.8956 19.6433 16.3452 18.8773C15.7956 18.1121 15.5 17.1929 15.5 16.2507ZM20.0001 13.2507C19.2045 13.2507 18.4415 13.5662 17.8786 14.1292C17.3163 14.6914 17.0001 15.4551 17.0001 16.2507C17.0001 17.0462 17.3163 17.8092 17.8786 18.3714C18.4415 18.9344 19.2045 19.2507 20.0001 19.2507C20.7956 19.2507 21.5586 18.9344 22.1215 18.3714C22.6838 17.8092 23 17.0462 23 16.2507C23 15.4551 22.6838 14.6914 22.1215 14.1292C21.5586 13.5662 20.7956 13.2507 20.0001 13.2507ZM13.6253 21.5003H14.6445C15.2475 22.1166 15.9519 22.624 16.7275 23.0003H13.6253C13.3267 23.0003 13.0408 23.1188 12.8297 23.3299C12.6186 23.541 12.5001 23.827 12.5001 24.1255V24.5003C12.5001 25.6055 13.2052 26.7121 14.5697 27.5796C15.9245 28.4425 17.8423 29.0003 19.9993 29.0003C22.1578 29.0003 24.0756 28.4425 25.4312 27.5796C26.7956 26.7129 27.5001 25.6047 27.5001 24.5003V24.1255C27.5001 23.827 27.3815 23.541 27.1704 23.3299C26.9593 23.1188 26.6734 23.0003 26.3749 23.0003H22.1223C22.2941 22.5151 22.2941 21.9855 22.1223 21.5003H26.3749C27.0712 21.5003 27.7393 21.7773 28.2312 22.2692C28.7238 22.7618 29.0001 23.4292 29.0001 24.1255V24.5003C29.0001 26.2951 27.8578 27.8129 26.2364 28.8455C24.606 29.8833 22.3986 30.5003 20.0001 30.5003C17.6015 30.5003 15.3949 29.8833 13.7638 28.8455C12.1423 27.8129 11.0001 26.2951 11.0001 24.5003V24.1255C11.0001 23.4292 11.2764 22.7618 11.7689 22.2692C12.2615 21.7773 12.929 21.5003 13.6253 21.5003Z" fill="white"/>
<rect x="4" y="4" width="32" height="32" rx="16" fill="#002B26"/>
<path d="M19.9728 11.6426H19.9113C18.1576 11.6426 16.7424 12.1635 15.7106 13.1943C14.6788 14.2252 14.2007 15.522 13.9427 16.6947C14.0576 16.7511 14.1847 16.7822 14.3143 16.7856C14.5959 16.7856 14.8965 16.6171 15.1521 16.0851C15.8384 14.6552 17.3767 12.5847 19.9397 12.5847C22.5027 12.5847 24.0457 14.6552 24.732 16.0828C24.9852 16.6149 25.2882 16.7833 25.5674 16.7833C25.6982 16.7806 25.8264 16.7486 25.9413 16.6902C25.6834 15.5198 25.1769 14.1875 24.1735 13.1921C23.1701 12.1968 21.7264 11.6426 19.9728 11.6426Z" fill="white"/>
<path d="M27.9411 19.0556C28.0168 17.4041 27.9103 10 19.9396 10C11.969 10 11.8672 17.4241 11.943 19.0623C12.0365 19.0526 12.1305 19.0475 12.2246 19.0468H13.2517C13.2765 19.0045 13.3042 18.9638 13.3345 18.9248C13.3487 17.2246 13.8339 11.3101 19.9112 11.3101H19.9728C25.8892 11.3101 26.5093 16.9364 26.5471 18.7918C26.6226 18.8692 26.6877 18.9548 26.7412 19.0468H27.7683C27.8275 19.0468 27.8843 19.0512 27.9411 19.0556Z" fill="white"/>
<path d="M13.1168 19.3789H12.2246C11.6339 19.3807 11.0681 19.6017 10.6511 19.9935C10.2341 20.3854 10 20.9161 10 21.4694V22.7396C10 23.2928 10.2341 23.8236 10.6511 24.2154C11.0681 24.6072 11.6339 24.8283 12.2246 24.83H13.1168C13.0889 24.7196 13.0754 24.6065 13.0766 24.4931V19.7159C13.0754 19.6024 13.0889 19.4893 13.1168 19.3789Z" fill="white"/>
<path d="M26.3034 25.6285C25.8798 27.5238 23.9936 28.3263 23.0162 28.6211C23.0474 28.7213 23.0633 28.825 23.0636 28.9293C23.0636 28.9293 23.0636 28.9426 23.0636 28.9492C24.164 28.6167 26.5211 27.6191 26.7294 25.1807C26.6227 25.3564 26.4776 25.509 26.3034 25.6285Z" fill="white"/>
<path d="M13.4268 24.4936C13.4197 24.6385 13.4441 24.7832 13.4985 24.9189C13.5528 25.0547 13.6359 25.1788 13.7429 25.2836C13.8498 25.3885 13.9784 25.4719 14.1207 25.5289C14.263 25.5859 14.4162 25.6153 14.571 25.6153C14.7258 25.6153 14.879 25.5859 15.0214 25.5289C15.1637 25.4719 15.2922 25.3885 15.3992 25.2836C15.5061 25.1788 15.5893 25.0547 15.6436 24.9189C15.6979 24.7832 15.7223 24.6385 15.7153 24.4936V19.7164C15.7223 19.5716 15.6979 19.4269 15.6436 19.2911C15.5893 19.1553 15.5061 19.0313 15.3992 18.9264C15.2922 18.8216 15.1637 18.7381 15.0214 18.6811C14.879 18.6241 14.7258 18.5947 14.571 18.5947C14.4162 18.5947 14.263 18.6241 14.1207 18.6811C13.9784 18.7381 13.8498 18.8216 13.7429 18.9264C13.6359 19.0313 13.5528 19.1553 13.4985 19.2911C13.4441 19.4269 13.4197 19.5716 13.4268 19.7164V24.4936Z" fill="white"/>
<path d="M27.7683 19.3789H26.8761C26.9064 19.489 26.9223 19.6022 26.9234 19.7159V24.4931C26.9223 24.6068 26.9064 24.7199 26.8761 24.83H27.7683C28.3602 24.83 28.9278 24.6098 29.3463 24.2177C29.7649 23.8257 30 23.294 30 22.7396V21.4694C30 20.9149 29.7649 20.3832 29.3463 19.9912C28.9278 19.5991 28.3602 19.3789 27.7683 19.3789Z" fill="white"/>
<path d="M25.423 18.6455C25.1192 18.6455 24.8279 18.7585 24.6131 18.9598C24.3983 19.161 24.2776 19.4339 24.2776 19.7184V24.4934C24.2776 24.778 24.3983 25.0509 24.6131 25.2521C24.8279 25.4533 25.1192 25.5664 25.423 25.5664C25.7268 25.5664 26.0181 25.4533 26.233 25.2521C26.4478 25.0509 26.5684 24.778 26.5684 24.4934V19.7162C26.5678 19.432 26.4469 19.1597 26.2321 18.959C26.0174 18.7582 25.7264 18.6455 25.423 18.6455Z" fill="white"/>
<path d="M21.0851 30.0004C21.9817 30.0004 22.7086 29.52 22.7086 28.9274C22.7086 28.3349 21.9817 27.8545 21.0851 27.8545C20.1885 27.8545 19.4616 28.3349 19.4616 28.9274C19.4616 29.52 20.1885 30.0004 21.0851 30.0004Z" fill="white"/>
<path d="M40 20C40 8.9543 31.0457 0 20 0C8.9543 0 0 8.9543 0 20C0 31.0457 8.9543 40 20 40C31.0457 40 40 31.0457 40 20Z" fill="#00AF9E"/>
<path d="M14.7504 16.2507C14.7504 14.8581 15.303 13.5225 16.2875 12.5381C17.2727 11.5536 18.6075 11.0003 20.0001 11.0003C21.3926 11.0003 22.7282 11.5536 23.7126 12.5381C24.6971 13.5225 25.2504 14.8581 25.2504 16.2507C25.2504 16.4492 25.3289 16.6403 25.4697 16.781C25.6104 16.921 25.8015 17.0003 26.0001 17.0003C26.1993 17.0003 26.3897 16.921 26.5304 16.781C26.6712 16.6403 26.7504 16.4492 26.7504 16.2507C26.7497 15.0996 26.4556 13.967 25.8949 12.9618C25.3334 11.9566 24.5252 11.1114 23.5452 10.507C22.566 9.90252 21.4482 9.55837 20.2978 9.50755C19.1482 9.45674 18.0037 9.70104 16.9749 10.2166C15.946 10.7329 15.066 11.5033 14.4186 12.4551C13.7712 13.407 13.3778 14.5084 13.2764 15.6551C13.1749 16.8018 13.3682 17.9558 13.8378 19.0062C14.3082 20.0573 15.0393 20.9707 15.9615 21.6596C16.7527 22.2499 17.663 22.6603 18.6297 22.861C18.7645 23.1618 18.9941 23.4107 19.2838 23.5684C19.5734 23.7255 19.9067 23.7833 20.2326 23.7321C20.5586 23.681 20.8586 23.5233 21.086 23.2847C21.3134 23.0462 21.4556 22.7388 21.4912 22.4114C21.5267 22.0833 21.4527 21.7529 21.2815 21.4714C21.1104 21.1892 20.8512 20.9721 20.5438 20.8521C20.2364 20.7329 19.8986 20.7173 19.5815 20.8099C19.2652 20.9018 18.9875 21.0951 18.7919 21.361C17.6408 21.0884 16.6156 20.4358 15.8823 19.5084C15.149 18.581 14.7497 17.4329 14.7504 16.2507ZM15.5 16.2507C15.5 15.4225 15.7289 14.6107 16.1608 13.9047C16.5926 13.1981 17.2112 12.6247 17.9482 12.247C18.6845 11.8699 19.5112 11.7025 20.3371 11.7647C21.1623 11.8262 21.9549 12.1151 22.6267 12.5981C23.2993 13.0818 23.8252 13.741 24.1467 14.504C24.4682 15.2662 24.5734 16.1033 24.4497 16.9218C24.3267 17.7403 23.9801 18.5092 23.4482 19.1433C22.9164 19.7781 22.2193 20.2529 21.4349 20.5173C21.0312 20.1833 20.5238 20.0003 20.0001 20.0003C19.4549 20.0003 18.9556 20.1944 18.5652 20.5173C17.6719 20.2166 16.8956 19.6433 16.3452 18.8773C15.7956 18.1121 15.5 17.1929 15.5 16.2507ZM20.0001 13.2507C19.2045 13.2507 18.4415 13.5662 17.8786 14.1292C17.3163 14.6914 17.0001 15.4551 17.0001 16.2507C17.0001 17.0462 17.3163 17.8092 17.8786 18.3714C18.4415 18.9344 19.2045 19.2507 20.0001 19.2507C20.7956 19.2507 21.5586 18.9344 22.1215 18.3714C22.6838 17.8092 23 17.0462 23 16.2507C23 15.4551 22.6838 14.6914 22.1215 14.1292C21.5586 13.5662 20.7956 13.2507 20.0001 13.2507ZM13.6253 21.5003H14.6445C15.2475 22.1166 15.9519 22.624 16.7275 23.0003H13.6253C13.3267 23.0003 13.0408 23.1188 12.8297 23.3299C12.6186 23.541 12.5001 23.827 12.5001 24.1255V24.5003C12.5001 25.6055 13.2052 26.7121 14.5697 27.5796C15.9245 28.4425 17.8423 29.0003 19.9993 29.0003C22.1578 29.0003 24.0756 28.4425 25.4312 27.5796C26.7956 26.7129 27.5001 25.6047 27.5001 24.5003V24.1255C27.5001 23.827 27.3815 23.541 27.1704 23.3299C26.9593 23.1188 26.6734 23.0003 26.3749 23.0003H22.1223C22.2941 22.5151 22.2941 21.9855 22.1223 21.5003H26.3749C27.0712 21.5003 27.7393 21.7773 28.2312 22.2692C28.7238 22.7618 29.0001 23.4292 29.0001 24.1255V24.5003C29.0001 26.2951 27.8578 27.8129 26.2364 28.8455C24.606 29.8833 22.3986 30.5003 20.0001 30.5003C17.6015 30.5003 15.3949 29.8833 13.7638 28.8455C12.1423 27.8129 11.0001 26.2951 11.0001 24.5003V24.1255C11.0001 23.4292 11.2764 22.7618 11.7689 22.2692C12.2615 21.7773 12.929 21.5003 13.6253 21.5003Z" fill="#002B26"/>
</svg>
