<svg width="24" height="24" viewBox="0 0 24 24" fill="none" xmlns="http://www.w3.org/2000/svg">
<path d="M9.00547 8.43474C9.00547 7.29767 8.0188 6.37302 6.80547 6.37302C5.59214 6.37302 4.60547 7.29767 4.60547 8.43474C4.60547 9.57182 5.59214 10.4965 6.80547 10.4965C8.0188 10.4965 9.00547 9.57182 9.00547 8.43474ZM6.80547 10.1216C5.81347 10.1216 5.00547 9.36439 5.00547 8.43474C5.00547 7.50509 5.81347 6.74788 6.80547 6.74788C7.79747 6.74788 8.60547 7.50509 8.60547 8.43474C8.60547 9.36439 7.79747 10.1216 6.80547 10.1216Z" fill="white"/>
<path d="M9.61751 5.92311C10.3908 5.92311 11.0202 5.33333 11.0202 4.60861C11.0202 3.88388 10.3908 3.2941 9.61751 3.2941C8.84418 3.2941 8.21484 3.88388 8.21484 4.60861C8.21484 5.33333 8.84418 5.92311 9.61751 5.92311ZM9.61751 3.79516C10.0962 3.79516 10.4868 4.16002 10.4868 4.60985C10.4868 5.05969 10.0975 5.42455 9.61751 5.42455C9.13751 5.42455 8.74818 5.05969 8.74818 4.60985C8.74818 4.16002 9.13751 3.79516 9.61751 3.79516Z" fill="white"/>
<path d="M9.80078 8.43474C9.80078 9.57182 10.7874 10.4965 12.0008 10.4965C13.2141 10.4965 14.2008 9.57182 14.2008 8.43474C14.2008 7.29767 13.2141 6.37302 12.0008 6.37302C10.7874 6.37302 9.80078 7.29767 9.80078 8.43474ZM12.0008 6.74788C12.9928 6.74788 13.8008 7.50509 13.8008 8.43474C13.8008 9.36439 12.9928 10.1216 12.0008 10.1216C11.0088 10.1216 10.2008 9.36439 10.2008 8.43474C10.2008 7.50509 11.0088 6.74788 12.0008 6.74788Z" fill="white"/>
<path d="M15.1367 8.43474C15.1367 9.57182 16.1234 10.4965 17.3367 10.4965C18.5501 10.4965 19.5367 9.57182 19.5367 8.43474C19.5367 7.29767 18.5501 6.37302 17.3367 6.37302C16.1234 6.37302 15.1367 7.29767 15.1367 8.43474ZM17.3367 6.74788C18.3287 6.74788 19.1367 7.50509 19.1367 8.43474C19.1367 9.36439 18.3287 10.1216 17.3367 10.1216C16.3447 10.1216 15.5367 9.36439 15.5367 8.43474C15.5367 7.50509 16.3447 6.74788 17.3367 6.74788Z" fill="white"/>
<path d="M9.60234 10.6215C8.38901 10.6215 7.40234 11.5462 7.40234 12.6832C7.40234 13.8203 8.38901 14.745 9.60234 14.745C10.8157 14.745 11.8023 13.8203 11.8023 12.6832C11.8023 11.5462 10.8157 10.6215 9.60234 10.6215ZM9.60234 14.3701C8.61034 14.3701 7.80234 13.6129 7.80234 12.6832C7.80234 11.7536 8.61034 10.9964 9.60234 10.9964C10.5943 10.9964 11.4023 11.7536 11.4023 12.6832C11.4023 13.6129 10.5943 14.3701 9.60234 14.3701Z" fill="white"/>
<path d="M14.8055 10.6215C13.5921 10.6215 12.6055 11.5462 12.6055 12.6832C12.6055 13.8203 13.5921 14.745 14.8055 14.745C16.0188 14.745 17.0055 13.8203 17.0055 12.6832C17.0055 11.5462 16.0188 10.6215 14.8055 10.6215ZM14.8055 14.3701C13.8135 14.3701 13.0055 13.6129 13.0055 12.6832C13.0055 11.7536 13.8135 10.9964 14.8055 10.9964C15.7975 10.9964 16.6055 11.7536 16.6055 12.6832C16.6055 13.6129 15.7975 14.3701 14.8055 14.3701Z" fill="white"/>
<path d="M14.5511 5.93822C15.3244 5.93822 15.9538 5.34844 15.9538 4.62371C15.9538 3.89898 15.3244 3.3092 14.5511 3.3092C13.7778 3.3092 13.1484 3.89898 13.1484 4.62371C13.1484 5.34844 13.7778 5.93822 14.5511 5.93822ZM14.5511 3.81027C15.0298 3.81027 15.4204 4.17513 15.4204 4.62496C15.4204 5.07479 15.0311 5.43966 14.5511 5.43966C14.0711 5.43966 13.6818 5.07479 13.6818 4.62496C13.6818 4.17513 14.0711 3.81027 14.5511 3.81027Z" fill="white"/>
<path d="M15.6587 16.2522H14.6307C18.3173 15.1976 21 11.985 21 8.18518C21 6.11471 20.2027 4.21792 18.8827 2.74972C18.644 2.48482 18.388 2.23366 18.1173 2H5.88267C5.612 2.23366 5.356 2.48482 5.11733 2.74972C3.79733 4.21792 3 6.11471 3 8.18518C3 11.9863 5.68267 15.1988 9.36933 16.2522H8.45733C6.76667 16.2522 5.39067 17.5417 5.39067 19.1261C5.39067 20.7105 6.76667 22 8.45733 22H15.6573C17.348 22 18.724 20.7105 18.724 19.1261C18.724 17.5417 17.348 16.2522 15.6573 16.2522H15.6587ZM3.8 8.18518C3.8 6.06473 4.72133 4.1417 6.208 2.74972H17.792C19.2787 4.1417 20.2 6.06473 20.2 8.18518C20.2 12.4223 16.5213 15.8698 12 15.8698C7.47867 15.8698 3.8 12.4223 3.8 8.18518ZM15.6587 21.2503H8.45867C7.20933 21.2503 6.192 20.2969 6.192 19.1261C6.192 17.9553 7.20933 17.0019 8.45867 17.0019H15.6587C16.908 17.0019 17.9253 17.9553 17.9253 19.1261C17.9253 20.2969 16.908 21.2503 15.6587 21.2503Z" fill="white"/>
<path d="M9.10443 17.5022C8.14843 17.5022 7.37109 18.2306 7.37109 19.1266C7.37109 20.0225 8.14843 20.7509 9.10443 20.7509C10.0604 20.7509 10.8378 20.0225 10.8378 19.1266C10.8378 18.2306 10.0604 17.5022 9.10443 17.5022ZM9.10443 20.2511C8.44309 20.2511 7.90443 19.7463 7.90443 19.1266C7.90443 18.5068 8.44309 18.002 9.10443 18.002C9.76576 18.002 10.3044 18.5068 10.3044 19.1266C10.3044 19.7463 9.76576 20.2511 9.10443 20.2511Z" fill="white"/>
<path d="M9.10598 18.772C8.87931 18.772 8.69531 18.9444 8.69531 19.1569C8.69531 19.3693 8.87931 19.5417 9.10598 19.5417C9.33265 19.5417 9.51665 19.3693 9.51665 19.1569C9.51665 18.9444 9.33265 18.772 9.10598 18.772ZM9.10598 19.4168C8.95265 19.4168 8.82865 19.3006 8.82865 19.1569C8.82865 19.0132 8.95265 18.897 9.10598 18.897C9.25931 18.897 9.38331 19.0132 9.38331 19.1569C9.38331 19.3006 9.25931 19.4168 9.10598 19.4168Z" fill="white"/>
<path d="M15.0107 17.4807C14.0547 17.4807 13.2773 18.2091 13.2773 19.105C13.2773 20.001 14.0547 20.7294 15.0107 20.7294C15.9667 20.7294 16.744 20.001 16.744 19.105C16.744 18.2091 15.9667 17.4807 15.0107 17.4807ZM15.0107 20.2296C14.3493 20.2296 13.8107 19.7248 13.8107 19.105C13.8107 18.4853 14.3493 17.9805 15.0107 17.9805C15.672 17.9805 16.2107 18.4853 16.2107 19.105C16.2107 19.7248 15.672 20.2296 15.0107 20.2296Z" fill="white"/>
<path d="M15.0083 18.7514C14.7817 18.7514 14.5977 18.9238 14.5977 19.1363C14.5977 19.3487 14.7817 19.5211 15.0083 19.5211C15.235 19.5211 15.419 19.3487 15.419 19.1363C15.419 18.9238 15.235 18.7514 15.0083 18.7514ZM15.0083 19.3962C14.855 19.3962 14.731 19.28 14.731 19.1363C14.731 18.9926 14.855 18.8764 15.0083 18.8764C15.1617 18.8764 15.2857 18.9926 15.2857 19.1363C15.2857 19.28 15.1617 19.3962 15.0083 19.3962Z" fill="white"/>
</svg>
