<svg width="33" height="32" viewBox="0 0 33 32" fill="none" xmlns="http://www.w3.org/2000/svg">
<path d="M16.1843 4.23438C22.4151 4.23447 27.4665 9.18728 27.4666 15.2969C27.4666 21.4065 22.4152 26.3593 16.1843 26.3594C9.95342 26.3594 4.9021 21.4065 4.9021 15.2969C4.90211 9.18722 9.95343 4.23438 16.1843 4.23438ZM16.1843 4.63672C10.18 4.63672 5.31226 9.40938 5.31226 15.2969C5.31227 21.1844 10.18 25.957 16.1843 25.957C22.1885 25.9569 27.0554 21.1843 27.0554 15.2969C27.0554 9.40947 22.1885 4.63686 16.1843 4.63672Z" fill="#CCCCCC"/>
<path d="M16.1843 17.1064C17.9967 17.1065 19.4663 18.5471 19.4666 20.3242C19.4666 22.1015 17.9969 23.5429 16.1843 23.543C14.3717 23.543 12.9021 22.1016 12.9021 20.3242C12.9023 18.5471 14.3718 17.1064 16.1843 17.1064ZM16.1843 17.75C14.7344 17.75 13.5586 18.9025 13.5583 20.3242C13.5583 21.7461 14.7342 22.8994 16.1843 22.8994C17.6344 22.8994 18.8103 21.7461 18.8103 20.3242C18.8101 18.9026 17.6342 17.7501 16.1843 17.75Z" fill="#CCCCCC"/>
<path d="M10.9537 8.25684C12.3697 8.25702 13.5172 9.38304 13.5172 10.7715C13.517 12.1597 12.3695 13.285 10.9537 13.2852C9.53777 13.2852 8.38952 12.1598 8.38928 10.7715C8.38928 9.38292 9.53762 8.25684 10.9537 8.25684ZM10.9537 8.65918C9.7642 8.65918 8.79944 9.60509 8.79944 10.7715C8.7996 11.9377 9.7643 12.8828 10.9537 12.8828C12.1431 12.8827 13.1069 11.9377 13.1071 10.7715C13.1071 9.60517 12.1432 8.6593 10.9537 8.65918Z" fill="#CCCCCC"/>
<path d="M21.2103 8.25684C22.6262 8.25702 23.7737 9.38304 23.7737 10.7715C23.7735 12.1597 22.6261 13.285 21.2103 13.2852C19.7943 13.2852 18.6461 12.1598 18.6458 10.7715C18.6458 9.38292 19.7942 8.25684 21.2103 8.25684ZM21.2103 8.65918C20.0207 8.65918 19.056 9.60509 19.056 10.7715C19.0561 11.9377 20.0208 12.8828 21.2103 12.8828C22.3996 12.8827 23.3634 11.9377 23.3636 10.7715C23.3636 9.60517 22.3997 8.6593 21.2103 8.65918Z" fill="#CCCCCC"/>
<path d="M16.1839 2.22266C23.5477 2.22266 29.5179 8.07637 29.5179 15.2969C29.5177 21.4067 25.2428 26.5369 19.4661 27.9707V29.376C19.4659 29.598 19.2824 29.7783 19.056 29.7783H13.3128C13.0863 29.7783 12.9019 29.598 12.9017 29.376V27.9697C7.12542 26.5358 2.85105 21.4065 2.85089 15.2969C2.85089 8.07647 8.82025 2.22283 16.1839 2.22266ZM13.723 28.9736H18.6458V28.1689H18.5267C17.7661 28.3011 16.9832 28.3701 16.1839 28.3701C15.3846 28.3701 14.6017 28.3011 13.8411 28.1689H13.723V28.9736ZM16.1839 3.42871C9.50005 3.42895 4.08136 8.74204 4.08136 15.2959C4.08142 21.8497 9.50008 27.1628 16.1839 27.1631C22.8679 27.1631 28.2864 21.8498 28.2864 15.2959C28.2864 8.7419 22.868 3.42871 16.1839 3.42871Z" fill="#CCCCCC"/>
</svg>
