<svg width="156" height="25" viewBox="0 0 156 25" fill="none" xmlns="http://www.w3.org/2000/svg">
<path fill-rule="evenodd" clip-rule="evenodd" d="M7.69987 10.3856V7.95838H0.263184V10.3856H2.44335V16.1835H5.52051V10.3856H7.69987ZM11.5461 11.3289L10.0079 16.1826H6.93078L9.87922 7.95752H13.213L16.1623 16.1826H13.0851L11.5461 11.3289ZM22.8291 10.3856V7.95838H15.3924V10.3856H17.5725V16.1835H20.6497V10.3856H22.8291ZM26.6753 11.3289L25.1363 16.1826H22.0591L25.0084 7.95752H28.3414L31.2906 16.1826H28.2135L26.6753 11.3289Z" fill="white"/>
<path d="M59.8039 9.16482C59.7917 9.11341 59.7762 9.06372 59.7632 9.01231C58.1256 2.56333 51.7293 -1.28961 45.3974 0.395673C39.4859 1.96958 35.7089 7.8171 36.4364 13.8703C36.0242 14.0939 35.7415 14.5445 35.7415 15.0663C35.7415 15.762 36.2433 16.3335 36.8861 16.4046C38.8708 22.3035 44.9844 25.7135 51.0434 24.1002C57.4568 22.3926 61.3788 15.7063 59.8039 9.16482ZM50.9415 23.1458C45.3795 24.6263 39.7588 21.505 37.8516 16.0885C38.1253 15.8417 38.2996 15.4759 38.2996 15.0672C38.2996 14.3243 37.7269 13.722 37.0206 13.722C36.9513 13.722 36.8837 13.7297 36.8169 13.7409C36.1301 8.06642 39.7458 2.55819 45.3819 1.05796C51.4532 -0.557923 57.5692 3.08939 59.0414 9.20594C60.5136 15.3225 56.8873 21.5633 50.9423 23.1466L50.9415 23.1458Z" fill="white"/>
<path d="M48.2538 12.1595C48.2538 10.1555 47.0986 8.56787 44.9697 8.56787C42.8409 8.56787 41.5544 10.1135 41.5544 12.5545C41.5544 14.9954 42.8213 16.4125 45.0716 16.4125C46.6928 16.4125 47.7471 15.6774 48.1324 14.3554L46.4395 13.9502C46.2268 14.4934 45.8113 14.8669 45.0512 14.8669C43.9831 14.8669 43.4804 14.065 43.425 13.012H47.5654C48.0314 13.012 48.2546 12.7772 48.2546 12.1595H48.2538ZM44.9697 10.0809C45.7983 10.0809 46.3148 10.6884 46.3637 11.7011H43.4291C43.5106 10.7064 44.1126 10.0809 44.9697 10.0809Z" fill="white"/>
<path d="M53.9396 8.78076L52.2165 14.2916L50.5341 8.78076H48.6082L51.0099 15.3574C51.2535 16.0077 51.537 16.2844 52.1147 16.2844H52.3273C52.8952 16.2844 53.1787 16.018 53.4223 15.3677L55.8444 8.78076H53.9388H53.9396Z" fill="white"/>
<path d="M65.1519 5.57725H66.655L70.1894 14.2101H70.3112L73.8456 5.57725H75.3487V15.9772H74.1706V8.07568H74.069L70.819 15.9772H69.6815L66.4315 8.07568H66.33V15.9772H65.1519V5.57725Z" fill="white"/>
<path d="M80.9816 16.1397C80.2301 16.1397 79.5818 15.9739 79.0367 15.6421C78.4951 15.3069 78.077 14.8397 77.7824 14.2405C77.4913 13.6379 77.3457 12.9371 77.3457 12.1382C77.3457 11.3392 77.4913 10.6351 77.7824 10.0257C78.077 9.41292 78.4866 8.93558 79.0113 8.59365C79.5395 8.24834 80.1556 8.07568 80.8598 8.07568C81.266 8.07568 81.6672 8.14339 82.0633 8.27881C82.4594 8.41423 82.8199 8.63428 83.1449 8.93897C83.4699 9.24027 83.7289 9.63975 83.9219 10.1374C84.1148 10.6351 84.2113 11.2478 84.2113 11.9757V12.4835H78.1988V11.4476H82.9926C82.9926 11.0075 82.9046 10.6147 82.7285 10.2694C82.5559 9.92412 82.3087 9.6516 81.9871 9.45186C81.6689 9.25212 81.2931 9.15225 80.8598 9.15225C80.3824 9.15225 79.9694 9.27074 79.6207 9.50772C79.2754 9.74131 79.0096 10.046 78.8234 10.4218C78.6372 10.7976 78.5441 11.2004 78.5441 11.6304V12.321C78.5441 12.9101 78.6457 13.4094 78.8488 13.819C79.0553 14.2253 79.3414 14.5351 79.707 14.7483C80.0727 14.9582 80.4975 15.0632 80.9816 15.0632C81.2965 15.0632 81.5809 15.0192 81.8348 14.9312C82.0921 14.8397 82.3138 14.7043 82.5 14.5249C82.6862 14.3421 82.8301 14.1153 82.9316 13.8444L84.0895 14.1694C83.9676 14.5621 83.7628 14.9075 83.475 15.2054C83.1872 15.4999 82.8318 15.7301 82.4086 15.896C81.9854 16.0585 81.5098 16.1397 80.9816 16.1397Z" fill="white"/>
<path d="M89.1828 19.0647C88.6039 19.0647 88.1063 18.9903 87.6898 18.8413C87.2734 18.6957 86.9264 18.5028 86.6488 18.2624C86.3746 18.0254 86.1562 17.7715 85.9937 17.5007L86.9484 16.8304C87.0568 16.9726 87.1939 17.1351 87.3598 17.3179C87.5257 17.5041 87.7525 17.6649 88.0402 17.8003C88.3314 17.9391 88.7122 18.0085 89.1828 18.0085C89.8125 18.0085 90.3322 17.8562 90.7418 17.5515C91.1514 17.2468 91.3563 16.7694 91.3563 16.1194V14.5351H91.2547C91.1667 14.6772 91.0414 14.8533 90.8789 15.0632C90.7198 15.2697 90.4896 15.4542 90.1883 15.6167C89.8904 15.7758 89.4875 15.8554 88.9797 15.8554C88.35 15.8554 87.7846 15.7064 87.2836 15.4085C86.7859 15.1106 86.3915 14.6772 86.1004 14.1085C85.8126 13.5397 85.6687 12.8491 85.6687 12.0366C85.6687 11.2377 85.8092 10.542 86.0902 9.94951C86.3712 9.35368 86.7622 8.89326 87.2633 8.56826C87.7643 8.23988 88.3432 8.07568 89 8.07568C89.5078 8.07568 89.9107 8.16032 90.2086 8.32959C90.5099 8.49548 90.7401 8.68506 90.8992 8.89834C91.0617 9.10824 91.187 9.28089 91.275 9.41631H91.3969V8.17725H92.5547V16.2007C92.5547 16.871 92.4023 17.416 92.0977 17.8358C91.7964 18.259 91.3901 18.5688 90.8789 18.7651C90.3711 18.9649 89.8057 19.0647 89.1828 19.0647ZM89.1422 14.7788C89.6229 14.7788 90.0292 14.6688 90.3609 14.4487C90.6927 14.2287 90.9449 13.9121 91.1176 13.4991C91.2902 13.0861 91.3766 12.5918 91.3766 12.0163C91.3766 11.4543 91.2919 10.9584 91.1227 10.5284C90.9534 10.0985 90.7029 9.76162 90.3711 9.51787C90.0393 9.27412 89.6297 9.15225 89.1422 9.15225C88.6344 9.15225 88.2112 9.28089 87.8727 9.53818C87.5375 9.79548 87.2853 10.1408 87.116 10.5741C86.9501 11.0075 86.8672 11.4882 86.8672 12.0163C86.8672 12.558 86.9518 13.037 87.1211 13.4534C87.2938 13.8664 87.5477 14.1914 87.8828 14.4284C88.2214 14.662 88.6411 14.7788 89.1422 14.7788Z" fill="white"/>
<path d="M97.0438 16.1601C96.5495 16.1601 96.1009 16.067 95.698 15.8808C95.2952 15.6912 94.9753 15.4187 94.7383 15.0632C94.5013 14.7043 94.3828 14.271 94.3828 13.7632C94.3828 13.3163 94.4708 12.9541 94.6469 12.6765C94.8229 12.3955 95.0582 12.1754 95.3527 12.0163C95.6473 11.8572 95.9723 11.7387 96.3277 11.6608C96.6866 11.5796 97.0471 11.5153 97.4094 11.4679C97.8833 11.4069 98.2676 11.3612 98.5621 11.3308C98.86 11.2969 99.0767 11.241 99.2121 11.1632C99.3509 11.0853 99.4203 10.9499 99.4203 10.7569V10.7163C99.4203 10.2153 99.2832 9.82594 99.009 9.54834C98.7382 9.27074 98.3268 9.13193 97.775 9.13193C97.2029 9.13193 96.7543 9.25719 96.4293 9.50772C96.1043 9.75824 95.8758 10.0257 95.7438 10.3101L94.6063 9.90381C94.8094 9.42985 95.0802 9.06084 95.4188 8.79678C95.7607 8.52933 96.1331 8.34313 96.5359 8.23818C96.9422 8.12985 97.3417 8.07568 97.7344 8.07568C97.9849 8.07568 98.2727 8.10615 98.5977 8.16709C98.926 8.22464 99.2426 8.34482 99.5473 8.52764C99.8553 8.71045 100.111 8.98636 100.314 9.35537C100.517 9.72438 100.619 10.2187 100.619 10.8382V15.9772H99.4203V14.921H99.3594C99.2781 15.0903 99.1427 15.2714 98.9531 15.4644C98.7635 15.6573 98.5113 15.8215 98.1965 15.9569C97.8816 16.0924 97.4974 16.1601 97.0438 16.1601ZM97.2266 15.0835C97.7005 15.0835 98.1 14.9904 98.425 14.8042C98.7534 14.618 99.0005 14.3776 99.1664 14.0831C99.3357 13.7886 99.4203 13.4788 99.4203 13.1538V12.0569C99.3695 12.1179 99.2578 12.1737 99.0852 12.2245C98.9159 12.2719 98.7195 12.3142 98.4961 12.3515C98.276 12.3853 98.0611 12.4158 97.8512 12.4429C97.6447 12.4666 97.4771 12.4869 97.3484 12.5038C97.037 12.5444 96.7458 12.6104 96.475 12.7019C96.2076 12.7899 95.9909 12.9236 95.825 13.103C95.6625 13.2791 95.5813 13.5194 95.5813 13.8241C95.5813 14.2405 95.7353 14.5554 96.0434 14.7687C96.3548 14.9785 96.7492 15.0835 97.2266 15.0835Z" fill="white"/>
<path d="M111.337 8.82725H110.078C110.004 8.46501 109.873 8.14678 109.687 7.87256C109.504 7.59834 109.281 7.36813 109.017 7.18193C108.756 6.99235 108.467 6.85016 108.148 6.75537C107.83 6.66058 107.498 6.61318 107.153 6.61318C106.523 6.61318 105.953 6.7723 105.442 7.09053C104.934 7.40876 104.529 7.87764 104.228 8.49717C103.93 9.1167 103.781 9.87673 103.781 10.7772C103.781 11.6778 103.93 12.4378 104.228 13.0573C104.529 13.6769 104.934 14.1457 105.442 14.464C105.953 14.7822 106.523 14.9413 107.153 14.9413C107.498 14.9413 107.83 14.8939 108.148 14.7991C108.467 14.7043 108.756 14.5638 109.017 14.3776C109.281 14.1881 109.504 13.9562 109.687 13.6819C109.873 13.4043 110.004 13.0861 110.078 12.7272H111.337C111.243 13.2588 111.07 13.7344 110.819 14.1542C110.569 14.574 110.257 14.9312 109.885 15.2257C109.513 15.5168 109.095 15.7386 108.631 15.8909C108.17 16.0433 107.678 16.1194 107.153 16.1194C106.266 16.1194 105.477 15.9028 104.787 15.4694C104.096 15.0361 103.553 14.42 103.157 13.621C102.76 12.822 102.562 11.8741 102.562 10.7772C102.562 9.68037 102.76 8.73245 103.157 7.9335C103.553 7.13454 104.096 6.51839 104.787 6.08506C105.477 5.65173 106.266 5.43506 107.153 5.43506C107.678 5.43506 108.17 5.51123 108.631 5.66357C109.095 5.81592 109.513 6.03936 109.885 6.33389C110.257 6.62503 110.569 6.9805 110.819 7.40029C111.07 7.8167 111.243 8.29235 111.337 8.82725Z" fill="white"/>
<path d="M114.408 11.2851V15.9772H113.21V5.57725H114.408V9.396H114.51C114.693 8.99313 114.967 8.67321 115.333 8.43623C115.702 8.19587 116.193 8.07568 116.805 8.07568C117.337 8.07568 117.802 8.18232 118.202 8.39561C118.601 8.6055 118.911 8.92881 119.131 9.36553C119.354 9.79886 119.466 10.3507 119.466 11.021V15.9772H118.268V11.1022C118.268 10.4827 118.107 10.0037 117.785 9.66514C117.467 9.32321 117.025 9.15225 116.46 9.15225C116.067 9.15225 115.715 9.23519 115.404 9.40107C115.096 9.56696 114.852 9.80902 114.672 10.1272C114.496 10.4455 114.408 10.8314 114.408 11.2851Z" fill="white"/>
<path d="M123.954 16.1601C123.46 16.1601 123.011 16.067 122.608 15.8808C122.205 15.6912 121.886 15.4187 121.649 15.0632C121.412 14.7043 121.293 14.271 121.293 13.7632C121.293 13.3163 121.381 12.9541 121.557 12.6765C121.733 12.3955 121.968 12.1754 122.263 12.0163C122.558 11.8572 122.883 11.7387 123.238 11.6608C123.597 11.5796 123.957 11.5153 124.32 11.4679C124.794 11.4069 125.178 11.3612 125.472 11.3308C125.77 11.2969 125.987 11.241 126.122 11.1632C126.261 11.0853 126.331 10.9499 126.331 10.7569V10.7163C126.331 10.2153 126.193 9.82594 125.919 9.54834C125.648 9.27074 125.237 9.13193 124.685 9.13193C124.113 9.13193 123.665 9.25719 123.34 9.50772C123.015 9.75824 122.786 10.0257 122.654 10.3101L121.517 9.90381C121.72 9.42985 121.99 9.06084 122.329 8.79678C122.671 8.52933 123.043 8.34313 123.446 8.23818C123.852 8.12985 124.252 8.07568 124.645 8.07568C124.895 8.07568 125.183 8.10615 125.508 8.16709C125.836 8.22464 126.153 8.34482 126.458 8.52764C126.766 8.71045 127.021 8.98636 127.224 9.35537C127.427 9.72438 127.529 10.2187 127.529 10.8382V15.9772H126.331V14.921H126.27C126.188 15.0903 126.053 15.2714 125.863 15.4644C125.674 15.6573 125.422 15.8215 125.107 15.9569C124.792 16.0924 124.408 16.1601 123.954 16.1601ZM124.137 15.0835C124.611 15.0835 125.01 14.9904 125.335 14.8042C125.664 14.618 125.911 14.3776 126.077 14.0831C126.246 13.7886 126.331 13.4788 126.331 13.1538V12.0569C126.28 12.1179 126.168 12.1737 125.995 12.2245C125.826 12.2719 125.63 12.3142 125.406 12.3515C125.186 12.3853 124.971 12.4158 124.761 12.4429C124.555 12.4666 124.387 12.4869 124.259 12.5038C123.947 12.5444 123.656 12.6104 123.385 12.7019C123.118 12.7899 122.901 12.9236 122.735 13.103C122.573 13.2791 122.492 13.5194 122.492 13.8241C122.492 14.2405 122.646 14.5554 122.954 14.7687C123.265 14.9785 123.659 15.0835 124.137 15.0835Z" fill="white"/>
<path d="M129.716 15.9772V8.17725H130.874V9.35537H130.955C131.098 8.96943 131.355 8.65628 131.727 8.41592C132.1 8.17555 132.52 8.05537 132.987 8.05537C133.075 8.05537 133.185 8.05706 133.317 8.06045C133.449 8.06383 133.549 8.06891 133.616 8.07568V9.29443C133.576 9.28428 133.483 9.26904 133.337 9.24873C133.195 9.22503 133.044 9.21318 132.885 9.21318C132.506 9.21318 132.167 9.29274 131.87 9.45186C131.575 9.60758 131.341 9.82425 131.169 10.1019C130.999 10.3761 130.915 10.6892 130.915 11.0413V15.9772H129.716Z" fill="white"/>
<path d="M137.948 19.0647C137.369 19.0647 136.871 18.9903 136.455 18.8413C136.039 18.6957 135.692 18.5028 135.414 18.2624C135.14 18.0254 134.921 17.7715 134.759 17.5007L135.714 16.8304C135.822 16.9726 135.959 17.1351 136.125 17.3179C136.291 17.5041 136.518 17.6649 136.805 17.8003C137.097 17.9391 137.477 18.0085 137.948 18.0085C138.578 18.0085 139.097 17.8562 139.507 17.5515C139.917 17.2468 140.121 16.7694 140.121 16.1194V14.5351H140.02C139.932 14.6772 139.807 14.8533 139.644 15.0632C139.485 15.2697 139.255 15.4542 138.954 15.6167C138.656 15.7758 138.253 15.8554 137.745 15.8554C137.115 15.8554 136.55 15.7064 136.049 15.4085C135.551 15.1106 135.157 14.6772 134.866 14.1085C134.578 13.5397 134.434 12.8491 134.434 12.0366C134.434 11.2377 134.574 10.542 134.855 9.94951C135.136 9.35368 135.527 8.89326 136.029 8.56826C136.53 8.23988 137.108 8.07568 137.765 8.07568C138.273 8.07568 138.676 8.16032 138.974 8.32959C139.275 8.49548 139.505 8.68506 139.664 8.89834C139.827 9.10824 139.952 9.28089 140.04 9.41631H140.162V8.17725H141.32V16.2007C141.32 16.871 141.168 17.416 140.863 17.8358C140.562 18.259 140.155 18.5688 139.644 18.7651C139.136 18.9649 138.571 19.0647 137.948 19.0647ZM137.907 14.7788C138.388 14.7788 138.794 14.6688 139.126 14.4487C139.458 14.2287 139.71 13.9121 139.883 13.4991C140.055 13.0861 140.142 12.5918 140.142 12.0163C140.142 11.4543 140.057 10.9584 139.888 10.5284C139.719 10.0985 139.468 9.76162 139.136 9.51787C138.805 9.27412 138.395 9.15225 137.907 9.15225C137.4 9.15225 136.976 9.28089 136.638 9.53818C136.303 9.79548 136.051 10.1408 135.881 10.5741C135.715 11.0075 135.632 11.4882 135.632 12.0163C135.632 12.558 135.717 13.037 135.886 13.4534C136.059 13.8664 136.313 14.1914 136.648 14.4284C136.987 14.662 137.406 14.7788 137.907 14.7788Z" fill="white"/>
<path d="M146.784 16.1397C146.032 16.1397 145.384 15.9739 144.839 15.6421C144.297 15.3069 143.879 14.8397 143.585 14.2405C143.294 13.6379 143.148 12.9371 143.148 12.1382C143.148 11.3392 143.294 10.6351 143.585 10.0257C143.879 9.41292 144.289 8.93558 144.814 8.59365C145.342 8.24834 145.958 8.07568 146.662 8.07568C147.068 8.07568 147.47 8.14339 147.866 8.27881C148.262 8.41423 148.622 8.63428 148.947 8.93897C149.272 9.24027 149.531 9.63975 149.724 10.1374C149.917 10.6351 150.014 11.2478 150.014 11.9757V12.4835H144.001V11.4476H148.795C148.795 11.0075 148.707 10.6147 148.531 10.2694C148.358 9.92412 148.111 9.6516 147.789 9.45186C147.471 9.25212 147.095 9.15225 146.662 9.15225C146.185 9.15225 145.772 9.27074 145.423 9.50772C145.078 9.74131 144.812 10.046 144.626 10.4218C144.44 10.7976 144.346 11.2004 144.346 11.6304V12.321C144.346 12.9101 144.448 13.4094 144.651 13.819C144.858 14.2253 145.144 14.5351 145.509 14.7483C145.875 14.9582 146.3 15.0632 146.784 15.0632C147.099 15.0632 147.383 15.0192 147.637 14.9312C147.894 14.8397 148.116 14.7043 148.302 14.5249C148.489 14.3421 148.632 14.1153 148.734 13.8444L149.892 14.1694C149.77 14.5621 149.565 14.9075 149.277 15.2054C148.99 15.4999 148.634 15.7301 148.211 15.896C147.788 16.0585 147.312 16.1397 146.784 16.1397Z" fill="white"/>
<path d="M151.837 15.9772V8.17725H152.995V9.35537H153.076C153.218 8.96943 153.475 8.65628 153.848 8.41592C154.22 8.17555 154.64 8.05537 155.107 8.05537C155.195 8.05537 155.305 8.05706 155.437 8.06045C155.569 8.06383 155.669 8.06891 155.737 8.07568V9.29443C155.696 9.28428 155.603 9.26904 155.457 9.24873C155.315 9.22503 155.165 9.21318 155.005 9.21318C154.626 9.21318 154.288 9.29274 153.99 9.45186C153.695 9.60758 153.462 9.82425 153.289 10.1019C153.12 10.3761 153.035 10.6892 153.035 11.0413V15.9772H151.837Z" fill="white"/>
</svg>
