<svg width="44" height="44" viewBox="0 0 44 44" fill="none" xmlns="http://www.w3.org/2000/svg">
<path d="M36.0921 18.0414C36.0921 18.8193 36.0323 19.5887 35.904 20.3324C35.8271 20.8111 35.6903 21.2813 35.5365 21.7429L35.5194 21.8028C35.0235 23.2646 34.2285 24.6067 33.1685 25.7266L23.7907 35.737C22.9701 37.062 21.0466 37.062 20.226 35.737L10.8482 25.7266C9.79671 24.6067 8.99314 23.2646 8.50587 21.8113L8.48022 21.7344C8.32635 21.2728 8.18957 20.8026 8.10409 20.3239C7.98441 19.5802 7.91602 18.8279 7.91602 18.05C7.91602 15.246 8.73668 12.6302 10.1643 10.4332C12.6605 6.54358 17.0288 3.96191 22.0041 3.96191C26.9793 3.96191 31.3477 6.54358 33.8438 10.4332C35.2629 12.6302 36.0836 15.246 36.0836 18.05L36.0921 18.0414Z" fill="#00AF9E" stroke="#00695F"/>
<path d="M22.8076 17.1669L24.6908 10.539C24.7405 10.3647 24.509 10.2424 24.393 10.3817L17.6826 18.4185L21.8175 20.603L19.9343 27.2309C19.8846 27.4052 20.1161 27.5275 20.2321 27.3882L26.9425 19.3514L22.8076 17.1669Z" fill="white"/>
<circle cx="32.5661" cy="7.92453" r="7.92453" fill="#0A0A0A"/>
<path d="M29.0439 8.4943L31.9191 11.0873L36.088 4.86407" stroke="white" stroke-linejoin="bevel"/>
</svg>
