<svg width="43" height="45" viewBox="0 0 43 45" fill="none" xmlns="http://www.w3.org/2000/svg">
<path d="M35.223 19.0414C35.223 19.8193 35.1631 20.5887 35.0349 21.3324C34.958 21.8111 34.8212 22.2813 34.6673 22.7429L34.6502 22.8027C34.1544 24.2646 33.3594 25.6067 32.2994 26.7265L22.9216 36.7369C22.1009 38.062 20.1775 38.062 19.3568 36.7369L9.97904 26.7265C8.92757 25.6067 8.124 24.2646 7.63673 22.8113L7.61108 22.7344C7.45721 22.2727 7.32043 21.8026 7.23494 21.3239C7.11526 20.5801 7.04688 19.8278 7.04688 19.0499C7.04688 16.246 7.86754 13.6301 9.29515 11.4331C11.7913 7.54355 16.1597 4.96188 21.1349 4.96188C26.1102 4.96188 30.4785 7.54355 32.9747 11.4331C34.3938 13.6301 35.2144 16.246 35.2144 19.0499L35.223 19.0414Z" fill="#F6AC43" stroke="#A07230"/>
<path d="M18.9043 19.4872L20.7874 12.8593C20.8372 12.685 20.6057 12.5627 20.4897 12.702L13.7792 20.7389L17.9141 22.9233L16.031 29.5512C15.9813 29.7255 16.2128 29.8479 16.3287 29.7085L23.0392 21.6717L18.9043 19.4872Z" fill="white"/>
<path d="M25.5078 18.1665L27.3909 11.5386C27.4407 11.3643 27.2092 11.2419 27.0932 11.3813L20.3828 19.4181L24.5176 21.6025L22.6345 28.2305C22.5848 28.4048 22.8163 28.5271 22.9323 28.3877L29.6427 20.3509L25.5078 18.1665Z" fill="white"/>
<circle cx="31.698" cy="8.92453" r="7.92453" fill="#0A0A0A"/>
<path d="M28.1758 9.49433L31.0509 12.0874L35.2198 5.86411" stroke="white" stroke-linejoin="bevel"/>
<rect x="22.8955" y="0.5" width="17" height="17" rx="8.5" fill="#0A0A0A" stroke="#ED454F"/>
<path d="M35.3528 6.40736L35.0316 7.26674H27.3955L27.7113 6.40736H35.3528ZM32.2635 14L27.4931 9.49315L27.4804 8.86365H29.5689C30.1998 8.86365 30.738 8.79007 31.1833 8.64343C31.6287 8.49412 31.9685 8.27283 32.2028 7.97957C32.4418 7.68684 32.5614 7.32376 32.5614 6.89084C32.5614 6.25275 32.3123 5.75162 31.8143 5.38686C31.3209 5.01893 30.6125 4.83525 29.6904 4.83525H27.3956L27.7114 4.00004H29.6903C30.5803 4.00004 31.3248 4.12358 31.9236 4.37118C32.5265 4.61826 32.9798 4.9604 33.283 5.39652C33.5908 5.82943 33.7443 6.32733 33.7443 6.89074C33.7443 7.41818 33.5968 7.893 33.3017 8.31621C33.0099 8.73623 32.5585 9.06978 31.9476 9.31738C31.3407 9.56176 30.5662 9.68369 29.6234 9.68369H29.1861L33.6774 13.9268V13.9999L32.2635 14ZM35.3955 4L35.0797 4.85938L28.646 4.83521L28.9371 4L35.3955 4Z" fill="white"/>
<rect x="26.0791" y="2" width="16.679" height="0.96623" transform="rotate(45 26.0791 2)" fill="#ED454F"/>
</svg>
