<svg width="57" height="44" viewBox="0 0 57 44" fill="none" xmlns="http://www.w3.org/2000/svg">
<path d="M28.415 30.8801C36.2299 30.8801 43.2892 31.6169 48.3809 32.801C50.9307 33.394 52.9597 34.0935 54.3389 34.8518C55.0285 35.231 55.5321 35.6128 55.8584 35.9836C56.1818 36.3512 56.3105 36.6832 56.3105 36.9836C56.3105 37.2841 56.1819 37.6169 55.8584 37.9846C55.5321 38.3554 55.0285 38.7373 54.3389 39.1165C52.9597 39.8748 50.9306 40.5733 48.3809 41.1663C43.2892 42.3504 36.2299 43.0881 28.415 43.0881C20.6003 43.0881 13.5409 42.3503 8.44922 41.1663C5.89953 40.5733 3.87041 39.8747 2.49121 39.1165C1.80141 38.7372 1.29703 38.3555 0.970703 37.9846C0.647181 37.6169 0.518555 37.2841 0.518555 36.9836C0.518628 36.6833 0.647441 36.3511 0.970703 35.9836C1.29703 35.6128 1.80141 35.2311 2.49121 34.8518C3.87041 34.0935 5.89941 33.394 8.44922 32.801C13.5409 31.617 20.6003 30.8801 28.415 30.8801Z" fill="#5A5A5A" fill-opacity="0.5" stroke="#5A5A5A"/>
<path d="M42.723 18.0439C42.723 18.8219 42.6631 19.5912 42.5349 20.3349C42.458 20.8137 42.3212 21.2838 42.1673 21.7455L42.1502 21.8053C41.6544 23.2671 40.8594 24.6092 39.7994 25.7291L30.4216 35.7395C29.6009 37.0645 27.6775 37.0645 26.8568 35.7395L17.479 25.7291C16.4276 24.6092 15.624 23.2671 15.1367 21.8138L15.1111 21.7369C14.9572 21.2753 14.8204 20.8051 14.7349 20.3264C14.6153 19.5827 14.5469 18.8304 14.5469 18.0525C14.5469 15.2485 15.3675 12.6327 16.7952 10.4357C19.2913 6.5461 23.6597 3.96444 28.6349 3.96444C33.6102 3.96444 37.9785 6.5461 40.4747 10.4357C41.8938 12.6327 42.7144 15.2485 42.7144 18.0525L42.723 18.0439Z" fill="#A1A1A1" stroke="#5A5A5A"/>
<path d="M26.8477 17.1679L28.7308 10.54C28.7806 10.3657 28.549 10.2434 28.4331 10.3827L21.7226 18.4195L25.8575 20.604L23.9744 27.2319C23.9246 27.4062 24.1562 27.5285 24.2721 27.3892L30.9826 19.3524L26.8477 17.1679Z" fill="white"/>
<path d="M33.4512 15.8471L35.3343 9.21923C35.3841 9.04493 35.1525 8.9226 35.0366 9.06195L28.3261 17.0988L32.461 19.2832L30.5779 25.9111C30.5281 26.0854 30.7597 26.2078 30.8756 26.0684L37.5861 18.0316L33.4512 15.8471Z" fill="white"/>
<circle cx="39.6413" cy="7.92453" r="7.92453" fill="#0A0A0A"/>
<path d="M36.1191 8.49432L38.9943 11.0873L43.1632 4.8641" stroke="white" stroke-linejoin="bevel"/>
</svg>
