<svg width="43" height="43" viewBox="0 0 43 43" fill="none" xmlns="http://www.w3.org/2000/svg">
<path d="M35.8275 16.7227C35.8275 17.5007 35.7676 18.27 35.6394 19.0138C35.5625 19.4925 35.4257 19.9626 35.2718 20.4243L35.2547 20.4841C34.7589 21.9459 33.9639 23.288 32.9038 24.4079L23.5261 34.4183C22.7054 35.7433 20.782 35.7433 19.9613 34.4183L10.5835 24.4079C9.53206 23.288 8.72849 21.9459 8.24122 20.4927L8.21558 20.4157C8.0617 19.9541 7.92492 19.4839 7.83944 19.0052C7.71976 18.2615 7.65137 17.5092 7.65137 16.7313C7.65137 13.9274 8.47203 11.3115 9.89965 9.11451C12.3958 5.22491 16.7642 2.64325 21.7394 2.64325C26.7147 2.64325 31.083 5.22491 33.5792 9.11451C34.9983 11.3115 35.8189 13.9274 35.8189 16.7313L35.8275 16.7227Z" fill="#00AF9E" stroke="#00695F"/>
<path d="M19.5078 17.1661L21.3909 10.5382C21.4407 10.3639 21.2092 10.2415 21.0932 10.3809L14.3828 18.4177L18.5176 20.6021L16.6345 27.2301C16.5848 27.4044 16.8163 27.5267 16.9323 27.3873L23.6427 19.3505L19.5078 17.1661Z" fill="white"/>
<path d="M26.1114 15.8453L27.9945 9.21736C28.0442 9.04306 27.8127 8.92073 27.6968 9.06008L20.9863 17.0969L25.1212 19.2813L23.2381 25.9093C23.1883 26.0836 23.4198 26.2059 23.5358 26.0665L30.2463 18.0297L26.1114 15.8453Z" fill="white"/>
</svg>
