<svg width="57" height="45" viewBox="0 0 57 45" fill="none" xmlns="http://www.w3.org/2000/svg">
<path d="M28.3965 31.8781C36.2113 31.8781 43.2706 32.6149 48.3623 33.799C50.9121 34.392 52.9411 35.0915 54.3203 35.8498C55.01 36.229 55.5136 36.6108 55.8398 36.9816C56.1633 37.3492 56.2919 37.6812 56.292 37.9816C56.292 38.2821 56.1634 38.6149 55.8398 38.9826C55.5135 39.3534 55.0099 39.7353 54.3203 40.1145C52.9411 40.8728 50.9121 41.5713 48.3623 42.1643C43.2706 43.3484 36.2113 44.0861 28.3965 44.0861C20.5817 44.0861 13.5224 43.3483 8.43066 42.1643C5.88097 41.5713 3.85186 40.8727 2.47266 40.1145C1.78286 39.7352 1.27847 39.3535 0.952148 38.9826C0.628627 38.6149 0.5 38.2821 0.5 37.9816C0.500074 37.6813 0.628886 37.3491 0.952148 36.9816C1.27847 36.6108 1.78285 36.2291 2.47266 35.8498C3.85186 35.0915 5.88085 34.392 8.43066 33.799C13.5224 32.615 20.5818 31.8781 28.3965 31.8781Z" fill="#B31712" fill-opacity="0.5" stroke="#B31712"/>
<path d="M41.8275 19.0407C41.8275 19.8186 41.7676 20.588 41.6394 21.3317C41.5625 21.8104 41.4257 22.2806 41.2718 22.7422L41.2547 22.8021C40.7589 24.2639 39.9639 25.606 38.9038 26.7259L29.5261 36.7362C28.7054 38.0613 26.782 38.0613 25.9613 36.7362L16.5835 26.7259C15.5321 25.606 14.7285 24.2639 14.2412 22.8106L14.2156 22.7337C14.0617 22.272 13.9249 21.8019 13.8394 21.3232C13.7198 20.5794 13.6514 19.8272 13.6514 19.0492C13.6514 16.2453 14.472 13.6294 15.8996 11.4325C18.3958 7.54286 22.7642 4.9612 27.7394 4.9612C32.7147 4.9612 37.083 7.54286 39.5792 11.4325C40.9983 13.6294 41.8189 16.2453 41.8189 19.0492L41.8275 19.0407Z" fill="#FD303E" stroke="#B11312"/>
<path d="M28.0147 18.1668L29.8978 11.5388C29.9476 11.3645 29.716 11.2422 29.6001 11.3816L22.8896 19.4184L27.0245 21.6028L25.1414 28.2307C25.0916 28.405 25.3232 28.5274 25.4391 28.388L32.1496 20.3512L28.0147 18.1668Z" fill="white"/>
<circle cx="38.3015" cy="8.92453" r="7.92453" fill="#0A0A0A"/>
<rect x="29.5" y="0.5" width="17" height="17" rx="8.5" fill="#0A0A0A" stroke="#ED454F"/>
<path d="M42.7112 6.40736L42.39 7.26674H34.7539L35.0697 6.40736H42.7112ZM39.6219 14L34.8515 9.49315L34.8388 8.86365H36.9273C37.5582 8.86365 38.0964 8.79007 38.5417 8.64343C38.987 8.49412 39.3269 8.27283 39.5612 7.97957C39.8002 7.68684 39.9198 7.32376 39.9198 6.89084C39.9198 6.25275 39.6707 5.75162 39.1727 5.38686C38.6793 5.01893 37.9709 4.83525 37.0488 4.83525H34.754L35.0698 4.00004H37.0487C37.9387 4.00004 38.6832 4.12358 39.282 4.37118C39.8849 4.61826 40.3382 4.9604 40.6414 5.39652C40.9492 5.82943 41.1027 6.32733 41.1027 6.89074C41.1027 7.41818 40.9552 7.893 40.6601 8.31621C40.3683 8.73623 39.9169 9.06978 39.306 9.31738C38.6991 9.56176 37.9246 9.68369 36.9818 9.68369H36.5445L41.0358 13.9268V13.9999L39.6219 14ZM42.7539 4L42.4381 4.85938L36.0044 4.83521L36.2955 4L42.7539 4Z" fill="white"/>
<rect x="33.4375" y="2" width="16.679" height="0.96623" transform="rotate(45 33.4375 2)" fill="#ED454F"/>
</svg>
