<svg width="57" height="44" viewBox="0 0 57 44" fill="none" xmlns="http://www.w3.org/2000/svg">
<path d="M28.415 31.2727C36.2299 31.2727 43.2892 32.0095 48.3809 33.1936C50.9307 33.7866 52.9597 34.486 54.3389 35.2444C55.0285 35.6236 55.5321 36.0054 55.8584 36.3762C56.1818 36.7438 56.3105 37.0758 56.3105 37.3762C56.3105 37.6767 56.1819 38.0095 55.8584 38.3772C55.5321 38.7479 55.0285 39.1298 54.3389 39.509C52.9597 40.2673 50.9306 40.9658 48.3809 41.5588C43.2892 42.7429 36.2299 43.4807 28.415 43.4807C20.6003 43.4807 13.5409 42.7429 8.44922 41.5588C5.89953 40.9659 3.87041 40.2673 2.49121 39.509C1.80141 39.1297 1.29703 38.748 0.970703 38.3772C0.647181 38.0095 0.518555 37.6767 0.518555 37.3762C0.518628 37.0758 0.647441 36.7437 0.970703 36.3762C1.29703 36.0053 1.80141 35.6236 2.49121 35.2444C3.87041 34.486 5.89941 33.7866 8.44922 33.1936C13.5409 32.0095 20.6003 31.2727 28.415 31.2727Z" fill="#10CF6F" fill-opacity="0.5" stroke="#10CF6F"/>
<path d="M41.846 18.4352C41.846 19.2131 41.7862 19.9825 41.658 20.7262C41.581 21.2049 41.4442 21.6751 41.2904 22.1367L41.2733 22.1966C40.7774 23.6584 39.9824 25.0005 38.9224 26.1204L29.5446 36.1308C28.724 37.4558 26.8005 37.4558 25.9799 36.1308L16.6021 26.1204C15.5506 25.0005 14.747 23.6584 14.2598 22.2051L14.2341 22.1282C14.0803 21.6666 13.9435 21.1964 13.858 20.7177C13.7383 19.974 13.6699 19.2217 13.6699 18.4438C13.6699 15.6398 14.4906 13.024 15.9182 10.827C18.4144 6.93737 22.7827 4.35571 27.758 4.35571C32.7332 4.35571 37.1016 6.93737 39.5977 10.827C41.0168 13.024 41.8375 15.6398 41.8375 18.4438L41.846 18.4352Z" fill="#00AF9E" stroke="#00695F"/>
<path d="M25.5264 18.882L27.4095 12.2541C27.4593 12.0798 27.2277 11.9575 27.1118 12.0968L20.4013 20.1336L24.5362 22.3181L22.6531 28.946C22.6033 29.1203 22.8349 29.2426 22.9508 29.1033L29.6613 21.0665L25.5264 18.882Z" fill="white"/>
<path d="M32.1299 17.5613L34.013 10.9334C34.0628 10.7591 33.8312 10.6367 33.7153 10.7761L27.0048 18.8129L31.1397 20.9973L29.2566 27.6253C29.2068 27.7996 29.4384 27.9219 29.5543 27.7825L36.2648 19.7457L32.1299 17.5613Z" fill="white"/>
<circle cx="38.32" cy="8.31906" r="7.92453" fill="#0A0A0A"/>
<path d="M34.7979 8.88886L37.673 11.4819L41.8419 5.25864" stroke="white" stroke-linejoin="bevel"/>
</svg>
