<svg width="43" height="45" viewBox="0 0 43 45" fill="none" xmlns="http://www.w3.org/2000/svg">
<path d="M35.724 19.0414C35.724 19.8193 35.6641 20.5887 35.5359 21.3324C35.4589 21.8111 35.3222 22.2813 35.1683 22.7429L35.1512 22.8028C34.6554 24.2646 33.8604 25.6067 32.8003 26.7266L23.4226 36.737C22.6019 38.062 20.6785 38.062 19.8578 36.737L10.48 26.7266C9.42854 25.6067 8.62497 24.2646 8.13771 22.8113L8.11206 22.7344C7.95819 22.2728 7.82141 21.8026 7.73592 21.3239C7.61624 20.5802 7.54785 19.8279 7.54785 19.05C7.54785 16.246 8.36852 13.6302 9.79613 11.4332C12.2923 7.54358 16.6606 4.96191 21.6359 4.96191C26.6112 4.96191 30.9795 7.54358 33.4757 11.4332C34.8947 13.6302 35.7154 16.246 35.7154 19.05L35.724 19.0414Z" fill="#00AF9E" stroke="#00695F"/>
<path d="M22.4395 18.1669L24.3226 11.539C24.3724 11.3647 24.1408 11.2424 24.0249 11.3817L17.3144 19.4185L21.4493 21.603L19.5662 28.2309C19.5164 28.4052 19.748 28.5275 19.8639 28.3882L26.5744 20.3514L22.4395 18.1669Z" fill="white"/>
<circle cx="32.198" cy="8.92453" r="7.92453" fill="#0A0A0A"/>
<path d="M28.6758 9.4943L31.5509 12.0873L35.7198 5.86407" stroke="white" stroke-linejoin="bevel"/>
<rect x="23.6504" y="0.5" width="17" height="17" rx="8.5" fill="#0A0A0A" stroke="#ED454F"/>
<path d="M36.1077 6.40736L35.7865 7.26674H28.1504L28.4662 6.40736H36.1077ZM33.0184 14L28.248 9.49315L28.2353 8.86365H30.3238C30.9547 8.86365 31.4929 8.79007 31.9382 8.64343C32.3835 8.49412 32.7234 8.27283 32.9577 7.97957C33.1967 7.68684 33.3163 7.32376 33.3163 6.89084C33.3163 6.25275 33.0672 5.75162 32.5691 5.38686C32.0757 5.01893 31.3673 4.83525 30.4453 4.83525H28.1505L28.4663 4.00004H30.4452C31.3352 4.00004 32.0797 4.12358 32.6785 4.37118C33.2814 4.61826 33.7347 4.9604 34.0378 5.39652C34.3456 5.82943 34.4992 6.32733 34.4992 6.89074C34.4992 7.41818 34.3516 7.893 34.0565 8.31621C33.7648 8.73623 33.3134 9.06978 32.7025 9.31738C32.0956 9.56176 31.3211 9.68369 30.3783 9.68369H29.941L34.4323 13.9268V13.9999L33.0184 14ZM36.1504 4L35.8346 4.85938L29.4009 4.83521L29.692 4L36.1504 4Z" fill="white"/>
<rect x="26.834" y="2" width="16.679" height="0.96623" transform="rotate(45 26.834 2)" fill="#ED454F"/>
</svg>
