<svg width="44" height="44" viewBox="0 0 44 44" fill="none" xmlns="http://www.w3.org/2000/svg">
<path d="M36.6702 17.4078C36.6702 18.2176 36.608 19.0186 36.4745 19.7929C36.3944 20.2913 36.252 20.7807 36.0918 21.2613L36.074 21.3236C35.5578 22.8455 34.7301 24.2427 33.6265 25.4086L23.8636 35.8301C23.0092 37.2095 21.0068 37.2095 20.1525 35.8301L10.3895 25.4086C9.29485 24.2427 8.45828 22.8455 7.95099 21.3325L7.9243 21.2524C7.7641 20.7718 7.6217 20.2824 7.53271 19.784C7.40811 19.0097 7.33691 18.2265 7.33691 17.4167C7.33691 14.4976 8.19129 11.7743 9.67753 9.48705C12.2762 5.43769 16.824 2.75 22.0036 2.75C27.1832 2.75 31.7309 5.43769 34.3296 9.48705C35.807 11.7743 36.6613 14.4976 36.6613 17.4167L36.6702 17.4078Z" fill="#1E1E1E" stroke="#63040B"/>
<path d="M33.0003 17.875C33.0003 23.9501 28.0755 28.875 22.0003 28.875C15.9252 28.875 11.917 22.4583 11.917 17.875C11.917 11.7999 16.5003 7.79167 22.0003 6.875C28.0755 6.875 33.0003 11.7999 33.0003 17.875Z" fill="#1E1E1E"/>
<path d="M32.6866 15.1046C32.6755 15.0585 32.6616 15.0138 32.6498 14.9677C31.174 9.17676 25.4092 5.71698 19.7025 7.2303C14.3747 8.6436 10.9706 13.8944 11.6263 19.3299C11.2548 19.5307 11 19.9354 11 20.4039C11 21.0287 11.4523 21.5418 12.0316 21.6057C13.8203 26.9027 19.3302 29.9647 24.791 28.516C30.5711 26.9827 34.1059 20.9786 32.6866 15.1046ZM24.6992 27.6589C19.6864 28.9884 14.6207 26.1856 12.9017 21.3218C13.1485 21.1002 13.3056 20.7717 13.3056 20.4047C13.3056 19.7377 12.7894 19.1968 12.1528 19.1968C12.0904 19.1968 12.0294 19.2037 11.9692 19.2137C11.3502 14.1183 14.6089 9.17215 19.6886 7.82501C25.1603 6.37401 30.6725 9.64915 31.9993 15.1416C33.3261 20.634 30.0579 26.2379 24.6999 27.6597L24.6992 27.6589Z" fill="#FD303E"/>
<path d="M22.2762 17.7942C22.2762 15.9947 21.235 14.5691 19.3163 14.5691C17.3977 14.5691 16.2383 15.957 16.2383 18.1489C16.2383 20.3408 17.3801 21.6133 19.4081 21.6133C20.8693 21.6133 21.8194 20.9532 22.1667 19.7661L20.6409 19.4022C20.4493 19.8899 20.0748 20.2254 19.3898 20.2254C18.4271 20.2254 17.9741 19.5053 17.9242 18.5597H21.6557C22.0757 18.5597 22.2769 18.3489 22.2769 17.7942H22.2762ZM19.3163 15.9278C20.0631 15.9278 20.5286 16.4732 20.5727 17.3826H17.9278C18.0013 16.4894 18.5439 15.9278 19.3163 15.9278Z" fill="#FD303E"/>
<path d="M27.4007 14.7598L25.8478 19.7082L24.3315 14.7598H22.5957L24.7603 20.6653C24.9799 21.2493 25.2354 21.4978 25.756 21.4978H25.9476C26.4594 21.4978 26.7149 21.2585 26.9345 20.6746L29.1175 14.7598H27.4H27.4007Z" fill="#FD303E"/>
</svg>
