<svg width="36" height="41" viewBox="0 0 36 41" fill="none" xmlns="http://www.w3.org/2000/svg">
<g clip-path="url(#clip0_373_54)">
<path d="M18 0.5C27.7542 0.5 35.5 7.07336 35.5 15C35.5 17.2638 34.4311 19.9938 32.7559 22.8604C31.0889 25.7127 28.8594 28.6378 26.6191 31.2764C24.3806 33.9129 22.1401 36.2524 20.459 37.9336C19.6188 38.7738 18.9191 39.4495 18.4297 39.9141C18.2607 40.0745 18.1159 40.2091 18 40.3174C17.8841 40.2091 17.7393 40.0745 17.5703 39.9141C17.0809 39.4495 16.3812 38.7738 15.541 37.9336C13.8599 36.2524 11.6194 33.9129 9.38086 31.2764C7.14061 28.6378 4.91111 25.7127 3.24414 22.8604C1.56891 19.9938 0.500001 17.2638 0.5 15C0.5 7.07336 8.24579 0.5 18 0.5Z" fill="#0F0F0F" stroke="white"/>
<path d="M18.0064 24.6591C17.1617 24.6591 16.4117 24.517 15.7564 24.233C15.1049 23.9489 14.5935 23.5606 14.2223 23.0682C13.8549 22.572 13.6731 22.0095 13.6768 21.3807C13.6731 20.892 13.7791 20.4432 13.995 20.0341C14.2109 19.625 14.5026 19.2841 14.87 19.0114C15.2412 18.7348 15.6541 18.5587 16.1087 18.483V18.4034C15.5102 18.2708 15.0253 17.9659 14.6541 17.4886C14.2867 17.0076 14.1049 16.4527 14.1087 15.8239C14.1049 15.2254 14.2715 14.6913 14.6087 14.2216C14.9458 13.7519 15.4079 13.3826 15.995 13.1136C16.5821 12.8409 17.2526 12.7045 18.0064 12.7045C18.7526 12.7045 19.4174 12.8409 20.0007 13.1136C20.5878 13.3826 21.05 13.7519 21.3871 14.2216C21.728 14.6913 21.8984 15.2254 21.8984 15.8239C21.8984 16.4527 21.7109 17.0076 21.3359 17.4886C20.9647 17.9659 20.4856 18.2708 19.8984 18.4034V18.483C20.353 18.5587 20.7621 18.7348 21.1257 19.0114C21.4931 19.2841 21.7848 19.625 22.0007 20.0341C22.2204 20.4432 22.3303 20.892 22.3303 21.3807C22.3303 22.0095 22.1446 22.572 21.7734 23.0682C21.4022 23.5606 20.8909 23.9489 20.2393 24.233C19.5916 24.517 18.8473 24.6591 18.0064 24.6591ZM18.0064 23.0341C18.442 23.0341 18.8208 22.9602 19.1428 22.8125C19.4647 22.661 19.7147 22.4489 19.8928 22.1761C20.0708 21.9034 20.1617 21.589 20.1655 21.233C20.1617 20.8617 20.0651 20.5341 19.8757 20.25C19.6901 19.9621 19.4344 19.7367 19.1087 19.5739C18.7867 19.411 18.4193 19.3295 18.0064 19.3295C17.5897 19.3295 17.2185 19.411 16.8928 19.5739C16.567 19.7367 16.3094 19.9621 16.12 20.25C15.9344 20.5341 15.8435 20.8617 15.8473 21.233C15.8435 21.589 15.9306 21.9034 16.1087 22.1761C16.2867 22.4451 16.5367 22.6553 16.8587 22.8068C17.1844 22.9583 17.567 23.0341 18.0064 23.0341ZM18.0064 17.733C18.3625 17.733 18.6768 17.661 18.9496 17.517C19.2261 17.3731 19.4439 17.1723 19.603 16.9148C19.7621 16.6572 19.8435 16.3598 19.8473 16.0227C19.8435 15.6894 19.764 15.3977 19.6087 15.1477C19.4534 14.8939 19.2375 14.6989 18.9609 14.5625C18.6844 14.4223 18.3662 14.3523 18.0064 14.3523C17.639 14.3523 17.3151 14.4223 17.0348 14.5625C16.7583 14.6989 16.5424 14.8939 16.3871 15.1477C16.2356 15.3977 16.1617 15.6894 16.1655 16.0227C16.1617 16.3598 16.2375 16.6572 16.3928 16.9148C16.5518 17.1686 16.7696 17.3693 17.0462 17.517C17.3265 17.661 17.6465 17.733 18.0064 17.733Z" fill="white"/>
</g>
<defs>
<clipPath id="clip0_373_54">
<rect width="36" height="41" fill="white"/>
</clipPath>
</defs>
</svg>
