<svg width="36" height="41" viewBox="0 0 36 41" fill="none" xmlns="http://www.w3.org/2000/svg">
<g clip-path="url(#clip0_373_33)">
<path d="M18 0.5C27.7542 0.5 35.5 7.07336 35.5 15C35.5 17.2638 34.4311 19.9938 32.7559 22.8604C31.0889 25.7127 28.8594 28.6378 26.6191 31.2764C24.3806 33.9129 22.1401 36.2524 20.459 37.9336C19.6188 38.7738 18.9191 39.4495 18.4297 39.9141C18.2607 40.0745 18.1159 40.2091 18 40.3174C17.8841 40.2091 17.7393 40.0745 17.5703 39.9141C17.0809 39.4495 16.3812 38.7738 15.541 37.9336C13.8599 36.2524 11.6194 33.9129 9.38086 31.2764C7.14061 28.6378 4.91111 25.7127 3.24414 22.8604C1.56891 19.9938 0.500001 17.2638 0.5 15C0.5 7.07336 8.24579 0.5 18 0.5Z" fill="#0F0F0F" stroke="white"/>
<path d="M13.5653 24.5V22.9773L17.6051 19.017C17.9915 18.6269 18.3134 18.2803 18.571 17.9773C18.8286 17.6742 19.0218 17.3807 19.1506 17.0966C19.2794 16.8125 19.3438 16.5095 19.3438 16.1875C19.3438 15.8201 19.2604 15.5057 19.0938 15.2443C18.9271 14.9792 18.6979 14.7746 18.4062 14.6307C18.1146 14.4867 17.7831 14.4148 17.4119 14.4148C17.0294 14.4148 16.6941 14.4943 16.4062 14.6534C16.1184 14.8087 15.8949 15.0303 15.7358 15.3182C15.5805 15.6061 15.5028 15.9489 15.5028 16.3466H13.4972C13.4972 15.608 13.6657 14.9659 14.0028 14.4205C14.34 13.875 14.804 13.4527 15.3949 13.1534C15.9896 12.8542 16.6714 12.7045 17.4403 12.7045C18.2206 12.7045 18.9063 12.8504 19.4972 13.142C20.0881 13.4337 20.5464 13.8333 20.8722 14.3409C21.2017 14.8485 21.3665 15.428 21.3665 16.0795C21.3665 16.5152 21.2831 16.9432 21.1165 17.3636C20.9498 17.7841 20.6563 18.25 20.2358 18.7614C19.8191 19.2727 19.2339 19.892 18.4801 20.6193L16.4744 22.6591V22.7386H21.5426V24.5H13.5653Z" fill="white"/>
</g>
<defs>
<clipPath id="clip0_373_33">
<rect width="36" height="41" fill="white"/>
</clipPath>
</defs>
</svg>
