<svg width="36" height="41" viewBox="0 0 36 41" fill="none" xmlns="http://www.w3.org/2000/svg">
<g clip-path="url(#clip0_373_38)">
<path d="M18 0.5C27.7542 0.5 35.5 7.07336 35.5 15C35.5 17.2638 34.4311 19.9938 32.7559 22.8604C31.0889 25.7127 28.8594 28.6378 26.6191 31.2764C24.3806 33.9129 22.1401 36.2524 20.459 37.9336C19.6188 38.7738 18.9191 39.4495 18.4297 39.9141C18.2607 40.0745 18.1159 40.2091 18 40.3174C17.8841 40.2091 17.7393 40.0745 17.5703 39.9141C17.0809 39.4495 16.3812 38.7738 15.541 37.9336C13.8599 36.2524 11.6194 33.9129 9.38086 31.2764C7.14061 28.6378 4.91111 25.7127 3.24414 22.8604C1.56891 19.9938 0.500001 17.2638 0.5 15C0.5 7.07336 8.24579 0.5 18 0.5Z" fill="#0F0F0F" stroke="white"/>
<path d="M19.4233 12.8636V24.5H17.3153V14.9148H17.2472L14.5256 16.6534V14.7216L17.4176 12.8636H19.4233Z" fill="white"/>
</g>
<defs>
<clipPath id="clip0_373_38">
<rect width="36" height="41" fill="white"/>
</clipPath>
</defs>
</svg>
