<svg width="36" height="41" viewBox="0 0 36 41" fill="none" xmlns="http://www.w3.org/2000/svg">
<g clip-path="url(#clip0_373_50)">
<path d="M18 0.5C27.7542 0.5 35.5 7.07336 35.5 15C35.5 17.2638 34.4311 19.9938 32.7559 22.8604C31.0889 25.7127 28.8594 28.6378 26.6191 31.2764C24.3806 33.9129 22.1401 36.2524 20.459 37.9336C19.6188 38.7738 18.9191 39.4495 18.4297 39.9141C18.2607 40.0745 18.1159 40.2091 18 40.3174C17.8841 40.2091 17.7393 40.0745 17.5703 39.9141C17.0809 39.4495 16.3812 38.7738 15.541 37.9336C13.8599 36.2524 11.6194 33.9129 9.38086 31.2764C7.14061 28.6378 4.91111 25.7127 3.24414 22.8604C1.56891 19.9938 0.500001 17.2638 0.5 15C0.5 7.07336 8.24579 0.5 18 0.5Z" fill="#0F0F0F" stroke="white"/>
<path d="M18.017 24.6591C17.2595 24.6591 16.5814 24.517 15.983 24.233C15.3845 23.9451 14.9091 23.5511 14.5568 23.0511C14.2083 22.5511 14.0227 21.9792 14 21.3352H16.0455C16.0833 21.8125 16.2898 22.2027 16.6648 22.5057C17.0398 22.8049 17.4905 22.9545 18.017 22.9545C18.4299 22.9545 18.7973 22.8598 19.1193 22.6705C19.4413 22.4811 19.6951 22.2178 19.8807 21.8807C20.0663 21.5436 20.1572 21.1591 20.1534 20.7273C20.1572 20.2879 20.0644 19.8977 19.875 19.5568C19.6856 19.2159 19.4261 18.9489 19.0966 18.7557C18.767 18.5587 18.3883 18.4602 17.9602 18.4602C17.6117 18.4564 17.2689 18.5208 16.9318 18.6534C16.5947 18.786 16.3277 18.9602 16.1307 19.1761L14.2273 18.8636L14.8352 12.8636H21.5852V14.625H16.5795L16.2443 17.7102H16.3125C16.5284 17.4564 16.8333 17.2462 17.2273 17.0795C17.6212 16.9091 18.053 16.8239 18.5227 16.8239C19.2273 16.8239 19.8561 16.9905 20.4091 17.3239C20.9621 17.6534 21.3977 18.108 21.7159 18.6875C22.0341 19.267 22.1932 19.9299 22.1932 20.6761C22.1932 21.4451 22.0152 22.1307 21.6591 22.733C21.3068 23.3314 20.8163 23.803 20.1875 24.1477C19.5625 24.4886 18.839 24.6591 18.017 24.6591Z" fill="white"/>
</g>
<defs>
<clipPath id="clip0_373_50">
<rect width="36" height="41" fill="white"/>
</clipPath>
</defs>
</svg>
