<svg width="17" height="16" viewBox="0 0 17 16" fill="none" xmlns="http://www.w3.org/2000/svg">
<path d="M14.7585 6.88391C14.5946 5.93662 14.2241 5.06058 13.6944 4.30355L14.6783 2.94491L13.4754 1.74207L12.119 2.72422C11.3616 2.19077 10.4843 1.81736 9.53524 1.65136L9.27089 0H7.56974L7.30558 1.65136C6.35614 1.81736 5.47867 2.19097 4.72123 2.72422L3.36483 1.74207L2.16195 2.94491L3.14623 4.30374C2.61638 5.06077 2.24598 5.93662 2.08212 6.88391L0.42041 7.14967V8.85072L2.08691 9.11744C2.25383 10.0599 2.62556 10.9311 3.15522 11.6841L2.16195 13.0559L3.36464 14.2585L4.73903 13.2635C5.4915 13.7892 6.36112 14.158 7.30156 14.3232L7.56993 16H9.27108L9.53945 14.3228C10.4797 14.158 11.3493 13.7896 12.1016 13.2635L13.476 14.2585L14.6785 13.0559L13.6854 11.6841C14.2154 10.9311 14.5868 10.0597 14.7541 9.11744L16.4204 8.85072V7.14967L14.7585 6.88391ZM8.42022 13.0478C5.63258 13.0478 3.37267 10.7879 3.37267 7.9999C3.37267 5.21194 5.63258 2.95204 8.42022 2.95204C11.2079 2.95204 13.468 5.21194 13.468 7.9999C13.468 10.7879 11.2079 13.0478 8.42022 13.0478Z" fill="black"/>
<path d="M5.92041 5.19052H6.76353C7.79692 5.19052 8.42624 5.49859 8.59232 6.11455H5.92041V6.64572H8.62838C8.54524 7.37873 7.85631 7.85678 6.5737 7.85678H5.92063V8.51523C7.03694 9.57737 7.90404 10.5016 8.83031 11.5H9.97038C8.97263 10.406 7.96321 9.3226 7.03694 8.46192C8.55712 8.41962 9.51902 7.72911 9.6378 6.64572H10.9204V6.11455H9.62592C9.55465 5.62588 9.30543 5.2755 8.96075 5.03117H10.9204V4.5H5.92041V5.19052Z" fill="black"/>
</svg>
