<svg width="20" height="40" viewBox="0 0 20 40" fill="none" xmlns="http://www.w3.org/2000/svg">
<path d="M1.61633 39.9997C1.5671 39.9997 1.51693 39.9881 1.4705 39.9646C1.33265 39.894 1.267 39.7357 1.3153 39.5904L6.77752 23.17L0.381718 24.4846C0.252771 24.5114 0.120541 24.4565 0.0497371 24.3471C-0.0210668 24.2377 -0.0159089 24.097 0.0628663 23.9927L18.1296 0.125157C18.2224 0.00242075 18.3917 -0.0358766 18.5296 0.0347198C18.6674 0.105316 18.7331 0.263581 18.6848 0.408927L13.2225 16.8293L19.6183 15.5166C19.7473 15.4903 19.8795 15.5447 19.9503 15.6541C20.0211 15.7634 20.016 15.9041 19.9372 16.0084L1.87095 39.8741C1.80952 39.9554 1.71386 39.9997 1.61633 39.9997Z" fill="#00AF9E"/>
</svg>
