<svg width="45" height="18" viewBox="0 0 45 18" fill="none" xmlns="http://www.w3.org/2000/svg">
<path fill-rule="evenodd" clip-rule="evenodd" d="M5.88477 7.6306V5.84731H0.421082V7.6306H2.02284V11.8902H4.28361V7.6306H5.88477ZM8.71058 8.32365L7.5805 11.8896H5.31972L7.48592 5.84668H9.93524L12.102 11.8896H9.84127L8.71058 8.32365ZM17.0001 7.6306V5.84731H11.5364V7.6306H13.1382V11.8902H15.3989V7.6306H17.0001ZM19.8259 8.32365L18.6952 11.8896H16.4344L18.6012 5.84668H21.05L23.2168 11.8896H20.956L19.8259 8.32365Z" fill="white"/>
<path d="M44.1653 6.73333C44.1563 6.69557 44.145 6.65906 44.1354 6.62129C42.9323 1.88326 38.233 -0.947471 33.5809 0.290698C29.2378 1.44704 26.4628 5.74318 26.9973 10.1904C26.6945 10.3547 26.4868 10.6858 26.4868 11.0691C26.4868 11.5803 26.8555 12.0001 27.3277 12.0524C28.7858 16.3863 33.2775 18.8916 37.729 17.7063C42.4409 16.4517 45.3223 11.5393 44.1653 6.73333ZM37.6541 17.005C33.5678 18.0928 29.4383 15.7996 28.037 11.8201C28.2382 11.6388 28.3662 11.37 28.3662 11.0698C28.3662 10.524 27.9455 10.0815 27.4265 10.0815C27.3756 10.0815 27.3259 10.0872 27.2769 10.0953C26.7723 5.92635 29.4287 1.87948 33.5696 0.777279C38.03 -0.409903 42.5235 2.26976 43.6051 6.76355C44.6867 11.2573 42.0225 15.8424 37.6547 17.0057L37.6541 17.005Z" fill="white"/>
<path d="M35.6794 8.93366C35.6794 7.46133 34.8307 6.29492 33.2666 6.29492C31.7026 6.29492 30.7574 7.43049 30.7574 9.22385C30.7574 11.0172 31.6882 12.0584 33.3414 12.0584C34.5326 12.0584 35.3071 11.5183 35.5902 10.547L34.3464 10.2493C34.1902 10.6483 33.8849 10.9228 33.3265 10.9228C32.5418 10.9228 32.1725 10.3336 32.1317 9.55999H35.1736C35.516 9.55999 35.68 9.38751 35.68 8.93366H35.6794ZM33.2666 7.40657C33.8754 7.40657 34.2548 7.85286 34.2908 8.5969H32.1347C32.1946 7.86608 32.6369 7.40657 33.2666 7.40657Z" fill="white"/>
<path d="M39.8568 6.45117L38.5908 10.4999L37.3548 6.45117H35.9398L37.7043 11.283C37.8833 11.7608 38.0916 11.9641 38.516 11.9641H38.6722C39.0894 11.9641 39.2977 11.7683 39.4767 11.2905L41.2562 6.45117H39.8562H39.8568Z" fill="white"/>
</svg>
