<svg width="29" height="24" viewBox="0 0 29 24" fill="none" xmlns="http://www.w3.org/2000/svg">
<path d="M26.0865 10.4526C26.0865 10.9748 26.0394 11.4914 25.9386 11.9907C25.8781 12.3121 25.7706 12.6277 25.6496 12.9376L25.6362 12.9778C25.2463 13.9592 24.6213 14.8603 23.7879 15.6121L16.415 22.3328C15.7698 23.2224 14.2576 23.2224 13.6123 22.3328L6.23944 15.6121C5.41276 14.8603 4.78099 13.9592 4.39789 12.9836L4.37773 12.9319C4.25675 12.622 4.14921 12.3063 4.08201 11.9849C3.98791 11.4856 3.93414 10.9806 3.93414 10.4583C3.93414 8.57581 4.57936 6.8196 5.70176 5.34461C7.66429 2.73325 11.0987 1 15.0103 1C18.9219 1 22.3563 2.73325 24.3188 5.34461C25.4345 6.8196 26.0797 8.57581 26.0797 10.4583L26.0865 10.4526Z" fill="#F6AC43"/>
</svg>
