<svg width="20" height="20" viewBox="0 0 20 20" fill="none" xmlns="http://www.w3.org/2000/svg">
<path d="M9.99996 17.5L9.51187 18.0694H10.4881L9.99996 17.5ZM4.16663 8.33333H4.91663C4.91663 6.47477 5.64913 5.22958 6.62072 4.43463C7.61572 3.62054 8.90001 3.25 9.99996 3.25V2.5V1.75C8.59991 1.75 6.96753 2.21279 5.67086 3.2737C4.35079 4.35376 3.41663 6.02523 3.41663 8.33333H4.16663ZM9.99996 2.5V3.25C11.0999 3.25 12.3842 3.62054 13.3792 4.43463C14.3508 5.22958 15.0833 6.47477 15.0833 8.33333H15.8333H16.5833C16.5833 6.02523 15.6491 4.35376 14.3291 3.2737C13.0324 2.21279 11.4 1.75 9.99996 1.75V2.5ZM4.16663 8.33333H3.41663C3.41663 9.5416 3.83638 10.758 4.41227 11.8687C4.99153 12.9858 5.75518 14.0462 6.50434 14.9559C7.25534 15.8679 8.00425 16.6433 8.5646 17.1903C8.84523 17.4643 9.07973 17.6821 9.24509 17.8322C9.32779 17.9073 9.39327 17.9656 9.43867 18.0056C9.46138 18.0256 9.47907 18.041 9.49138 18.0517C9.49754 18.0571 9.50236 18.0613 9.50578 18.0642C9.5075 18.0657 9.50887 18.0669 9.50988 18.0677C9.51039 18.0682 9.51081 18.0685 9.51114 18.0688C9.51131 18.069 9.51149 18.0691 9.51157 18.0692C9.51173 18.0693 9.51187 18.0694 9.99996 17.5C10.4881 16.9306 10.4881 16.9306 10.4882 16.9307C10.4882 16.9307 10.4883 16.9307 10.4882 16.9307C10.4882 16.9307 10.4881 16.9306 10.4879 16.9304C10.4875 16.9301 10.4868 16.9295 10.4857 16.9285C10.4835 16.9266 10.4799 16.9236 10.4751 16.9193C10.4653 16.9108 10.4502 16.8977 10.4302 16.8801C10.3902 16.8448 10.3303 16.7916 10.2535 16.7218C10.0999 16.5823 9.87864 16.3769 9.6124 16.117C9.079 15.5963 8.36958 14.8613 7.66224 14.0024C6.95307 13.1413 6.25839 12.1704 5.7439 11.1782C5.22604 10.1795 4.91663 9.2084 4.91663 8.33333H4.16663ZM9.99996 17.5C10.4881 18.0694 10.4882 18.0693 10.4883 18.0692C10.4884 18.0691 10.4886 18.069 10.4888 18.0688C10.4891 18.0685 10.4895 18.0682 10.49 18.0677C10.4911 18.0669 10.4924 18.0657 10.4941 18.0642C10.4976 18.0613 10.5024 18.0571 10.5085 18.0517C10.5209 18.041 10.5385 18.0256 10.5612 18.0056C10.6066 17.9656 10.6721 17.9073 10.7548 17.8322C10.9202 17.6821 11.1547 17.4643 11.4353 17.1903C11.9957 16.6433 12.7446 15.8679 13.4956 14.9559C14.2447 14.0462 15.0084 12.9858 15.5876 11.8687C16.1635 10.758 16.5833 9.5416 16.5833 8.33333H15.8333H15.0833C15.0833 9.2084 14.7739 10.1795 14.256 11.1782C13.7415 12.1704 13.0468 13.1413 12.3377 14.0024C11.6303 14.8613 10.9209 15.5963 10.3875 16.117C10.1213 16.3769 9.90005 16.5823 9.74639 16.7218C9.66959 16.7916 9.60975 16.8448 9.5697 16.8801C9.54968 16.8977 9.53461 16.9108 9.52485 16.9193C9.51997 16.9236 9.51642 16.9266 9.51424 16.9285C9.51315 16.9295 9.5124 16.9301 9.51201 16.9304C9.51181 16.9306 9.5117 16.9307 9.51167 16.9307C9.51166 16.9307 9.51171 16.9307 9.5117 16.9307C9.51177 16.9306 9.51187 16.9306 9.99996 17.5Z" fill="#00AF9E"/>
<ellipse cx="10" cy="8.33301" rx="2.5" ry="2.5" stroke="#00AF9E" stroke-width="1.5"/>
</svg>
