<svg width="25" height="24" viewBox="0 0 25 24" fill="none" xmlns="http://www.w3.org/2000/svg">
<path d="M23.9354 8.97778C23.9234 8.92742 23.9082 8.87874 23.8953 8.82838C22.2853 2.51101 15.9965 -1.26329 9.771 0.387598C3.95882 1.92938 0.245303 7.65757 0.960612 13.5872C0.555297 13.8062 0.277344 14.2477 0.277344 14.7588C0.277344 15.4403 0.77077 16.0002 1.40277 16.0698C3.35405 21.8484 9.36489 25.1888 15.3221 23.6084C21.6277 21.9356 25.4838 15.3858 23.9354 8.97778ZM15.2219 22.6734C9.75338 24.1237 4.22716 21.0661 2.35198 15.7601C2.62112 15.5184 2.79254 15.16 2.79254 14.7597C2.79254 14.032 2.22942 13.442 1.53494 13.442C1.46685 13.442 1.40037 13.4495 1.33469 13.4605C0.659428 7.9018 4.21434 2.50598 9.75578 1.03637C15.725 -0.546537 21.7382 3.02634 23.1856 9.01807C24.6331 15.0098 21.0678 21.1232 15.2227 22.6742L15.2219 22.6734Z" fill="#00AF9E"/>
<path d="M12.578 11.9119C12.578 9.94877 11.4421 8.39355 9.34908 8.39355C7.25602 8.39355 5.99121 9.90764 5.99121 12.2988C5.99121 14.6899 7.23679 16.0781 9.4492 16.0781C11.0432 16.0781 12.0797 15.358 12.4586 14.063L10.7941 13.666C10.585 14.1981 10.1765 14.564 9.42918 14.564C8.37904 14.564 7.88482 13.7785 7.83035 12.747H11.9011C12.3593 12.747 12.5788 12.517 12.5788 11.9119H12.578ZM9.34908 9.87575C10.1637 9.87575 10.6716 10.4708 10.7196 11.4629H7.83435C7.91445 10.4884 8.5064 9.87575 9.34908 9.87575Z" fill="#00AF9E"/>
<path d="M18.1696 8.60156L16.4754 13.9999L14.8213 8.60156H12.9277L15.2891 15.044C15.5286 15.681 15.8074 15.9521 16.3753 15.9521H16.5844C17.1427 15.9521 17.4214 15.6911 17.6609 15.0541L20.0424 8.60156H18.1688H18.1696Z" fill="#00AF9E"/>
</svg>
