<svg width="43" height="43" viewBox="0 0 43 43" fill="none" xmlns="http://www.w3.org/2000/svg">
<path d="M35.9603 16.7193C35.9603 17.4972 35.9004 18.2666 35.7722 19.0103C35.6953 19.489 35.5585 19.9592 35.4046 20.4208L35.3875 20.4807C34.8917 21.9425 34.0967 23.2846 33.0367 24.4045L23.6589 34.4149C22.8382 35.7399 20.9148 35.7399 20.0941 34.4149L10.7163 24.4045C9.66487 23.2846 8.8613 21.9425 8.37403 20.4892L8.34839 20.4123C8.19451 19.9507 8.05774 19.4805 7.97225 19.0018C7.85257 18.2581 7.78418 17.5058 7.78418 16.7279C7.78418 13.9239 8.60485 11.3081 10.0325 9.11108C12.5286 5.22148 16.897 2.63982 21.8722 2.63982C26.8475 2.63982 31.2158 5.22148 33.712 9.11108C35.1311 11.3081 35.9517 13.9239 35.9517 16.7279L35.9603 16.7193Z" fill="#FD303E" stroke="#B11312"/>
<path d="M22.1475 15.8453L24.0306 9.21739C24.0804 9.04309 23.8488 8.92076 23.7329 9.06011L17.0224 17.0969L21.1573 19.2814L19.2742 25.9093C19.2244 26.0836 19.456 26.2059 19.5719 26.0666L26.2824 18.0298L22.1475 15.8453Z" fill="white"/>
</svg>
