<svg width="44" height="44" viewBox="0 0 44 44" fill="none" xmlns="http://www.w3.org/2000/svg">
<path d="M36.1673 18.2516C36.1673 19.0295 36.1075 19.7989 35.9792 20.5426C35.9023 21.0213 35.7655 21.4915 35.6117 21.9531L35.5945 22.013C35.0987 23.4748 34.3037 24.8169 33.2437 25.9368L23.8659 35.9472C23.0453 37.2722 21.1218 37.2722 20.3012 35.9472L10.9234 25.9368C9.8719 24.8169 9.06833 23.4748 8.58106 22.0215L8.55542 21.9446C8.40155 21.483 8.26477 21.0128 8.17928 20.5341C8.0596 19.7904 7.99121 19.0381 7.99121 18.2602C7.99121 15.4562 8.81188 12.8404 10.2395 10.6434C12.7357 6.75378 17.104 4.17212 22.0793 4.17212C27.0545 4.17212 31.4228 6.75378 33.919 10.6434C35.3381 12.8404 36.1588 15.4562 36.1588 18.2602L36.1673 18.2516Z" fill="#F6AC43" stroke="#A07230"/>
<path d="M19.8477 18.6957L21.7308 12.0678C21.7806 11.8935 21.549 11.7712 21.4331 11.9105L14.7226 19.9473L18.8575 22.1318L16.9744 28.7597C16.9246 28.934 17.1562 29.0563 17.2721 28.917L23.9826 20.8802L19.8477 18.6957Z" fill="white"/>
<path d="M26.4512 17.375L28.3343 10.7471C28.3841 10.5727 28.1525 10.4504 28.0366 10.5898L21.3261 18.6266L25.461 20.811L23.5779 27.4389C23.5281 27.6133 23.7597 27.7356 23.8756 27.5962L30.5861 19.5594L26.4512 17.375Z" fill="white"/>
<circle cx="32.6413" cy="8.13351" r="7.92453" fill="#0A0A0A"/>
<path d="M29.1191 8.70332L31.9943 11.2963L36.1632 5.07309" stroke="white" stroke-linejoin="bevel"/>
</svg>
