<svg width="57" height="45" viewBox="0 0 57 45" fill="none" xmlns="http://www.w3.org/2000/svg">
<path d="M28.3965 31.8781C36.2113 31.8782 43.2706 32.6149 48.3623 33.799C50.9121 34.392 52.9411 35.0915 54.3203 35.8498C55.01 36.229 55.5136 36.6109 55.8398 36.9817C56.1633 37.3492 56.2919 37.6813 56.292 37.9817C56.292 38.2821 56.1634 38.615 55.8398 38.9826C55.5135 39.3534 55.0099 39.7353 54.3203 40.1145C52.9411 40.8728 50.9121 41.5713 48.3623 42.1643C43.2706 43.3484 36.2113 44.0861 28.3965 44.0862C20.5817 44.0862 13.5224 43.3484 8.43066 42.1643C5.88097 41.5713 3.85186 40.8727 2.47266 40.1145C1.78286 39.7352 1.27847 39.3535 0.952148 38.9826C0.628627 38.615 0.5 38.2821 0.5 37.9817C0.500074 37.6813 0.628886 37.3491 0.952148 36.9817C1.27847 36.6108 1.78285 36.2291 2.47266 35.8498C3.85186 35.0915 5.88085 34.392 8.43066 33.799C13.5224 32.615 20.5818 31.8781 28.3965 31.8781Z" fill="#A07230" fill-opacity="0.5" stroke="#A07230"/>
<path d="M41.8275 19.0407C41.8275 19.8186 41.7676 20.588 41.6394 21.3317C41.5625 21.8104 41.4257 22.2806 41.2718 22.7422L41.2547 22.802C40.7589 24.2639 39.9639 25.606 38.9038 26.7258L29.5261 36.7362C28.7054 38.0613 26.782 38.0613 25.9613 36.7362L16.5835 26.7258C15.5321 25.606 14.7285 24.2638 14.2412 22.8106L14.2156 22.7337C14.0617 22.272 13.9249 21.8019 13.8394 21.3231C13.7198 20.5794 13.6514 19.8271 13.6514 19.0492C13.6514 16.2453 14.472 13.6294 15.8996 11.4324C18.3958 7.54284 22.7642 4.96118 27.7394 4.96118C32.7147 4.96118 37.083 7.54284 39.5792 11.4324C40.9983 13.6294 41.8189 16.2453 41.8189 19.0492L41.8275 19.0407Z" fill="#F6AC43" stroke="#A07230"/>
<path d="M25.5078 19.4875L27.3909 12.8596C27.4407 12.6853 27.2092 12.5629 27.0932 12.7023L20.3828 20.7391L24.5176 22.9236L22.6345 29.5515C22.5848 29.7258 22.8163 29.8481 22.9323 29.7087L29.6427 21.6719L25.5078 19.4875Z" fill="white"/>
<path d="M32.1114 18.1667L33.9945 11.5388C34.0442 11.3645 33.8127 11.2422 33.6968 11.3816L26.9863 19.4184L31.1212 21.6028L29.2381 28.2307C29.1883 28.405 29.4198 28.5274 29.5358 28.388L36.2463 20.3512L32.1114 18.1667Z" fill="white"/>
<circle cx="38.3015" cy="8.92453" r="7.92453" fill="#0A0A0A"/>
<rect x="30" y="0.5" width="17" height="17" rx="8.5" fill="#0A0A0A" stroke="#ED454F"/>
<path d="M41.9573 6.40736L41.6361 7.26674H34L34.3158 6.40736H41.9573ZM38.868 14L34.0976 9.49315L34.0849 8.86365H36.1734C36.8043 8.86365 37.3425 8.79007 37.7878 8.64343C38.2331 8.49412 38.573 8.27283 38.8073 7.97957C39.0463 7.68684 39.1659 7.32376 39.1659 6.89084C39.1659 6.25275 38.9168 5.75162 38.4187 5.38686C37.9253 5.01893 37.217 4.83525 36.2949 4.83525H34.0001L34.3159 4.00004H36.2948C37.1848 4.00004 37.9293 4.12358 38.5281 4.37118C39.131 4.61826 39.5843 4.9604 39.8874 5.39652C40.1952 5.82943 40.3488 6.32733 40.3488 6.89074C40.3488 7.41818 40.2012 7.893 39.9061 8.31621C39.6144 8.73623 39.163 9.06978 38.5521 9.31738C37.9452 9.56176 37.1707 9.68369 36.2279 9.68369H35.7906L40.2819 13.9268V13.9999L38.868 14ZM42 4L41.6842 4.85938L35.2505 4.83521L35.5416 4L42 4Z" fill="white"/>
<rect x="32.6836" y="2" width="16.679" height="0.96623" transform="rotate(45 32.6836 2)" fill="#ED454F"/>
</svg>
