<svg width="57" height="43" viewBox="0 0 57 43" fill="none" xmlns="http://www.w3.org/2000/svg">
<path d="M28.3965 29.5576C36.2113 29.5576 43.2706 30.2944 48.3623 31.4785C50.9121 32.0714 52.9411 32.7709 54.3203 33.5292C55.01 33.9085 55.5136 34.2903 55.8398 34.6611C56.1633 35.0286 56.2919 35.3607 56.292 35.6611C56.292 35.9616 56.1634 36.2944 55.8398 36.6621C55.5135 37.0328 55.0099 37.4147 54.3203 37.7939C52.9411 38.5522 50.9121 39.2507 48.3623 39.8437C43.2706 41.0278 36.2113 41.7656 28.3965 41.7656C20.5817 41.7656 13.5224 41.0278 8.43066 39.8437C5.88097 39.2507 3.85186 38.5522 2.47266 37.7939C1.78286 37.4146 1.27847 37.0329 0.952148 36.6621C0.628627 36.2944 0.5 35.9616 0.5 35.6611C0.500074 35.3607 0.628886 35.0285 0.952148 34.6611C1.27847 34.2902 1.78285 33.9085 2.47266 33.5292C3.85186 32.7709 5.88085 32.0714 8.43066 31.4785C13.5224 30.2944 20.5818 29.5576 28.3965 29.5576Z" fill="#5A5A5A" fill-opacity="0.5" stroke="#5A5A5A"/>
<path d="M41.8275 16.7218C41.8275 17.4997 41.7676 18.2691 41.6394 19.0128C41.5625 19.4915 41.4257 19.9617 41.2718 20.4233L41.2547 20.4832C40.7589 21.945 39.9639 23.2871 38.9038 24.407L29.5261 34.4174C28.7054 35.7424 26.782 35.7424 25.9613 34.4174L16.5835 24.407C15.5321 23.2871 14.7285 21.945 14.2412 20.4917L14.2156 20.4148C14.0617 19.9532 13.9249 19.483 13.8394 19.0043C13.7198 18.2606 13.6514 17.5083 13.6514 16.7304C13.6514 13.9264 14.472 11.3106 15.8996 9.11358C18.3958 5.22398 22.7642 2.64232 27.7394 2.64232C32.7147 2.64232 37.083 5.22398 39.5792 9.11358C40.9983 11.3106 41.8189 13.9264 41.8189 16.7304L41.8275 16.7218Z" fill="#A1A1A1" stroke="#5A5A5A"/>
<path d="M25.5078 15.8458L27.3909 9.21787C27.4407 9.04356 27.2092 8.92123 27.0932 9.06059L20.3828 17.0974L24.5176 19.2818L22.6345 25.9098C22.5848 26.0841 22.8163 26.2064 22.9323 26.067L29.6427 18.0302L25.5078 15.8458Z" fill="white"/>
<path d="M32.1114 14.525L33.9945 7.89711C34.0442 7.72281 33.8127 7.60048 33.6968 7.73983L26.9863 15.7766L31.1212 17.9611L29.2381 24.589C29.1883 24.7633 29.4198 24.8856 29.5358 24.7463L36.2463 16.7095L32.1114 14.525Z" fill="white"/>
</svg>
