<svg width="25" height="12" viewBox="0 0 25 12" fill="none" xmlns="http://www.w3.org/2000/svg">
<path d="M3.0889 8.54216H3.23655L3.09827 9.12049C3.07718 9.20547 3.08187 9.27156 3.10999 9.31405C3.13812 9.35654 3.18968 9.37779 3.26702 9.37779C3.34202 9.37779 3.4053 9.35654 3.45452 9.31405C3.50374 9.27156 3.53655 9.20547 3.55765 9.12049L3.69593 8.54216H3.84593L3.7053 9.13465C3.67483 9.26212 3.62093 9.3589 3.54124 9.42263C3.4639 9.48637 3.36077 9.51942 3.23421 9.51942C3.10765 9.51942 3.02093 9.48873 2.97405 9.425C2.92718 9.36126 2.9178 9.26448 2.94827 9.13701L3.0889 8.54216ZM3.82483 9.49345L4.05921 8.50439L4.50452 9.08508C4.51624 9.1016 4.52796 9.11813 4.53968 9.13701C4.5514 9.1559 4.56312 9.17714 4.57718 9.20075L4.73421 8.54216H4.87249L4.63812 9.52886L4.18343 8.93637L4.14827 8.8868C4.13655 8.86791 4.12718 8.85139 4.12015 8.83015L3.96312 9.49109H3.82483V9.49345ZM4.86077 9.49345L5.08577 8.54216H5.23577L5.01077 9.49345H4.86077ZM5.22405 9.49345L5.44905 8.54216H5.96233L5.93187 8.67435H5.56858L5.51233 8.9104H5.87562L5.8428 9.04495H5.47952L5.37405 9.49109H5.22405V9.49345ZM5.90374 9.49345L6.12874 8.54216H6.27874L6.05374 9.49345H5.90374ZM6.26702 9.49345L6.49202 8.54216H7.0053L6.97483 8.67435H6.61155L6.5553 8.91276H6.91858L6.88577 9.04731H6.52249L6.44983 9.35418H6.81312L6.7803 9.49345H6.26702ZM6.95374 9.49345L7.17874 8.54216H7.3803C7.51155 8.54216 7.60296 8.54924 7.65218 8.56341C7.7014 8.57757 7.74358 8.59881 7.7764 8.63186C7.81858 8.67435 7.84671 8.72864 7.85843 8.79238C7.87015 8.85847 7.86546 8.93401 7.84671 9.01663C7.82562 9.1016 7.79515 9.17478 7.75296 9.24087C7.71077 9.30697 7.65687 9.3589 7.59358 9.40139C7.54671 9.43444 7.49515 9.45568 7.4389 9.46985C7.38499 9.48401 7.30296 9.49109 7.19515 9.49109H6.95374V9.49345ZM7.13655 9.35182H7.26312C7.33108 9.35182 7.38499 9.3471 7.42249 9.33766C7.45999 9.32821 7.4928 9.31169 7.52327 9.29045C7.56546 9.25976 7.60062 9.22199 7.62874 9.17478C7.65687 9.12993 7.67796 9.07564 7.69202 9.01427C7.70608 8.95289 7.71077 8.90096 7.70374 8.85611C7.69671 8.81126 7.6803 8.77113 7.65218 8.74045C7.63108 8.71684 7.6053 8.70268 7.57015 8.69324C7.53499 8.68379 7.48108 8.67907 7.40374 8.67907H7.29593L7.13655 9.35182ZM8.53577 9.0662L8.43499 9.49345H8.29437L8.51937 8.54216H8.74671C8.81468 8.54216 8.86155 8.54688 8.89202 8.55397C8.92249 8.56105 8.94593 8.57285 8.96468 8.59173C8.98812 8.61298 9.00452 8.64366 9.01155 8.68143C9.01858 8.7192 9.01624 8.75933 9.00687 8.80418C8.99515 8.84903 8.97874 8.89152 8.95296 8.92929C8.92718 8.96706 8.89671 8.99774 8.8639 9.01899C8.83577 9.03551 8.8053 9.04967 8.77249 9.05675C8.73968 9.06384 8.68812 9.06856 8.62249 9.06856H8.53577V9.0662ZM8.57562 8.93873H8.61312C8.69515 8.93873 8.75374 8.92929 8.78655 8.9104C8.81937 8.89152 8.84046 8.85847 8.85218 8.81126C8.8639 8.76169 8.85687 8.72392 8.83343 8.70504C8.80765 8.68379 8.75608 8.67435 8.67874 8.67435H8.64124L8.57562 8.93873ZM9.51546 9.49345L9.46858 9.24796H9.10296L8.9389 9.49345H8.78187L9.46155 8.50439L9.67249 9.49345H9.51546ZM9.19202 9.11813H9.44749L9.4053 8.90096C9.40296 8.8868 9.40062 8.87027 9.40062 8.85375C9.39827 8.83487 9.39827 8.81598 9.39827 8.79474C9.3889 8.81598 9.37952 8.83487 9.3678 8.85375C9.35843 8.87263 9.34905 8.88916 9.33968 8.90332L9.19202 9.11813ZM9.88812 9.49345L9.99124 9.05912L9.80374 8.54452H9.96077L10.078 8.86791C10.0803 8.87736 10.0826 8.8868 10.0873 8.90096C10.092 8.91512 10.0944 8.92929 10.0991 8.94345L10.1272 8.90096C10.1366 8.8868 10.1459 8.87499 10.1553 8.86319L10.4295 8.54452H10.5795L10.1412 9.05675L10.0381 9.49109H9.88812V9.49345ZM11.3155 9.02371C11.3155 9.01663 11.3178 8.99538 11.3225 8.96233C11.3248 8.93401 11.3272 8.91276 11.3295 8.89388C11.3201 8.91512 11.3108 8.93637 11.2991 8.95997C11.2873 8.98122 11.2733 9.00482 11.2569 9.02607L10.8959 9.53358L10.7787 9.01663C10.7741 8.99538 10.7694 8.97414 10.767 8.95525C10.7647 8.93637 10.7623 8.91512 10.7623 8.89624C10.7576 8.91512 10.7506 8.93637 10.7436 8.95997C10.7366 8.98122 10.7272 9.00482 10.7155 9.02843L10.5045 9.49581H10.3662L10.8186 8.50439L10.9475 9.10397C10.9498 9.11341 10.9522 9.12993 10.9545 9.15118C10.9569 9.17242 10.9616 9.20075 10.9662 9.23379C10.9826 9.20547 11.0037 9.17242 11.0319 9.12993C11.0389 9.11813 11.0459 9.11105 11.0483 9.10397L11.4561 8.50439L11.442 9.49581H11.3037L11.3155 9.02371ZM11.5639 9.49345L11.7889 8.54216H12.3022L12.2717 8.67435H11.9084L11.8522 8.91276H12.2155L12.1826 9.04731H11.8194L11.7467 9.35418H12.11L12.0772 9.49345H11.5639ZM12.2483 9.49345L12.4826 8.50439L12.928 9.08508C12.9397 9.1016 12.9514 9.11813 12.9631 9.13701C12.9748 9.1559 12.9866 9.17714 13.0006 9.20075L13.1576 8.54216H13.2959L13.0616 9.52886L12.6069 8.93637L12.5717 8.8868C12.56 8.86791 12.5506 8.85139 12.5436 8.83015L12.3866 9.49109H12.2483V9.49345ZM13.7741 8.67199L13.5795 9.49109H13.4295L13.6241 8.67199H13.3803L13.4108 8.5398H14.0483L14.0178 8.67199H13.7741ZM13.9311 9.30225L14.0647 9.2456C14.067 9.28809 14.0787 9.32113 14.1045 9.34238C14.1303 9.36362 14.1655 9.37542 14.2123 9.37542C14.2569 9.37542 14.2944 9.36362 14.3272 9.33766C14.36 9.31169 14.3811 9.27864 14.3905 9.23615C14.4045 9.1795 14.3717 9.12993 14.292 9.08744C14.2803 9.08036 14.2733 9.07564 14.2662 9.07328C14.1772 9.02135 14.1209 8.9765 14.0975 8.93401C14.0741 8.89152 14.0694 8.84195 14.0834 8.78294C14.1022 8.70504 14.142 8.64366 14.2053 8.59409C14.2686 8.54688 14.3389 8.52092 14.4233 8.52092C14.4912 8.52092 14.5451 8.53508 14.585 8.56105C14.6248 8.58701 14.6459 8.62714 14.653 8.67671L14.5217 8.73809C14.51 8.7074 14.4959 8.68615 14.4772 8.67199C14.4584 8.65783 14.435 8.65075 14.4069 8.65075C14.367 8.65075 14.3319 8.66255 14.3037 8.68379C14.2756 8.70504 14.2569 8.73336 14.2475 8.77113C14.2334 8.82778 14.2733 8.88208 14.3647 8.93165C14.3717 8.93637 14.3764 8.93873 14.3811 8.94109C14.4608 8.98358 14.5147 9.02607 14.5381 9.06856C14.5616 9.11105 14.5662 9.16062 14.5522 9.22435C14.5311 9.31405 14.4866 9.38487 14.4186 9.43916C14.3506 9.49109 14.2709 9.51942 14.1772 9.51942C14.0998 9.51942 14.0389 9.50053 13.9967 9.46276C13.9498 9.425 13.9287 9.3707 13.9311 9.30225ZM15.035 9.49345L15.26 8.54216H15.41L15.185 9.49345H15.035ZM15.4006 9.49345L15.635 8.50439L16.0803 9.08508C16.092 9.1016 16.1037 9.11813 16.1155 9.13701C16.1272 9.1559 16.1389 9.17714 16.153 9.20075L16.31 8.54216H16.4483L16.2139 9.52886L15.7592 8.93637L15.7241 8.8868C15.7123 8.86791 15.703 8.85139 15.6959 8.83015L15.5389 9.49109H15.4006V9.49345ZM16.9264 8.67199L16.7319 9.49109H16.5819L16.7764 8.67199H16.5326L16.5631 8.5398H17.2006L17.1701 8.67199H16.9264ZM17.0881 9.49345L17.3131 8.54216H17.8287L17.7983 8.67435H17.435L17.3787 8.91276H17.742L17.7092 9.04731H17.3459L17.2733 9.35418H17.6366L17.6037 9.49345H17.0881ZM18.0139 9.0662L17.9131 9.49109H17.7725L17.9975 8.5398H18.2061C18.267 8.5398 18.3139 8.54452 18.3444 8.5516C18.3772 8.55869 18.403 8.57285 18.4217 8.59173C18.4451 8.61534 18.4592 8.64366 18.4662 8.68143C18.4733 8.71684 18.4709 8.75697 18.4616 8.80182C18.4428 8.87736 18.4123 8.93873 18.3655 8.98122C18.3186 9.02371 18.26 9.04967 18.1897 9.05912L18.403 9.49109H18.2342L18.0303 9.0662H18.0139ZM18.0514 8.94581H18.0795C18.1592 8.94581 18.2131 8.93637 18.2436 8.91748C18.2741 8.8986 18.2951 8.86555 18.3069 8.81598C18.3186 8.76405 18.3139 8.72628 18.2905 8.70504C18.267 8.68379 18.2178 8.67199 18.1428 8.67199H18.1147L18.0514 8.94581ZM18.4944 9.49345L18.7194 8.54216H19.2326L19.2022 8.67435H18.8389L18.7826 8.9104H19.1459L19.1131 9.04495H18.7498L18.6444 9.49109H18.4944V9.49345ZM19.7319 9.49345L19.685 9.24796H19.3194L19.1553 9.49345H18.9983L19.678 8.50439L19.8889 9.49345H19.7319ZM19.4061 9.11813H19.6616L19.6194 8.90096C19.617 8.8868 19.6147 8.87027 19.6147 8.85375C19.6123 8.83487 19.6123 8.81598 19.6123 8.79474C19.603 8.81598 19.5936 8.83487 19.5819 8.85375C19.5725 8.87263 19.5631 8.88916 19.5537 8.90332L19.4061 9.11813ZM20.8639 8.77349C20.8311 8.73572 20.7912 8.7074 20.7491 8.69088C20.7069 8.67199 20.66 8.66255 20.6061 8.66255C20.5053 8.66255 20.4162 8.6956 20.3366 8.76169C20.2569 8.82778 20.2053 8.91512 20.1795 9.02135C20.1561 9.12285 20.1655 9.20783 20.2123 9.27628C20.2569 9.34238 20.3272 9.37542 20.4209 9.37542C20.4748 9.37542 20.5287 9.36598 20.5826 9.34474C20.6366 9.32585 20.6905 9.29517 20.7467 9.25504L20.7045 9.42972C20.6576 9.4604 20.6084 9.48165 20.5569 9.49581C20.5053 9.50997 20.4537 9.51706 20.3975 9.51706C20.3272 9.51706 20.2639 9.50525 20.21 9.48165C20.1561 9.45804 20.1116 9.42263 20.0764 9.37542C20.0412 9.33057 20.0201 9.27628 20.0108 9.21491C20.0014 9.15354 20.0037 9.08744 20.0225 9.01663C20.0389 8.94581 20.067 8.88208 20.1045 8.8207C20.142 8.75933 20.1912 8.70504 20.2475 8.66019C20.3037 8.61298 20.3647 8.57757 20.4303 8.55397C20.4959 8.53036 20.5616 8.51856 20.6295 8.51856C20.6834 8.51856 20.7326 8.52564 20.7795 8.54216C20.8241 8.55869 20.8662 8.58229 20.9037 8.61534L20.8639 8.77349ZM20.878 9.49345L21.103 8.54216H21.6162L21.5858 8.67435H21.2225L21.1662 8.91276H21.5295L21.4967 9.04731H21.1334L21.0608 9.35418H21.4241L21.3912 9.49345H20.878Z" fill="#3D3D3C"/>
<path d="M18.1498 7.71389H17.1209L18.5505 2.51367H19.5795L18.1498 7.71389ZM17.6154 2.67655C17.5451 2.57741 17.4349 2.52783 17.2849 2.52783H11.6318L11.3529 3.54758H16.4951L16.1951 4.63577H12.0818V4.63341H11.0529L10.1998 7.73749H11.2287L11.8005 5.65552H16.4248C16.5701 5.65552 16.706 5.60595 16.8326 5.5068C16.9591 5.40766 17.0435 5.28492 17.0834 5.13856L17.6552 3.05659C17.6998 2.9008 17.6857 2.77569 17.6154 2.67655ZM9.59976 7.38813C9.54351 7.5935 9.35601 7.73749 9.14507 7.73749H3.84117C3.69586 7.73749 3.58804 7.68792 3.51773 7.58878C3.44742 7.48964 3.43101 7.36689 3.4732 7.22054L4.76695 2.52783H5.79586L4.64039 6.72011H8.75601L9.91148 2.52783H10.9404L9.59976 7.38813Z" fill="#70706E"/>
<path d="M21.3558 2.52295L22.6565 5.12896L19.9214 7.73497L21.3558 2.52295Z" fill="#098041"/>
<path d="M20.4421 2.52295L21.7429 5.12896L19.0054 7.73497L20.4421 2.52295Z" fill="#E97626"/>
</svg>
