<svg width="19" height="22" viewBox="0 0 19 22" fill="none" xmlns="http://www.w3.org/2000/svg">
<path d="M9.45801 0.5C12.6209 0.5 15.3986 2.14039 16.9863 4.61426L16.9873 4.61621C17.8891 6.01249 18.4111 7.67467 18.4111 9.45801V9.73047C18.3994 10.1312 18.3634 10.5247 18.2979 10.9053L18.2969 10.9111C18.2515 11.1934 18.1692 11.4797 18.0693 11.7793L18.0654 11.79L18.0625 11.7998L18.0557 11.8232C17.7449 12.7365 17.2496 13.5726 16.5908 14.2686L16.5889 14.2705L10.293 20.9912L10.2588 21.0273L10.2324 21.0693C9.87695 21.6433 9.04493 21.6433 8.68945 21.0693L8.66309 21.0273L8.62988 20.9912L2.33301 14.2705V14.2695C1.75827 13.6574 1.30194 12.9389 0.993164 12.1611L0.870117 11.8242L0.853516 11.7734C0.754821 11.4773 0.671598 11.1902 0.620117 10.9053C0.543492 10.429 0.5 9.95052 0.5 9.45801C0.500055 7.67464 1.02179 6.0129 1.92871 4.61719L1.93066 4.61426C3.5184 2.14057 6.29533 0.500101 9.45801 0.5Z" fill="#00AF9E" stroke="#00695F"/>
</svg>
