<svg width="22" height="22" viewBox="0 0 22 22" fill="none" xmlns="http://www.w3.org/2000/svg">
<path d="M21.6107 8.20086C21.5997 8.15485 21.5858 8.11039 21.5741 8.06439C20.1034 2.29371 14.3589 -1.15397 8.67209 0.354056C3.36289 1.76242 -0.0292681 6.99489 0.624139 12.4114C0.253899 12.6115 0 13.0147 0 13.4816C0 14.1042 0.450726 14.6155 1.02804 14.6792C2.81045 19.9576 8.30112 23.009 13.7428 21.5653C19.5027 20.0374 23.0251 14.0543 21.6107 8.20086ZM13.6513 20.7113C8.656 22.0361 3.60801 19.2431 1.8951 14.3963C2.14095 14.1755 2.29753 13.8481 2.29753 13.4824C2.29753 12.8177 1.78315 12.2787 1.14877 12.2787C1.08657 12.2787 1.02584 12.2856 0.965841 12.2956C0.349019 7.21799 3.5963 2.28911 8.65819 0.946686C14.1108 -0.499241 19.6037 2.76445 20.9259 8.23765C22.248 13.7109 18.9912 19.2952 13.652 20.712L13.6513 20.7113Z" fill="#1E1E1E"/>
<path d="M11.2365 10.8808C11.2365 9.08762 10.1989 7.66699 8.28701 7.66699C6.37508 7.66699 5.21973 9.05005 5.21973 11.2343C5.21973 13.4185 6.35752 14.6866 8.37847 14.6866C9.83455 14.6866 10.7814 14.0288 11.1275 12.8458L9.60699 12.4832C9.41602 12.9692 9.04285 13.3035 8.36018 13.3035C7.40092 13.3035 6.94946 12.5859 6.89971 11.6437H10.6182C11.0367 11.6437 11.2372 11.4336 11.2372 10.8808H11.2365ZM8.28701 9.02092C9.03114 9.02092 9.49504 9.56448 9.53894 10.4707H6.90337C6.97654 9.58058 7.51726 9.02092 8.28701 9.02092Z" fill="#1E1E1E"/>
<path d="M16.3429 7.85699L14.7954 12.7882L13.2844 7.85699H11.5547L13.7117 13.7419C13.9305 14.3238 14.1851 14.5714 14.7039 14.5714H14.8949C15.4049 14.5714 15.6595 14.333 15.8783 13.7511L18.0536 7.85699H16.3422H16.3429Z" fill="#1E1E1E"/>
</svg>
