<svg width="24" height="24" viewBox="0 0 24 24" fill="none" xmlns="http://www.w3.org/2000/svg">
<path d="M21.9166 10.4526C21.9166 10.9748 21.8764 11.4914 21.7903 11.9907C21.7387 12.3121 21.6469 12.6277 21.5435 12.9376L21.5321 12.9778C21.1992 13.9592 20.6654 14.8603 19.9538 15.6121L13.6578 22.3328C13.1068 23.2224 11.8155 23.2224 11.2645 22.3328L4.96857 15.6121C4.26264 14.8603 3.72315 13.9592 3.39601 12.9836L3.37879 12.9319C3.27549 12.622 3.18366 12.3063 3.12626 11.9849C3.04591 11.4856 3 10.9806 3 10.4583C3 8.57581 3.55097 6.8196 4.50943 5.34461C6.18529 2.73325 9.11805 1 12.4583 1C15.7985 1 18.7313 2.73325 20.4072 5.34461C21.3599 6.8196 21.9108 8.57581 21.9108 10.4583L21.9166 10.4526Z" fill="#373737"/>
<path d="M10.9237 10.7597L12.036 6.84472C12.0654 6.74176 11.9286 6.6695 11.8601 6.75182L7.89638 11.499L10.3388 12.7893L9.22646 16.7043C9.19706 16.8072 9.33384 16.8795 9.40231 16.7972L13.3661 12.05L10.9237 10.7597Z" fill="white"/>
<path d="M15.1285 9.67864L16.2408 5.76367C16.2702 5.66071 16.1334 5.58845 16.065 5.67076L12.1012 10.4179L14.5436 11.7083L13.4313 15.6232C13.4019 15.7262 13.5387 15.7984 13.6071 15.7161L17.5709 10.9689L15.1285 9.67864Z" fill="white"/>
</svg>
