<svg width="24" height="24" viewBox="0 0 24 24" fill="none" xmlns="http://www.w3.org/2000/svg">
<path d="M5.44336 19.9632V19.0992C5.44336 19.0872 5.45296 19.0776 5.46496 19.0776H14.9042C14.9162 19.0776 14.9258 19.0872 14.9258 19.0992V19.9632C14.9258 19.9752 14.9162 19.9848 14.9042 19.9848H5.46496C5.45296 19.9848 5.44336 19.9752 5.44336 19.9632ZM5.44336 16.728V15.864C5.44336 15.852 5.45296 15.8424 5.46496 15.8424H12.5378C12.5498 15.8424 12.5594 15.852 12.5594 15.864V16.728C12.5594 16.74 12.5498 16.7496 12.5378 16.7496H5.46496C5.45296 16.7496 5.44336 16.74 5.44336 16.728ZM5.44336 13.4928V12.6288C5.44336 12.6168 5.45296 12.6072 5.46496 12.6072H10.0346C10.0466 12.6072 10.0562 12.6168 10.0562 12.6288V13.4928C10.0562 13.5048 10.0466 13.5144 10.0346 13.5144H5.46496C5.45296 13.5168 5.44336 13.5048 5.44336 13.4928ZM22.2002 4.95119L20.8946 3.66719C20.5346 3.31199 19.949 3.31199 19.589 3.66719L18.2882 4.94639L17.117 6.09599L16.901 6.30719L13.3754 9.76319L12.5642 13.044L15.9794 12.3312L15.9818 12.3336L20.8946 7.51679L22.2002 6.23279C22.5602 5.87999 22.5602 5.30399 22.2002 4.95119ZM13.673 11.9568L14.0594 10.4424L15.2954 11.664L13.673 11.9568ZM15.869 11.1648L14.5658 9.87839L18.2834 6.23279L19.5866 7.51679L15.869 11.1648ZM20.2442 6.87599L18.941 5.58959L20.2442 4.30799L21.5498 5.59199L20.2442 6.87599Z" fill="#00AF9E"/>
<path d="M18.955 20.3304C18.955 21.0816 18.3334 21.6912 17.5702 21.6912H5.57495C4.81175 21.6912 4.19015 21.0792 4.19015 20.3304V6.71279C4.19015 5.96159 4.81175 5.35199 5.57495 5.35199H15.8974V4.44479H5.57495C4.30295 4.44479 3.26855 5.46239 3.26855 6.71519V20.3328C3.26855 21.5832 4.30295 22.6032 5.57495 22.6032H17.5702C18.8422 22.6032 19.8766 21.5856 19.8766 20.3328V10.752H18.955V20.3304Z" fill="#00AF9E"/>
</svg>
