<svg width="355" height="180" viewBox="0 0 355 180" fill="none" xmlns="http://www.w3.org/2000/svg">
<path d="M177.5 179.542C275.531 179.542 355 171.475 355 161.524C355 151.573 275.531 143.506 177.5 143.506C79.4695 143.506 0 151.573 0 161.524C0 171.475 79.4695 179.542 177.5 179.542Z" fill="url(#paint0_radial_7361_12669)"/>
<path d="M185.095 172.544C252.121 172.544 306.456 168.21 306.456 162.865C306.456 157.519 252.121 153.186 185.095 153.186C118.069 153.186 63.7339 157.519 63.7339 162.865C63.7339 168.21 118.069 172.544 185.095 172.544Z" fill="url(#paint1_radial_7361_12669)"/>
<path d="M250.242 168.672C288.936 168.672 320.304 166.605 320.304 164.056C320.304 161.506 288.936 159.439 250.242 159.439C211.548 159.439 180.18 161.506 180.18 164.056C180.18 166.605 211.548 168.672 250.242 168.672Z" fill="#161924"/>
<g filter="url(#filter0_i_7361_12669)">
<path d="M214.997 6.35954L267.428 0.310547V161.791H214.997V6.35954Z" fill="#211F21"/>
</g>
<g filter="url(#filter1_i_7361_12669)">
<path d="M267.428 0L286.352 9.30701V161.635H267.428V0Z" fill="#524F52"/>
</g>
<g filter="url(#filter2_i_7361_12669)">
<path d="M220.892 43.5895L260.448 40.0215L261.844 150.777L220.892 148.141V43.5895Z" fill="#0C090C"/>
</g>
<g filter="url(#filter3_i_7361_12669)">
<path d="M241.213 104.551C248.666 104.551 254.709 98.7864 254.709 91.6758C254.709 84.5651 248.666 78.8008 241.213 78.8008C233.76 78.8008 227.718 84.5651 227.718 91.6758C227.718 98.7864 233.76 104.551 241.213 104.551Z" fill="#082B1E"/>
</g>
<g filter="url(#filter4_i_7361_12669)">
<path d="M241.213 101.759C247.295 101.759 252.226 97.0359 252.226 91.2103C252.226 85.3847 247.295 80.6621 241.213 80.6621C235.13 80.6621 230.199 85.3847 230.199 91.2103C230.199 97.0359 235.13 101.759 241.213 101.759Z" fill="#12C396"/>
</g>
<g filter="url(#filter5_i_7361_12669)">
<path d="M241.368 98.0365C244.966 98.0365 247.883 95.2586 247.883 91.8317C247.883 88.4049 244.966 85.627 241.368 85.627C237.77 85.627 234.853 88.4049 234.853 91.8317C234.853 95.2586 237.77 98.0365 241.368 98.0365Z" fill="#061303"/>
</g>
<g filter="url(#filter6_i_7361_12669)">
<path d="M52.7917 74.1112C52.0437 71.8992 53.9153 69.6852 56.221 70.0542L78.0621 73.5512C79.1091 73.7192 79.998 74.4092 80.419 75.3822L88.2977 93.5932C89.2394 95.7702 87.4897 98.1552 85.1306 97.9112L61.9385 95.5082C60.7314 95.3832 59.7081 94.5652 59.3193 93.4162L52.7917 74.1112Z" fill="#222222"/>
</g>
<g filter="url(#filter7_i_7361_12669)">
<path d="M63.427 81.7775C62.6919 79.5685 64.5604 77.3675 66.859 77.7335L73.2475 78.7525C74.3009 78.9205 75.1942 79.6175 75.6127 80.5985L77.7441 85.5945C78.6712 87.7685 76.9253 90.1395 74.5746 89.8985L67.8268 89.2085C66.6128 89.0835 65.5844 88.2595 65.199 87.1015L63.427 81.7775Z" fill="black"/>
</g>
<g filter="url(#filter8_i_7361_12669)">
<path d="M65.3123 83.3639C64.5679 81.1529 66.4387 78.9419 68.7425 79.3099L72.3527 79.8879C73.4015 80.0549 74.2916 80.7479 74.7119 81.7229L75.8005 84.2489C76.7382 86.4249 74.9895 88.8059 72.6328 88.5629L68.8471 88.1719C67.6381 88.0469 66.6133 87.2279 66.2255 86.0759L65.3123 83.3639Z" fill="black"/>
</g>
<path d="M152.339 81.1068C150.691 80.6118 151.069 81.9318 151 83.1188C156.459 90.5458 160.064 102.306 161.917 108.96C163.486 114.591 170.054 132.396 176.852 141.836C182.29 149.387 189.554 146.924 192.713 145.17C193.85 143.724 196.432 142.815 198.686 140.218C201.738 136.703 204.618 131.263 206.514 128.148C210.725 121.228 227.937 96.6508 229.276 95.1038C230.615 93.5558 238.03 96.3418 240.09 94.4848C241.738 92.9988 240.777 90.4608 240.09 89.3778C238.717 89.2238 235.167 89.0068 231.954 89.3778C227.937 89.8428 226.804 91.2348 225.259 92.7828C224.023 94.0208 218.633 102.273 216.092 106.245C211.938 112.951 202.291 128.829 196.935 136.504C190.241 146.098 180.044 140.373 176.852 136.504C172.938 131.762 165.625 113.757 164.08 108.032C162.41 101.842 154.399 81.7258 152.339 81.1068Z" fill="#9E9E9E"/>
<g filter="url(#filter9_i_7361_12669)">
<path d="M149.245 75.6373C146.267 75.3893 144.591 77.4993 144.126 78.5853C145.729 78.2233 149.338 78.7093 150.951 83.5483C150.703 82.0593 153.226 81.4803 154.519 81.3773C154.002 79.5673 152.223 75.8853 149.245 75.6373Z" fill="#1A1A1A"/>
</g>
<g filter="url(#filter10_i_7361_12669)">
<path d="M129.806 66.09C122.484 65.346 114.035 69.399 110.726 71.519C107.996 78.965 113.621 84.239 116.776 85.945C118.534 85.739 122.019 85.139 121.894 84.394C121.77 83.65 122.36 82.533 122.67 82.067C126.548 81.705 134.614 80.392 135.855 78.034C137.096 75.677 139.475 75.811 140.509 76.173L144.232 78.965C143.859 77.6 147.8 76.018 149.816 75.397C143.611 67.641 138.958 67.021 129.806 66.09Z" fill="#585858"/>
</g>
<path d="M215.152 33.0416L266.962 27.7676L286.197 34.2826" stroke="black" stroke-width="1.86144"/>
<defs>
<filter id="filter0_i_7361_12669" x="211.895" y="0.310547" width="55.5333" height="163.962" filterUnits="userSpaceOnUse" color-interpolation-filters="sRGB">
<feFlood flood-opacity="0" result="BackgroundImageFix"/>
<feBlend mode="normal" in="SourceGraphic" in2="BackgroundImageFix" result="shape"/>
<feColorMatrix in="SourceAlpha" type="matrix" values="0 0 0 0 0 0 0 0 0 0 0 0 0 0 0 0 0 0 127 0" result="hardAlpha"/>
<feOffset dx="-3.1024" dy="2.48192"/>
<feGaussianBlur stdDeviation="5.87904"/>
<feComposite in2="hardAlpha" operator="arithmetic" k2="-1" k3="1"/>
<feColorMatrix type="matrix" values="0 0 0 0 0.963851 0 0 0 0 0.963851 0 0 0 0 0.963851 0 0 0 0.25 0"/>
<feBlend mode="normal" in2="shape" result="effect1_innerShadow_7361_12669"/>
</filter>
<filter id="filter1_i_7361_12669" x="267.428" y="0" width="20.4753" height="165.978" filterUnits="userSpaceOnUse" color-interpolation-filters="sRGB">
<feFlood flood-opacity="0" result="BackgroundImageFix"/>
<feBlend mode="normal" in="SourceGraphic" in2="BackgroundImageFix" result="shape"/>
<feColorMatrix in="SourceAlpha" type="matrix" values="0 0 0 0 0 0 0 0 0 0 0 0 0 0 0 0 0 0 127 0" result="hardAlpha"/>
<feOffset dx="1.5512" dy="4.34336"/>
<feGaussianBlur stdDeviation="4.80872"/>
<feComposite in2="hardAlpha" operator="arithmetic" k2="-1" k3="1"/>
<feColorMatrix type="matrix" values="0 0 0 0 0.930387 0 0 0 0 0.930387 0 0 0 0 0.930387 0 0 0 0.25 0"/>
<feBlend mode="normal" in2="shape" result="effect1_innerShadow_7361_12669"/>
</filter>
<filter id="filter2_i_7361_12669" x="217.479" y="40.0215" width="44.3645" height="113.238" filterUnits="userSpaceOnUse" color-interpolation-filters="sRGB">
<feFlood flood-opacity="0" result="BackgroundImageFix"/>
<feBlend mode="normal" in="SourceGraphic" in2="BackgroundImageFix" result="shape"/>
<feColorMatrix in="SourceAlpha" type="matrix" values="0 0 0 0 0 0 0 0 0 0 0 0 0 0 0 0 0 0 127 0" result="hardAlpha"/>
<feOffset dx="-3.41264" dy="2.48192"/>
<feGaussianBlur stdDeviation="2.41987"/>
<feComposite in2="hardAlpha" operator="arithmetic" k2="-1" k3="1"/>
<feColorMatrix type="matrix" values="0 0 0 0 0.720117 0 0 0 0 0.720117 0 0 0 0 0.720117 0 0 0 0.25 0"/>
<feBlend mode="normal" in2="shape" result="effect1_innerShadow_7361_12669"/>
</filter>
<filter id="filter3_i_7361_12669" x="226.477" y="78.8008" width="28.2317" height="26.991" filterUnits="userSpaceOnUse" color-interpolation-filters="sRGB">
<feFlood flood-opacity="0" result="BackgroundImageFix"/>
<feBlend mode="normal" in="SourceGraphic" in2="BackgroundImageFix" result="shape"/>
<feColorMatrix in="SourceAlpha" type="matrix" values="0 0 0 0 0 0 0 0 0 0 0 0 0 0 0 0 0 0 127 0" result="hardAlpha"/>
<feOffset dx="-1.24096" dy="1.24096"/>
<feGaussianBlur stdDeviation="6.90284"/>
<feComposite in2="hardAlpha" operator="arithmetic" k2="-1" k3="1"/>
<feColorMatrix type="matrix" values="0 0 0 0 0 0 0 0 0 0 0 0 0 0 0 0 0 0 1 0"/>
<feBlend mode="normal" in2="shape" result="effect1_innerShadow_7361_12669"/>
</filter>
<filter id="filter4_i_7361_12669" x="228.338" y="80.6621" width="23.8885" height="22.9576" filterUnits="userSpaceOnUse" color-interpolation-filters="sRGB">
<feFlood flood-opacity="0" result="BackgroundImageFix"/>
<feBlend mode="normal" in="SourceGraphic" in2="BackgroundImageFix" result="shape"/>
<feColorMatrix in="SourceAlpha" type="matrix" values="0 0 0 0 0 0 0 0 0 0 0 0 0 0 0 0 0 0 127 0" result="hardAlpha"/>
<feOffset dx="-1.86144" dy="1.86144"/>
<feGaussianBlur stdDeviation="2.49743"/>
<feComposite in2="hardAlpha" operator="arithmetic" k2="-1" k3="1"/>
<feColorMatrix type="matrix" values="0 0 0 0 0 0 0 0 0 0 0 0 0 0 0 0 0 0 0.89 0"/>
<feBlend mode="normal" in2="shape" result="effect1_innerShadow_7361_12669"/>
</filter>
<filter id="filter5_i_7361_12669" x="233.922" y="85.627" width="13.9607" height="13.6506" filterUnits="userSpaceOnUse" color-interpolation-filters="sRGB">
<feFlood flood-opacity="0" result="BackgroundImageFix"/>
<feBlend mode="normal" in="SourceGraphic" in2="BackgroundImageFix" result="shape"/>
<feColorMatrix in="SourceAlpha" type="matrix" values="0 0 0 0 0 0 0 0 0 0 0 0 0 0 0 0 0 0 127 0" result="hardAlpha"/>
<feOffset dx="-0.930719" dy="1.24096"/>
<feGaussianBlur stdDeviation="1.2875"/>
<feComposite in2="hardAlpha" operator="arithmetic" k2="-1" k3="1"/>
<feColorMatrix type="matrix" values="0 0 0 0 0.68099 0 0 0 0 0.68099 0 0 0 0 0.68099 0 0 0 0.32 0"/>
<feBlend mode="normal" in2="shape" result="effect1_innerShadow_7361_12669"/>
</filter>
<filter id="filter6_i_7361_12669" x="52.6245" y="70.0137" width="35.9329" height="28.2253" filterUnits="userSpaceOnUse" color-interpolation-filters="sRGB">
<feFlood flood-opacity="0" result="BackgroundImageFix"/>
<feBlend mode="normal" in="SourceGraphic" in2="BackgroundImageFix" result="shape"/>
<feColorMatrix in="SourceAlpha" type="matrix" values="0 0 0 0 0 0 0 0 0 0 0 0 0 0 0 0 0 0 127 0" result="hardAlpha"/>
<feOffset dy="0.31024"/>
<feGaussianBlur stdDeviation="1.33403"/>
<feComposite in2="hardAlpha" operator="arithmetic" k2="-1" k3="1"/>
<feColorMatrix type="matrix" values="0 0 0 0 0.740885 0 0 0 0 0.740885 0 0 0 0 0.740885 0 0 0 0.25 0"/>
<feBlend mode="normal" in2="shape" result="effect1_innerShadow_7361_12669"/>
</filter>
<filter id="filter7_i_7361_12669" x="63.2646" y="77.6934" width="14.7327" height="12.5324" filterUnits="userSpaceOnUse" color-interpolation-filters="sRGB">
<feFlood flood-opacity="0" result="BackgroundImageFix"/>
<feBlend mode="normal" in="SourceGraphic" in2="BackgroundImageFix" result="shape"/>
<feColorMatrix in="SourceAlpha" type="matrix" values="0 0 0 0 0 0 0 0 0 0 0 0 0 0 0 0 0 0 127 0" result="hardAlpha"/>
<feOffset dy="0.31024"/>
<feGaussianBlur stdDeviation="1.33403"/>
<feComposite in2="hardAlpha" operator="arithmetic" k2="-1" k3="1"/>
<feColorMatrix type="matrix" values="0 0 0 0 0.740885 0 0 0 0 0.740885 0 0 0 0 0.740885 0 0 0 0.25 0"/>
<feBlend mode="normal" in2="shape" result="effect1_innerShadow_7361_12669"/>
</filter>
<filter id="filter8_i_7361_12669" x="65.1465" y="79.2695" width="10.9119" height="9.62079" filterUnits="userSpaceOnUse" color-interpolation-filters="sRGB">
<feFlood flood-opacity="0" result="BackgroundImageFix"/>
<feBlend mode="normal" in="SourceGraphic" in2="BackgroundImageFix" result="shape"/>
<feColorMatrix in="SourceAlpha" type="matrix" values="0 0 0 0 0 0 0 0 0 0 0 0 0 0 0 0 0 0 127 0" result="hardAlpha"/>
<feOffset dy="0.31024"/>
<feGaussianBlur stdDeviation="1.33403"/>
<feComposite in2="hardAlpha" operator="arithmetic" k2="-1" k3="1"/>
<feColorMatrix type="matrix" values="0 0 0 0 0.740885 0 0 0 0 0.740885 0 0 0 0 0.740885 0 0 0 0.25 0"/>
<feBlend mode="normal" in2="shape" result="effect1_innerShadow_7361_12669"/>
</filter>
<filter id="filter9_i_7361_12669" x="144.126" y="75.6172" width="10.3931" height="9.17211" filterUnits="userSpaceOnUse" color-interpolation-filters="sRGB">
<feFlood flood-opacity="0" result="BackgroundImageFix"/>
<feBlend mode="normal" in="SourceGraphic" in2="BackgroundImageFix" result="shape"/>
<feColorMatrix in="SourceAlpha" type="matrix" values="0 0 0 0 0 0 0 0 0 0 0 0 0 0 0 0 0 0 127 0" result="hardAlpha"/>
<feOffset dy="1.24096"/>
<feGaussianBlur stdDeviation="0.62048"/>
<feComposite in2="hardAlpha" operator="arithmetic" k2="-1" k3="1"/>
<feColorMatrix type="matrix" values="0 0 0 0 0.59126 0 0 0 0 0.59126 0 0 0 0 0.59126 0 0 0 0.25 0"/>
<feBlend mode="normal" in2="shape" result="effect1_innerShadow_7361_12669"/>
</filter>
<filter id="filter10_i_7361_12669" x="110" y="66" width="41.3671" height="21.496" filterUnits="userSpaceOnUse" color-interpolation-filters="sRGB">
<feFlood flood-opacity="0" result="BackgroundImageFix"/>
<feBlend mode="normal" in="SourceGraphic" in2="BackgroundImageFix" result="shape"/>
<feColorMatrix in="SourceAlpha" type="matrix" values="0 0 0 0 0 0 0 0 0 0 0 0 0 0 0 0 0 0 127 0" result="hardAlpha"/>
<feOffset dx="1.5512" dy="1.5512"/>
<feGaussianBlur stdDeviation="3.1024"/>
<feComposite in2="hardAlpha" operator="arithmetic" k2="-1" k3="1"/>
<feColorMatrix type="matrix" values="0 0 0 0 0 0 0 0 0 0 0 0 0 0 0 0 0 0 0.57 0"/>
<feBlend mode="normal" in2="shape" result="effect1_innerShadow_7361_12669"/>
</filter>
<radialGradient id="paint0_radial_7361_12669" cx="0" cy="0" r="1" gradientUnits="userSpaceOnUse" gradientTransform="translate(177.5 161.524) scale(177.5 18.018)">
<stop stop-color="#289A78"/>
<stop offset="1" stop-color="#41A293" stop-opacity="0.09"/>
</radialGradient>
<radialGradient id="paint1_radial_7361_12669" cx="0" cy="0" r="1" gradientUnits="userSpaceOnUse" gradientTransform="translate(185.095 162.865) scale(121.361 9.67911)">
<stop stop-color="#289A78"/>
<stop offset="1" stop-color="#41A293" stop-opacity="0.09"/>
</radialGradient>
</defs>
</svg>
