<svg width="32" height="32" viewBox="0 0 32 32" fill="none" xmlns="http://www.w3.org/2000/svg">
<path d="M8.24286 29.9862C8.27143 30.0004 8.29286 30.0219 8.32143 30.0362C9.1 30.4646 9.92857 30.8003 10.7786 31.0931C10.9071 31.1359 11.0357 31.1788 11.1643 31.2216C12.6929 31.7072 14.3071 32 16 32C24.8357 32 32 24.8373 32 16.0036C32 9.98349 28.6714 4.7418 23.75 2.01384C23.7214 1.99955 23.7 1.98527 23.6786 1.97099C22.9 1.54251 22.0714 1.20687 21.2214 0.914082C21.0929 0.871234 20.9643 0.828386 20.8357 0.785539C19.3071 0.292792 17.6857 0 16 0C7.16429 0 0 7.16269 0 15.9964C0 22.0165 3.32857 27.2511 8.24286 29.9862ZM6.15714 8.89801L10.0429 12.7829L12.6357 9.89065L8.89286 6.14863C10.8929 4.70609 13.3286 3.82058 15.9929 3.82058C16.6571 3.82058 17.3 3.88485 17.9357 3.99197C18.6357 4.10623 19.3143 4.28476 19.9714 4.51328C20.1 4.55613 20.2357 4.59897 20.3714 4.64896C20.8143 4.82035 21.2429 5.00603 21.6571 5.2274C25.5286 7.26266 28.1714 11.3189 28.1714 15.9964C28.1714 18.653 27.2857 21.0882 25.8357 23.0948L21.95 19.21L19.3571 22.0951L23.1 25.8371C21.1 27.2868 18.6571 28.1723 16 28.1723C15.3357 28.1723 14.6857 28.108 14.0571 28.0009C13.3571 27.8866 12.6786 27.7081 12.0214 27.4796C11.8857 27.4367 11.75 27.3939 11.6214 27.3439C11.1571 27.1654 10.7 26.9654 10.2643 26.7297C6.43571 24.6802 3.82857 20.6454 3.82857 15.9964C3.82857 13.3399 4.71429 10.9047 6.15714 8.89801Z" fill="#ED454F"/>
<path d="M12.693 25.5514L22.6359 14.4968H16.543L19.3002 6.44141L9.36444 17.4961H15.4573L12.693 25.5514Z" fill="#ED454F"/>
</svg>
