<svg width="18" height="18" viewBox="0 0 18 18" fill="none" xmlns="http://www.w3.org/2000/svg">
<path d="M7.89231 6.13846H9.64615V4.38462H7.89231V6.13846ZM8.76923 15.7846C4.902 15.7846 1.75385 12.6365 1.75385 8.76923C1.75385 4.902 4.902 1.75385 8.76923 1.75385C12.6365 1.75385 15.7846 4.902 15.7846 8.76923C15.7846 12.6365 12.6365 15.7846 8.76923 15.7846ZM8.76923 0C7.61764 0 6.47732 0.226823 5.41339 0.667518C4.34946 1.10821 3.38275 1.75415 2.56845 2.56845C0.923898 4.213 0 6.44349 0 8.76923C0 11.095 0.923898 13.3255 2.56845 14.97C3.38275 15.7843 4.34946 16.4303 5.41339 16.8709C6.47732 17.3116 7.61764 17.5385 8.76923 17.5385C11.095 17.5385 13.3255 16.6146 14.97 14.97C16.6146 13.3255 17.5385 11.095 17.5385 8.76923C17.5385 7.61764 17.3116 6.47732 16.8709 5.41339C16.4303 4.34946 15.7843 3.38275 14.97 2.56845C14.1557 1.75415 13.189 1.10821 12.1251 0.667518C11.0611 0.226823 9.92082 0 8.76923 0ZM7.89231 13.1538H9.64615V7.89231H7.89231V13.1538Z" fill="white"/>
</svg>
