<svg width="26" height="26" viewBox="0 0 26 26" fill="none" xmlns="http://www.w3.org/2000/svg">
<path d="M12.721 1.70524C12.8211 1.45237 13.1789 1.45237 13.279 1.70523L16.269 9.264C16.3109 9.36996 16.4092 9.44302 16.5227 9.45259L24.3096 10.109C24.5714 10.1311 24.6804 10.455 24.4852 10.6308L18.5307 15.994C18.45 16.0667 18.4149 16.1774 18.4389 16.2833L20.2542 24.285C20.3136 24.5469 20.0255 24.7489 19.7995 24.6038L13.1621 20.3411C13.0633 20.2776 12.9367 20.2776 12.8379 20.3411L6.20047 24.6038C5.97454 24.7489 5.68639 24.5469 5.74579 24.285L7.56108 16.2833C7.58511 16.1774 7.55 16.0667 7.46929 15.994L1.51478 10.6308C1.3196 10.455 1.4286 10.1311 1.69036 10.109L9.47727 9.45259C9.59081 9.44302 9.68912 9.36996 9.73104 9.264L12.721 1.70524Z" fill="#00AF9E" stroke="#00AF9E" stroke-width="1.5"/>
</svg>
