<svg width="25" height="26" viewBox="0 0 25 26" fill="none" xmlns="http://www.w3.org/2000/svg">
<path d="M12.3206 1.70524C12.4207 1.45237 12.7786 1.45237 12.8786 1.70523L15.8686 9.264C15.9105 9.36995 16.0088 9.44302 16.1223 9.45259L23.9093 10.109C24.171 10.1311 24.28 10.455 24.0848 10.6308L18.1303 15.994C18.0496 16.0667 18.0145 16.1774 18.0385 16.2833L19.8538 24.285C19.9132 24.5469 19.6251 24.7489 19.3991 24.6038L12.7617 20.3411C12.663 20.2776 12.5363 20.2776 12.4375 20.3411L5.80008 24.6038C5.57415 24.7489 5.286 24.5469 5.3454 24.285L7.16069 16.2833C7.18472 16.1774 7.14961 16.0667 7.0689 15.994L1.11439 10.6308C0.919206 10.455 1.02821 10.1311 1.28997 10.109L9.07688 9.45259C9.19042 9.44302 9.28873 9.36996 9.33065 9.264L12.3206 1.70524Z" stroke="#474D51" stroke-width="1.5"/>
</svg>
