<svg width="20" height="20" viewBox="0 0 20 20" fill="none" xmlns="http://www.w3.org/2000/svg">
<path d="M9.60527 2.98169C8.21717 2.98169 6.86025 3.39331 5.70608 4.1645C4.55192 4.93568 3.65236 6.0318 3.12116 7.31424C2.58996 8.59667 2.45097 10.0078 2.72177 11.3693C2.99258 12.7307 3.66101 13.9812 4.64255 14.9628C5.62408 15.9443 6.87463 16.6127 8.23606 16.8835C9.59749 17.1544 11.0086 17.0154 12.2911 16.4842C13.5735 15.953 14.6696 15.0534 15.4408 13.8992C16.212 12.7451 16.6236 11.3881 16.6236 10C16.6215 8.13931 15.8814 6.35538 14.5657 5.03964C13.2499 3.7239 11.466 2.98379 9.60527 2.98169ZM11.2644 8.01641H12.1903C12.3489 8.01641 12.501 8.07941 12.6131 8.19155C12.7253 8.30369 12.7883 8.45579 12.7883 8.61438C12.7883 8.77297 12.7253 8.92507 12.6131 9.03721C12.501 9.14935 12.3489 9.21235 12.1903 9.21235H11.2644C10.9922 10.4083 9.89076 11.381 8.57104 11.3984L11.1423 13.8166C11.2002 13.8703 11.2469 13.9349 11.2796 14.0067C11.3124 14.0785 11.3305 14.1562 11.3331 14.2351C11.3356 14.314 11.3224 14.3926 11.2943 14.4664C11.2663 14.5401 11.2238 14.6076 11.1694 14.6648C11.1151 14.7221 11.0499 14.768 10.9777 14.7998C10.9054 14.8317 10.8276 14.8489 10.7487 14.8504C10.6698 14.852 10.5913 14.8379 10.5179 14.8089C10.4445 14.7799 10.3775 14.7366 10.321 14.6815L6.6572 11.2146C6.57059 11.1298 6.51073 11.0215 6.48504 10.903C6.45935 10.7845 6.46895 10.6611 6.51266 10.5481C6.55636 10.435 6.63225 10.3372 6.73094 10.2668C6.82963 10.1964 6.94679 10.1565 7.06792 10.152H8.53371C9.20429 10.152 9.77894 9.81032 10.0164 9.21235H7.06792C6.90933 9.21235 6.75724 9.14935 6.64509 9.03721C6.53295 8.92507 6.46995 8.77297 6.46995 8.61438C6.46995 8.45579 6.53295 8.30369 6.64509 8.19155C6.75724 8.07941 6.90933 8.01641 7.06792 8.01641H10.0164C9.9002 7.71682 9.69677 7.45898 9.43245 7.27623C9.16812 7.09348 8.85505 6.99424 8.53371 6.99132H7.06792C6.90933 6.99132 6.75724 6.92832 6.64509 6.81618C6.53295 6.70404 6.46995 6.55195 6.46995 6.39336C6.46995 6.23476 6.53295 6.08267 6.64509 5.97053C6.75724 5.85839 6.90933 5.79539 7.06792 5.79539H12.1903C12.3489 5.79539 12.501 5.85839 12.6131 5.97053C12.7253 6.08267 12.7883 6.23476 12.7883 6.39336C12.7883 6.55195 12.7253 6.70404 12.6131 6.81618C12.501 6.92832 12.3489 6.99132 12.1903 6.99132H10.8244C11.0542 7.29097 11.2055 7.64336 11.2644 8.01641Z" fill="white"/>
<path d="M9.60534 0.394745C7.7056 0.394728 5.84851 0.958052 4.26893 2.01348C2.68934 3.06891 1.4582 4.56904 0.731185 6.32417C0.0041733 8.0793 -0.186055 10.0106 0.184556 11.8738C0.555167 13.7371 1.46997 15.4486 2.81329 16.7919C4.1566 18.1352 5.8681 19.0501 7.73133 19.4207C9.59457 19.7913 11.5259 19.6011 13.281 18.8741C15.0361 18.1471 16.5363 16.916 17.5917 15.3364C18.6472 13.7568 19.2105 11.8997 19.2105 10C19.2076 7.45343 18.1947 5.01199 16.394 3.21128C14.5933 1.41058 12.1519 0.397661 9.60534 0.394745ZM9.60534 18.2142C7.9807 18.2142 6.39255 17.7324 5.04172 16.8298C3.69088 15.9272 2.63804 14.6443 2.01632 13.1434C1.3946 11.6424 1.23193 9.99077 1.54889 8.39735C1.86585 6.80393 2.64819 5.34029 3.79699 4.1915C4.94579 3.04271 6.40944 2.26039 8.00287 1.94344C9.59629 1.6265 11.2479 1.78919 12.7489 2.41092C14.2498 3.03265 15.5327 4.08551 16.4353 5.43636C17.3379 6.7872 17.8197 8.37536 17.8196 10C17.8172 12.1778 16.9509 14.2657 15.411 15.8056C13.871 17.3456 11.7831 18.2118 9.60534 18.2142Z" fill="white"/>
</svg>
