<svg width="24" height="24" viewBox="0 0 24 24" fill="none" xmlns="http://www.w3.org/2000/svg">
<path d="M20.002 9.49514C20.002 9.93689 19.968 10.3738 19.8952 10.7961C19.8515 11.068 19.7738 11.3349 19.6864 11.5971L19.6767 11.6311C19.3952 12.4612 18.9437 13.2233 18.3418 13.8592L13.0165 19.5437C12.5505 20.2961 11.4583 20.2961 10.9922 19.5437L5.66701 13.8592C5.06992 13.2233 4.6136 12.4612 4.33691 11.6359L4.32234 11.5922C4.23496 11.3301 4.15729 11.0631 4.10875 10.7913C4.04079 10.3689 4.00195 9.94174 4.00195 9.5C4.00195 7.90776 4.46797 6.42233 5.27865 5.17475C6.69613 2.96602 9.17671 1.5 12.002 1.5C14.8272 1.5 17.3078 2.96602 18.7253 5.17475C19.5311 6.42233 19.9971 7.90776 19.9971 9.5L20.002 9.49514Z" fill="white" stroke="white"/>
<path d="M18 9.75C18 13.0637 15.3137 15.75 12 15.75C8.68629 15.75 6.5 12.25 6.5 9.75C6.5 6.43629 9 4.25 12 3.75C15.3137 3.75 18 6.43629 18 9.75Z" fill="white"/>
<path d="M17.829 8.23889C17.823 8.21371 17.8154 8.18937 17.809 8.16419C17.004 5.00551 13.8596 3.11835 10.7468 3.9438C7.84074 4.71469 5.98398 7.57878 6.34163 10.5436C6.13898 10.6531 6 10.8739 6 11.1294C6 11.4702 6.24671 11.7501 6.56271 11.7849C7.53835 14.6742 10.5438 16.3444 13.5224 15.5542C16.6752 14.7178 18.6032 11.4429 17.829 8.23889ZM13.4723 15.0867C10.738 15.8118 7.97491 14.2831 7.03732 11.6301C7.17189 11.5092 7.2576 11.33 7.2576 11.1298C7.2576 10.766 6.97604 10.471 6.6288 10.471C6.59475 10.471 6.56151 10.4748 6.52867 10.4802C6.19104 7.7009 7.9685 5.00299 10.7392 4.26819C13.7238 3.47673 16.7304 5.26317 17.4542 8.25903C18.1779 11.2549 16.3952 14.3116 13.4727 15.0871L13.4723 15.0867Z" fill="black"/>
<path d="M12.1506 9.70643C12.1506 8.72487 11.5826 7.94727 10.5361 7.94727C9.48958 7.94727 8.85718 8.70431 8.85718 9.89988C8.85718 11.0955 9.47997 11.7896 10.5862 11.7896C11.3832 11.7896 11.9014 11.4295 12.0909 10.782L11.2586 10.5835C11.1541 10.8495 10.9498 11.0325 10.5762 11.0325C10.0511 11.0325 9.80398 10.6397 9.77675 10.124H11.8121C12.0412 10.124 12.151 10.009 12.151 9.70643H12.1506ZM10.5361 8.68836C10.9434 8.68836 11.1973 8.98589 11.2214 9.48192H9.77875C9.8188 8.99471 10.1148 8.68836 10.5361 8.68836Z" fill="black"/>
<path d="M14.9458 8.05078L14.0987 10.75L13.2716 8.05078H12.3248L13.5055 11.272C13.6253 11.5905 13.7647 11.7261 14.0486 11.7261H14.1532C14.4323 11.7261 14.5717 11.5955 14.6914 11.277L15.8821 8.05078H14.9454H14.9458Z" fill="black"/>
</svg>
