<svg width="20" height="20" viewBox="0 0 20 20" fill="none" xmlns="http://www.w3.org/2000/svg">
<path d="M9.60527 2.98145C8.21717 2.98145 6.86025 3.39306 5.70608 4.16425C4.55192 4.93544 3.65236 6.03156 3.12116 7.31399C2.58996 8.59643 2.45097 10.0076 2.72177 11.369C2.99258 12.7304 3.66101 13.981 4.64255 14.9625C5.62408 15.9441 6.87463 16.6125 8.23606 16.8833C9.59749 17.1541 11.0086 17.0151 12.2911 16.4839C13.5735 15.9527 14.6696 15.0532 15.4408 13.899C16.212 12.7448 16.6236 11.3879 16.6236 9.9998C16.6215 8.13906 15.8814 6.35514 14.5657 5.0394C13.2499 3.72365 11.466 2.98355 9.60527 2.98145ZM11.2644 8.01617H12.1903C12.3489 8.01617 12.501 8.07917 12.6131 8.19131C12.7253 8.30345 12.7883 8.45555 12.7883 8.61414C12.7883 8.77273 12.7253 8.92482 12.6131 9.03696C12.501 9.14911 12.3489 9.21211 12.1903 9.21211H11.2644C10.9922 10.408 9.89076 11.3808 8.57104 11.3982L11.1423 13.8164C11.2002 13.87 11.2469 13.9346 11.2796 14.0065C11.3124 14.0783 11.3305 14.1559 11.3331 14.2348C11.3356 14.3137 11.3224 14.3923 11.2943 14.4661C11.2663 14.5399 11.2238 14.6073 11.1694 14.6646C11.1151 14.7218 11.0499 14.7677 10.9777 14.7996C10.9054 14.8314 10.8276 14.8486 10.7487 14.8502C10.6698 14.8518 10.5913 14.8376 10.5179 14.8086C10.4445 14.7796 10.3775 14.7364 10.321 14.6813L6.6572 11.2144C6.57059 11.1296 6.51073 11.0212 6.48504 10.9028C6.45935 10.7843 6.46895 10.6609 6.51266 10.5478C6.55636 10.4348 6.63225 10.337 6.73094 10.2666C6.82963 10.1962 6.94679 10.1563 7.06792 10.1518H8.53371C9.20429 10.1518 9.77894 9.81007 10.0164 9.21211H7.06792C6.90933 9.21211 6.75724 9.14911 6.64509 9.03696C6.53295 8.92482 6.46995 8.77273 6.46995 8.61414C6.46995 8.45555 6.53295 8.30345 6.64509 8.19131C6.75724 8.07917 6.90933 8.01617 7.06792 8.01617H10.0164C9.9002 7.71657 9.69677 7.45873 9.43245 7.27598C9.16812 7.09324 8.85505 6.99399 8.53371 6.99108H7.06792C6.90933 6.99108 6.75724 6.92808 6.64509 6.81594C6.53295 6.7038 6.46995 6.5517 6.46995 6.39311C6.46995 6.23452 6.53295 6.08243 6.64509 5.97028C6.75724 5.85814 6.90933 5.79514 7.06792 5.79514H12.1903C12.3489 5.79514 12.501 5.85814 12.6131 5.97028C12.7253 6.08243 12.7883 6.23452 12.7883 6.39311C12.7883 6.5517 12.7253 6.7038 12.6131 6.81594C12.501 6.92808 12.3489 6.99108 12.1903 6.99108H10.8244C11.0542 7.29072 11.2055 7.64312 11.2644 8.01617Z" fill="white"/>
<path d="M9.60534 0.394531C7.7056 0.394514 5.84851 0.957838 4.26893 2.01327C2.68934 3.0687 1.4582 4.56882 0.731185 6.32395C0.0041733 8.07908 -0.186055 10.0104 0.184556 11.8736C0.555167 13.7369 1.46997 15.4484 2.81329 16.7917C4.1566 18.135 5.8681 19.0498 7.73133 19.4205C9.59457 19.7911 11.5259 19.6009 13.281 18.8739C15.0361 18.1469 16.5363 16.9158 17.5917 15.3362C18.6472 13.7566 19.2105 11.8995 19.2105 9.99978C19.2076 7.45322 18.1947 5.01178 16.394 3.21107C14.5933 1.41037 12.1519 0.397448 9.60534 0.394531ZM9.60534 18.214C7.9807 18.214 6.39255 17.7322 5.04172 16.8296C3.69088 15.927 2.63804 14.6441 2.01632 13.1432C1.3946 11.6422 1.23193 9.99056 1.54889 8.39714C1.86585 6.80372 2.64819 5.34007 3.79699 4.19129C4.94579 3.0425 6.40944 2.26017 8.00287 1.94323C9.59629 1.62629 11.2479 1.78897 12.7489 2.41071C14.2498 3.03244 15.5327 4.0853 16.4353 5.43614C17.3379 6.78699 17.8197 8.37515 17.8196 9.99978C17.8172 12.1776 16.9509 14.2655 15.411 15.8054C13.871 17.3453 11.7831 18.2115 9.60534 18.214Z" fill="white"/>
</svg>
