<svg width="48" height="48" viewBox="0 0 48 48" fill="none" xmlns="http://www.w3.org/2000/svg">
<rect x="2" y="2" width="44" height="44" rx="22" fill="white"/>
<rect x="2" y="2" width="44" height="44" rx="22" stroke="white" stroke-width="4"/>
<g clip-path="url(#clip0_154_5938)">
<rect x="8" y="10.5474" width="32" height="26.9056" rx="4" fill="white"/>
<path d="M35.2641 15.3922C33.1983 14.9742 29.8674 14.4089 28.9368 16.3536C26.0927 21.2797 24.4599 26.4354 23.2308 28.6475C23.3599 28.7221 29.0248 32.0088 29.4254 32.2032C30.699 32.8212 32.8252 32.5431 33.731 30.9095C36.2437 26.3777 35.605 27.5575 38.2748 22.9334C40 19.9451 37.843 15.914 35.2641 15.3922Z" fill="#EA4335"/>
<path d="M17.3907 35.3909C16.0035 33.804 14.986 30.6291 16.2049 28.851C19.7656 22.6835 22.616 18.9499 24.8578 15.2075C26.0465 15.8939 30.8095 18.5956 31.1266 18.8739C32.1908 19.8074 33.0723 21.5911 32.1105 23.1923C29.4421 27.6344 28.3472 29.6446 25.6351 34.3422C23.9095 37.3313 19.1236 37.3734 17.3907 35.3909Z" fill="#FDBD00"/>
<path d="M30.1626 12.2482C27.3877 10.6267 25.9613 10.8392 24.469 11.0785C23.1123 11.4176 21.2779 12.4036 20.5046 13.6702C18.5538 16.8654 16.7061 20.0271 14.3125 24.3117C13.5752 25.6313 14.1225 27.2526 14.8028 27.896C15.2639 28.3322 18.6565 30.204 19.2825 30.4731C20.168 30.8538 21.4943 30.5889 22.2944 29.7654C22.5154 29.5379 27.5765 20.8448 29.0018 18.2808C29.6034 17.1988 30.1453 16.6 31.045 16.0229C32.783 15.1109 34.1399 14.9932 36.2184 15.7532C36.2184 15.7532 31.6948 13.1312 30.1626 12.2482Z" fill="#2DA94F"/>
<path d="M12.3079 32.6498C9.51604 31.0574 8.98689 29.716 8.44799 28.3038C8.06343 26.9595 8.00005 24.8778 8.71035 23.5746C10.5022 20.2878 10.4893 20.2711 13.0031 16.0558C13.7773 14.7575 15.4551 14.4208 16.3525 14.6883C16.9608 14.8694 20.278 16.8716 20.8241 17.2792C21.5966 17.8557 22.0303 19.1368 21.7172 20.2416C21.6307 20.5466 18.4596 26.1119 16.9519 28.6284C16.3155 29.6903 16.068 30.4589 16.018 31.5266C16.0972 33.4878 16.6737 34.7217 18.3712 36.1418C18.3712 36.1418 13.8386 33.5351 12.3079 32.6498Z" fill="#297AEC"/>
</g>
<defs>
<clipPath id="clip0_154_5938">
<rect x="8" y="10.5474" width="32" height="26.9056" rx="4" fill="white"/>
</clipPath>
</defs>
</svg>
