<svg width="43" height="43" viewBox="0 0 43 43" fill="none" xmlns="http://www.w3.org/2000/svg">
<path d="M35.8275 16.7193C35.8275 17.4972 35.7676 18.2666 35.6394 19.0103C35.5625 19.489 35.4257 19.9592 35.2718 20.4208L35.2547 20.4807C34.7589 21.9425 33.9639 23.2846 32.9038 24.4045L23.5261 34.4149C22.7054 35.7399 20.782 35.7399 19.9613 34.4149L10.5835 24.4045C9.53206 23.2846 8.72849 21.9425 8.24122 20.4892L8.21558 20.4123C8.0617 19.9507 7.92492 19.4805 7.83944 19.0018C7.71976 18.2581 7.65137 17.5058 7.65137 16.7279C7.65137 13.9239 8.47203 11.3081 9.89965 9.11108C12.3958 5.22148 16.7642 2.63982 21.7394 2.63982C26.7147 2.63982 31.083 5.22148 33.5792 9.11108C34.9983 11.3081 35.8189 13.9239 35.8189 16.7279L35.8275 16.7193Z" fill="#FD303E" stroke="#B11312"/>
<path d="M19.5078 15.8453L21.3909 9.21739C21.4407 9.04309 21.2092 8.92076 21.0932 9.06011L14.3828 17.0969L18.5176 19.2814L16.6345 25.9093C16.5848 26.0836 16.8163 26.2059 16.9323 26.0666L23.6427 18.0298L19.5078 15.8453Z" fill="white"/>
<path d="M26.1114 14.5245L27.9945 7.89663C28.0442 7.72233 27.8127 7.6 27.6968 7.73935L20.9863 15.7762L25.1212 17.9606L23.2381 24.5885C23.1883 24.7628 23.4198 24.8852 23.5358 24.7458L30.2463 16.709L26.1114 14.5245Z" fill="white"/>
</svg>
