<svg width="58" height="45" viewBox="0 0 58 45" fill="none" xmlns="http://www.w3.org/2000/svg">
<path d="M29.208 31.4806C37.0228 31.4806 44.0822 32.2174 49.1738 33.4015C51.7236 33.9945 53.7526 34.694 55.1318 35.4523C55.8215 35.8315 56.3251 36.2133 56.6514 36.5841C56.9748 36.9517 57.1034 37.2837 57.1035 37.5841C57.1035 37.8846 56.9749 38.2174 56.6514 38.5851C56.3251 38.9559 55.8214 39.3378 55.1318 39.7169C53.7527 40.4753 51.7236 41.1738 49.1738 41.7668C44.0822 42.9509 37.0228 43.6886 29.208 43.6886C21.3932 43.6886 14.3339 42.9508 9.24219 41.7668C6.69249 41.1738 4.66338 40.4752 3.28418 39.7169C2.59438 39.3377 2.09 38.956 1.76367 38.5851C1.44015 38.2174 1.31152 37.8846 1.31152 37.5841C1.3116 37.2838 1.44041 36.9516 1.76367 36.5841C2.09 36.2133 2.59438 35.8316 3.28418 35.4523C4.66338 34.694 6.69237 33.9945 9.24219 33.4015C14.3339 32.2174 21.3933 31.4806 29.208 31.4806Z" fill="#A07230" fill-opacity="0.5" stroke="#A07230"/>
<path d="M43.9603 17.3229C43.9603 18.1008 43.9004 18.8702 43.7722 19.6139C43.6953 20.0926 43.5585 20.5628 43.4046 21.0244L43.3875 21.0843C42.8917 22.5461 42.0967 23.8882 41.0367 25.0081L31.6589 35.0184C30.8382 36.3435 28.9148 36.3435 28.0941 35.0184L18.7163 25.0081C17.6649 23.8882 16.8613 22.5461 16.374 21.0928L16.3484 21.0159C16.1945 20.5543 16.0577 20.0841 15.9722 19.6054C15.8526 18.8616 15.7842 18.1094 15.7842 17.3315C15.7842 14.5275 16.6048 11.9117 18.0325 9.71467C20.5286 5.82507 24.897 3.24341 29.8722 3.24341C34.8475 3.24341 39.2158 5.82507 41.712 9.71467C43.1311 11.9117 43.9517 14.5275 43.9517 17.3315L43.9603 17.3229Z" fill="#F6AC43" stroke="#A07230"/>
<path d="M30.1485 15.3225L32.0316 8.69459C32.0813 8.52029 31.8498 8.39796 31.7339 8.53731L25.0234 16.5741L29.1583 18.7586L27.2752 25.3865C27.2254 25.5608 27.457 25.6831 27.5729 25.5438L34.2834 17.507L30.1485 15.3225Z" fill="white"/>
</svg>
