<svg width="58" height="44" viewBox="0 0 58 44" fill="none" xmlns="http://www.w3.org/2000/svg">
<path d="M28.6602 30.8829C36.475 30.8829 43.5343 31.6197 48.626 32.8038C51.1758 33.3968 53.2048 34.0963 54.584 34.8546C55.2736 35.2338 55.7772 35.6156 56.1035 35.9864C56.4269 36.354 56.5556 36.686 56.5557 36.9864C56.5557 37.2869 56.427 37.6197 56.1035 37.9874C55.7772 38.3581 55.2736 38.74 54.584 39.1192C53.2048 39.8775 51.1757 40.576 48.626 41.169C43.5343 42.3531 36.475 43.0909 28.6602 43.0909C20.8454 43.0909 13.786 42.3531 8.69434 41.169C6.14464 40.5761 4.11553 39.8775 2.73633 39.1192C2.04653 38.7399 1.54215 38.3582 1.21582 37.9874C0.892299 37.6197 0.763672 37.2869 0.763672 36.9864C0.763746 36.6861 0.892558 36.3539 1.21582 35.9864C1.54215 35.6155 2.04653 35.2338 2.73633 34.8546C4.11553 34.0963 6.14452 33.3968 8.69434 32.8038C13.786 31.6197 20.8454 30.8829 28.6602 30.8829Z" fill="#5A5A5A" fill-opacity="0.5" stroke="#5A5A5A"/>
<path d="M42.0911 18.0436C42.0911 18.8215 42.0313 19.5909 41.9031 20.3346C41.8261 20.8133 41.6894 21.2835 41.5355 21.7451L41.5184 21.805C41.0226 23.2668 40.2275 24.6089 39.1675 25.7288L29.7897 35.7391C28.9691 37.0642 27.0457 37.0642 26.225 35.7391L16.8472 25.7288C15.7957 24.6089 14.9922 23.2668 14.5049 21.8135L14.4792 21.7366C14.3254 21.275 14.1886 20.8048 14.1031 20.3261C13.9834 19.5823 13.915 18.8301 13.915 18.0522C13.915 15.2482 14.7357 12.6324 16.1633 10.4354C18.6595 6.54577 23.0278 3.96411 28.0031 3.96411C32.9784 3.96411 37.3467 6.54577 39.8429 10.4354C41.2619 12.6324 42.0826 15.2482 42.0826 18.0522L42.0911 18.0436Z" fill="#A1A1A1" stroke="#5A5A5A"/>
<circle cx="38.5652" cy="7.92453" r="7.92453" fill="#0A0A0A"/>
<path d="M35.043 8.49432L37.9181 11.0873L42.087 4.8641" stroke="white" stroke-linejoin="bevel"/>
<path d="M28.2784 17.1707L30.1615 10.5427C30.2112 10.3684 29.9797 10.2461 29.8637 10.3855L23.1533 18.4223L27.2882 20.6067L25.4051 27.2346C25.3553 27.4089 25.5868 27.5313 25.7028 27.3919L32.4132 19.3551L28.2784 17.1707Z" fill="white"/>
</svg>
