<svg width="44" height="44" viewBox="0 0 44 44" fill="none" xmlns="http://www.w3.org/2000/svg">
<path d="M36.0921 18.0424C36.0921 18.8203 36.0323 19.5896 35.904 20.3334C35.8271 20.8121 35.6903 21.2822 35.5365 21.7439L35.5194 21.8037C35.0235 23.2655 34.2285 24.6076 33.1685 25.7275L23.7907 35.7379C22.9701 37.0629 21.0466 37.0629 20.226 35.7379L10.8482 25.7275C9.79671 24.6076 8.99314 23.2655 8.50587 21.8123L8.48022 21.7353C8.32635 21.2737 8.18957 20.8035 8.10409 20.3248C7.98441 19.5811 7.91602 18.8288 7.91602 18.0509C7.91602 15.247 8.73668 12.6311 10.1643 10.4341C12.6605 6.54451 17.0288 3.96285 22.0041 3.96285C26.9793 3.96285 31.3477 6.54451 33.8438 10.4341C35.2629 12.6311 36.0836 15.247 36.0836 18.0509L36.0921 18.0424Z" fill="#A1A1A1" stroke="#5A5A5A"/>
<circle cx="32.5661" cy="7.92453" r="7.92453" fill="#0A0A0A"/>
<path d="M29.0439 8.49432L31.9191 11.0873L36.088 4.8641" stroke="white" stroke-linejoin="bevel"/>
<path d="M22.2793 17.1675L24.1624 10.5396C24.2122 10.3653 23.9807 10.243 23.8647 10.3823L17.1542 18.4191L21.2891 20.6036L19.406 27.2315C19.3563 27.4058 19.5878 27.5281 19.7037 27.3888L26.4142 19.352L22.2793 17.1675Z" fill="white"/>
</svg>
