<svg width="57" height="45" viewBox="0 0 57 45" fill="none" xmlns="http://www.w3.org/2000/svg">
<path d="M28.415 31.4821C36.2299 31.4821 43.2892 32.2188 48.3809 33.403C50.9307 33.9959 52.9597 34.6954 54.3389 35.4537C55.0285 35.833 55.5321 36.2148 55.8584 36.5856C56.1818 36.9531 56.3105 37.2852 56.3105 37.5856C56.3105 37.8861 56.1819 38.2189 55.8584 38.5865C55.5321 38.9573 55.0285 39.3392 54.3389 39.7184C52.9597 40.4767 50.9306 41.1752 48.3809 41.7682C43.2892 42.9523 36.2299 43.69 28.415 43.6901C20.6003 43.6901 13.5409 42.9523 8.44922 41.7682C5.89953 41.1752 3.87041 40.4767 2.49121 39.7184C1.80141 39.3391 1.29703 38.9574 0.970703 38.5865C0.647181 38.2189 0.518555 37.8861 0.518555 37.5856C0.518628 37.2852 0.647441 36.953 0.970703 36.5856C1.29703 36.2147 1.80141 35.833 2.49121 35.4537C3.87041 34.6954 5.89941 33.9959 8.44922 33.403C13.5409 32.2189 20.6003 31.4821 28.415 31.4821Z" fill="#A07230" fill-opacity="0.5" stroke="#A07230"/>
<path d="M43.1663 18.6474C43.1663 19.4253 43.1065 20.1947 42.9783 20.9384C42.9013 21.4171 42.7646 21.8873 42.6107 22.3489L42.5936 22.4087C42.0978 23.8705 41.3027 25.2127 40.2427 26.3325L30.8649 36.3429C30.0443 37.6679 28.1208 37.6679 27.3002 36.3429L17.9224 26.3325C16.8709 25.2127 16.0674 23.8705 15.5801 22.4173L15.5544 22.3403C15.4006 21.8787 15.2638 21.4086 15.1783 20.9298C15.0586 20.1861 14.9902 19.4338 14.9902 18.6559C14.9902 15.852 15.8109 13.2361 17.2385 11.0391C19.7347 7.14953 24.103 4.56787 29.0783 4.56787C34.0536 4.56787 38.4219 7.14953 40.9181 11.0391C42.3371 13.2361 43.1578 15.852 43.1578 18.6559L43.1663 18.6474Z" fill="#F6AC43" stroke="#A07230"/>
<path d="M26.8477 19.0925L28.7308 12.4646C28.7806 12.2902 28.549 12.1679 28.4331 12.3073L21.7226 20.3441L25.8575 22.5285L23.9744 29.1564C23.9246 29.3308 24.1562 29.4531 24.2721 29.3137L30.9826 21.2769L26.8477 19.0925Z" fill="white"/>
<path d="M33.4512 17.7717L35.3343 11.1438C35.3841 10.9695 35.1525 10.8471 35.0366 10.9865L28.3261 19.0233L32.461 21.2078L30.5779 27.8357C30.5281 28.01 30.7597 28.1323 30.8756 27.993L37.5861 19.9562L33.4512 17.7717Z" fill="white"/>
<circle cx="39.6413" cy="8.53" r="7.92453" fill="#0A0A0A"/>
<path d="M36.1191 9.0998L38.9943 11.6928L43.1632 5.46957" stroke="white" stroke-linejoin="bevel"/>
<circle cx="39.6413" cy="8.53" r="7.92453" fill="#0A0A0A"/>
<path d="M36.1191 9.0998L38.9943 11.6928L43.1632 5.46957" stroke="white" stroke-linejoin="bevel"/>
</svg>
