<svg width="44" height="44" viewBox="0 0 44 44" fill="none" xmlns="http://www.w3.org/2000/svg">
<path d="M35.723 18.0407C35.723 18.8186 35.6631 19.5879 35.5349 20.3317C35.458 20.8104 35.3212 21.2806 35.1673 21.7422L35.1502 21.802C34.6544 23.2638 33.8594 24.606 32.7994 25.7258L23.4216 35.7362C22.6009 37.0612 20.6775 37.0612 19.8568 35.7362L10.479 25.7258C9.42757 24.606 8.624 23.2638 8.13673 21.8106L8.11108 21.7336C7.95721 21.272 7.82043 20.8018 7.73494 20.3231C7.61526 19.5794 7.54688 18.8271 7.54688 18.0492C7.54688 15.2453 8.36754 12.6294 9.79515 10.4324C12.2913 6.54282 16.6597 3.96116 21.6349 3.96116C26.6102 3.96116 30.9785 6.54282 33.4747 10.4324C34.8938 12.6294 35.7144 15.2453 35.7144 18.0492L35.723 18.0407Z" fill="#A1A1A1" stroke="#5A5A5A"/>
<path d="M19.8477 17.1666L21.7308 10.5387C21.7806 10.3644 21.549 10.2421 21.4331 10.3815L14.7226 18.4183L18.8575 20.6027L16.9744 27.2306C16.9246 27.4049 17.1562 27.5273 17.2721 27.3879L23.9826 19.3511L19.8477 17.1666Z" fill="white"/>
<path d="M26.4512 15.8459L28.3343 9.21798C28.3841 9.04367 28.1525 8.92134 28.0366 9.0607L21.3261 17.0975L25.461 19.282L23.5779 25.9099C23.5281 26.0842 23.7597 26.2065 23.8756 26.0672L30.5861 18.0303L26.4512 15.8459Z" fill="white"/>
<circle cx="32.6413" cy="7.92453" r="7.92453" fill="#0A0A0A"/>
<path d="M29.1191 8.49432L31.9943 11.0873L36.1632 4.8641" stroke="white" stroke-linejoin="bevel"/>
</svg>
