<svg width="44" height="44" viewBox="0 0 44 44" fill="none" xmlns="http://www.w3.org/2000/svg">
<path d="M36.0921 18.2516C36.0921 19.0295 36.0323 19.7989 35.904 20.5426C35.8271 21.0213 35.6903 21.4915 35.5365 21.9531L35.5194 22.013C35.0235 23.4748 34.2285 24.8169 33.1685 25.9368L23.7907 35.9472C22.9701 37.2722 21.0466 37.2722 20.226 35.9472L10.8482 25.9368C9.79671 24.8169 8.99314 23.4748 8.50587 22.0215L8.48022 21.9446C8.32635 21.483 8.18957 21.0128 8.10409 20.5341C7.98441 19.7904 7.91602 19.0381 7.91602 18.2602C7.91602 15.4562 8.73668 12.8404 10.1643 10.6434C12.6605 6.75378 17.0288 4.17212 22.0041 4.17212C26.9793 4.17212 31.3477 6.75378 33.8438 10.6434C35.2629 12.8404 36.0836 15.4562 36.0836 18.2602L36.0921 18.2516Z" fill="#F6AC43" stroke="#A07230"/>
<path d="M22.2793 17.375L24.1624 10.7471C24.2122 10.5727 23.9807 10.4504 23.8647 10.5898L17.1542 18.6266L21.2891 20.811L19.406 27.4389C19.3563 27.6133 19.5878 27.7356 19.7037 27.5962L26.4142 19.5594L22.2793 17.375Z" fill="white"/>
<circle cx="32.5661" cy="8.13351" r="7.92453" fill="#0A0A0A"/>
<path d="M29.0439 8.70332L31.9191 11.2963L36.088 5.07309" stroke="white" stroke-linejoin="bevel"/>
</svg>
