<svg width="43" height="44" viewBox="0 0 43 44" fill="none" xmlns="http://www.w3.org/2000/svg">
<path d="M35.846 18.0414C35.846 18.8193 35.7862 19.5887 35.658 20.3324C35.581 20.8111 35.4442 21.2813 35.2904 21.7429L35.2733 21.8028C34.7774 23.2646 33.9824 24.6067 32.9224 25.7266L23.5446 35.737C22.724 37.062 20.8005 37.062 19.9799 35.737L10.6021 25.7266C9.55061 24.6067 8.74704 23.2646 8.25978 21.8113L8.23413 21.7344C8.08026 21.2728 7.94348 20.8026 7.85799 20.3239C7.73831 19.5802 7.66992 18.8279 7.66992 18.05C7.66992 15.246 8.49059 12.6302 9.9182 10.4332C12.4144 6.54358 16.7827 3.96191 21.758 3.96191C26.7332 3.96191 31.1016 6.54358 33.5977 10.4332C35.0168 12.6302 35.8375 15.246 35.8375 18.05L35.846 18.0414Z" fill="#00AF9E" stroke="#00695F"/>
<path d="M19.5274 18.4872L21.4105 11.8593C21.4603 11.685 21.2287 11.5627 21.1128 11.702L14.4023 19.7389L18.5372 21.9233L16.6541 28.5512C16.6043 28.7255 16.8359 28.8479 16.9518 28.7085L23.6623 20.6717L19.5274 18.4872Z" fill="white"/>
<path d="M26.1309 17.1665L28.014 10.5386C28.0638 10.3643 27.8322 10.242 27.7163 10.3813L21.0058 18.4181L25.1407 20.6026L23.2576 27.2305C23.2078 27.4048 23.4394 27.5271 23.5553 27.3878L30.2658 19.351L26.1309 17.1665Z" fill="white"/>
<circle cx="32.321" cy="7.92453" r="7.92453" fill="#0A0A0A"/>
<path d="M28.7988 8.4943L31.6739 11.0873L35.8428 4.86407" stroke="white" stroke-linejoin="bevel"/>
</svg>
