<svg width="58" height="45" viewBox="0 0 58 45" fill="none" xmlns="http://www.w3.org/2000/svg">
<path d="M28.6602 31.4821C36.475 31.4821 43.5343 32.2188 48.626 33.403C51.1758 33.9959 53.2048 34.6954 54.584 35.4537C55.2736 35.833 55.7772 36.2148 56.1035 36.5856C56.4269 36.9531 56.5556 37.2852 56.5557 37.5856C56.5557 37.8861 56.427 38.2189 56.1035 38.5865C55.7772 38.9573 55.2736 39.3392 54.584 39.7184C53.2048 40.4767 51.1757 41.1752 48.626 41.7682C43.5343 42.9523 36.475 43.69 28.6602 43.6901C20.8454 43.6901 13.786 42.9523 8.69434 41.7682C6.14464 41.1752 4.11553 40.4767 2.73633 39.7184C2.04653 39.3391 1.54215 38.9574 1.21582 38.5865C0.892299 38.2189 0.763672 37.8861 0.763672 37.5856C0.763746 37.2852 0.892558 36.953 1.21582 36.5856C1.54215 36.2147 2.04653 35.833 2.73633 35.4537C4.11553 34.6954 6.14452 33.9959 8.69434 33.403C13.786 32.2189 20.8454 31.4821 28.6602 31.4821Z" fill="#A07230" fill-opacity="0.5" stroke="#A07230"/>
<path d="M42.0911 18.6474C42.0911 19.4253 42.0313 20.1947 41.9031 20.9384C41.8261 21.4171 41.6894 21.8873 41.5355 22.3489L41.5184 22.4087C41.0226 23.8705 40.2275 25.2127 39.1675 26.3325L29.7897 36.3429C28.9691 37.6679 27.0457 37.6679 26.225 36.3429L16.8472 26.3325C15.7957 25.2127 14.9922 23.8705 14.5049 22.4173L14.4792 22.3403C14.3254 21.8787 14.1886 21.4086 14.1031 20.9298C13.9834 20.1861 13.915 19.4338 13.915 18.6559C13.915 15.852 14.7357 13.2361 16.1633 11.0391C18.6595 7.14953 23.0278 4.56787 28.0031 4.56787C32.9784 4.56787 37.3467 7.14953 39.8429 11.0391C41.2619 13.2361 42.0826 15.852 42.0826 18.6559L42.0911 18.6474Z" fill="#F6AC43" stroke="#A07230"/>
<path d="M28.2784 17.7717L30.1615 11.1438C30.2112 10.9695 29.9797 10.8471 29.8637 10.9865L23.1533 19.0233L27.2882 21.2078L25.4051 27.8357C25.3553 28.01 25.5868 28.1323 25.7028 27.993L32.4132 19.9562L28.2784 17.7717Z" fill="white"/>
<circle cx="38.5652" cy="8.53" r="7.92453" fill="#0A0A0A"/>
<path d="M35.043 9.0998L37.9181 11.6928L42.087 5.46957" stroke="white" stroke-linejoin="bevel"/>
<circle cx="38.5652" cy="8.53" r="7.92453" fill="#0A0A0A"/>
<path d="M35.043 9.0998L37.9181 11.6928L42.087 5.46957" stroke="white" stroke-linejoin="bevel"/>
</svg>
