<svg width="43" height="45" viewBox="0 0 43 45" fill="none" xmlns="http://www.w3.org/2000/svg">
<path d="M35.515 19.0414C35.515 19.8193 35.4551 20.5887 35.3269 21.3324C35.25 21.8111 35.1132 22.2813 34.9593 22.7429L34.9422 22.8028C34.4464 24.2646 33.6514 25.6067 32.5913 26.7266L23.2136 36.7369C22.3929 38.062 20.4695 38.062 19.6488 36.7369L10.271 26.7266C9.21956 25.6067 8.41599 24.2646 7.92872 22.8113L7.90308 22.7344C7.7492 22.2728 7.61242 21.8026 7.52694 21.3239C7.40726 20.5801 7.33887 19.8279 7.33887 19.0499C7.33887 16.246 8.15953 13.6301 9.58715 11.4332C12.0833 7.54356 16.4517 4.9619 21.4269 4.9619C26.4022 4.9619 30.7705 7.54356 33.2667 11.4332C34.6858 13.6301 35.5064 16.246 35.5064 19.0499L35.515 19.0414Z" fill="#A1A1A1" stroke="#5A5A5A"/>
<path d="M22.2305 18.1669L24.1136 11.539C24.1634 11.3647 23.9318 11.2424 23.8159 11.3817L17.1054 19.4186L21.2403 21.603L19.3572 28.2309C19.3074 28.4052 19.539 28.5276 19.6549 28.3882L26.3654 20.3514L22.2305 18.1669Z" fill="white"/>
<circle cx="31.989" cy="8.92453" r="7.92453" fill="#0A0A0A"/>
<path d="M28.4668 9.49432L31.3419 12.0873L35.5108 5.8641" stroke="white" stroke-linejoin="bevel"/>
<rect x="23.4414" y="0.5" width="17" height="17" rx="8.5" fill="#0A0A0A" stroke="#ED454F"/>
<path d="M35.8987 6.40736L35.5775 7.26674H27.9414L28.2572 6.40736H35.8987ZM32.8094 14L28.039 9.49315L28.0263 8.86365H30.1148C30.7457 8.86365 31.2839 8.79007 31.7292 8.64343C32.1745 8.49412 32.5144 8.27283 32.7487 7.97957C32.9877 7.68684 33.1073 7.32376 33.1073 6.89084C33.1073 6.25275 32.8582 5.75162 32.3602 5.38686C31.8668 5.01893 31.1584 4.83525 30.2363 4.83525H27.9415L28.2573 4.00004H30.2362C31.1262 4.00004 31.8707 4.12358 32.4695 4.37118C33.0724 4.61826 33.5257 4.9604 33.8289 5.39652C34.1367 5.82943 34.2902 6.32733 34.2902 6.89074C34.2902 7.41818 34.1427 7.893 33.8476 8.31621C33.5558 8.73623 33.1044 9.06978 32.4935 9.31738C31.8866 9.56176 31.1121 9.68369 30.1693 9.68369H29.732L34.2233 13.9268V13.9999L32.8094 14ZM35.9414 4L35.6256 4.85938L29.1919 4.83521L29.483 4L35.9414 4Z" fill="white"/>
<rect x="26.625" y="2" width="16.679" height="0.96623" transform="rotate(45 26.625 2)" fill="#ED454F"/>
</svg>
