<svg width="57" height="45" viewBox="0 0 57 45" fill="none" xmlns="http://www.w3.org/2000/svg">
<path d="M28.3965 31.4803C36.2113 31.4804 43.2706 32.2171 48.3623 33.4012C50.9121 33.9942 52.9411 34.6937 54.3203 35.452C55.01 35.8312 55.5136 36.2131 55.8398 36.5839C56.1633 36.9514 56.2919 37.2835 56.292 37.5839C56.292 37.8843 56.1634 38.2172 55.8398 38.5848C55.5135 38.9556 55.0099 39.3375 54.3203 39.7167C52.9411 40.475 50.9121 41.1735 48.3623 41.7665C43.2706 42.9506 36.2113 43.6883 28.3965 43.6884C20.5817 43.6884 13.5224 42.9506 8.43066 41.7665C5.88097 41.1735 3.85186 40.4749 2.47266 39.7167C1.78286 39.3374 1.27847 38.9557 0.952148 38.5848C0.628627 38.2172 0.5 37.8843 0.5 37.5839C0.500074 37.2835 0.628886 36.9513 0.952148 36.5839C1.27847 36.213 1.78285 35.8313 2.47266 35.452C3.85186 34.6937 5.88085 33.9942 8.43066 33.4012C13.5224 32.2172 20.5818 31.4803 28.3965 31.4803Z" fill="#A07230" fill-opacity="0.5" stroke="#A07230"/>
<path d="M41.8275 17.3229C41.8275 18.1008 41.7676 18.8702 41.6394 19.6139C41.5625 20.0926 41.4257 20.5628 41.2718 21.0244L41.2547 21.0843C40.7589 22.5461 39.9639 23.8882 38.9038 25.0081L29.5261 35.0184C28.7054 36.3435 26.782 36.3435 25.9613 35.0184L16.5835 25.0081C15.5321 23.8882 14.7285 22.5461 14.2412 21.0928L14.2156 21.0159C14.0617 20.5543 13.9249 20.0841 13.8394 19.6054C13.7198 18.8616 13.6514 18.1094 13.6514 17.3315C13.6514 14.5275 14.472 11.9117 15.8996 9.71467C18.3958 5.82507 22.7642 3.24341 27.7394 3.24341C32.7147 3.24341 37.083 5.82507 39.5792 9.71467C40.9983 11.9117 41.8189 14.5275 41.8189 17.3315L41.8275 17.3229Z" fill="#F6AC43" stroke="#A07230"/>
<path d="M25.5078 16.4485L27.3909 9.82063C27.4407 9.64633 27.2092 9.524 27.0932 9.66335L20.3828 17.7002L24.5176 19.8846L22.6345 26.5125C22.5848 26.6868 22.8163 26.8092 22.9323 26.6698L29.6427 18.633L25.5078 16.4485Z" fill="white"/>
<path d="M32.1114 15.1278L33.9945 8.49989C34.0442 8.32559 33.8127 8.20326 33.6968 8.34261L26.9863 16.3794L31.1212 18.5639L29.2381 25.1918C29.1883 25.3661 29.4198 25.4884 29.5358 25.3491L36.2463 17.3123L32.1114 15.1278Z" fill="white"/>
</svg>
