<svg width="58" height="44" viewBox="0 0 58 44" fill="none" xmlns="http://www.w3.org/2000/svg">
<path d="M29.208 31.2741C37.0228 31.2741 44.0822 32.0109 49.1738 33.195C51.7236 33.788 53.7526 34.4875 55.1318 35.2458C55.8215 35.625 56.3251 36.0068 56.6514 36.3776C56.9748 36.7452 57.1034 37.0772 57.1035 37.3776C57.1035 37.6781 56.9749 38.0109 56.6514 38.3786C56.3251 38.7494 55.8214 39.1313 55.1318 39.5104C53.7527 40.2687 51.7236 40.9673 49.1738 41.5602C44.0822 42.7444 37.0228 43.4821 29.208 43.4821C21.3932 43.4821 14.3339 42.7443 9.24219 41.5602C6.69249 40.9673 4.66338 40.2687 3.28418 39.5104C2.59438 39.1312 2.09 38.7495 1.76367 38.3786C1.44015 38.0109 1.31152 37.6781 1.31152 37.3776C1.3116 37.0773 1.44041 36.7451 1.76367 36.3776C2.09 36.0068 2.59438 35.6251 3.28418 35.2458C4.66338 34.4875 6.69237 33.788 9.24219 33.195C14.3339 32.0109 21.3933 31.2741 29.208 31.2741Z" fill="#10CF6F" fill-opacity="0.5" stroke="#10CF6F"/>
<path d="M42.638 17.1187C42.638 17.8967 42.5782 18.666 42.4499 19.4098C42.373 19.8885 42.2362 20.3586 42.0824 20.8203L42.0652 20.8801C41.5694 22.3419 40.7744 23.684 39.7144 24.8039L30.3366 34.8143C29.516 36.1393 27.5925 36.1393 26.7719 34.8143L17.3941 24.8039C16.3426 23.684 15.539 22.3419 15.0518 20.8887L15.0261 20.8117C14.8722 20.3501 14.7355 19.8799 14.65 19.4012C14.5303 18.6575 14.4619 17.9052 14.4619 17.1273C14.4619 14.3234 15.2826 11.7075 16.7102 9.51051C19.2064 5.62091 23.5747 3.03925 28.55 3.03925C33.5252 3.03925 37.8936 5.62091 40.3897 9.51051C41.8088 11.7075 42.6295 14.3234 42.6295 17.1273L42.638 17.1187Z" fill="#00AF9E" stroke="#00695F"/>
<path d="M29.2696 15.1183L31.1527 8.49043C31.2024 8.31613 30.9709 8.1938 30.855 8.33315L24.1445 16.37L28.2794 18.5544L26.3963 25.1823C26.3465 25.3566 26.578 25.479 26.694 25.3396L33.4045 17.3028L29.2696 15.1183Z" fill="white"/>
</svg>
