<svg width="58" height="44" viewBox="0 0 58 44" fill="none" xmlns="http://www.w3.org/2000/svg">
<path d="M28.6602 30.8781C36.475 30.8782 43.5343 31.6149 48.626 32.799C51.1758 33.392 53.2048 34.0915 54.584 34.8498C55.2736 35.229 55.7772 35.6109 56.1035 35.9817C56.4269 36.3492 56.5556 36.6813 56.5557 36.9817C56.5557 37.2821 56.427 37.615 56.1035 37.9826C55.7772 38.3534 55.2736 38.7353 54.584 39.1145C53.2048 39.8728 51.1757 40.5713 48.626 41.1643C43.5343 42.3484 36.475 43.0861 28.6602 43.0862C20.8454 43.0862 13.786 42.3484 8.69434 41.1643C6.14464 40.5713 4.11553 39.8727 2.73633 39.1145C2.04653 38.7352 1.54215 38.3535 1.21582 37.9826C0.892299 37.615 0.763672 37.2821 0.763672 36.9817C0.763746 36.6813 0.892558 36.3491 1.21582 35.9817C1.54215 35.6108 2.04653 35.2291 2.73633 34.8498C4.11553 34.0915 6.14452 33.392 8.69434 32.799C13.786 31.615 20.8454 30.8781 28.6602 30.8781Z" fill="#10CF6F" fill-opacity="0.5" stroke="#10CF6F"/>
<path d="M42.0911 18.0407C42.0911 18.8186 42.0313 19.588 41.9031 20.3317C41.8261 20.8104 41.6894 21.2806 41.5355 21.7422L41.5184 21.802C41.0226 23.2639 40.2275 24.606 39.1675 25.7258L29.7897 35.7362C28.9691 37.0613 27.0457 37.0613 26.225 35.7362L16.8472 25.7258C15.7957 24.606 14.9922 23.2638 14.5049 21.8106L14.4792 21.7337C14.3254 21.272 14.1886 20.8019 14.1031 20.3231C13.9834 19.5794 13.915 18.8271 13.915 18.0492C13.915 15.2453 14.7357 12.6294 16.1633 10.4324C18.6595 6.54284 23.0278 3.96118 28.0031 3.96118C32.9784 3.96118 37.3467 6.54284 39.8429 10.4324C41.2619 12.6294 42.0826 15.2453 42.0826 18.0492L42.0911 18.0407Z" fill="#00AF9E" stroke="#00695F"/>
<path d="M28.2784 17.1667L30.1615 10.5388C30.2112 10.3645 29.9797 10.2422 29.8637 10.3816L23.1533 18.4184L27.2882 20.6028L25.4051 27.2307C25.3553 27.405 25.5868 27.5274 25.7028 27.388L32.4132 19.3512L28.2784 17.1667Z" fill="white"/>
<circle cx="38.5652" cy="7.92453" r="7.92453" fill="#0A0A0A"/>
<path d="M35.043 8.49433L37.9181 11.0874L42.087 4.86411" stroke="white" stroke-linejoin="bevel"/>
</svg>
