<svg width="36" height="41" viewBox="0 0 36 41" fill="none" xmlns="http://www.w3.org/2000/svg">
<g clip-path="url(#clip0_373_46)">
<path d="M18 0.5C27.7542 0.5 35.5 7.07336 35.5 15C35.5 17.2638 34.4311 19.9938 32.7559 22.8604C31.0889 25.7127 28.8594 28.6378 26.6191 31.2764C24.3806 33.9129 22.1401 36.2524 20.459 37.9336C19.6188 38.7738 18.9191 39.4495 18.4297 39.9141C18.2607 40.0745 18.1159 40.2091 18 40.3174C17.8841 40.2091 17.7393 40.0745 17.5703 39.9141C17.0809 39.4495 16.3812 38.7738 15.541 37.9336C13.8599 36.2524 11.6194 33.9129 9.38086 31.2764C7.14061 28.6378 4.91111 25.7127 3.24414 22.8604C1.56891 19.9938 0.500001 17.2638 0.5 15C0.5 7.07336 8.24579 0.5 18 0.5Z" fill="#0F0F0F" stroke="white"/>
<path d="M18.108 24.6591C17.5511 24.6553 17.0076 24.5587 16.4773 24.3693C15.947 24.1761 15.4697 23.8636 15.0455 23.4318C14.6212 22.9962 14.2841 22.4186 14.0341 21.6989C13.7841 20.9754 13.661 20.0795 13.6648 19.0114C13.6648 18.0152 13.7708 17.1269 13.983 16.3466C14.1951 15.5663 14.5 14.9072 14.8977 14.3693C15.2955 13.8277 15.7746 13.4148 16.3352 13.1307C16.8996 12.8466 17.5303 12.7045 18.2273 12.7045C18.9583 12.7045 19.6061 12.8485 20.1705 13.1364C20.7386 13.4242 21.197 13.8182 21.5455 14.3182C21.8939 14.8144 22.1098 15.375 22.1932 16H20.1193C20.0133 15.553 19.7955 15.197 19.4659 14.9318C19.1402 14.6629 18.7273 14.5284 18.2273 14.5284C17.4205 14.5284 16.7992 14.8788 16.3636 15.5795C15.9318 16.2803 15.714 17.2424 15.7102 18.4659H15.7898C15.9754 18.1326 16.2159 17.8466 16.5114 17.608C16.8068 17.3693 17.1402 17.1856 17.5114 17.0568C17.8864 16.9242 18.2822 16.858 18.6989 16.858C19.3807 16.858 19.9924 17.0208 20.5341 17.3466C21.0795 17.6723 21.5114 18.1212 21.8295 18.6932C22.1477 19.2614 22.3049 19.9129 22.3011 20.6477C22.3049 21.4129 22.1307 22.1004 21.7784 22.7102C21.4261 23.3163 20.9356 23.7936 20.3068 24.142C19.678 24.4905 18.9451 24.6629 18.108 24.6591ZM18.0966 22.9545C18.5095 22.9545 18.8788 22.8542 19.2045 22.6534C19.5303 22.4527 19.7879 22.1818 19.9773 21.8409C20.1667 21.5 20.2595 21.1174 20.2557 20.6932C20.2595 20.2765 20.1686 19.8996 19.983 19.5625C19.8011 19.2254 19.5492 18.9583 19.2273 18.7614C18.9053 18.5644 18.5379 18.4659 18.125 18.4659C17.8182 18.4659 17.5322 18.5246 17.267 18.642C17.0019 18.7595 16.7708 18.9223 16.5739 19.1307C16.3769 19.3352 16.2216 19.5739 16.108 19.8466C15.9981 20.1155 15.9413 20.4034 15.9375 20.7102C15.9413 21.1155 16.036 21.4886 16.2216 21.8295C16.4072 22.1705 16.6629 22.4432 16.9886 22.6477C17.3144 22.8523 17.6837 22.9545 18.0966 22.9545Z" fill="white"/>
</g>
<defs>
<clipPath id="clip0_373_46">
<rect width="36" height="41" fill="white"/>
</clipPath>
</defs>
</svg>
