<svg width="24" height="24" viewBox="0 0 24 24" fill="none" xmlns="http://www.w3.org/2000/svg">
<path d="M10.8656 13.1348C10.6968 12.9659 10.4698 12.8718 10.229 12.8718C9.98824 12.8718 9.76405 12.9659 9.59246 13.1348L2.26362 20.4636C1.91213 20.8151 1.91213 21.3852 2.26362 21.7367C2.43245 21.9056 2.6594 21.9997 2.90019 21.9997C3.14098 21.9997 3.36516 21.9056 3.53676 21.7367L10.8656 14.4079C11.2143 14.0564 11.2143 13.4863 10.8656 13.1348Z" fill="white"/>
<path d="M21.7372 2.2633C21.5683 2.09447 21.3414 2.00037 21.1006 2.00037C20.8598 2.00037 20.6356 2.09447 20.464 2.2633L13.1352 9.59213C12.7837 9.94363 12.7837 10.5138 13.1352 10.8653C13.304 11.0341 13.531 11.1282 13.7718 11.1282C14.0126 11.1282 14.2367 11.0341 14.4083 10.8653L21.7372 3.53643C21.906 3.3676 22.0001 3.14065 22.0001 2.89986C22.0001 2.65908 21.906 2.43213 21.7372 2.2633Z" fill="white"/>
<path d="M18.2166 9.95747C18.2055 11.0147 17.7821 12.0305 17.0293 12.7833L12.637 17.1728C11.8814 17.9284 10.8795 18.3463 9.81115 18.3602L8.21973 19.9516C8.72345 20.0872 9.24654 20.1592 9.76686 20.1592C11.3334 20.1592 12.803 19.5503 13.9073 18.446L18.2996 14.0536C19.1687 13.1818 19.7361 12.0803 19.9353 10.868C20.0737 10.0239 20.0294 9.17145 19.808 8.36328L18.2166 9.95747Z" fill="white"/>
<path d="M6.44293 8.474L6.23812 7.71289L4.4585 8.12804L4.69652 8.9971L6.44293 8.474Z" fill="white"/>
<path d="M6.91897 6.20731L5.67352 4.88159L5.03418 5.5237L6.35713 6.76915L6.91897 6.20731Z" fill="white"/>
<path d="M9.64259 8.54878L11.2202 6.9712C11.9758 6.21562 12.9777 5.7977 14.046 5.78386L15.6374 4.19244C15.1337 4.05682 14.6106 3.98486 14.0903 3.98486C12.5238 3.98486 11.0513 4.59375 9.94704 5.69806L8.4082 7.2369L9.64259 8.54878Z" fill="white"/>
<path d="M5.64028 14.1865C5.65135 13.1293 6.0748 12.1135 6.82761 11.3607L8.69857 9.48976L7.38669 8.25537L5.55448 10.0903C4.68542 10.9594 4.11805 12.0637 3.91877 13.276C3.78039 14.1201 3.82467 14.9725 4.04609 15.7807L5.64028 14.1865Z" fill="white"/>
<path d="M9.14977 4.54657L8.27795 4.30579L7.86279 6.08818L8.62391 6.29299L9.14977 4.54657Z" fill="white"/>
</svg>
