<svg width="122" height="41" viewBox="0 0 122 41" fill="none" xmlns="http://www.w3.org/2000/svg">
<path d="M120.685 34.5953V34.1761C120.685 34.1703 120.68 34.1654 120.674 34.1654H120.535C120.529 34.1654 120.524 34.1605 120.524 34.1546V34.0753C120.524 34.0694 120.529 34.0645 120.535 34.0645H120.952C120.958 34.0645 120.963 34.0694 120.963 34.0753V34.1546C120.963 34.1605 120.958 34.1654 120.952 34.1654H120.814C120.808 34.1654 120.803 34.1703 120.803 34.1761V34.5953C120.803 34.6012 120.798 34.6061 120.792 34.6061H120.697C120.691 34.6061 120.686 34.6012 120.686 34.5953" fill="white"/>
<path d="M121.517 34.5949V34.2824C121.517 34.2707 121.501 34.2668 121.496 34.2785L121.361 34.6056H121.31L121.176 34.2785C121.172 34.2668 121.154 34.2707 121.154 34.2824V34.5949C121.154 34.6007 121.149 34.6056 121.143 34.6056H121.049C121.043 34.6056 121.038 34.6007 121.038 34.5949V34.0738C121.038 34.068 121.043 34.0631 121.049 34.0631H121.195C121.195 34.0631 121.204 34.066 121.205 34.0699L121.325 34.3657C121.329 34.3745 121.342 34.3745 121.346 34.3657L121.466 34.0699C121.466 34.0699 121.472 34.0631 121.476 34.0631H121.622C121.628 34.0631 121.633 34.068 121.633 34.0738V34.5949C121.633 34.6007 121.628 34.6056 121.622 34.6056H121.526C121.52 34.6056 121.515 34.6007 121.515 34.5949" fill="white"/>
<path d="M96.4333 36.1727C96.4333 38.8385 94.2409 41 91.537 41C88.833 41 86.6396 38.8395 86.6396 36.1727C86.6396 33.5058 88.832 31.3453 91.536 31.3453C94.2399 31.3453 96.4323 33.5068 96.4323 36.1727" fill="#25D800"/>
<path d="M92.6654 38.6935C92.1767 38.6935 91.8648 38.2107 91.8062 38.1137C91.6333 37.8248 91.4704 37.3684 91.3204 36.7583C91.3015 36.6828 91.23 36.3244 91.2151 36.2529C91.0542 35.4655 90.8674 34.8671 90.6886 34.5674C90.6201 34.4528 90.479 34.3137 90.4065 34.3137H90.3767C90.3032 34.3137 90.1621 34.4528 90.0936 34.5674C89.9823 34.7535 89.8651 35.063 89.7549 35.4626L89.6873 35.7054H88.1575C87.9728 35.7054 87.8228 35.5576 87.8228 35.3754C87.8228 35.1932 87.9728 35.0453 88.1575 35.0453H89.1797C89.287 34.7006 89.3992 34.4283 89.5164 34.2325C89.5741 34.1355 89.888 33.6527 90.3757 33.6527H90.4075C90.8962 33.6527 91.2082 34.1355 91.2658 34.2325C91.4873 34.6046 91.6919 35.2402 91.8717 36.1236C91.9035 36.2842 91.9591 36.5546 91.9711 36.6025C92.1389 37.2842 92.2879 37.6191 92.3833 37.7797C92.4518 37.8943 92.5929 38.0334 92.6654 38.0334H92.6952C92.7687 38.0334 92.9098 37.8943 92.9783 37.7797C93.0558 37.6495 93.178 37.389 93.3181 36.8836L93.3856 36.6407H94.9154C95.1002 36.6407 95.2502 36.7886 95.2502 36.9708C95.2502 37.1529 95.1002 37.3008 94.9154 37.3008H93.8932C93.7859 37.6456 93.6737 37.9188 93.5565 38.1137C93.4989 38.2107 93.1869 38.6935 92.6972 38.6935H92.6664H92.6654Z" fill="white"/>
<path d="M99.7724 38.6935C99.7366 38.6935 99.7038 38.6827 99.676 38.6602C99.6472 38.6387 99.6333 38.6054 99.6333 38.5613V33.6096H98.2592C98.2175 33.6096 98.1847 33.5959 98.1589 33.5694C98.133 33.543 98.1201 33.5126 98.1201 33.4784C98.1201 33.4441 98.133 33.4137 98.1589 33.3873C98.1847 33.3608 98.2175 33.3471 98.2592 33.3471H101.279C101.325 33.3471 101.36 33.3589 101.383 33.3834C101.406 33.4078 101.418 33.4372 101.418 33.4715C101.418 33.5058 101.408 33.5371 101.387 33.5665C101.366 33.5959 101.33 33.6106 101.279 33.6106H99.9115V38.5623C99.9115 38.6064 99.8976 38.6387 99.8688 38.6612C99.8399 38.6827 99.8082 38.6945 99.7724 38.6945V38.6935Z" fill="white"/>
<path d="M102.505 38.7376C102.262 38.7376 102.038 38.6759 101.829 38.5516C101.621 38.4272 101.454 38.2636 101.327 38.0619C101.201 37.8591 101.139 37.6417 101.139 37.4076V36.5154C101.139 36.2814 101.2 36.0649 101.324 35.8642C101.448 35.6644 101.614 35.5037 101.822 35.3813C102.031 35.2599 102.258 35.1982 102.506 35.1982C102.753 35.1982 102.981 35.2579 103.189 35.3774C103.398 35.4969 103.565 35.6555 103.691 35.8524C103.817 36.0493 103.88 36.2706 103.88 36.5145V37.4067C103.88 37.6358 103.817 37.8533 103.691 38.0579C103.565 38.2626 103.398 38.4272 103.189 38.5516C102.981 38.6759 102.753 38.7376 102.506 38.7376H102.505ZM102.505 38.482C102.71 38.482 102.896 38.4311 103.061 38.3283C103.226 38.2254 103.358 38.0922 103.459 37.9257C103.559 37.7602 103.61 37.5869 103.61 37.4067V36.5145C103.61 36.3343 103.561 36.1638 103.463 36.0022C103.365 35.8416 103.232 35.7094 103.065 35.6076C102.898 35.5047 102.711 35.4538 102.506 35.4538C102.3 35.4538 102.114 35.5047 101.949 35.6076C101.784 35.7104 101.653 35.8416 101.556 36.0022C101.459 36.1629 101.409 36.3343 101.409 36.5145V37.4067C101.409 37.5869 101.458 37.7602 101.556 37.9257C101.653 38.0912 101.786 38.2254 101.953 38.3283C102.12 38.4311 102.305 38.482 102.506 38.482H102.505Z" fill="white"/>
<path d="M104.922 38.6936C104.886 38.6936 104.855 38.6798 104.829 38.6534C104.803 38.627 104.791 38.5966 104.791 38.5623V35.3657C104.791 35.3265 104.803 35.2961 104.829 35.2746C104.855 35.253 104.886 35.2413 104.922 35.2413C104.962 35.2413 104.996 35.252 105.022 35.2746C105.048 35.2961 105.061 35.3275 105.061 35.3657V35.7535C105.148 35.6125 105.278 35.4842 105.45 35.3696C105.623 35.255 105.838 35.1982 106.095 35.1982C106.352 35.1982 106.579 35.2579 106.791 35.3774C107.001 35.4969 107.17 35.6555 107.296 35.8524C107.422 36.0502 107.485 36.2706 107.485 36.5145V38.5623C107.485 38.6064 107.471 38.6387 107.442 38.6612C107.413 38.6828 107.382 38.6945 107.346 38.6945C107.315 38.6945 107.285 38.6838 107.258 38.6612C107.229 38.6397 107.215 38.6064 107.215 38.5623V36.5145C107.215 36.3343 107.165 36.1638 107.064 36.0022C106.963 35.8416 106.831 35.7094 106.666 35.6076C106.501 35.5047 106.319 35.4538 106.118 35.4538C105.943 35.4538 105.774 35.4969 105.612 35.5821C105.45 35.6673 105.317 35.7878 105.215 35.9445C105.111 36.1002 105.061 36.2912 105.061 36.5154V38.5633C105.061 38.5976 105.048 38.6279 105.022 38.6544C104.996 38.6808 104.962 38.6945 104.922 38.6945V38.6936Z" fill="white"/>
<path d="M109.931 38.7376C109.627 38.7376 109.359 38.6817 109.125 38.5691C108.89 38.4575 108.706 38.3017 108.572 38.1049C108.438 37.907 108.372 37.6749 108.372 37.4066V36.4919C108.372 36.2578 108.434 36.0423 108.56 35.8445C108.687 35.6467 108.853 35.49 109.062 35.3724C109.271 35.2549 109.498 35.1971 109.746 35.1971C109.993 35.1971 110.213 35.2549 110.421 35.3685C110.63 35.4831 110.797 35.6388 110.923 35.8367C111.049 36.0345 111.112 36.2597 111.112 36.5134C111.112 36.6887 111.081 36.816 111.019 36.8934C110.958 36.9717 110.879 37.0188 110.784 37.0364C110.689 37.053 110.584 37.0618 110.471 37.0618H108.641V37.4056C108.641 37.7376 108.764 37.9991 109.011 38.192C109.259 38.385 109.57 38.481 109.945 38.481C110.162 38.481 110.326 38.4555 110.439 38.4046C110.552 38.3536 110.639 38.3037 110.697 38.2547C110.756 38.2058 110.81 38.1813 110.855 38.1813C110.881 38.1813 110.904 38.1891 110.925 38.2028C110.946 38.2175 110.963 38.2342 110.975 38.2537C110.988 38.2733 110.994 38.2929 110.994 38.3125C110.994 38.3566 110.951 38.4124 110.866 38.481C110.781 38.5495 110.659 38.6093 110.5 38.6602C110.34 38.7111 110.15 38.7366 109.928 38.7366L109.931 38.7376ZM108.642 36.8062H110.38C110.57 36.8062 110.694 36.7896 110.754 36.7553C110.813 36.721 110.843 36.6485 110.843 36.5359C110.843 36.3606 110.798 36.1892 110.707 36.0237C110.617 35.8582 110.49 35.7211 110.325 35.6143C110.16 35.5076 109.967 35.4537 109.746 35.4537C109.54 35.4537 109.353 35.5027 109.186 35.5996C109.019 35.6976 108.886 35.8239 108.789 35.9796C108.692 36.1354 108.642 36.3067 108.642 36.4919V36.8062Z" fill="white"/>
<path d="M112.248 38.6935C112.212 38.6935 112.179 38.6827 112.152 38.6602C112.123 38.6386 112.109 38.6053 112.109 38.5613V33.6096H110.735C110.693 33.6096 110.66 33.5958 110.634 33.5694C110.609 33.543 110.596 33.5126 110.596 33.4783C110.596 33.444 110.609 33.4137 110.634 33.3872C110.66 33.3608 110.693 33.3471 110.735 33.3471H113.754C113.801 33.3471 113.836 33.3588 113.859 33.3833C113.881 33.4078 113.893 33.4372 113.893 33.4715C113.893 33.5057 113.883 33.5371 113.862 33.5665C113.842 33.5958 113.806 33.6105 113.754 33.6105H112.387V38.5622C112.387 38.6063 112.373 38.6386 112.344 38.6612C112.316 38.6827 112.284 38.6945 112.248 38.6945V38.6935Z" fill="white"/>
<path d="M114.418 38.7376C114.12 38.7376 113.865 38.6582 113.657 38.4996C113.448 38.3409 113.344 38.099 113.344 37.7719C113.344 37.5133 113.419 37.3145 113.571 37.1755C113.723 37.0364 113.934 36.9404 114.204 36.8865C114.474 36.8327 114.787 36.8062 115.142 36.8062H115.574V36.6015C115.574 36.4164 115.54 36.2362 115.474 36.0599C115.407 35.8846 115.299 35.7397 115.15 35.6251C115.001 35.5105 114.802 35.4537 114.556 35.4537C114.396 35.4537 114.263 35.4694 114.154 35.5017C114.046 35.533 113.96 35.5663 113.896 35.6006C113.832 35.6349 113.784 35.6515 113.753 35.6515C113.711 35.6515 113.679 35.6329 113.653 35.5967C113.627 35.5605 113.614 35.5301 113.614 35.5056C113.614 35.4567 113.662 35.4096 113.757 35.3626C113.852 35.3166 113.974 35.2774 114.12 35.2451C114.267 35.2138 114.417 35.1971 114.572 35.1971C114.891 35.1971 115.143 35.2637 115.329 35.3979C115.515 35.5321 115.647 35.7054 115.726 35.917C115.806 36.1295 115.845 36.3567 115.845 36.6006V38.5613C115.845 38.5955 115.834 38.6259 115.811 38.6523C115.788 38.6788 115.755 38.6925 115.714 38.6925C115.679 38.6925 115.646 38.6788 115.618 38.6523C115.589 38.6259 115.575 38.5955 115.575 38.5613V38.1813C115.446 38.3233 115.285 38.4506 115.092 38.5652C114.9 38.6798 114.674 38.7366 114.417 38.7366L114.418 38.7376ZM114.41 38.4819C114.606 38.4819 114.792 38.4369 114.969 38.3468C115.147 38.2567 115.292 38.148 115.405 38.0216C115.519 37.8953 115.575 37.7807 115.575 37.6779V37.0638H115.151C114.889 37.0638 114.64 37.0785 114.406 37.1079C114.171 37.1373 113.982 37.2019 113.835 37.3018C113.688 37.4017 113.615 37.5594 113.615 37.7738C113.615 38.0177 113.692 38.1969 113.846 38.3115C114 38.4261 114.189 38.4829 114.41 38.4829V38.4819Z" fill="white"/>
<path d="M118.084 40.4269C117.785 40.4269 117.524 40.3878 117.3 40.3094C117.076 40.2311 116.9 40.1214 116.774 39.9803C116.648 39.8393 116.585 39.6728 116.585 39.4828C116.585 39.2585 116.659 39.0813 116.806 38.952C116.953 38.8227 117.113 38.7287 117.289 38.6699C117.15 38.6308 117.037 38.574 116.949 38.4976C116.862 38.4222 116.818 38.3066 116.818 38.1499C116.818 38.0138 116.853 37.907 116.922 37.8316C116.992 37.7562 117.083 37.6935 117.196 37.6445C117.068 37.5378 116.969 37.4046 116.899 37.2459C116.83 37.0873 116.795 36.9129 116.795 36.7229V36.3939C116.795 36.1598 116.847 35.9522 116.949 35.772C117.052 35.5918 117.197 35.4498 117.385 35.3479C117.573 35.2451 117.791 35.1941 118.038 35.1941C118.229 35.1941 118.401 35.2245 118.556 35.2852C118.71 35.3459 118.844 35.4331 118.957 35.5448C119.03 35.4184 119.119 35.3117 119.227 35.2265C119.336 35.1413 119.438 35.0982 119.536 35.0982C119.593 35.0982 119.634 35.1129 119.659 35.1422C119.685 35.1716 119.698 35.2059 119.698 35.2441C119.698 35.2882 119.684 35.3224 119.656 35.3469C119.627 35.3714 119.595 35.3832 119.559 35.3832C119.493 35.3832 119.416 35.4047 119.332 35.4488C119.247 35.4929 119.168 35.583 119.096 35.7191C119.163 35.8072 119.212 35.9091 119.243 36.0266C119.274 36.1432 119.29 36.2656 119.29 36.3919V36.721C119.29 36.9502 119.237 37.1578 119.132 37.3429C119.027 37.528 118.879 37.6729 118.688 37.7777C118.497 37.8825 118.278 37.9354 118.031 37.9354C117.784 37.9354 117.583 37.8845 117.398 37.7816C117.321 37.8159 117.25 37.858 117.186 37.9099C117.121 37.9609 117.089 38.0353 117.089 38.1332C117.089 38.2557 117.149 38.3428 117.267 38.3967C117.385 38.4506 117.537 38.4868 117.722 38.5064C117.908 38.526 118.103 38.5456 118.309 38.5651C118.515 38.5847 118.711 38.621 118.896 38.6748C119.082 38.7287 119.233 38.8139 119.351 38.9305C119.47 39.047 119.529 39.2154 119.529 39.4348C119.529 39.6542 119.47 39.8227 119.351 39.9686C119.233 40.1145 119.067 40.2271 118.854 40.3055C118.64 40.3838 118.384 40.423 118.086 40.423L118.084 40.4269ZM118.084 40.1929C118.464 40.1929 118.755 40.1243 118.956 39.9882C119.157 39.852 119.257 39.6709 119.257 39.4466C119.257 39.2713 119.199 39.1381 119.083 39.048C118.967 38.9579 118.822 38.8942 118.647 38.858C118.472 38.8217 118.295 38.7973 118.118 38.7845C117.941 38.7728 117.791 38.7591 117.666 38.7444C117.461 38.7982 117.274 38.8795 117.107 38.9892C116.94 39.0989 116.856 39.2566 116.856 39.4613C116.856 39.666 116.962 39.8511 117.177 39.9882C117.39 40.1243 117.692 40.1929 118.084 40.1929ZM118.045 37.6837C118.349 37.6837 118.586 37.5926 118.759 37.4095C118.932 37.2263 119.018 36.9991 119.018 36.7259V36.3968C119.018 36.1285 118.931 35.9042 118.759 35.724C118.586 35.5438 118.346 35.4537 118.037 35.4537C117.728 35.4537 117.489 35.5438 117.319 35.724C117.149 35.9042 117.064 36.1285 117.064 36.3968V36.719C117.064 36.9923 117.151 37.2214 117.323 37.4065C117.496 37.5916 117.736 37.6847 118.045 37.6847V37.6837Z" fill="white"/>
<path d="M47.9155 37.9836V32.9144H49.5012C49.9042 32.9144 50.2216 32.988 50.4533 33.1352C50.685 33.2801 50.8491 33.4672 50.9456 33.6965C51.0446 33.9234 51.0941 34.16 51.0941 34.4062C51.0941 34.5751 51.0651 34.7477 51.0072 34.924C50.9517 35.0978 50.8612 35.2583 50.7357 35.4055C50.6102 35.5504 50.4461 35.6674 50.2433 35.7568C50.0406 35.8461 49.7932 35.8907 49.5012 35.8907H48.1762V37.9836H47.9155ZM48.1762 35.63H49.5012C49.8342 35.63 50.0973 35.5673 50.2904 35.4417C50.4859 35.3138 50.6247 35.1557 50.7067 34.9674C50.7912 34.7791 50.8334 34.592 50.8334 34.4062C50.8334 34.2034 50.7936 34.0079 50.7139 33.8196C50.6367 33.6313 50.5016 33.4768 50.3085 33.3561C50.1154 33.2354 49.8463 33.1751 49.5012 33.1751H48.1762V35.63Z" fill="white"/>
<path d="M53.175 38.0705C52.7237 38.0705 52.3665 37.8979 52.1034 37.5527C51.8428 37.2051 51.7124 36.7332 51.7124 36.1369C51.7124 35.7411 51.7716 35.3983 51.8898 35.1086C52.0105 34.8165 52.1795 34.592 52.3967 34.4351C52.6163 34.2758 52.8757 34.1962 53.175 34.1962C53.4767 34.1962 53.7361 34.2746 53.9534 34.4315C54.173 34.586 54.3419 34.8081 54.4602 35.0978C54.5784 35.3874 54.6376 35.7314 54.6376 36.1297C54.6376 36.5256 54.5772 36.8696 54.4566 37.1616C54.3383 37.4513 54.1694 37.6758 53.9497 37.8351C53.7325 37.992 53.4743 38.0705 53.175 38.0705ZM53.175 37.8098C53.5491 37.8098 53.8387 37.6625 54.0439 37.368C54.2514 37.0735 54.3552 36.6608 54.3552 36.1297C54.3552 35.5938 54.2526 35.181 54.0475 34.8914C53.8423 34.6017 53.5515 34.4569 53.175 34.4569C52.7913 34.4569 52.498 34.6017 52.2953 34.8914C52.095 35.1786 51.9948 35.5938 51.9948 36.1369C51.9948 36.6728 52.0974 37.0856 52.3025 37.3753C52.5077 37.6649 52.7985 37.8098 53.175 37.8098Z" fill="white"/>
<path d="M56.3845 37.9836L55.4432 34.2831H55.7039L56.4135 37.1363C56.4279 37.1942 56.4424 37.2546 56.4569 37.3173C56.4714 37.3777 56.4859 37.4405 56.5003 37.5056C56.5197 37.4405 56.5378 37.3777 56.5546 37.3173C56.574 37.2546 56.5921 37.1942 56.609 37.1363L57.4923 34.2831H57.6805L58.5639 37.1363C58.5832 37.1942 58.6013 37.2546 58.6182 37.3173C58.6375 37.3777 58.6556 37.4405 58.6725 37.5056C58.6869 37.4405 58.7014 37.3777 58.7159 37.3173C58.7304 37.2546 58.7449 37.1942 58.7594 37.1363L59.4689 34.2831H59.7296L58.7883 37.9836H58.6001L57.7385 35.2607C57.7143 35.181 57.689 35.1002 57.6624 35.0181C57.6383 34.9336 57.613 34.8479 57.5864 34.761C57.5623 34.8479 57.5369 34.9336 57.5104 35.0181C57.4862 35.1002 57.4609 35.181 57.4344 35.2607L56.5727 37.9836H56.3845Z" fill="white"/>
<path d="M62.021 38.0705C61.7072 38.0705 61.4393 37.992 61.2173 37.8351C60.9977 37.6782 60.8287 37.4549 60.7105 37.1653C60.5946 36.8732 60.5367 36.528 60.5367 36.1297C60.5367 35.7193 60.6007 35.3705 60.7286 35.0833C60.8565 34.7936 61.0315 34.5739 61.2535 34.4243C61.478 34.2722 61.7338 34.1962 62.021 34.1962C62.2841 34.1962 62.5158 34.2638 62.7161 34.3989C62.9188 34.5341 63.0769 34.7441 63.1903 35.029C63.3038 35.3138 63.3605 35.6807 63.3605 36.1297C63.3605 36.1442 63.3605 36.1575 63.3605 36.1695C63.3605 36.1816 63.3605 36.1949 63.3605 36.2094H60.8191C60.8336 36.5232 60.8818 36.8008 60.9639 37.0422C61.0459 37.2811 61.1739 37.4694 61.3476 37.607C61.5214 37.7422 61.7531 37.8098 62.0427 37.8098C62.1851 37.8098 62.3323 37.7856 62.4844 37.7374C62.6364 37.6867 62.7788 37.607 62.9116 37.4984L63.0636 37.6867C62.9333 37.7977 62.7764 37.8894 62.593 37.9619C62.412 38.0343 62.2213 38.0705 62.021 38.0705ZM60.8191 35.9704H63.0853C63.0853 35.7 63.0491 35.449 62.9767 35.2172C62.9067 34.9831 62.7933 34.7948 62.6364 34.6524C62.4796 34.5076 62.2744 34.4351 62.021 34.4351C61.6928 34.4351 61.4176 34.557 61.1956 34.8008C60.9735 35.0446 60.848 35.4345 60.8191 35.9704Z" fill="white"/>
<path d="M64.5871 37.9836V34.2831H64.8478V35.0724C64.9539 34.7972 65.1012 34.5824 65.2894 34.4279C65.4801 34.2734 65.6949 34.1962 65.9338 34.1962C66.1534 34.1962 66.3176 34.2469 66.4262 34.3482L66.3827 34.6089C66.3224 34.5679 66.2488 34.5377 66.1619 34.5184C66.0774 34.4967 65.9893 34.4858 65.8976 34.4858C65.6925 34.4858 65.5103 34.5474 65.351 34.6705C65.1941 34.7936 65.071 34.965 64.9817 35.1847C64.8924 35.4019 64.8478 35.6517 64.8478 35.9342V37.9836H64.5871Z" fill="white"/>
<path d="M68.3988 38.0705C68.085 38.0705 67.8171 37.992 67.5951 37.8351C67.3755 37.6782 67.2065 37.4549 67.0883 37.1653C66.9724 36.8732 66.9145 36.528 66.9145 36.1297C66.9145 35.7193 66.9785 35.3705 67.1064 35.0833C67.2343 34.7936 67.4093 34.5739 67.6313 34.4243C67.8558 34.2722 68.1116 34.1962 68.3988 34.1962C68.6619 34.1962 68.8935 34.2638 69.0939 34.3989C69.2966 34.5341 69.4547 34.7441 69.5681 35.029C69.6815 35.3138 69.7383 35.6807 69.7383 36.1297C69.7383 36.1442 69.7383 36.1575 69.7383 36.1695C69.7383 36.1816 69.7383 36.1949 69.7383 36.2094H67.1969C67.2114 36.5232 67.2596 36.8008 67.3417 37.0422C67.4237 37.2811 67.5517 37.4694 67.7254 37.607C67.8992 37.7422 68.1309 37.8098 68.4205 37.8098C68.5629 37.8098 68.7101 37.7856 68.8622 37.7374C69.0142 37.6867 69.1566 37.607 69.2894 37.4984L69.4414 37.6867C69.3111 37.7977 69.1542 37.8894 68.9708 37.9619C68.7898 38.0343 68.5991 38.0705 68.3988 38.0705ZM67.1969 35.9704H69.4631C69.4631 35.7 69.4269 35.449 69.3545 35.2172C69.2845 34.9831 69.1711 34.7948 69.0142 34.6524C68.8573 34.5076 68.6522 34.4351 68.3988 34.4351C68.0706 34.4351 67.7954 34.557 67.5734 34.8008C67.3513 35.0446 67.2258 35.4345 67.1969 35.9704Z" fill="white"/>
<path d="M72.0666 38.0705C71.637 38.0705 71.2955 37.8955 71.0421 37.5455C70.7887 37.1954 70.662 36.7235 70.662 36.1297C70.662 35.7218 70.7187 35.3741 70.8321 35.0869C70.948 34.7972 71.1145 34.5764 71.3317 34.4243C71.5513 34.2722 71.8156 34.1962 72.1245 34.1962C72.5541 34.1962 72.9041 34.4062 73.1744 34.8262V32.8854L73.4351 32.7551V37.9836H73.1744V37.4549C72.8896 37.8653 72.5204 38.0705 72.0666 38.0705ZM72.1245 37.8098C72.32 37.8098 72.5143 37.7398 72.7074 37.5998C72.9029 37.4598 73.0586 37.2763 73.1744 37.0494V35.2028C73.0368 34.971 72.8739 34.7888 72.6857 34.656C72.4998 34.5232 72.3128 34.4569 72.1245 34.4569C71.748 34.4569 71.4572 34.6017 71.2521 34.8914C71.0469 35.181 70.9444 35.5938 70.9444 36.1297C70.9444 36.4556 70.995 36.7452 71.0964 36.9987C71.1978 37.2498 71.3365 37.4477 71.5127 37.5925C71.6913 37.7374 71.8953 37.8098 72.1245 37.8098Z" fill="white"/>
<path d="M77.9273 38.0705C77.6811 38.0705 77.4651 38.021 77.2793 37.922C77.0958 37.8231 76.9281 37.6674 76.7761 37.4549V37.9836H76.5154V32.8854L76.7761 32.7551V34.8262C76.8967 34.6307 77.0548 34.4774 77.2503 34.3663C77.4458 34.2529 77.657 34.1962 77.8838 34.1962C78.1735 34.1962 78.4233 34.2746 78.6332 34.4315C78.8432 34.586 79.0049 34.8081 79.1183 35.0978C79.2318 35.3874 79.2885 35.7314 79.2885 36.1297C79.2885 36.7452 79.169 37.2232 78.9301 37.5636C78.6936 37.9015 78.3593 38.0705 77.9273 38.0705ZM77.9056 37.8098C78.2531 37.8098 78.5234 37.6625 78.7165 37.368C78.9096 37.0711 79.0061 36.6583 79.0061 36.1297C79.0061 35.5866 78.9096 35.1726 78.7165 34.8877C78.5234 34.6005 78.2435 34.4569 77.8766 34.4569C77.6715 34.4569 77.4651 34.5281 77.2575 34.6705C77.05 34.8129 76.8895 34.9928 76.7761 35.21V37.0494C76.8991 37.2835 77.0609 37.4694 77.2612 37.607C77.4639 37.7422 77.6787 37.8098 77.9056 37.8098Z" fill="white"/>
<path d="M80.803 39.3885L81.3533 37.8967L80.0211 34.2831H80.2817L81.3533 37.2015C81.375 37.2618 81.3967 37.3234 81.4185 37.3861C81.4402 37.4465 81.4619 37.508 81.4836 37.5708C81.5054 37.508 81.5271 37.4465 81.5488 37.3861C81.5705 37.3234 81.5922 37.2618 81.614 37.2015L82.6855 34.2831H82.9462L81.0637 39.3885H80.803Z" fill="white"/>
<path d="M7.47243 21.3632H0L3.30811 1.32113H10.5568C12.5805 1.32113 14.267 1.73541 15.6162 2.56397C16.9719 3.38601 17.9286 4.56687 18.4865 6.10656C19.0508 7.63972 19.1578 9.46647 18.8076 11.5868C18.4703 13.6354 17.7924 15.3904 16.7741 16.8518C15.7622 18.3132 14.4649 19.432 12.8822 20.2084C11.2995 20.9783 9.49622 21.3632 7.47243 21.3632ZM5.48757 17.2334H7.77405C8.88973 17.2334 9.87568 17.0312 10.7319 16.6267C11.5946 16.2157 12.3081 15.56 12.8724 14.6597C13.4368 13.7528 13.8389 12.5622 14.0789 11.0877C14.3124 9.6785 14.3027 8.56615 14.0497 7.75063C13.8032 6.9286 13.3232 6.34143 12.6097 5.98913C11.9027 5.6303 10.9784 5.45089 9.83676 5.45089H7.44324L5.48757 17.2334Z" fill="white"/>
<path d="M20.0141 21.3632L22.5049 6.33164H27.1265L26.6692 9.07176H26.8249C27.2595 8.0801 27.827 7.34288 28.5276 6.86009C29.2281 6.37079 29.987 6.12613 30.8043 6.12613C31.0249 6.12613 31.2454 6.14244 31.4659 6.17506C31.693 6.20116 31.907 6.2403 32.1081 6.2925L31.4076 10.4614C31.187 10.3766 30.8984 10.3146 30.5416 10.2755C30.1849 10.2298 29.8605 10.207 29.5686 10.207C29.0043 10.207 28.4789 10.3342 27.9924 10.5886C27.5124 10.8365 27.1038 11.1856 26.7665 11.6357C26.4357 12.0794 26.2184 12.6013 26.1146 13.2015L24.7719 21.3632H20.0141Z" fill="white"/>
<path d="M31.5462 21.3632L34.037 6.33164H38.7949L36.3041 21.3632H31.5462ZM36.7516 4.57013C36.077 4.57013 35.5289 4.34505 35.1073 3.89489C34.6857 3.44473 34.5203 2.90649 34.6111 2.28017C34.7019 1.64734 35.0197 1.1091 35.5646 0.665457C36.1095 0.221819 36.7159 0 37.3841 0C38.0586 0 38.6003 0.221819 39.0089 0.665457C39.4241 1.1091 39.5862 1.64734 39.4954 2.28017C39.4176 2.90649 39.1062 3.44473 38.5614 3.89489C38.023 4.34505 37.4197 4.57013 36.7516 4.57013Z" fill="white"/>
<path d="M56.3205 6.33164L48.7022 21.3632H43.2535L40.6265 6.33164H45.4622L46.513 16.6854H46.6686L51.1346 6.33164H56.3205Z" fill="white"/>
<path d="M62.1195 21.647C60.5562 21.647 59.2589 21.3371 58.2276 20.7173C57.2027 20.091 56.4827 19.2004 56.0676 18.0457C55.6524 16.8844 55.5778 15.5045 55.8438 13.9061C56.1032 12.3534 56.6319 10.9964 57.4297 9.83508C58.2341 8.66727 59.2459 7.76042 60.4654 7.11453C61.6849 6.46212 63.0438 6.13592 64.5422 6.13592C65.6059 6.13592 66.5497 6.30228 67.3735 6.63501C68.1973 6.96774 68.8784 7.46357 69.4168 8.12251C69.9551 8.77492 70.3216 9.57738 70.5162 10.5299C70.7108 11.4824 70.7043 12.5752 70.4968 13.8083L70.3119 15.0022H57.3324L57.7703 12.2229H66.3324C66.4103 11.714 66.3681 11.2606 66.2059 10.8626C66.0438 10.4647 65.7811 10.1548 65.4178 9.93295C65.0611 9.7046 64.6232 9.59043 64.1043 9.59043C63.5789 9.59043 63.0859 9.71439 62.6254 9.9623C62.1714 10.2037 61.7854 10.5299 61.4676 10.9409C61.1497 11.3519 60.9422 11.8151 60.8449 12.3306L60.3292 15.1783C60.2254 15.8112 60.2546 16.3527 60.4168 16.8028C60.5789 17.253 60.8578 17.5988 61.2535 17.8402C61.6492 18.075 62.1584 18.1925 62.7811 18.1925C63.1962 18.1925 63.5854 18.137 63.9486 18.0261C64.3119 17.9087 64.6362 17.7358 64.9216 17.5074C65.2135 17.2726 65.4503 16.9888 65.6319 16.656L69.9714 16.7833C69.6211 17.7684 69.0795 18.6263 68.3465 19.357C67.6135 20.0812 66.7184 20.6455 65.6611 21.05C64.6103 21.448 63.4297 21.647 62.1195 21.647Z" fill="white"/>
<path d="M71.6814 21.3632L74.9895 1.32113H83.2208C84.7127 1.32113 85.9549 1.61145 86.9473 2.1921C87.9397 2.77274 88.6435 3.58499 89.0586 4.62885C89.4738 5.67271 89.5678 6.88293 89.3408 8.25951C89.1203 9.64915 88.6241 10.8594 87.8522 11.8902C87.0868 12.921 86.1008 13.7202 84.8943 14.2878C83.6878 14.8554 82.3159 15.1392 80.7786 15.1392H75.7095L76.3419 11.3226H80.5257C81.2587 11.3226 81.8911 11.1954 82.423 10.9409C82.9613 10.6865 83.3927 10.3309 83.717 9.87423C84.0414 9.41754 84.2554 8.8793 84.3592 8.25951C84.4565 7.63972 84.4176 7.10475 84.2424 6.65458C84.0673 6.1979 83.7527 5.8456 83.2986 5.59768C82.8511 5.34976 82.2673 5.22581 81.5473 5.22581H79.1732L76.4976 21.3632H71.6814Z" fill="#00FFF0"/>
<path d="M93.167 21.6176C92.22 21.6176 91.4027 21.4578 90.7151 21.1381C90.0341 20.8119 89.5346 20.3193 89.2168 19.6604C88.9054 19.0014 88.8308 18.1794 88.993 17.1943C89.1357 16.3592 89.3984 15.6578 89.7811 15.0902C90.1703 14.5161 90.647 14.0497 91.2114 13.6908C91.7822 13.332 92.4178 13.058 93.1184 12.8688C93.8189 12.6796 94.5519 12.5524 95.3173 12.4871C96.1735 12.4088 96.8676 12.324 97.3995 12.2327C97.9378 12.1414 98.34 12.0141 98.6059 11.851C98.8719 11.6814 99.034 11.4465 99.0924 11.1464V11.0975C99.1703 10.5951 99.0632 10.207 98.7713 9.93295C98.4795 9.65893 98.0416 9.52193 97.4578 9.52193C96.8351 9.52193 96.3032 9.65893 95.8622 9.93295C95.4211 10.207 95.113 10.5854 94.9378 11.0681L90.5789 10.9116C90.8513 9.99819 91.3184 9.18267 91.98 8.46502C92.6416 7.74085 93.4816 7.17325 94.5 6.76223C95.5249 6.34469 96.7086 6.13592 98.0514 6.13592C98.9984 6.13592 99.8546 6.25009 100.62 6.47843C101.385 6.70025 102.031 7.02646 102.556 7.45705C103.088 7.88112 103.468 8.40304 103.695 9.02283C103.922 9.64262 103.97 10.3505 103.841 11.1464L102.138 21.3632H97.6622L98.0124 19.2689H97.8957C97.5454 19.7778 97.1335 20.2084 96.66 20.5607C96.193 20.913 95.6676 21.1772 95.0838 21.3534C94.5 21.5295 93.8611 21.6176 93.167 21.6176ZM95.1714 18.486C95.6708 18.486 96.1443 18.3817 96.5919 18.1729C97.0395 17.9641 97.4157 17.6771 97.7205 17.3117C98.0319 16.9398 98.2297 16.5092 98.3141 16.0199L98.5378 14.5912C98.4016 14.6629 98.2297 14.7282 98.0222 14.7869C97.8146 14.8456 97.5941 14.901 97.3605 14.9532C97.127 14.9989 96.887 15.0446 96.6405 15.0902C96.4005 15.1294 96.1703 15.1653 95.9497 15.1979C95.4827 15.2697 95.0773 15.3806 94.7335 15.5306C94.3897 15.6807 94.1141 15.8764 93.9065 16.1178C93.7054 16.3527 93.5822 16.6332 93.5368 16.9594C93.4589 17.4487 93.5724 17.8271 93.8773 18.0946C94.1822 18.3556 94.6135 18.486 95.1714 18.486Z" fill="#00FFF0"/>
<path d="M106.506 27C105.936 27 105.404 26.9543 104.911 26.863C104.424 26.7782 104.009 26.664 103.665 26.5205L105.3 23.0464C105.735 23.203 106.134 23.291 106.497 23.3106C106.866 23.3367 107.197 23.2747 107.489 23.1247C107.788 22.9811 108.047 22.7234 108.268 22.3516L108.54 21.8916L105.806 6.33164H110.612L111.585 17.0671H111.741L116.314 6.33164H121.5L113.162 22.8017C112.74 23.6238 112.231 24.3512 111.634 24.9841C111.037 25.6169 110.317 26.1095 109.474 26.4618C108.637 26.8206 107.648 27 106.506 27Z" fill="#00FFF0"/>
</svg>
