<svg width="24" height="24" viewBox="0 0 24 24" fill="none" xmlns="http://www.w3.org/2000/svg">
<circle cx="12" cy="12" r="9" stroke="white" stroke-width="2"/>
<path d="M15.8948 13.465C14.8648 14.49 13.3898 14.805 12.0948 14.4L9.73983 16.75C9.56983 16.925 9.23483 17.03 8.99483 16.995L7.90483 16.845C7.54483 16.795 7.20983 16.455 7.15483 16.095L7.00483 15.005C6.96983 14.765 7.08483 14.43 7.24983 14.26L9.59983 11.91C9.19983 10.61 9.50983 9.13497 10.5398 8.10997C12.0148 6.63497 14.4098 6.63497 15.8898 8.10997C17.3698 9.58497 17.3698 11.99 15.8948 13.465Z" stroke="white" stroke-miterlimit="10" stroke-linecap="round" stroke-linejoin="round"/>
<path d="M9.44482 14.745L10.5948 15.895" stroke="white" stroke-miterlimit="10" stroke-linecap="round" stroke-linejoin="round"/>
<path d="M13.25 11.5C13.6642 11.5 14 11.1642 14 10.75C14 10.3358 13.6642 10 13.25 10C12.8358 10 12.5 10.3358 12.5 10.75C12.5 11.1642 12.8358 11.5 13.25 11.5Z" stroke="white" stroke-linecap="round" stroke-linejoin="round"/>
</svg>
