<svg width="123" height="16" viewBox="0 0 123 16" fill="none" xmlns="http://www.w3.org/2000/svg">
<path d="M0.350182 13.3708H0.67709L0.373785 14.651C0.328939 14.8403 0.3372 14.9844 0.399749 15.0797C0.462298 15.1749 0.577956 15.2226 0.74672 15.2226C0.915485 15.2226 1.05239 15.1749 1.15978 15.0797C1.26718 14.9844 1.34389 14.8415 1.38873 14.651L1.69204 13.3708H2.02367L1.7121 14.6831C1.64483 14.9677 1.52445 15.1821 1.35097 15.3226C1.17866 15.4643 0.952071 15.5346 0.672369 15.5346C0.392668 15.5346 0.2003 15.4643 0.0952645 15.3226C-0.00977099 15.1821 -0.0274736 14.9677 0.0397963 14.6819L0.351362 13.3696L0.350182 13.3708Z" fill="white"/>
<path d="M1.97725 15.4798L2.49771 13.2875L3.48552 14.576C3.51148 14.6117 3.53862 14.651 3.56459 14.6927C3.59055 14.7343 3.6177 14.7808 3.64484 14.832L3.99181 13.3708H4.29748L3.7782 15.5608L2.76915 14.2485C2.74201 14.2128 2.71722 14.1758 2.69362 14.1365C2.67002 14.0972 2.64877 14.0556 2.62871 14.0127L2.28056 15.4786H1.97607L1.97725 15.4798Z" fill="white"/>
<path d="M4.27197 15.4796L4.77237 13.3718H5.10282L4.60242 15.4796H4.27197Z" fill="white"/>
<path d="M5.0791 15.4796L5.5795 13.3718H6.716L6.64755 13.6624H5.84149L5.7164 14.1876H6.52245L6.45164 14.4888H5.64558L5.41073 15.4796H5.08028H5.0791Z" fill="white"/>
<path d="M6.58008 15.4796L7.08047 13.3718H7.41092L6.91053 15.4796H6.58008Z" fill="white"/>
<path d="M7.38721 15.4796L7.8876 13.3718H9.02411L8.95566 13.6624H8.1496L8.0245 14.1911H8.83056L8.75975 14.4924H7.95369L7.79201 15.1736H8.59807L8.52489 15.4808H7.38839L7.38721 15.4796Z" fill="white"/>
<path d="M8.90283 15.4796L9.40323 13.3718H9.84933C10.1397 13.3718 10.3403 13.3873 10.4512 13.4171C10.5622 13.4468 10.6542 13.4981 10.7262 13.5695C10.8218 13.6624 10.8832 13.7827 10.9091 13.9279C10.9351 14.0744 10.9257 14.2399 10.882 14.4281C10.8371 14.6151 10.7675 14.7806 10.6731 14.9259C10.5787 15.07 10.4607 15.189 10.3202 15.2831C10.214 15.3546 10.1007 15.4046 9.98033 15.4356C9.85995 15.4653 9.67939 15.4808 9.43863 15.4808H8.90283V15.4796ZM9.30763 15.17H9.58615C9.73958 15.17 9.85641 15.1593 9.93784 15.1378C10.0193 15.1164 10.0936 15.0807 10.1633 15.0307C10.2565 14.9628 10.3344 14.8782 10.3969 14.777C10.4595 14.6758 10.5067 14.5579 10.5386 14.4233C10.5704 14.2888 10.5787 14.1709 10.5645 14.0697C10.5504 13.9684 10.5126 13.8839 10.4512 13.8148C10.4052 13.7648 10.345 13.7291 10.2695 13.7076C10.1939 13.6862 10.0712 13.6755 9.90126 13.6755H9.66168L9.30763 15.1676V15.17Z" fill="white"/>
<path d="M12.4067 14.5329L12.1825 15.4796H11.8721L12.3725 13.3718H12.8729C13.0216 13.3718 13.129 13.3802 13.195 13.3968C13.2611 13.4135 13.3154 13.4409 13.3579 13.4802C13.4098 13.529 13.4441 13.5957 13.4606 13.6779C13.4771 13.7612 13.4736 13.8529 13.45 13.9518C13.4264 14.0518 13.3862 14.1435 13.3296 14.228C13.2729 14.3126 13.208 14.3793 13.1325 14.4269C13.0711 14.465 13.0039 14.4924 12.9307 14.5091C12.8563 14.5257 12.7454 14.5341 12.5979 14.5341H12.4067V14.5329ZM12.494 14.2519H12.579C12.7631 14.2519 12.8894 14.2316 12.9614 14.1899C13.0322 14.1483 13.0806 14.0756 13.1054 13.9708C13.1325 13.8589 13.1183 13.7791 13.064 13.7338C13.0098 13.6874 12.8953 13.6648 12.7194 13.6648H12.6345L12.4952 14.253L12.494 14.2519Z" fill="white"/>
<path d="M14.5783 15.4798L14.4756 14.9368H13.6684L13.3037 15.4798H12.9556L14.4615 13.2875L14.9265 15.4798H14.5771H14.5783ZM13.8596 14.651H14.4272L14.3328 14.1699C14.3281 14.1389 14.3246 14.1044 14.321 14.0639C14.3175 14.0246 14.3151 13.9794 14.3139 13.9305C14.2915 13.977 14.2703 14.0198 14.2479 14.0591C14.2254 14.0984 14.2042 14.1354 14.1829 14.1687L13.8608 14.6498L13.8596 14.651Z" fill="white"/>
<path d="M15.4016 15.4796L15.6306 14.515L15.2163 13.3718H15.5645L15.8217 14.0875C15.8276 14.1054 15.8347 14.1304 15.843 14.1602C15.8512 14.1899 15.8595 14.2221 15.8666 14.2566C15.8878 14.2233 15.9091 14.1911 15.9303 14.1614C15.9516 14.1316 15.9728 14.1042 15.9952 14.0792L16.6007 13.3718H16.9323L15.9598 14.515L15.7309 15.4796H15.4028H15.4016Z" fill="white"/>
<path d="M18.5601 14.4378C18.5601 14.4211 18.5648 14.3758 18.5743 14.302C18.5813 14.2401 18.5872 14.1901 18.5908 14.1496C18.5707 14.1972 18.5483 14.246 18.5212 14.2937C18.494 14.3413 18.4633 14.3901 18.4291 14.4402L17.6301 15.5631L17.3693 14.4163C17.3587 14.3687 17.3492 14.3234 17.3445 14.2794C17.3386 14.2353 17.3351 14.1913 17.3327 14.1484C17.3209 14.1925 17.3068 14.2389 17.2891 14.2877C17.2713 14.3365 17.2501 14.3866 17.2265 14.4402L16.7615 15.4786H16.457L17.4602 13.2815L17.7458 14.6116C17.7505 14.6331 17.7564 14.6676 17.7635 14.7164C17.7706 14.7653 17.7788 14.826 17.7894 14.8974C17.8237 14.8367 17.8721 14.7605 17.9358 14.6664C17.9523 14.6414 17.9653 14.6223 17.9747 14.6093L18.8776 13.2803L18.8492 15.4774H18.5412L18.5625 14.4366L18.5601 14.4378Z" fill="white"/>
<path d="M19.1099 15.4796L19.6103 13.3718H20.7468L20.6783 13.6624H19.8723L19.7472 14.1911H20.5532L20.4824 14.4924H19.6763L19.5147 15.1736H20.3207L20.2476 15.4808H19.111L19.1099 15.4796Z" fill="white"/>
<path d="M20.6267 15.4798L21.1471 13.2875L22.1349 14.576C22.1609 14.6117 22.188 14.651 22.214 14.6927C22.24 14.7343 22.2671 14.7808 22.2943 14.832L22.6412 13.3708H22.9469L22.4276 15.5608L21.4186 14.2485C21.3914 14.2128 21.3666 14.1758 21.343 14.1365C21.3194 14.0972 21.2982 14.0556 21.2781 14.0127L20.93 15.4786H20.6255L20.6267 15.4798Z" fill="white"/>
<path d="M24.0043 13.6624L23.5735 15.4796H23.2431L23.6738 13.6624H23.1333L23.2018 13.3718H24.6121L24.5436 13.6624H24.0054H24.0043Z" fill="white"/>
<path d="M24.3482 15.0571L24.6421 14.9309C24.6445 15.025 24.674 15.0964 24.7282 15.1464C24.7837 15.1965 24.8628 15.2203 24.9666 15.2203C25.0646 15.2203 25.1496 15.1917 25.2216 15.1357C25.2924 15.0798 25.3396 15.0035 25.362 14.9083C25.3915 14.7844 25.3183 14.6737 25.1425 14.5772C25.1177 14.5629 25.0988 14.5522 25.0858 14.5451C24.8888 14.4319 24.7625 14.3295 24.7105 14.2378C24.6574 14.1461 24.6468 14.0342 24.6787 13.902C24.72 13.7305 24.8085 13.5912 24.9466 13.484C25.0847 13.3769 25.2452 13.3245 25.4281 13.3245C25.578 13.3245 25.6972 13.3542 25.7833 13.415C25.8707 13.4745 25.9202 13.5614 25.932 13.6734L25.6405 13.8115C25.6157 13.7448 25.5815 13.6972 25.5402 13.6662C25.4989 13.6353 25.447 13.6198 25.3832 13.6198C25.2947 13.6198 25.218 13.6436 25.1543 13.6912C25.0906 13.7389 25.0493 13.8032 25.0304 13.8842C25.0009 14.0116 25.087 14.1295 25.2912 14.239C25.3065 14.2474 25.3195 14.2545 25.3278 14.2593C25.506 14.3545 25.6228 14.4486 25.6759 14.5403C25.729 14.632 25.7397 14.7463 25.7078 14.8833C25.6606 15.0833 25.5626 15.2417 25.4127 15.3596C25.2629 15.4775 25.0847 15.5359 24.8781 15.5359C24.7046 15.5359 24.5725 15.4942 24.4816 15.412C24.3907 15.3298 24.3459 15.2119 24.3482 15.0583V15.0571Z" fill="white"/>
<path d="M26.7944 15.4796L27.2948 13.3718H27.6253L27.1249 15.4796H26.7944Z" fill="white"/>
<path d="M27.6003 15.4798L28.1208 13.2875L29.1086 14.576C29.1345 14.6117 29.1617 14.651 29.1876 14.6927C29.2136 14.7343 29.2407 14.7808 29.2679 14.832L29.6149 13.3708H29.9205L29.4012 15.5608L28.3922 14.2485C28.3651 14.2128 28.3403 14.1758 28.3167 14.1365C28.2931 14.0972 28.2718 14.0556 28.2518 14.0127L27.9036 15.4786H27.5991L27.6003 15.4798Z" fill="white"/>
<path d="M30.9784 13.6624L30.5476 15.4796H30.2172L30.6479 13.6624H30.1074L30.1759 13.3718H31.5862L31.5177 13.6624H30.9796H30.9784Z" fill="white"/>
<path d="M31.3389 15.4796L31.8393 13.3718H32.9758L32.9073 13.6624H32.1013L31.9762 14.1911H32.7822L32.7114 14.4924H31.9053L31.7437 15.1736H32.5497L32.4766 15.4808H31.34L31.3389 15.4796Z" fill="white"/>
<path d="M33.3891 14.5365L33.1649 15.4796H32.8545L33.3549 13.3718H33.8163C33.9521 13.3718 34.0547 13.3814 34.1244 13.3992C34.1952 13.4171 34.2518 13.448 34.2943 13.4897C34.3451 13.5409 34.3781 13.6064 34.3934 13.6874C34.4088 13.7684 34.4052 13.8565 34.3816 13.9518C34.3415 14.1209 34.2707 14.253 34.1692 14.3483C34.0677 14.4436 33.9379 14.5007 33.7797 14.5198L34.253 15.4784H33.8789L33.4257 14.5353H33.3879L33.3891 14.5365ZM33.4729 14.2697H33.5331C33.7078 14.2697 33.8293 14.2483 33.8978 14.2066C33.965 14.1649 34.0122 14.0899 34.037 13.9815C34.0642 13.866 34.0535 13.7839 34.0028 13.7362C33.9521 13.6886 33.8435 13.6648 33.6771 13.6648H33.6169L33.4729 14.2697Z" fill="white"/>
<path d="M34.4512 15.4796L34.9516 13.3718H36.0881L36.0196 13.6624H35.2136L35.0885 14.1876H35.8945L35.8237 14.4888H35.0177L34.7828 15.4796H34.4524H34.4512Z" fill="white"/>
<path d="M37.1901 15.4798L37.0874 14.9368H36.2802L35.9155 15.4798H35.5674L37.0733 13.2875L37.5383 15.4798H37.1889H37.1901ZM36.4714 14.651H37.0391L36.9446 14.1699C36.9399 14.1389 36.9364 14.1044 36.9317 14.0639C36.9281 14.0246 36.9258 13.9794 36.9246 13.9305C36.9022 13.977 36.8809 14.0198 36.8585 14.0591C36.8361 14.0984 36.8148 14.1354 36.7936 14.1687L36.4714 14.6498V14.651Z" fill="white"/>
<path d="M39.6954 13.8839C39.6211 13.8018 39.5373 13.7399 39.4429 13.6982C39.3484 13.6565 39.2434 13.6363 39.1289 13.6363C38.9059 13.6363 38.7076 13.7101 38.5329 13.8577C38.3583 14.0054 38.2426 14.1971 38.1872 14.4329C38.1329 14.6604 38.1565 14.8485 38.258 14.9962C38.3583 15.1439 38.5129 15.2177 38.7194 15.2177C38.8398 15.2177 38.9602 15.1951 39.0794 15.151C39.1986 15.1069 39.3189 15.0403 39.4405 14.9509L39.3484 15.338C39.2434 15.4046 39.1348 15.4535 39.0227 15.4868C38.9106 15.519 38.7926 15.5356 38.6698 15.5356C38.5141 15.5356 38.376 15.5094 38.2568 15.4559C38.1376 15.4035 38.0396 15.3261 37.9641 15.2224C37.8886 15.1212 37.8402 15.0033 37.8201 14.8664C37.7989 14.7294 37.8071 14.5842 37.8437 14.4294C37.8803 14.2745 37.9417 14.1293 38.0267 13.9935C38.1116 13.8577 38.2178 13.7387 38.3429 13.6363C38.4692 13.5326 38.6038 13.4541 38.7466 13.4005C38.8894 13.3469 39.0381 13.3207 39.1903 13.3207C39.3095 13.3207 39.4193 13.3385 39.5196 13.3743C39.6199 13.41 39.7119 13.4648 39.7969 13.5374L39.6966 13.8828L39.6954 13.8839Z" fill="white"/>
<path d="M39.7266 15.4796L40.227 13.3718H41.3635L41.295 13.6624H40.489L40.3639 14.1911H41.1699L41.0991 14.4924H40.293L40.1314 15.1736H40.9374L40.8642 15.4808H39.7277L39.7266 15.4796Z" fill="white"/>
<path d="M33.6885 11.5345H31.4131L34.5783 0H36.8537L33.6885 11.5345Z" fill="white"/>
<path d="M32.507 0.364408C32.3489 0.145294 32.1058 0.0345459 31.7753 0.0345459H19.2608L18.6412 2.29357H20.9177L30.0251 2.29238L29.3631 4.70621H20.2557V4.70145H17.9803L16.0908 11.5833H18.3686L19.6361 6.96404H29.8741C30.1939 6.96404 30.4948 6.85448 30.7781 6.63418C31.0601 6.41387 31.2466 6.14236 31.3351 5.81726L32.6026 1.198C32.6947 0.862179 32.6628 0.584714 32.507 0.364408Z" fill="white"/>
<path d="M14.7659 10.814C14.6396 11.2701 14.2277 11.5869 13.758 11.5869H2.01644C1.69662 11.5869 1.45822 11.4773 1.30244 11.257C1.14666 11.0367 1.11243 10.7652 1.20212 10.4401L4.06759 0.0333252H6.34532L3.7867 9.32783H12.8988L15.4563 0.0333252H17.734L14.7659 10.814Z" fill="white"/>
<path d="M40.7847 0.0212402L43.6655 5.80277L37.6089 11.5831L40.7847 0.0212402Z" fill="#0F8041"/>
<path d="M38.7641 0.0213623L41.6437 5.80289L35.5835 11.5832L38.7641 0.0213623Z" fill="#E97726"/>
<path d="M121.469 5.24925V4.57219C121.469 4.56269 121.461 4.55478 121.451 4.55478H121.227C121.217 4.55478 121.209 4.54687 121.209 4.53738V4.40925C121.209 4.39976 121.217 4.39185 121.227 4.39185H121.901C121.91 4.39185 121.918 4.39976 121.918 4.40925V4.53738C121.918 4.54687 121.91 4.55478 121.901 4.55478H121.678C121.668 4.55478 121.66 4.56269 121.66 4.57219V5.24925C121.66 5.25874 121.652 5.26665 121.642 5.26665H121.488C121.479 5.26665 121.471 5.25874 121.471 5.24925" fill="white"/>
<path d="M122.814 5.24864V4.744C122.814 4.72502 122.786 4.71869 122.778 4.73767L122.562 5.26604H122.478L122.262 4.73767C122.255 4.71869 122.226 4.72502 122.226 4.744V5.24864C122.226 5.25813 122.218 5.26604 122.209 5.26604H122.056C122.047 5.26604 122.039 5.25813 122.039 5.24864V4.40705C122.039 4.39756 122.047 4.38965 122.056 4.38965H122.292C122.292 4.38965 122.307 4.39439 122.308 4.40072L122.502 4.87846C122.509 4.8927 122.53 4.8927 122.536 4.87846L122.73 4.40072C122.73 4.40072 122.74 4.38965 122.746 4.38965H122.982C122.992 4.38965 123 4.39756 123 4.40705V5.24864C123 5.25813 122.992 5.26604 122.982 5.26604H122.828C122.819 5.26604 122.81 5.25813 122.81 5.24864" fill="white"/>
<path d="M82.2976 7.79733C82.2976 12.1033 78.7564 15.5947 74.3889 15.5947C70.0213 15.5947 66.4785 12.1049 66.4785 7.79733C66.4785 3.48974 70.0197 0 74.3873 0C78.7548 0 82.296 3.49132 82.296 7.79733" fill="#25D800"/>
<path d="M76.2118 11.869C75.4223 11.869 74.9185 11.0891 74.8238 10.9325C74.5446 10.4658 74.2815 9.72865 74.0392 8.74311C74.0087 8.6213 73.8932 8.04231 73.8691 7.92683C73.6092 6.65496 73.3076 5.6884 73.0187 5.20433C72.908 5.01924 72.6802 4.79461 72.563 4.79461H72.5149C72.3962 4.79461 72.1683 5.01924 72.0576 5.20433C71.8779 5.5049 71.6886 6.00479 71.5105 6.65021L71.4014 7.04253H68.9304C68.6319 7.04253 68.3896 6.80366 68.3896 6.50942C68.3896 6.21518 68.6319 5.97631 68.9304 5.97631H70.5814C70.7547 5.41947 70.936 4.97969 71.1254 4.66331C71.2184 4.5067 71.7255 3.72681 72.5133 3.72681H72.5647C73.3541 3.72681 73.8579 4.5067 73.951 4.66331C74.3088 5.26444 74.6393 6.29111 74.9297 7.71802C74.9811 7.97745 75.0709 8.41406 75.0902 8.49158C75.3614 9.5926 75.602 10.1336 75.7561 10.3931C75.8668 10.5781 76.0946 10.8028 76.2118 10.8028H76.2599C76.3786 10.8028 76.6065 10.5781 76.7172 10.3931C76.8423 10.1827 77.0397 9.76187 77.2659 8.94559L77.3751 8.55327H79.846C80.1445 8.55327 80.3868 8.79214 80.3868 9.08638C80.3868 9.38062 80.1445 9.61949 79.846 9.61949H78.195C78.0217 10.1763 77.8404 10.6177 77.651 10.9325C77.558 11.0891 77.0541 11.869 76.2631 11.869H76.2134H76.2118Z" fill="white"/>
<path d="M87.6913 11.8692C87.6335 11.8692 87.5806 11.8518 87.5356 11.8154C87.4891 11.7806 87.4666 11.7268 87.4666 11.6556V3.65736H85.2471C85.1797 3.65736 85.1268 3.63521 85.085 3.5925C85.0433 3.54978 85.0225 3.50074 85.0225 3.44538C85.0225 3.39001 85.0433 3.34097 85.085 3.29826C85.1268 3.25555 85.1797 3.2334 85.2471 3.2334H90.1242C90.1996 3.2334 90.2558 3.25238 90.2927 3.29193C90.3296 3.33148 90.3489 3.37894 90.3489 3.4343C90.3489 3.48967 90.3328 3.54029 90.2991 3.58775C90.2654 3.63521 90.2077 3.65894 90.1242 3.65894H87.916V11.6572C87.916 11.7284 87.8935 11.7806 87.847 11.8169C87.8004 11.8518 87.7491 11.8707 87.6913 11.8707V11.8692Z" fill="white"/>
<path d="M92.1046 11.9404C91.713 11.9404 91.3503 11.8407 91.0133 11.6398C90.6763 11.4389 90.4067 11.1747 90.2029 10.8488C89.9991 10.5214 89.8979 10.1702 89.8979 9.7921V8.35096C89.8979 7.97288 89.9974 7.62327 90.1981 7.29898C90.397 6.97626 90.6651 6.71683 91.0021 6.51909C91.3391 6.32293 91.7066 6.22327 92.1062 6.22327C92.5058 6.22327 92.8733 6.31976 93.2103 6.51276C93.5473 6.70575 93.8169 6.96203 94.0207 7.28C94.2246 7.59796 94.3257 7.95548 94.3257 8.34938V9.79052C94.3257 10.1607 94.2246 10.5119 94.0207 10.8425C93.8169 11.1731 93.5473 11.4389 93.2103 11.6398C92.8733 11.8407 92.5058 11.9404 92.1062 11.9404H92.1046ZM92.1046 11.5275C92.4368 11.5275 92.7369 11.4452 93.0033 11.2791C93.2697 11.113 93.4831 10.8979 93.6452 10.6289C93.8073 10.3616 93.8891 10.0816 93.8891 9.79052V8.34938C93.8891 8.0583 93.8105 7.78305 93.6516 7.52203C93.4944 7.26259 93.2793 7.04903 93.0097 6.88451C92.7401 6.71841 92.4384 6.63615 92.1062 6.63615C91.774 6.63615 91.4739 6.71841 91.2075 6.88451C90.9411 7.05062 90.7292 7.26259 90.572 7.52203C90.4147 7.78147 90.3345 8.0583 90.3345 8.34938V9.79052C90.3345 10.0816 90.4131 10.3616 90.572 10.6289C90.7292 10.8963 90.9443 11.113 91.2139 11.2791C91.4835 11.4452 91.782 11.5275 92.1062 11.5275H92.1046Z" fill="white"/>
<path d="M96.0082 11.8692C95.9504 11.8692 95.9007 11.847 95.859 11.8043C95.8172 11.7616 95.7964 11.7126 95.7964 11.6572V6.49378C95.7964 6.4305 95.8172 6.38146 95.859 6.34666C95.9007 6.31185 95.9504 6.29287 96.0082 6.29287C96.074 6.29287 96.1286 6.31027 96.1703 6.34666C96.212 6.38146 96.2329 6.43208 96.2329 6.49378V7.12022C96.3741 6.89242 96.5844 6.68519 96.862 6.5001C97.1412 6.31502 97.4879 6.22327 97.9035 6.22327C98.3192 6.22327 98.6851 6.31976 99.0269 6.51276C99.3671 6.70575 99.6399 6.96203 99.8438 7.28C100.048 7.59955 100.149 7.95548 100.149 8.34938V11.6572C100.149 11.7284 100.126 11.7806 100.08 11.817C100.033 11.8518 99.9818 11.8708 99.924 11.8708C99.8742 11.8708 99.8261 11.8534 99.7812 11.817C99.7346 11.7822 99.7122 11.7284 99.7122 11.6572V8.34938C99.7122 8.0583 99.6319 7.78305 99.4682 7.52203C99.3061 7.26259 99.0927 7.04903 98.8263 6.88451C98.5599 6.71841 98.2646 6.63615 97.9404 6.63615C97.658 6.63615 97.3852 6.70575 97.1236 6.84338C96.862 6.98101 96.6469 7.17559 96.4816 7.4287C96.3147 7.68022 96.2329 7.9887 96.2329 8.35096V11.6588C96.2329 11.7141 96.212 11.7632 96.1703 11.8059C96.1286 11.8486 96.074 11.8708 96.0082 11.8708V11.8692Z" fill="white"/>
<path d="M104.1 11.9405C103.609 11.9405 103.175 11.8503 102.797 11.6684C102.418 11.488 102.121 11.2365 101.904 10.9185C101.688 10.599 101.58 10.2241 101.58 9.79063V8.31311C101.58 7.93503 101.681 7.58701 101.885 7.26746C102.089 6.94791 102.358 6.6948 102.695 6.50497C103.032 6.31514 103.4 6.2218 103.8 6.2218C104.199 6.2218 104.554 6.31514 104.891 6.49864C105.228 6.68373 105.497 6.93525 105.701 7.2548C105.905 7.57435 106.006 7.93819 106.006 8.34791C106.006 8.63108 105.956 8.83673 105.857 8.9617C105.757 9.08826 105.631 9.16419 105.477 9.19267C105.323 9.21956 105.154 9.23379 104.971 9.23379H102.015V9.78905C102.015 10.3253 102.214 10.7477 102.614 11.0593C103.013 11.371 103.515 11.526 104.122 11.526C104.472 11.526 104.737 11.4849 104.92 11.4026C105.103 11.3204 105.242 11.2397 105.337 11.1606C105.432 11.0815 105.518 11.0419 105.592 11.0419C105.634 11.0419 105.671 11.0546 105.704 11.0767C105.738 11.1005 105.765 11.1274 105.785 11.159C105.806 11.1906 105.815 11.2223 105.815 11.2539C105.815 11.3251 105.746 11.4153 105.61 11.526C105.472 11.6367 105.274 11.7332 105.018 11.8155C104.759 11.8978 104.453 11.9389 104.095 11.9389L104.1 11.9405ZM102.017 8.82091H104.823C105.132 8.82091 105.332 8.79402 105.428 8.73865C105.523 8.68328 105.571 8.56622 105.571 8.3843C105.571 8.10113 105.499 7.8243 105.353 7.55695C105.207 7.2896 105.002 7.06813 104.735 6.8957C104.469 6.72327 104.157 6.63627 103.8 6.63627C103.467 6.63627 103.166 6.71536 102.896 6.87197C102.626 7.03017 102.411 7.23424 102.254 7.48576C102.097 7.73729 102.017 8.01413 102.017 8.31311V8.82091Z" fill="white"/>
<path d="M107.842 11.8692C107.784 11.8692 107.731 11.8518 107.686 11.8154C107.639 11.7806 107.617 11.7268 107.617 11.6556V3.65736H105.398C105.33 3.65736 105.277 3.63521 105.235 3.5925C105.194 3.54978 105.173 3.50074 105.173 3.44538C105.173 3.39001 105.194 3.34097 105.235 3.29826C105.277 3.25555 105.33 3.2334 105.398 3.2334H110.275C110.35 3.2334 110.406 3.25238 110.443 3.29193C110.48 3.33148 110.499 3.37894 110.499 3.4343C110.499 3.48967 110.483 3.54029 110.45 3.58775C110.416 3.63521 110.358 3.65894 110.275 3.65894H108.066V11.6572C108.066 11.7284 108.044 11.7806 107.997 11.8169C107.951 11.8518 107.899 11.8707 107.842 11.8707V11.8692Z" fill="white"/>
<path d="M111.347 11.9405C110.865 11.9405 110.454 11.8123 110.117 11.5561C109.78 11.2998 109.612 10.9091 109.612 10.3807C109.612 9.96307 109.734 9.64193 109.979 9.4173C110.225 9.19266 110.565 9.03764 111.002 8.95063C111.438 8.86362 111.944 8.82091 112.517 8.82091H113.215V8.49029C113.215 8.1913 113.16 7.90023 113.053 7.61548C112.945 7.33232 112.77 7.09819 112.529 6.9131C112.289 6.72802 111.968 6.63627 111.57 6.63627C111.311 6.63627 111.096 6.66158 110.921 6.71378C110.746 6.7644 110.607 6.81819 110.504 6.87356C110.4 6.92892 110.323 6.95582 110.273 6.95582C110.206 6.95582 110.153 6.92576 110.111 6.86723C110.069 6.8087 110.048 6.75966 110.048 6.72011C110.048 6.64101 110.125 6.56508 110.279 6.48915C110.433 6.4148 110.629 6.35152 110.865 6.29932C111.103 6.24869 111.345 6.2218 111.595 6.2218C112.111 6.2218 112.518 6.32937 112.818 6.5461C113.118 6.76282 113.332 7.04282 113.46 7.38452C113.589 7.7278 113.653 8.09481 113.653 8.48871V11.6557C113.653 11.7111 113.634 11.7601 113.597 11.8028C113.56 11.8456 113.507 11.8677 113.441 11.8677C113.383 11.8677 113.33 11.8456 113.285 11.8028C113.239 11.7601 113.216 11.7111 113.216 11.6557V11.0419C113.008 11.2713 112.748 11.477 112.436 11.6621C112.125 11.8471 111.761 11.9389 111.345 11.9389L111.347 11.9405ZM111.334 11.5276C111.65 11.5276 111.952 11.4548 112.237 11.3093C112.525 11.1637 112.759 10.9882 112.942 10.7841C113.125 10.58 113.216 10.3949 113.216 10.2288V9.23696H112.531C112.107 9.23696 111.706 9.26069 111.327 9.30815C110.949 9.3556 110.642 9.46001 110.405 9.62137C110.167 9.78272 110.05 10.0374 110.05 10.3839C110.05 10.7778 110.175 11.0673 110.424 11.2523C110.673 11.4374 110.978 11.5292 111.334 11.5292V11.5276Z" fill="white"/>
<path d="M117.269 14.6689C116.786 14.6689 116.365 14.6056 116.003 14.4791C115.641 14.3525 115.357 14.1754 115.154 13.9476C114.95 13.7198 114.849 13.4508 114.849 13.1439C114.849 12.7817 114.967 12.4954 115.205 12.2865C115.442 12.0777 115.701 11.9259 115.985 11.8309C115.76 11.7677 115.577 11.6759 115.436 11.5525C115.295 11.4307 115.224 11.244 115.224 10.9909C115.224 10.7711 115.28 10.5986 115.393 10.4768C115.505 10.355 115.653 10.2538 115.836 10.1747C115.629 10.0022 115.468 9.78709 115.356 9.53082C115.243 9.27454 115.187 8.99296 115.187 8.68607V8.15454C115.187 7.77646 115.271 7.44109 115.436 7.15001C115.603 6.85894 115.837 6.62956 116.141 6.46504C116.444 6.29893 116.795 6.21667 117.195 6.21667C117.503 6.21667 117.781 6.26571 118.031 6.36379C118.28 6.46187 118.496 6.60267 118.679 6.78301C118.797 6.57894 118.941 6.40651 119.116 6.26888C119.291 6.13125 119.456 6.06165 119.615 6.06165C119.706 6.06165 119.772 6.08537 119.814 6.13283C119.856 6.18029 119.877 6.23566 119.877 6.29735C119.877 6.36854 119.854 6.42391 119.808 6.46346C119.761 6.503 119.71 6.52199 119.652 6.52199C119.544 6.52199 119.421 6.55679 119.284 6.62798C119.148 6.69916 119.02 6.8447 118.904 7.06459C119.012 7.20696 119.092 7.37148 119.142 7.56131C119.191 7.74956 119.217 7.94731 119.217 8.15137V8.6829C119.217 9.05307 119.132 9.38844 118.962 9.68743C118.792 9.98641 118.553 10.2205 118.244 10.3898C117.936 10.5591 117.583 10.6445 117.184 10.6445C116.784 10.6445 116.46 10.5622 116.161 10.3961C116.036 10.4515 115.922 10.5195 115.818 10.6034C115.714 10.6856 115.662 10.8059 115.662 10.964C115.662 11.1618 115.759 11.3026 115.95 11.3896C116.141 11.4766 116.386 11.5351 116.685 11.5668C116.985 11.5984 117.299 11.63 117.633 11.6617C117.965 11.6933 118.281 11.7518 118.581 11.8389C118.882 11.9259 119.125 12.0635 119.316 12.2517C119.507 12.44 119.604 12.7121 119.604 13.0664C119.604 13.4208 119.507 13.6929 119.316 13.9286C119.125 14.1643 118.857 14.3462 118.512 14.4728C118.167 14.5993 117.753 14.6626 117.272 14.6626L117.269 14.6689ZM117.269 14.2908C117.883 14.2908 118.354 14.1801 118.678 13.9602C119.002 13.7403 119.164 13.4477 119.164 13.0854C119.164 12.8022 119.071 12.5871 118.883 12.4416C118.695 12.296 118.461 12.1932 118.179 12.1347C117.896 12.0761 117.611 12.0366 117.325 12.016C117.038 11.997 116.795 11.9749 116.595 11.9512C116.262 12.0382 115.961 12.1695 115.691 12.3467C115.422 12.5238 115.285 12.7785 115.285 13.1091C115.285 13.4398 115.457 13.7387 115.804 13.9602C116.149 14.1801 116.636 14.2908 117.269 14.2908ZM117.206 10.2379C117.697 10.2379 118.081 10.0908 118.36 9.795C118.639 9.49918 118.777 9.13217 118.777 8.69081V8.15928C118.777 7.72584 118.638 7.36357 118.36 7.0725C118.081 6.78142 117.692 6.63589 117.193 6.63589C116.694 6.63589 116.307 6.78142 116.033 7.0725C115.759 7.36357 115.622 7.72584 115.622 8.15928V8.67974C115.622 9.1211 115.762 9.49127 116.039 9.79025C116.319 10.0892 116.707 10.2395 117.206 10.2395V10.2379Z" fill="white"/>
<rect x="54.4478" width="1.24757" height="15.5947" rx="0.623786" fill="#D9D9D9"/>
</svg>
