<svg width="48" height="48" viewBox="0 0 48 48" fill="none" xmlns="http://www.w3.org/2000/svg">
<rect x="2" y="2" width="44" height="44" rx="22" fill="#EAEAEC"/>
<rect x="2" y="2" width="44" height="44" rx="22" stroke="#EAEAEC" stroke-width="4"/>
<path d="M14.9043 14.2627C13.8484 14.2627 12.7402 14.7527 11.8796 15.5167L11.783 14.8611C11.7584 14.6961 11.6263 14.5564 11.4331 14.5564H10.5141C10.346 14.5564 10.209 14.6939 10.209 14.8611C10.209 19.0314 10.209 23.202 10.209 27.3722C10.209 27.5399 10.3464 27.6769 10.5141 27.6769H11.715C11.8827 27.6769 12.0197 27.5395 12.0197 27.3722V23.0518C12.7815 23.7311 13.772 24.1218 14.831 24.1218C17.3468 24.1218 18.8344 21.9437 18.8344 19.2329C18.8344 16.6995 17.8618 14.2627 14.9043 14.2627ZM16.106 22.0183C15.638 22.4797 15.1155 22.6053 14.3287 22.6053C13.6284 22.6053 12.7072 22.24 12.0192 21.7316V16.6108C12.7358 16.0607 13.6495 15.763 14.4113 15.763C16.4002 15.763 16.942 17.3269 16.942 19.1178C16.9534 20.3253 16.7313 21.4019 16.106 22.0183Z" fill="#333E47"/>
<path d="M27.6288 23.5887C27.6288 23.7564 27.4914 23.8934 27.3228 23.8934H26.4262C26.2326 23.8934 26.1004 23.7533 26.0754 23.5887L25.9854 22.9784C25.5735 23.327 25.0677 23.6335 24.5193 23.8468C23.4652 24.2565 22.2494 24.3241 21.2193 23.6914C20.4743 23.2343 20.0791 22.3404 20.0791 21.4179C20.0791 20.7045 20.2991 19.9971 20.7864 19.4839C21.4367 18.7823 22.3798 18.4376 23.5178 18.4376C24.2054 18.4376 25.1894 18.5184 25.9055 18.7524V17.5243C25.9055 16.2756 25.3799 15.7356 23.9938 15.7356C22.9343 15.7356 22.1238 15.8954 20.9963 16.2462C20.8158 16.2524 20.71 16.1149 20.71 15.9472V15.2469C20.71 15.0788 20.8536 14.9163 21.009 14.8671C21.8143 14.5159 22.9554 14.2972 24.1681 14.2568C25.7492 14.2568 27.6283 14.6134 27.6283 17.0453V23.5887H27.6288ZM25.9059 21.7955V19.9427C25.3044 19.778 24.3086 19.71 23.9235 19.71C23.315 19.71 22.6485 19.854 22.3003 20.2285C22.0404 20.5034 21.9227 20.8977 21.9227 21.2788C21.9227 21.7718 22.0931 22.2662 22.4918 22.5108C22.9545 22.8251 23.6724 22.7869 24.3468 22.5951C24.9948 22.4115 25.6038 22.0858 25.9059 21.7955Z" fill="#333E47"/>
<path d="M29.3248 27.3559C29.3248 27.1284 29.3248 26.9243 29.3248 26.6969C29.3248 26.5094 29.417 26.3798 29.6124 26.3917C29.9777 26.4435 30.494 26.4953 30.8611 26.4198C31.3401 26.3201 31.6834 25.9807 31.8867 25.5153C32.173 24.8603 32.3627 24.3321 32.4825 23.9856L28.8462 14.977C28.7847 14.8242 28.7667 14.5405 29.0719 14.5405H30.343C30.5853 14.5405 30.6841 14.6946 30.7386 14.8452L33.3751 22.1627L35.8918 14.8452C35.9432 14.6955 36.0464 14.5405 36.2866 14.5405H37.4852C37.7886 14.5405 37.7715 14.8237 37.7109 14.977L34.1035 24.2666C33.6368 25.503 33.0151 27.4727 31.6145 27.8147C30.9124 27.9982 30.0264 27.9319 29.5061 27.7142C29.3748 27.6483 29.3248 27.4722 29.3248 27.3559Z" fill="#333E47"/>
<path d="M41.155 26.9804C39.9256 26.9975 38.4741 27.2728 37.3729 28.0455C37.0331 28.2813 37.0928 28.6088 37.4708 28.5654C38.709 28.4165 41.465 28.0824 41.9576 28.712C42.4515 29.3416 41.4114 31.9391 40.9517 33.1009C40.8094 33.4473 41.1102 33.5909 41.4276 33.3274C43.4877 31.6019 44.0229 27.9845 43.6014 27.4642C43.3902 27.2038 42.3843 26.9632 41.155 26.9804Z" fill="#F79C34"/>
<path d="M4.50388 28.2979C4.21673 28.3374 4.09291 28.7014 4.39323 28.9898C9.55266 33.8292 16.3709 36.1988 23.9407 36.1988C29.3399 36.1988 35.6084 34.4373 39.9353 31.1175C40.6506 30.5656 40.0412 29.7384 39.3075 30.0651C34.4563 32.2055 29.1867 33.2373 24.3908 33.2373C17.2828 33.2373 10.4022 31.7533 4.83537 28.3826C4.71419 28.3088 4.59959 28.2847 4.50388 28.2979Z" fill="#F79C34"/>
</svg>
